G04*
G04 #@! TF.GenerationSoftware,Altium Limited,Altium Designer,19.1.5 (86)*
G04*
G04 Layer_Color=16711935*
%FSLAX25Y25*%
%MOIN*%
G70*
G01*
G75*
%ADD14C,0.07099*%
%ADD15C,0.06706*%
%ADD16C,0.07887*%
%ADD17C,0.06312*%
%ADD18O,0.14580X0.14580*%
%ADD19C,0.08674*%
%ADD20C,0.18300*%
%ADD21C,0.02800*%
%ADD46R,0.02756X0.02756*%
%ADD47R,0.05721X0.08674*%
%ADD48R,0.02756X0.02756*%
%ADD49O,0.06312X0.02572*%
%ADD50O,0.07493X0.02178*%
%ADD51O,0.02178X0.07493*%
%ADD52R,0.10642X0.04737*%
%ADD53R,0.04737X0.05131*%
%ADD54R,0.04343X0.04540*%
%ADD55R,0.04343X0.04540*%
%ADD56R,0.08989X0.03556*%
%ADD57R,0.14186X0.05918*%
D14*
X612641Y346539D02*
D03*
X837641D02*
D03*
D15*
X612641Y306776D02*
D03*
X837641D02*
D03*
D16*
X1025141Y27071D02*
D03*
X1005456Y35339D02*
D03*
X837641Y27071D02*
D03*
X817956Y35339D02*
D03*
X1175141Y327071D02*
D03*
X1155456Y335339D02*
D03*
X50141Y327071D02*
D03*
X30456Y335339D02*
D03*
X1400141Y64571D02*
D03*
X1380456Y72839D02*
D03*
X1325141Y27071D02*
D03*
X1305456Y35339D02*
D03*
X1250141Y27071D02*
D03*
X1230456Y35339D02*
D03*
X1325141Y102071D02*
D03*
X1305456Y110339D02*
D03*
X1250141Y102071D02*
D03*
X1230456Y110339D02*
D03*
X1175141Y102071D02*
D03*
X1155456Y110339D02*
D03*
X1400141Y214571D02*
D03*
X1380456Y222839D02*
D03*
X1325141Y177071D02*
D03*
X1305456Y185339D02*
D03*
X1250141Y177071D02*
D03*
X1230456Y185339D02*
D03*
X1175141Y177071D02*
D03*
X1155456Y185339D02*
D03*
X1325141Y252071D02*
D03*
X1305456Y260339D02*
D03*
X1250141Y252071D02*
D03*
X1230456Y260339D02*
D03*
X1175141Y252071D02*
D03*
X1155456Y260339D02*
D03*
X1100141Y102071D02*
D03*
X1080456Y110339D02*
D03*
X1175141Y27071D02*
D03*
X1155456Y35339D02*
D03*
X1100141Y27071D02*
D03*
X1080456Y35339D02*
D03*
X940766Y27071D02*
D03*
X921081Y35339D02*
D03*
X743891Y27071D02*
D03*
X724206Y35339D02*
D03*
X650141Y27071D02*
D03*
X630456Y35339D02*
D03*
X556391Y27071D02*
D03*
X536706Y35339D02*
D03*
X481391Y27071D02*
D03*
X461706Y35339D02*
D03*
X387641Y27071D02*
D03*
X367956Y35339D02*
D03*
X293891Y27071D02*
D03*
X274206Y35339D02*
D03*
X218891Y27071D02*
D03*
X199206Y35339D02*
D03*
X143891Y27071D02*
D03*
X124206Y35339D02*
D03*
X59516Y27071D02*
D03*
X39831Y35339D02*
D03*
X997016Y102071D02*
D03*
X977331Y110339D02*
D03*
X893891Y102071D02*
D03*
X874206Y110339D02*
D03*
X818891Y102071D02*
D03*
X799206Y110339D02*
D03*
X743891Y102071D02*
D03*
X724206Y110339D02*
D03*
X668891Y102071D02*
D03*
X649206Y110339D02*
D03*
X593891Y102071D02*
D03*
X574206Y110339D02*
D03*
X518891Y102071D02*
D03*
X499206Y110339D02*
D03*
X443891Y102071D02*
D03*
X424206Y110339D02*
D03*
X368891Y102071D02*
D03*
X349206Y110339D02*
D03*
X293891Y102071D02*
D03*
X274206Y110339D02*
D03*
X218891Y102071D02*
D03*
X199206Y110339D02*
D03*
X106391Y102071D02*
D03*
X86706Y110339D02*
D03*
X1053266Y177071D02*
D03*
X1033581Y185339D02*
D03*
X931391Y177071D02*
D03*
X911706Y185339D02*
D03*
X856391Y177071D02*
D03*
X836706Y185339D02*
D03*
X781391Y177071D02*
D03*
X761706Y185339D02*
D03*
X706391Y177071D02*
D03*
X686706Y185339D02*
D03*
X631391Y177071D02*
D03*
X611706Y185339D02*
D03*
X556391Y177071D02*
D03*
X536706Y185339D02*
D03*
X481391Y177071D02*
D03*
X461706Y185339D02*
D03*
X406391Y177071D02*
D03*
X386706Y185339D02*
D03*
X331391Y177071D02*
D03*
X311706Y185339D02*
D03*
X256391Y177071D02*
D03*
X236706Y185339D02*
D03*
X181391Y177071D02*
D03*
X161706Y185339D02*
D03*
X87641Y177071D02*
D03*
X67956Y185339D02*
D03*
X1081391Y252071D02*
D03*
X1061706Y260339D02*
D03*
X987641Y252071D02*
D03*
X967956Y260339D02*
D03*
X912641Y252071D02*
D03*
X892956Y260339D02*
D03*
X837641Y252071D02*
D03*
X817956Y260339D02*
D03*
X762641Y252071D02*
D03*
X742956Y260339D02*
D03*
X687641Y252071D02*
D03*
X667956Y260339D02*
D03*
X612641Y252071D02*
D03*
X592956Y260339D02*
D03*
X537641Y252071D02*
D03*
X517956Y260339D02*
D03*
X462641Y252071D02*
D03*
X442956Y260339D02*
D03*
X387641Y252071D02*
D03*
X367956Y260339D02*
D03*
X312641Y252071D02*
D03*
X292956Y260339D02*
D03*
X237641Y252071D02*
D03*
X217956Y260339D02*
D03*
X162641Y252071D02*
D03*
X142956Y260339D02*
D03*
X68891Y252071D02*
D03*
X49206Y260339D02*
D03*
X1400141Y327071D02*
D03*
X1380456Y335339D02*
D03*
X1325141Y327071D02*
D03*
X1305456Y335339D02*
D03*
X1249320Y326689D02*
D03*
X1229635Y334957D02*
D03*
X1062641Y327071D02*
D03*
X1042956Y335339D02*
D03*
X950141Y327071D02*
D03*
X930456Y335339D02*
D03*
X875141Y327071D02*
D03*
X855456Y335339D02*
D03*
X800141Y327071D02*
D03*
X780456Y335339D02*
D03*
X725141Y327071D02*
D03*
X705456Y335339D02*
D03*
X650141Y327071D02*
D03*
X630456Y335339D02*
D03*
X575141Y327071D02*
D03*
X555456Y335339D02*
D03*
X500141Y327071D02*
D03*
X480456Y335339D02*
D03*
X425141Y327071D02*
D03*
X405456Y335339D02*
D03*
X350141Y327071D02*
D03*
X330456Y335339D02*
D03*
X275141Y327071D02*
D03*
X255456Y335339D02*
D03*
X200141Y327071D02*
D03*
X180456Y335339D02*
D03*
X125141Y327071D02*
D03*
X105456Y335339D02*
D03*
D17*
X1004590Y66835D02*
D03*
X817090D02*
D03*
X1154590Y366835D02*
D03*
X29590D02*
D03*
X1379590Y104335D02*
D03*
X1304590Y66835D02*
D03*
X1229590D02*
D03*
X1304590Y141835D02*
D03*
X1229590D02*
D03*
X1154590D02*
D03*
X1379590Y254335D02*
D03*
X1304590Y216835D02*
D03*
X1229590D02*
D03*
X1154590D02*
D03*
X1304590Y291835D02*
D03*
X1229590D02*
D03*
X1154590D02*
D03*
X1079590Y141835D02*
D03*
X1154590Y66835D02*
D03*
X1079590D02*
D03*
X920215D02*
D03*
X723340D02*
D03*
X629590D02*
D03*
X535840D02*
D03*
X460840D02*
D03*
X367090D02*
D03*
X273340D02*
D03*
X198340D02*
D03*
X123340D02*
D03*
X38965D02*
D03*
X976465Y141835D02*
D03*
X873340D02*
D03*
X798340D02*
D03*
X723340D02*
D03*
X648340D02*
D03*
X573340D02*
D03*
X498340D02*
D03*
X423340D02*
D03*
X348340D02*
D03*
X273340D02*
D03*
X198340D02*
D03*
X85840D02*
D03*
X1032715Y216835D02*
D03*
X910840D02*
D03*
X835840D02*
D03*
X760840D02*
D03*
X685840D02*
D03*
X610840D02*
D03*
X535840D02*
D03*
X460840D02*
D03*
X385840D02*
D03*
X310840D02*
D03*
X235840D02*
D03*
X160840D02*
D03*
X67090D02*
D03*
X1060840Y291835D02*
D03*
X967090D02*
D03*
X892090D02*
D03*
X817090D02*
D03*
X742090D02*
D03*
X667090D02*
D03*
X592090D02*
D03*
X517090D02*
D03*
X442090D02*
D03*
X367090D02*
D03*
X292090D02*
D03*
X217090D02*
D03*
X142090D02*
D03*
X48340D02*
D03*
X1379590Y366835D02*
D03*
X1304590D02*
D03*
X1228769Y366453D02*
D03*
X1042090Y366835D02*
D03*
X929590D02*
D03*
X854590D02*
D03*
X779590D02*
D03*
X704590D02*
D03*
X629590D02*
D03*
X554590D02*
D03*
X479590D02*
D03*
X404590D02*
D03*
X329590D02*
D03*
X254590D02*
D03*
X179590D02*
D03*
X104590D02*
D03*
D18*
X1025141Y50299D02*
D03*
X837641D02*
D03*
X1175141Y350299D02*
D03*
X50141D02*
D03*
X1400141Y87799D02*
D03*
X1325141Y50299D02*
D03*
X1250141D02*
D03*
X1325141Y125299D02*
D03*
X1250141D02*
D03*
X1175141D02*
D03*
X1400141Y237799D02*
D03*
X1325141Y200299D02*
D03*
X1250141D02*
D03*
X1175141D02*
D03*
X1325141Y275299D02*
D03*
X1250141D02*
D03*
X1175141D02*
D03*
X1100141Y125299D02*
D03*
X1175141Y50299D02*
D03*
X1100141D02*
D03*
X940766D02*
D03*
X743891D02*
D03*
X650141D02*
D03*
X556391D02*
D03*
X481391D02*
D03*
X387641D02*
D03*
X293891D02*
D03*
X218891D02*
D03*
X143891D02*
D03*
X59516D02*
D03*
X997016Y125299D02*
D03*
X893891D02*
D03*
X818891D02*
D03*
X743891D02*
D03*
X668891D02*
D03*
X593891D02*
D03*
X518891D02*
D03*
X443891D02*
D03*
X368891D02*
D03*
X293891D02*
D03*
X218891D02*
D03*
X106391D02*
D03*
X1053266Y200299D02*
D03*
X931391D02*
D03*
X856391D02*
D03*
X781391D02*
D03*
X706391D02*
D03*
X631391D02*
D03*
X556391D02*
D03*
X481391D02*
D03*
X406391D02*
D03*
X331391D02*
D03*
X256391D02*
D03*
X181391D02*
D03*
X87641D02*
D03*
X1081391Y275299D02*
D03*
X987641D02*
D03*
X912641D02*
D03*
X837641D02*
D03*
X762641D02*
D03*
X687641D02*
D03*
X612641D02*
D03*
X537641D02*
D03*
X462641D02*
D03*
X387641D02*
D03*
X312641D02*
D03*
X237641D02*
D03*
X162641D02*
D03*
X68891D02*
D03*
X1400141Y350299D02*
D03*
X1325141D02*
D03*
X1249320Y349917D02*
D03*
X1062641Y350299D02*
D03*
X950141D02*
D03*
X875141D02*
D03*
X800141D02*
D03*
X725141D02*
D03*
X650141D02*
D03*
X575141D02*
D03*
X500141D02*
D03*
X425141D02*
D03*
X350141D02*
D03*
X275141D02*
D03*
X200141D02*
D03*
X125141D02*
D03*
D19*
X1003488Y50299D02*
D03*
X1046795D02*
D03*
X815988D02*
D03*
X859295D02*
D03*
X1153488Y350299D02*
D03*
X1196795D02*
D03*
X28488D02*
D03*
X71795D02*
D03*
X1378488Y87799D02*
D03*
X1421795D02*
D03*
X1303488Y50299D02*
D03*
X1346795D02*
D03*
X1228488D02*
D03*
X1271795D02*
D03*
X1303488Y125299D02*
D03*
X1346795D02*
D03*
X1228488D02*
D03*
X1271795D02*
D03*
X1153488D02*
D03*
X1196795D02*
D03*
X1378488Y237799D02*
D03*
X1421795D02*
D03*
X1303488Y200299D02*
D03*
X1346795D02*
D03*
X1228488D02*
D03*
X1271795D02*
D03*
X1153488D02*
D03*
X1196795D02*
D03*
X1303488Y275299D02*
D03*
X1346795D02*
D03*
X1228488D02*
D03*
X1271795D02*
D03*
X1153488D02*
D03*
X1196795D02*
D03*
X1078488Y125299D02*
D03*
X1121795D02*
D03*
X1153488Y50299D02*
D03*
X1196795D02*
D03*
X1078488D02*
D03*
X1121795D02*
D03*
X919113D02*
D03*
X962420D02*
D03*
X722238D02*
D03*
X765545D02*
D03*
X628488D02*
D03*
X671795D02*
D03*
X534738D02*
D03*
X578045D02*
D03*
X459738D02*
D03*
X503045D02*
D03*
X365988D02*
D03*
X409295D02*
D03*
X272238D02*
D03*
X315545D02*
D03*
X197238D02*
D03*
X240545D02*
D03*
X122238D02*
D03*
X165545D02*
D03*
X37863D02*
D03*
X81170D02*
D03*
X975363Y125299D02*
D03*
X1018670D02*
D03*
X872238D02*
D03*
X915545D02*
D03*
X797238D02*
D03*
X840545D02*
D03*
X722238D02*
D03*
X765545D02*
D03*
X647238D02*
D03*
X690545D02*
D03*
X572238D02*
D03*
X615545D02*
D03*
X497238D02*
D03*
X540545D02*
D03*
X422238D02*
D03*
X465545D02*
D03*
X347238D02*
D03*
X390545D02*
D03*
X272238D02*
D03*
X315545D02*
D03*
X197238D02*
D03*
X240545D02*
D03*
X84738D02*
D03*
X128045D02*
D03*
X1031613Y200299D02*
D03*
X1074920D02*
D03*
X909738D02*
D03*
X953045D02*
D03*
X834738D02*
D03*
X878045D02*
D03*
X759738D02*
D03*
X803045D02*
D03*
X684738D02*
D03*
X728045D02*
D03*
X609738D02*
D03*
X653045D02*
D03*
X534738D02*
D03*
X578045D02*
D03*
X459738D02*
D03*
X503045D02*
D03*
X384738D02*
D03*
X428045D02*
D03*
X309738D02*
D03*
X353045D02*
D03*
X234738D02*
D03*
X278045D02*
D03*
X159738D02*
D03*
X203045D02*
D03*
X65988D02*
D03*
X109295D02*
D03*
X1059738Y275299D02*
D03*
X1103045D02*
D03*
X965988D02*
D03*
X1009295D02*
D03*
X890988D02*
D03*
X934295D02*
D03*
X815988D02*
D03*
X859295D02*
D03*
X740988D02*
D03*
X784295D02*
D03*
X665988D02*
D03*
X709295D02*
D03*
X590988D02*
D03*
X634295D02*
D03*
X515988D02*
D03*
X559295D02*
D03*
X440988D02*
D03*
X484295D02*
D03*
X365988D02*
D03*
X409295D02*
D03*
X290988D02*
D03*
X334295D02*
D03*
X215988D02*
D03*
X259295D02*
D03*
X140988D02*
D03*
X184295D02*
D03*
X47238D02*
D03*
X90545D02*
D03*
X1378488Y350299D02*
D03*
X1421795D02*
D03*
X1303488D02*
D03*
X1346795D02*
D03*
X1227667Y349917D02*
D03*
X1270974D02*
D03*
X1040988Y350299D02*
D03*
X1084295D02*
D03*
X928488D02*
D03*
X971795D02*
D03*
X853488D02*
D03*
X896795D02*
D03*
X778488D02*
D03*
X821795D02*
D03*
X703488D02*
D03*
X746795D02*
D03*
X628488D02*
D03*
X671795D02*
D03*
X553488D02*
D03*
X596795D02*
D03*
X478488D02*
D03*
X521795D02*
D03*
X403488D02*
D03*
X446795D02*
D03*
X328488D02*
D03*
X371795D02*
D03*
X253488D02*
D03*
X296795D02*
D03*
X178488D02*
D03*
X221795D02*
D03*
X103488D02*
D03*
X146795D02*
D03*
D20*
X1016000Y164500D02*
D03*
X744000D02*
D03*
X575000Y239500D02*
D03*
X444000Y164500D02*
D03*
X1135500Y352000D02*
D03*
X312500Y345000D02*
D03*
X537500D02*
D03*
X912500D02*
D03*
X875500Y239500D02*
D03*
X275000D02*
D03*
X1212500Y237500D02*
D03*
X983000Y46000D02*
D03*
X696500D02*
D03*
X340500D02*
D03*
X115500Y303000D02*
D03*
X46000Y96000D02*
D03*
X1404500Y295500D02*
D03*
Y46000D02*
D03*
D21*
X687500Y365000D02*
D03*
D46*
X72250Y336250D02*
D03*
X69053D02*
D03*
X521750D02*
D03*
X518553D02*
D03*
X1196903D02*
D03*
X1193707D02*
D03*
X1126670Y317479D02*
D03*
X1129867D02*
D03*
X1013713D02*
D03*
X1016909D02*
D03*
X1033553Y305750D02*
D03*
X1036750D02*
D03*
D47*
X1389825Y74250D02*
D03*
X1404588D02*
D03*
X1314825Y36750D02*
D03*
X1329588D02*
D03*
X1239825D02*
D03*
X1254589D02*
D03*
X1314825Y111750D02*
D03*
X1329588D02*
D03*
X1239825D02*
D03*
X1254588D02*
D03*
X1164825D02*
D03*
X1179588D02*
D03*
X1389825Y224250D02*
D03*
X1404588D02*
D03*
X1314825Y186750D02*
D03*
X1329588D02*
D03*
X1239825D02*
D03*
X1254588D02*
D03*
X1164825D02*
D03*
X1179588D02*
D03*
X1314825Y261750D02*
D03*
X1329588D02*
D03*
X1239825D02*
D03*
X1254588D02*
D03*
X1164825D02*
D03*
X1179588D02*
D03*
X1089825Y111750D02*
D03*
X1104589D02*
D03*
X1164825Y36750D02*
D03*
X1179589D02*
D03*
X1089825D02*
D03*
X1104589D02*
D03*
X1014825D02*
D03*
X1029589D02*
D03*
X930450D02*
D03*
X945214D02*
D03*
X827325D02*
D03*
X842089D02*
D03*
X733575D02*
D03*
X748339D02*
D03*
X639825D02*
D03*
X654589D02*
D03*
X546075D02*
D03*
X560839D02*
D03*
X471075D02*
D03*
X485839D02*
D03*
X377325D02*
D03*
X392089D02*
D03*
X283575D02*
D03*
X298339D02*
D03*
X208575D02*
D03*
X223339D02*
D03*
X133575D02*
D03*
X148339D02*
D03*
X49200D02*
D03*
X63964D02*
D03*
X986700Y111750D02*
D03*
X1001464D02*
D03*
X883575D02*
D03*
X898339D02*
D03*
X808575D02*
D03*
X823339D02*
D03*
X733575D02*
D03*
X748339D02*
D03*
X658575D02*
D03*
X673339D02*
D03*
X583575D02*
D03*
X598339D02*
D03*
X508575D02*
D03*
X523339D02*
D03*
X433575D02*
D03*
X448339D02*
D03*
X358575D02*
D03*
X373339D02*
D03*
X283575D02*
D03*
X298339D02*
D03*
X208575D02*
D03*
X223339D02*
D03*
X96075D02*
D03*
X110839D02*
D03*
X1042950Y186750D02*
D03*
X1057714D02*
D03*
X921075D02*
D03*
X935839D02*
D03*
X846075D02*
D03*
X860839D02*
D03*
X771075D02*
D03*
X785839D02*
D03*
X696075D02*
D03*
X710839D02*
D03*
X621075D02*
D03*
X635839D02*
D03*
X546075D02*
D03*
X560839D02*
D03*
X471075D02*
D03*
X485839D02*
D03*
X396075D02*
D03*
X410839D02*
D03*
X321075D02*
D03*
X335839D02*
D03*
X246075D02*
D03*
X260839D02*
D03*
X171075D02*
D03*
X185839D02*
D03*
X77325D02*
D03*
X92089D02*
D03*
X1071075Y261750D02*
D03*
X1085839D02*
D03*
X977325D02*
D03*
X992089D02*
D03*
X902325D02*
D03*
X917089D02*
D03*
X827325D02*
D03*
X842089D02*
D03*
X752325D02*
D03*
X767089D02*
D03*
X677325D02*
D03*
X692089D02*
D03*
X602325D02*
D03*
X617089D02*
D03*
X527325D02*
D03*
X542089D02*
D03*
X452325D02*
D03*
X467089D02*
D03*
X377325D02*
D03*
X392089D02*
D03*
X302325D02*
D03*
X317089D02*
D03*
X227325D02*
D03*
X242089D02*
D03*
X152325D02*
D03*
X167089D02*
D03*
X58575D02*
D03*
X73339D02*
D03*
X1389825Y336750D02*
D03*
X1404588D02*
D03*
X1314825D02*
D03*
X1329588D02*
D03*
X1239004Y336368D02*
D03*
X1253768D02*
D03*
X1164825Y336750D02*
D03*
X1179588D02*
D03*
X1052325D02*
D03*
X1067089D02*
D03*
X939825D02*
D03*
X954589D02*
D03*
X864825D02*
D03*
X879589D02*
D03*
X789825D02*
D03*
X804589D02*
D03*
X714825D02*
D03*
X729589D02*
D03*
X639825D02*
D03*
X654589D02*
D03*
X564825D02*
D03*
X579589D02*
D03*
X489825D02*
D03*
X504589D02*
D03*
X414825D02*
D03*
X429589D02*
D03*
X339825D02*
D03*
X354589D02*
D03*
X264825D02*
D03*
X279589D02*
D03*
X189825D02*
D03*
X204589D02*
D03*
X114825D02*
D03*
X129589D02*
D03*
X39825D02*
D03*
X54589D02*
D03*
D48*
X37250Y358750D02*
D03*
Y361947D02*
D03*
X542750Y362447D02*
D03*
Y359250D02*
D03*
X1024213Y317282D02*
D03*
Y320479D02*
D03*
X1042750Y264947D02*
D03*
Y261750D02*
D03*
X987213Y345176D02*
D03*
Y341979D02*
D03*
X1038250Y264947D02*
D03*
Y261750D02*
D03*
X1137170Y324979D02*
D03*
Y328176D02*
D03*
X1100170Y334282D02*
D03*
Y337479D02*
D03*
X1024213Y324782D02*
D03*
Y327979D02*
D03*
X987213Y337479D02*
D03*
Y334282D02*
D03*
X1022250Y277947D02*
D03*
Y274750D02*
D03*
X1137170Y317479D02*
D03*
Y320676D02*
D03*
X1100170Y345176D02*
D03*
Y341979D02*
D03*
X1033750Y264947D02*
D03*
Y261750D02*
D03*
X1029250Y264947D02*
D03*
Y261750D02*
D03*
X1416207Y106250D02*
D03*
Y103053D02*
D03*
X1341207Y68750D02*
D03*
Y65553D02*
D03*
X1266207Y68750D02*
D03*
Y65553D02*
D03*
X1341207Y143750D02*
D03*
Y140553D02*
D03*
X1266207Y143750D02*
D03*
Y140553D02*
D03*
X1191207Y143750D02*
D03*
Y140553D02*
D03*
X1416207Y256250D02*
D03*
Y253053D02*
D03*
X1341207Y218750D02*
D03*
Y215553D02*
D03*
X1266207Y218750D02*
D03*
Y215553D02*
D03*
X1191207Y218750D02*
D03*
Y215553D02*
D03*
X1341207Y293750D02*
D03*
Y290553D02*
D03*
X1266207Y293750D02*
D03*
Y290553D02*
D03*
X1191207Y293750D02*
D03*
Y290553D02*
D03*
X1116207Y143750D02*
D03*
Y140553D02*
D03*
X1191207Y68750D02*
D03*
Y65553D02*
D03*
X1116207Y68750D02*
D03*
Y65553D02*
D03*
X1041207Y68750D02*
D03*
Y65553D02*
D03*
X956832Y68750D02*
D03*
Y65553D02*
D03*
X853707Y68750D02*
D03*
Y65553D02*
D03*
X759957Y68750D02*
D03*
Y65553D02*
D03*
X666207Y68750D02*
D03*
Y65553D02*
D03*
X572457Y68750D02*
D03*
Y65553D02*
D03*
X497457Y68750D02*
D03*
Y65553D02*
D03*
X403707Y68750D02*
D03*
Y65553D02*
D03*
X309957Y68750D02*
D03*
Y65553D02*
D03*
X234957Y68750D02*
D03*
Y65553D02*
D03*
X159957Y68750D02*
D03*
Y65553D02*
D03*
X75582Y68750D02*
D03*
Y65553D02*
D03*
X1013082Y143750D02*
D03*
Y140553D02*
D03*
X909957Y143750D02*
D03*
Y140553D02*
D03*
X834957Y143750D02*
D03*
Y140553D02*
D03*
X759957Y143750D02*
D03*
Y140553D02*
D03*
X684957Y143750D02*
D03*
Y140553D02*
D03*
X609957Y143750D02*
D03*
Y140553D02*
D03*
X534957Y143750D02*
D03*
Y140553D02*
D03*
X459957Y143750D02*
D03*
Y140553D02*
D03*
X384957Y143750D02*
D03*
Y140553D02*
D03*
X309957Y143750D02*
D03*
Y140553D02*
D03*
X234957Y143750D02*
D03*
Y140553D02*
D03*
X122457Y143750D02*
D03*
Y140553D02*
D03*
X1069332Y218750D02*
D03*
Y215553D02*
D03*
X947457Y218750D02*
D03*
Y215553D02*
D03*
X872457Y218750D02*
D03*
Y215553D02*
D03*
X797457Y218750D02*
D03*
Y215553D02*
D03*
X722457Y218750D02*
D03*
Y215553D02*
D03*
X647457Y218750D02*
D03*
Y215553D02*
D03*
X572457Y218750D02*
D03*
Y215553D02*
D03*
X497457Y218750D02*
D03*
Y215553D02*
D03*
X422457Y218750D02*
D03*
Y215553D02*
D03*
X347457Y218750D02*
D03*
Y215553D02*
D03*
X272457Y218750D02*
D03*
Y215553D02*
D03*
X197457Y218750D02*
D03*
Y215553D02*
D03*
X103707Y218750D02*
D03*
Y215553D02*
D03*
X1097457Y293750D02*
D03*
Y290553D02*
D03*
X1003707Y293750D02*
D03*
Y290553D02*
D03*
X928707Y293750D02*
D03*
Y290553D02*
D03*
X853707Y293750D02*
D03*
Y290553D02*
D03*
X778707Y293750D02*
D03*
Y290553D02*
D03*
X703707Y293750D02*
D03*
Y290553D02*
D03*
X628707Y293750D02*
D03*
Y290553D02*
D03*
X553707Y293750D02*
D03*
Y290553D02*
D03*
X478707Y293750D02*
D03*
Y290553D02*
D03*
X403707Y293750D02*
D03*
Y290553D02*
D03*
X328707Y293750D02*
D03*
Y290553D02*
D03*
X253707Y293750D02*
D03*
Y290553D02*
D03*
X178707Y293750D02*
D03*
Y290553D02*
D03*
X84957Y293750D02*
D03*
Y290553D02*
D03*
X1416207Y368750D02*
D03*
Y365553D02*
D03*
X1341207Y368750D02*
D03*
Y365553D02*
D03*
X1265386Y368368D02*
D03*
Y365171D02*
D03*
X1191207Y368750D02*
D03*
Y365553D02*
D03*
X1078707Y368750D02*
D03*
Y365553D02*
D03*
X966207Y368750D02*
D03*
Y365553D02*
D03*
X891207Y368750D02*
D03*
Y365553D02*
D03*
X816207Y368750D02*
D03*
Y365553D02*
D03*
X688707Y327250D02*
D03*
Y324053D02*
D03*
X666207Y368750D02*
D03*
Y365553D02*
D03*
X591207Y368750D02*
D03*
Y365553D02*
D03*
X516207Y368750D02*
D03*
Y365553D02*
D03*
X441207Y368750D02*
D03*
Y365553D02*
D03*
X366207Y368750D02*
D03*
Y365553D02*
D03*
X291207Y368750D02*
D03*
Y365553D02*
D03*
X216207Y368750D02*
D03*
Y365553D02*
D03*
X141207Y368750D02*
D03*
Y365553D02*
D03*
X66207Y368750D02*
D03*
Y365553D02*
D03*
X1416207Y114000D02*
D03*
Y110803D02*
D03*
D49*
X91978Y330250D02*
D03*
Y327691D02*
D03*
Y325132D02*
D03*
Y322573D02*
D03*
Y320014D02*
D03*
Y317455D02*
D03*
Y314896D02*
D03*
X68750Y330250D02*
D03*
Y327691D02*
D03*
Y325132D02*
D03*
Y322573D02*
D03*
Y320014D02*
D03*
Y317455D02*
D03*
Y314896D02*
D03*
X541864Y330427D02*
D03*
Y327868D02*
D03*
Y325309D02*
D03*
Y322750D02*
D03*
Y320191D02*
D03*
Y317632D02*
D03*
Y315073D02*
D03*
X518636Y330427D02*
D03*
Y327868D02*
D03*
Y325309D02*
D03*
Y322750D02*
D03*
Y320191D02*
D03*
Y317632D02*
D03*
Y315073D02*
D03*
X1216821Y330927D02*
D03*
Y328368D02*
D03*
Y325809D02*
D03*
Y323250D02*
D03*
Y320691D02*
D03*
Y318132D02*
D03*
Y315573D02*
D03*
X1193592Y330927D02*
D03*
Y328368D02*
D03*
Y325809D02*
D03*
Y323250D02*
D03*
Y320691D02*
D03*
Y318132D02*
D03*
Y315573D02*
D03*
D50*
X1129898Y339913D02*
D03*
Y337354D02*
D03*
Y334795D02*
D03*
Y332236D02*
D03*
Y329677D02*
D03*
Y327118D02*
D03*
Y324559D02*
D03*
Y322000D02*
D03*
X1107457Y339913D02*
D03*
Y337354D02*
D03*
Y334795D02*
D03*
Y332236D02*
D03*
Y329677D02*
D03*
Y327118D02*
D03*
Y324559D02*
D03*
Y322000D02*
D03*
X1016941Y339913D02*
D03*
Y337354D02*
D03*
Y334795D02*
D03*
Y332236D02*
D03*
Y329677D02*
D03*
Y327118D02*
D03*
Y324559D02*
D03*
Y322000D02*
D03*
X994500Y339913D02*
D03*
Y337354D02*
D03*
Y334795D02*
D03*
Y332236D02*
D03*
Y329677D02*
D03*
Y327118D02*
D03*
Y324559D02*
D03*
Y322000D02*
D03*
D51*
X1044685Y274522D02*
D03*
X1042126D02*
D03*
X1039567D02*
D03*
X1037007D02*
D03*
X1034448D02*
D03*
X1031889D02*
D03*
X1029330D02*
D03*
X1026771D02*
D03*
X1044685Y296963D02*
D03*
X1042126D02*
D03*
X1039567D02*
D03*
X1037007D02*
D03*
X1034448D02*
D03*
X1031889D02*
D03*
X1029330D02*
D03*
X1026771D02*
D03*
D52*
X1212707Y194344D02*
D03*
Y206156D02*
D03*
X219000Y194344D02*
D03*
Y206156D02*
D03*
X744000Y194344D02*
D03*
Y206156D02*
D03*
D53*
X781500Y128250D02*
D03*
Y121557D02*
D03*
X950250Y273596D02*
D03*
Y266904D02*
D03*
X1137707Y128250D02*
D03*
Y121557D02*
D03*
X1287707Y273596D02*
D03*
Y266904D02*
D03*
X163000Y128250D02*
D03*
Y121557D02*
D03*
X350250Y273596D02*
D03*
Y266904D02*
D03*
X481500Y128250D02*
D03*
Y121557D02*
D03*
X650250Y273596D02*
D03*
Y266904D02*
D03*
X162500Y328096D02*
D03*
Y321404D02*
D03*
X462500Y328096D02*
D03*
Y321404D02*
D03*
X912250Y328096D02*
D03*
Y321404D02*
D03*
X1287207Y328096D02*
D03*
Y321404D02*
D03*
D54*
X537990Y359124D02*
D03*
X534250Y368376D02*
D03*
D55*
X530510Y359124D02*
D03*
D56*
X620358Y312878D02*
D03*
Y320752D02*
D03*
Y316815D02*
D03*
Y328626D02*
D03*
Y324689D02*
D03*
Y336500D02*
D03*
Y332563D02*
D03*
X829925Y318783D02*
D03*
Y326658D02*
D03*
Y334531D02*
D03*
X845358Y312878D02*
D03*
Y320752D02*
D03*
Y316815D02*
D03*
Y328626D02*
D03*
Y324689D02*
D03*
Y336500D02*
D03*
Y332563D02*
D03*
X620358Y340437D02*
D03*
X829925Y330594D02*
D03*
Y322721D02*
D03*
Y314846D02*
D03*
Y338469D02*
D03*
X845358Y340437D02*
D03*
X604925Y318783D02*
D03*
Y326658D02*
D03*
Y334531D02*
D03*
Y330594D02*
D03*
Y322721D02*
D03*
Y314846D02*
D03*
Y338469D02*
D03*
D57*
X612641Y302221D02*
D03*
Y351095D02*
D03*
X837641Y302221D02*
D03*
Y351095D02*
D03*
M02*
