G04*
G04 #@! TF.GenerationSoftware,Altium Limited,Altium Designer,19.1.5 (86)*
G04*
G04 Layer_Color=32896*
%FSLAX25Y25*%
%MOIN*%
G70*
G01*
G75*
%ADD10C,0.01000*%
%ADD11C,0.00500*%
%ADD70C,0.00984*%
%ADD71C,0.02362*%
%ADD72C,0.00800*%
%ADD73C,0.00787*%
%ADD74C,0.00799*%
D10*
X1393207Y78250D02*
X1401207D01*
X1393207Y70250D02*
X1401207D01*
X1400207D02*
Y78250D01*
X1318207Y40750D02*
X1326207D01*
X1318207Y32750D02*
X1326207D01*
X1325207D02*
Y40750D01*
X1243207D02*
X1251207D01*
X1243207Y32750D02*
X1251207D01*
X1250207D02*
Y40750D01*
X1318207Y115750D02*
X1326207D01*
X1318207Y107750D02*
X1326207D01*
X1325207D02*
Y115750D01*
X1243207D02*
X1251207D01*
X1243207Y107750D02*
X1251207D01*
X1250207D02*
Y115750D01*
X1168207D02*
X1176207D01*
X1168207Y107750D02*
X1176207D01*
X1175207D02*
Y115750D01*
X1393207Y228250D02*
X1401207D01*
X1393207Y220250D02*
X1401207D01*
X1400207D02*
Y228250D01*
X1318207Y190750D02*
X1326207D01*
X1318207Y182750D02*
X1326207D01*
X1325207D02*
Y190750D01*
X1243207D02*
X1251207D01*
X1243207Y182750D02*
X1251207D01*
X1250207D02*
Y190750D01*
X1168207D02*
X1176207D01*
X1168207Y182750D02*
X1176207D01*
X1175207D02*
Y190750D01*
X1318207Y265750D02*
X1326207D01*
X1318207Y257750D02*
X1326207D01*
X1325207D02*
Y265750D01*
X1243207D02*
X1251207D01*
X1243207Y257750D02*
X1251207D01*
X1250207D02*
Y265750D01*
X1168207D02*
X1176207D01*
X1168207Y257750D02*
X1176207D01*
X1175207D02*
Y265750D01*
X1093207Y115750D02*
X1101206D01*
X1093207Y107750D02*
X1101206D01*
X1100206D02*
Y115750D01*
X1168207Y40750D02*
X1176206D01*
X1168207Y32750D02*
X1176206D01*
X1175206D02*
Y40750D01*
X1093207D02*
X1101206D01*
X1093207Y32750D02*
X1101206D01*
X1100206D02*
Y40750D01*
X1018207D02*
X1026206D01*
X1018207Y32750D02*
X1026206D01*
X1025206D02*
Y40750D01*
X933832D02*
X941832D01*
X933832Y32750D02*
X941832D01*
X940832D02*
Y40750D01*
X830707D02*
X838707D01*
X830707Y32750D02*
X838707D01*
X837707D02*
Y40750D01*
X736957D02*
X744957D01*
X736957Y32750D02*
X744957D01*
X743957D02*
Y40750D01*
X643207D02*
X651207D01*
X643207Y32750D02*
X651207D01*
X650207D02*
Y40750D01*
X549457D02*
X557457D01*
X549457Y32750D02*
X557457D01*
X556457D02*
Y40750D01*
X474457D02*
X482457D01*
X474457Y32750D02*
X482457D01*
X481457D02*
Y40750D01*
X380707D02*
X388707D01*
X380707Y32750D02*
X388707D01*
X387707D02*
Y40750D01*
X286957D02*
X294957D01*
X286957Y32750D02*
X294957D01*
X293957D02*
Y40750D01*
X211957D02*
X219957D01*
X211957Y32750D02*
X219957D01*
X218957D02*
Y40750D01*
X136957D02*
X144957D01*
X136957Y32750D02*
X144957D01*
X143957D02*
Y40750D01*
X52582D02*
X60582D01*
X52582Y32750D02*
X60582D01*
X59582D02*
Y40750D01*
X990082Y115750D02*
X998082D01*
X990082Y107750D02*
X998082D01*
X997082D02*
Y115750D01*
X886957D02*
X894957D01*
X886957Y107750D02*
X894957D01*
X893957D02*
Y115750D01*
X811957D02*
X819957D01*
X811957Y107750D02*
X819957D01*
X818957D02*
Y115750D01*
X736957D02*
X744957D01*
X736957Y107750D02*
X744957D01*
X743957D02*
Y115750D01*
X661957D02*
X669957D01*
X661957Y107750D02*
X669957D01*
X668957D02*
Y115750D01*
X586957D02*
X594957D01*
X586957Y107750D02*
X594957D01*
X593957D02*
Y115750D01*
X511957D02*
X519957D01*
X511957Y107750D02*
X519957D01*
X518957D02*
Y115750D01*
X436957D02*
X444957D01*
X436957Y107750D02*
X444957D01*
X443957D02*
Y115750D01*
X361957D02*
X369957D01*
X361957Y107750D02*
X369957D01*
X368957D02*
Y115750D01*
X286957D02*
X294957D01*
X286957Y107750D02*
X294957D01*
X293957D02*
Y115750D01*
X211957D02*
X219957D01*
X211957Y107750D02*
X219957D01*
X218957D02*
Y115750D01*
X99457D02*
X107457D01*
X99457Y107750D02*
X107457D01*
X106457D02*
Y115750D01*
X1046332Y190750D02*
X1054332D01*
X1046332Y182750D02*
X1054332D01*
X1053332D02*
Y190750D01*
X924457D02*
X932457D01*
X924457Y182750D02*
X932457D01*
X931457D02*
Y190750D01*
X849457D02*
X857457D01*
X849457Y182750D02*
X857457D01*
X856457D02*
Y190750D01*
X774457D02*
X782457D01*
X774457Y182750D02*
X782457D01*
X781457D02*
Y190750D01*
X699457D02*
X707457D01*
X699457Y182750D02*
X707457D01*
X706457D02*
Y190750D01*
X624457D02*
X632457D01*
X624457Y182750D02*
X632457D01*
X631457D02*
Y190750D01*
X549457D02*
X557457D01*
X549457Y182750D02*
X557457D01*
X556457D02*
Y190750D01*
X474457D02*
X482457D01*
X474457Y182750D02*
X482457D01*
X481457D02*
Y190750D01*
X399457D02*
X407457D01*
X399457Y182750D02*
X407457D01*
X406457D02*
Y190750D01*
X324457D02*
X332457D01*
X324457Y182750D02*
X332457D01*
X331457D02*
Y190750D01*
X249457D02*
X257457D01*
X249457Y182750D02*
X257457D01*
X256457D02*
Y190750D01*
X174457D02*
X182457D01*
X174457Y182750D02*
X182457D01*
X181457D02*
Y190750D01*
X80707D02*
X88707D01*
X80707Y182750D02*
X88707D01*
X87707D02*
Y190750D01*
X1074457Y265750D02*
X1082457D01*
X1074457Y257750D02*
X1082457D01*
X1081457D02*
Y265750D01*
X980707D02*
X988707D01*
X980707Y257750D02*
X988707D01*
X987707D02*
Y265750D01*
X905707D02*
X913707D01*
X905707Y257750D02*
X913707D01*
X912707D02*
Y265750D01*
X830707D02*
X838707D01*
X830707Y257750D02*
X838707D01*
X837707D02*
Y265750D01*
X755707D02*
X763707D01*
X755707Y257750D02*
X763707D01*
X762707D02*
Y265750D01*
X680707D02*
X688707D01*
X680707Y257750D02*
X688707D01*
X687707D02*
Y265750D01*
X605707D02*
X613707D01*
X605707Y257750D02*
X613707D01*
X612707D02*
Y265750D01*
X530707D02*
X538707D01*
X530707Y257750D02*
X538707D01*
X537707D02*
Y265750D01*
X455707D02*
X463707D01*
X455707Y257750D02*
X463707D01*
X462707D02*
Y265750D01*
X380707D02*
X388707D01*
X380707Y257750D02*
X388707D01*
X387707D02*
Y265750D01*
X305707D02*
X313707D01*
X305707Y257750D02*
X313707D01*
X312707D02*
Y265750D01*
X230707D02*
X238707D01*
X230707Y257750D02*
X238707D01*
X237707D02*
Y265750D01*
X155707D02*
X163707D01*
X155707Y257750D02*
X163707D01*
X162707D02*
Y265750D01*
X61957D02*
X69957D01*
X61957Y257750D02*
X69957D01*
X68957D02*
Y265750D01*
X1393207Y340750D02*
X1401207D01*
X1393207Y332750D02*
X1401207D01*
X1400207D02*
Y340750D01*
X1318207D02*
X1326207D01*
X1318207Y332750D02*
X1326207D01*
X1325207D02*
Y340750D01*
X1242386Y340368D02*
X1250386D01*
X1242386Y332368D02*
X1250386D01*
X1249386D02*
Y340368D01*
X1168207Y340750D02*
X1176207D01*
X1168207Y332750D02*
X1176207D01*
X1175207D02*
Y340750D01*
X1055707D02*
X1063707D01*
X1055707Y332750D02*
X1063707D01*
X1062707D02*
Y340750D01*
X943207D02*
X951207D01*
X943207Y332750D02*
X951207D01*
X950207D02*
Y340750D01*
X868207D02*
X876207D01*
X868207Y332750D02*
X876207D01*
X875207D02*
Y340750D01*
X793207D02*
X801207D01*
X793207Y332750D02*
X801207D01*
X800207D02*
Y340750D01*
X718207D02*
X726207D01*
X718207Y332750D02*
X726207D01*
X725207D02*
Y340750D01*
X643207D02*
X651207D01*
X643207Y332750D02*
X651207D01*
X650207D02*
Y340750D01*
X568207D02*
X576207D01*
X568207Y332750D02*
X576207D01*
X575207D02*
Y340750D01*
X493207D02*
X501207D01*
X493207Y332750D02*
X501207D01*
X500207D02*
Y340750D01*
X418207D02*
X426207D01*
X418207Y332750D02*
X426207D01*
X425207D02*
Y340750D01*
X343207D02*
X351207D01*
X343207Y332750D02*
X351207D01*
X350207D02*
Y340750D01*
X268207D02*
X276207D01*
X268207Y332750D02*
X276207D01*
X275207D02*
Y340750D01*
X193207D02*
X201207D01*
X193207Y332750D02*
X201207D01*
X200207D02*
Y340750D01*
X118207D02*
X126207D01*
X118207Y332750D02*
X126207D01*
X125207D02*
Y340750D01*
X43207D02*
X51207D01*
X43207Y332750D02*
X51207D01*
X50207D02*
Y340750D01*
X829374Y304413D02*
Y312221D01*
Y341094D02*
Y348902D01*
X845909Y304413D02*
Y310221D01*
Y343094D02*
Y348902D01*
X604374Y304413D02*
Y312221D01*
Y341094D02*
Y348902D01*
X620909Y304413D02*
Y310221D01*
Y343094D02*
Y348902D01*
X35500Y133500D02*
X41498D01*
Y136499D01*
X40498Y137499D01*
X38499D01*
X37499Y136499D01*
Y133500D01*
X35500Y140498D02*
Y142497D01*
X36500Y143497D01*
X38499D01*
X39499Y142497D01*
Y140498D01*
X38499Y139498D01*
X36500D01*
X35500Y140498D01*
Y145496D02*
X41498D01*
X37499D02*
X39499Y148495D01*
X37499Y145496D02*
X35500Y148495D01*
Y154493D02*
Y152494D01*
X36500Y151494D01*
X38499D01*
X39499Y152494D01*
Y154493D01*
X38499Y155493D01*
X37499D01*
Y151494D01*
X39499Y157492D02*
X36500D01*
X35500Y158492D01*
Y161491D01*
X34500D01*
X33501Y160491D01*
Y159492D01*
X35500Y161491D02*
X39499D01*
Y169488D02*
X35500Y171488D01*
X39499Y173487D01*
X35500Y175486D02*
Y177486D01*
Y176486D01*
X41498D01*
X40498Y175486D01*
X35500Y180485D02*
X36500D01*
Y181484D01*
X35500D01*
Y180485D01*
X40498Y185483D02*
X41498Y186483D01*
Y188482D01*
X40498Y189482D01*
X36500D01*
X35500Y188482D01*
Y186483D01*
X36500Y185483D01*
X40498D01*
X38499Y191481D02*
Y195480D01*
X35500Y197479D02*
X39499D01*
X41498Y199479D01*
X39499Y201478D01*
X35500D01*
X38499D01*
Y197479D01*
X40498Y203477D02*
X41498Y204477D01*
Y206476D01*
X40498Y207476D01*
X36500D01*
X35500Y206476D01*
Y204477D01*
X36500Y203477D01*
X40498D01*
X35500Y209475D02*
Y211475D01*
Y210475D01*
X41498D01*
X40498Y209475D01*
D11*
X67253Y334450D02*
Y338050D01*
X74053D01*
Y334450D02*
Y338050D01*
X67253Y334450D02*
X74053D01*
X516753D02*
Y338050D01*
X523553D01*
Y334450D02*
Y338050D01*
X516753Y334450D02*
X523553D01*
X1191907D02*
Y338050D01*
X1198707D01*
Y334450D02*
Y338050D01*
X1191907Y334450D02*
X1198707D01*
X1407707Y70250D02*
Y78250D01*
X1332707Y32750D02*
Y40750D01*
X1257707Y32750D02*
Y40750D01*
X1332707Y107750D02*
Y115750D01*
X1257707Y107750D02*
Y115750D01*
X1182707Y107750D02*
Y115750D01*
X1407707Y220250D02*
Y228250D01*
X1332707Y182750D02*
Y190750D01*
X1257707Y182750D02*
Y190750D01*
X1182707Y182750D02*
Y190750D01*
X1332707Y257750D02*
Y265750D01*
X1257707Y257750D02*
Y265750D01*
X1182707Y257750D02*
Y265750D01*
X1107707Y107750D02*
Y115750D01*
X1182707Y32750D02*
Y40750D01*
X1107707Y32750D02*
Y40750D01*
X1032707Y32750D02*
Y40750D01*
X948332Y32750D02*
Y40750D01*
X845207Y32750D02*
Y40750D01*
X751457Y32750D02*
Y40750D01*
X657707Y32750D02*
Y40750D01*
X563957Y32750D02*
Y40750D01*
X488957Y32750D02*
Y40750D01*
X395207Y32750D02*
Y40750D01*
X301457Y32750D02*
Y40750D01*
X226457Y32750D02*
Y40750D01*
X151457Y32750D02*
Y40750D01*
X67082Y32750D02*
Y40750D01*
X1004582Y107750D02*
Y115750D01*
X901457Y107750D02*
Y115750D01*
X826457Y107750D02*
Y115750D01*
X751457Y107750D02*
Y115750D01*
X676457Y107750D02*
Y115750D01*
X601457Y107750D02*
Y115750D01*
X526457Y107750D02*
Y115750D01*
X451457Y107750D02*
Y115750D01*
X376457Y107750D02*
Y115750D01*
X301457Y107750D02*
Y115750D01*
X226457Y107750D02*
Y115750D01*
X113957Y107750D02*
Y115750D01*
X1060832Y182750D02*
Y190750D01*
X938957Y182750D02*
Y190750D01*
X863957Y182750D02*
Y190750D01*
X788957Y182750D02*
Y190750D01*
X713957Y182750D02*
Y190750D01*
X638957Y182750D02*
Y190750D01*
X563957Y182750D02*
Y190750D01*
X488957Y182750D02*
Y190750D01*
X413957Y182750D02*
Y190750D01*
X338957Y182750D02*
Y190750D01*
X263957Y182750D02*
Y190750D01*
X188957Y182750D02*
Y190750D01*
X95207Y182750D02*
Y190750D01*
X1088957Y257750D02*
Y265750D01*
X995207Y257750D02*
Y265750D01*
X920207Y257750D02*
Y265750D01*
X845207Y257750D02*
Y265750D01*
X770207Y257750D02*
Y265750D01*
X695207Y257750D02*
Y265750D01*
X620207Y257750D02*
Y265750D01*
X545207Y257750D02*
Y265750D01*
X470207Y257750D02*
Y265750D01*
X395207Y257750D02*
Y265750D01*
X320207Y257750D02*
Y265750D01*
X245207Y257750D02*
Y265750D01*
X170207Y257750D02*
Y265750D01*
X76457Y257750D02*
Y265750D01*
X1407707Y332750D02*
Y340750D01*
X1332707Y332750D02*
Y340750D01*
X1256886Y332368D02*
Y340368D01*
X1182707Y332750D02*
Y340750D01*
X1070207Y332750D02*
Y340750D01*
X957707Y332750D02*
Y340750D01*
X882707Y332750D02*
Y340750D01*
X807707Y332750D02*
Y340750D01*
X732707Y332750D02*
Y340750D01*
X657707Y332750D02*
Y340750D01*
X582707Y332750D02*
Y340750D01*
X507707Y332750D02*
Y340750D01*
X432707Y332750D02*
Y340750D01*
X357707Y332750D02*
Y340750D01*
X282707Y332750D02*
Y340750D01*
X207707Y332750D02*
Y340750D01*
X132707Y332750D02*
Y340750D01*
X57707Y332750D02*
Y340750D01*
X35450Y363747D02*
X39050D01*
Y356947D02*
Y363747D01*
X35450Y356947D02*
X39050D01*
X35450D02*
Y363747D01*
X540950Y357450D02*
X544550D01*
X540950D02*
Y364250D01*
X544550D01*
Y357450D02*
Y364250D01*
X1022413Y322279D02*
X1026013D01*
Y315479D02*
Y322279D01*
X1022413Y315479D02*
X1026013D01*
X1022413D02*
Y322279D01*
X1040950Y259950D02*
X1044550D01*
X1040950D02*
Y266750D01*
X1044550D01*
Y259950D02*
Y266750D01*
X985413Y340179D02*
X989013D01*
X985413D02*
Y346979D01*
X989013D01*
Y340179D02*
Y346979D01*
X1036450Y259950D02*
X1040050D01*
X1036450D02*
Y266750D01*
X1040050D01*
Y259950D02*
Y266750D01*
X1135370Y329976D02*
X1138970D01*
Y323176D02*
Y329976D01*
X1135370Y323176D02*
X1138970D01*
X1135370D02*
Y329976D01*
X1131667Y315679D02*
Y319279D01*
X1124867Y315679D02*
X1131667D01*
X1124867D02*
Y319279D01*
X1131667D01*
X1098370Y339279D02*
X1101970D01*
Y332479D02*
Y339279D01*
X1098370Y332479D02*
X1101970D01*
X1098370D02*
Y339279D01*
X1022413Y329779D02*
X1026013D01*
Y322979D02*
Y329779D01*
X1022413Y322979D02*
X1026013D01*
X1022413D02*
Y329779D01*
X1018709Y315679D02*
Y319279D01*
X1011909Y315679D02*
X1018709D01*
X1011909D02*
Y319279D01*
X1018709D01*
X985413Y332482D02*
X989013D01*
X985413D02*
Y339282D01*
X989013D01*
Y332482D02*
Y339282D01*
X1020450Y272950D02*
X1024050D01*
X1020450D02*
Y279750D01*
X1024050D01*
Y272950D02*
Y279750D01*
X1135370Y322476D02*
X1138970D01*
Y315676D02*
Y322476D01*
X1135370Y315676D02*
X1138970D01*
X1135370D02*
Y322476D01*
X1098370Y340179D02*
X1101970D01*
X1098370D02*
Y346979D01*
X1101970D01*
Y340179D02*
Y346979D01*
X1031950Y259950D02*
X1035550D01*
X1031950D02*
Y266750D01*
X1035550D01*
Y259950D02*
Y266750D01*
X1027450Y259950D02*
X1031050D01*
X1027450D02*
Y266750D01*
X1031050D01*
Y259950D02*
Y266750D01*
X1414407Y101253D02*
X1418007D01*
X1414407D02*
Y108053D01*
X1418007D01*
Y101253D02*
Y108053D01*
X1339407Y63753D02*
X1343007D01*
X1339407D02*
Y70553D01*
X1343007D01*
Y63753D02*
Y70553D01*
X1264407Y63753D02*
X1268007D01*
X1264407D02*
Y70553D01*
X1268007D01*
Y63753D02*
Y70553D01*
X1339407Y138753D02*
X1343007D01*
X1339407D02*
Y145553D01*
X1343007D01*
Y138753D02*
Y145553D01*
X1264407Y138753D02*
X1268007D01*
X1264407D02*
Y145553D01*
X1268007D01*
Y138753D02*
Y145553D01*
X1189407Y138753D02*
X1193007D01*
X1189407D02*
Y145553D01*
X1193007D01*
Y138753D02*
Y145553D01*
X1414407Y251253D02*
X1418007D01*
X1414407D02*
Y258053D01*
X1418007D01*
Y251253D02*
Y258053D01*
X1339407Y213753D02*
X1343007D01*
X1339407D02*
Y220553D01*
X1343007D01*
Y213753D02*
Y220553D01*
X1264407Y213753D02*
X1268007D01*
X1264407D02*
Y220553D01*
X1268007D01*
Y213753D02*
Y220553D01*
X1189407Y213753D02*
X1193007D01*
X1189407D02*
Y220553D01*
X1193007D01*
Y213753D02*
Y220553D01*
X1339407Y288753D02*
X1343007D01*
X1339407D02*
Y295553D01*
X1343007D01*
Y288753D02*
Y295553D01*
X1264407Y288753D02*
X1268007D01*
X1264407D02*
Y295553D01*
X1268007D01*
Y288753D02*
Y295553D01*
X1189407Y288753D02*
X1193007D01*
X1189407D02*
Y295553D01*
X1193007D01*
Y288753D02*
Y295553D01*
X1114407Y138753D02*
X1118007D01*
X1114407D02*
Y145553D01*
X1118007D01*
Y138753D02*
Y145553D01*
X1189407Y63753D02*
X1193007D01*
X1189407D02*
Y70553D01*
X1193007D01*
Y63753D02*
Y70553D01*
X1114407Y63753D02*
X1118007D01*
X1114407D02*
Y70553D01*
X1118007D01*
Y63753D02*
Y70553D01*
X1039407Y63753D02*
X1043007D01*
X1039407D02*
Y70553D01*
X1043007D01*
Y63753D02*
Y70553D01*
X955032Y63753D02*
X958632D01*
X955032D02*
Y70553D01*
X958632D01*
Y63753D02*
Y70553D01*
X851907Y63753D02*
X855507D01*
X851907D02*
Y70553D01*
X855507D01*
Y63753D02*
Y70553D01*
X758157Y63753D02*
X761757D01*
X758157D02*
Y70553D01*
X761757D01*
Y63753D02*
Y70553D01*
X664407Y63753D02*
X668007D01*
X664407D02*
Y70553D01*
X668007D01*
Y63753D02*
Y70553D01*
X570657Y63753D02*
X574257D01*
X570657D02*
Y70553D01*
X574257D01*
Y63753D02*
Y70553D01*
X495657Y63753D02*
X499257D01*
X495657D02*
Y70553D01*
X499257D01*
Y63753D02*
Y70553D01*
X401907Y63753D02*
X405507D01*
X401907D02*
Y70553D01*
X405507D01*
Y63753D02*
Y70553D01*
X308157Y63753D02*
X311757D01*
X308157D02*
Y70553D01*
X311757D01*
Y63753D02*
Y70553D01*
X233157Y63753D02*
X236757D01*
X233157D02*
Y70553D01*
X236757D01*
Y63753D02*
Y70553D01*
X158157Y63753D02*
X161757D01*
X158157D02*
Y70553D01*
X161757D01*
Y63753D02*
Y70553D01*
X73782Y63753D02*
X77382D01*
X73782D02*
Y70553D01*
X77382D01*
Y63753D02*
Y70553D01*
X1011282Y138753D02*
X1014882D01*
X1011282D02*
Y145553D01*
X1014882D01*
Y138753D02*
Y145553D01*
X908157Y138753D02*
X911757D01*
X908157D02*
Y145553D01*
X911757D01*
Y138753D02*
Y145553D01*
X833157Y138753D02*
X836757D01*
X833157D02*
Y145553D01*
X836757D01*
Y138753D02*
Y145553D01*
X758157Y138753D02*
X761757D01*
X758157D02*
Y145553D01*
X761757D01*
Y138753D02*
Y145553D01*
X683157Y138753D02*
X686757D01*
X683157D02*
Y145553D01*
X686757D01*
Y138753D02*
Y145553D01*
X608157Y138753D02*
X611757D01*
X608157D02*
Y145553D01*
X611757D01*
Y138753D02*
Y145553D01*
X533157Y138753D02*
X536757D01*
X533157D02*
Y145553D01*
X536757D01*
Y138753D02*
Y145553D01*
X458157Y138753D02*
X461757D01*
X458157D02*
Y145553D01*
X461757D01*
Y138753D02*
Y145553D01*
X383157Y138753D02*
X386757D01*
X383157D02*
Y145553D01*
X386757D01*
Y138753D02*
Y145553D01*
X308157Y138753D02*
X311757D01*
X308157D02*
Y145553D01*
X311757D01*
Y138753D02*
Y145553D01*
X233157Y138753D02*
X236757D01*
X233157D02*
Y145553D01*
X236757D01*
Y138753D02*
Y145553D01*
X120657Y138753D02*
X124257D01*
X120657D02*
Y145553D01*
X124257D01*
Y138753D02*
Y145553D01*
X1067532Y213753D02*
X1071132D01*
X1067532D02*
Y220553D01*
X1071132D01*
Y213753D02*
Y220553D01*
X945657Y213753D02*
X949257D01*
X945657D02*
Y220553D01*
X949257D01*
Y213753D02*
Y220553D01*
X870657Y213753D02*
X874257D01*
X870657D02*
Y220553D01*
X874257D01*
Y213753D02*
Y220553D01*
X795657Y213753D02*
X799257D01*
X795657D02*
Y220553D01*
X799257D01*
Y213753D02*
Y220553D01*
X720657Y213753D02*
X724257D01*
X720657D02*
Y220553D01*
X724257D01*
Y213753D02*
Y220553D01*
X645657Y213753D02*
X649257D01*
X645657D02*
Y220553D01*
X649257D01*
Y213753D02*
Y220553D01*
X570657Y213753D02*
X574257D01*
X570657D02*
Y220553D01*
X574257D01*
Y213753D02*
Y220553D01*
X495657Y213753D02*
X499257D01*
X495657D02*
Y220553D01*
X499257D01*
Y213753D02*
Y220553D01*
X420657Y213753D02*
X424257D01*
X420657D02*
Y220553D01*
X424257D01*
Y213753D02*
Y220553D01*
X345657Y213753D02*
X349257D01*
X345657D02*
Y220553D01*
X349257D01*
Y213753D02*
Y220553D01*
X270657Y213753D02*
X274257D01*
X270657D02*
Y220553D01*
X274257D01*
Y213753D02*
Y220553D01*
X195657Y213753D02*
X199257D01*
X195657D02*
Y220553D01*
X199257D01*
Y213753D02*
Y220553D01*
X101907Y213753D02*
X105507D01*
X101907D02*
Y220553D01*
X105507D01*
Y213753D02*
Y220553D01*
X1095657Y288753D02*
X1099257D01*
X1095657D02*
Y295553D01*
X1099257D01*
Y288753D02*
Y295553D01*
X1001907Y288753D02*
X1005507D01*
X1001907D02*
Y295553D01*
X1005507D01*
Y288753D02*
Y295553D01*
X926907Y288753D02*
X930507D01*
X926907D02*
Y295553D01*
X930507D01*
Y288753D02*
Y295553D01*
X851907Y288753D02*
X855507D01*
X851907D02*
Y295553D01*
X855507D01*
Y288753D02*
Y295553D01*
X776907Y288753D02*
X780507D01*
X776907D02*
Y295553D01*
X780507D01*
Y288753D02*
Y295553D01*
X701907Y288753D02*
X705507D01*
X701907D02*
Y295553D01*
X705507D01*
Y288753D02*
Y295553D01*
X626907Y288753D02*
X630507D01*
X626907D02*
Y295553D01*
X630507D01*
Y288753D02*
Y295553D01*
X551907Y288753D02*
X555507D01*
X551907D02*
Y295553D01*
X555507D01*
Y288753D02*
Y295553D01*
X476907Y288753D02*
X480507D01*
X476907D02*
Y295553D01*
X480507D01*
Y288753D02*
Y295553D01*
X401907Y288753D02*
X405507D01*
X401907D02*
Y295553D01*
X405507D01*
Y288753D02*
Y295553D01*
X326907Y288753D02*
X330507D01*
X326907D02*
Y295553D01*
X330507D01*
Y288753D02*
Y295553D01*
X251907Y288753D02*
X255507D01*
X251907D02*
Y295553D01*
X255507D01*
Y288753D02*
Y295553D01*
X176907Y288753D02*
X180507D01*
X176907D02*
Y295553D01*
X180507D01*
Y288753D02*
Y295553D01*
X83157Y288753D02*
X86757D01*
X83157D02*
Y295553D01*
X86757D01*
Y288753D02*
Y295553D01*
X1414407Y363753D02*
X1418007D01*
X1414407D02*
Y370553D01*
X1418007D01*
Y363753D02*
Y370553D01*
X1339407Y363753D02*
X1343007D01*
X1339407D02*
Y370553D01*
X1343007D01*
Y363753D02*
Y370553D01*
X1263586Y363371D02*
X1267186D01*
X1263586D02*
Y370171D01*
X1267186D01*
Y363371D02*
Y370171D01*
X1189407Y363753D02*
X1193007D01*
X1189407D02*
Y370553D01*
X1193007D01*
Y363753D02*
Y370553D01*
X1076907Y363753D02*
X1080507D01*
X1076907D02*
Y370553D01*
X1080507D01*
Y363753D02*
Y370553D01*
X964407Y363753D02*
X968007D01*
X964407D02*
Y370553D01*
X968007D01*
Y363753D02*
Y370553D01*
X889407Y363753D02*
X893007D01*
X889407D02*
Y370553D01*
X893007D01*
Y363753D02*
Y370553D01*
X814407Y363753D02*
X818007D01*
X814407D02*
Y370553D01*
X818007D01*
Y363753D02*
Y370553D01*
X686907Y322253D02*
X690507D01*
X686907D02*
Y329053D01*
X690507D01*
Y322253D02*
Y329053D01*
X664407Y363753D02*
X668007D01*
X664407D02*
Y370553D01*
X668007D01*
Y363753D02*
Y370553D01*
X589407Y363753D02*
X593007D01*
X589407D02*
Y370553D01*
X593007D01*
Y363753D02*
Y370553D01*
X514407Y363753D02*
X518007D01*
X514407D02*
Y370553D01*
X518007D01*
Y363753D02*
Y370553D01*
X439407Y363753D02*
X443007D01*
X439407D02*
Y370553D01*
X443007D01*
Y363753D02*
Y370553D01*
X364407Y363753D02*
X368007D01*
X364407D02*
Y370553D01*
X368007D01*
Y363753D02*
Y370553D01*
X289407Y363753D02*
X293007D01*
X289407D02*
Y370553D01*
X293007D01*
Y363753D02*
Y370553D01*
X214407Y363753D02*
X218007D01*
X214407D02*
Y370553D01*
X218007D01*
Y363753D02*
Y370553D01*
X139407Y363753D02*
X143007D01*
X139407D02*
Y370553D01*
X143007D01*
Y363753D02*
Y370553D01*
X64407Y363753D02*
X68007D01*
X64407D02*
Y370553D01*
X68007D01*
Y363753D02*
Y370553D01*
X778600Y118404D02*
Y131404D01*
Y118404D02*
X784400D01*
Y131404D01*
X778600D02*
X784400D01*
X947350Y263750D02*
Y276750D01*
Y263750D02*
X953150D01*
Y276750D01*
X947350D02*
X953150D01*
X1134807Y118404D02*
Y131404D01*
Y118404D02*
X1140607D01*
Y131404D01*
X1134807D02*
X1140607D01*
X1284807Y263750D02*
Y276750D01*
Y263750D02*
X1290607D01*
Y276750D01*
X1284807D02*
X1290607D01*
X160100Y118404D02*
Y131404D01*
Y118404D02*
X165900D01*
Y131404D01*
X160100D02*
X165900D01*
X347350Y263750D02*
Y276750D01*
Y263750D02*
X353150D01*
Y276750D01*
X347350D02*
X353150D01*
X478600Y118404D02*
Y131404D01*
Y118404D02*
X484400D01*
Y131404D01*
X478600D02*
X484400D01*
X647350Y263750D02*
Y276750D01*
Y263750D02*
X653150D01*
Y276750D01*
X647350D02*
X653150D01*
X159600Y318250D02*
Y331250D01*
Y318250D02*
X165400D01*
Y331250D01*
X159600D02*
X165400D01*
X459600Y318250D02*
Y331250D01*
Y318250D02*
X465400D01*
Y331250D01*
X459600D02*
X465400D01*
X909350Y318250D02*
Y331250D01*
Y318250D02*
X915150D01*
Y331250D01*
X909350D02*
X915150D01*
X1284307Y318250D02*
Y331250D01*
Y318250D02*
X1290107D01*
Y331250D01*
X1284307D02*
X1290107D01*
X1414407Y109000D02*
Y115800D01*
Y109000D02*
X1418007D01*
Y115800D01*
X1414407D02*
X1418007D01*
X1038550Y303950D02*
Y307550D01*
X1031750Y303950D02*
X1038550D01*
X1031750D02*
Y307550D01*
X1038550D01*
X78750Y336500D02*
X79000Y336750D01*
X79500D01*
X79750Y336500D01*
Y335500D01*
X79500Y335250D01*
X79000D01*
X78750Y335500D01*
X78250Y335250D02*
X77751D01*
X78001D01*
Y336750D01*
X78250Y336500D01*
X77001Y335250D02*
Y335500D01*
X76751D01*
Y335250D01*
X77001D01*
X74752D02*
X75751D01*
X74752Y336250D01*
Y336500D01*
X75002Y336750D01*
X75501D01*
X75751Y336500D01*
X528750D02*
X529000Y336750D01*
X529500D01*
X529750Y336500D01*
Y335500D01*
X529500Y335250D01*
X529000D01*
X528750Y335500D01*
X527251Y335250D02*
X528251D01*
X527251Y336250D01*
Y336500D01*
X527501Y336750D01*
X528001D01*
X528251Y336500D01*
X526751Y335250D02*
Y335500D01*
X526501D01*
Y335250D01*
X526751D01*
X524502D02*
X525501D01*
X524502Y336250D01*
Y336500D01*
X524752Y336750D01*
X525251D01*
X525501Y336500D01*
X1203707Y337000D02*
X1203957Y337249D01*
X1204457D01*
X1204707Y337000D01*
Y336000D01*
X1204457Y335750D01*
X1203957D01*
X1203707Y336000D01*
X1203207Y337000D02*
X1202957Y337249D01*
X1202457D01*
X1202207Y337000D01*
Y336750D01*
X1202457Y336500D01*
X1202707D01*
X1202457D01*
X1202207Y336250D01*
Y336000D01*
X1202457Y335750D01*
X1202957D01*
X1203207Y336000D01*
X1201708Y335750D02*
Y336000D01*
X1201458D01*
Y335750D01*
X1201708D01*
X1199458D02*
X1200458D01*
X1199458Y336750D01*
Y337000D01*
X1199708Y337249D01*
X1200208D01*
X1200458Y337000D01*
X1408707Y76751D02*
X1410207D01*
Y76001D01*
X1409957Y75751D01*
X1408957D01*
X1408707Y76001D01*
Y76751D01*
X1410207Y74252D02*
Y75251D01*
X1409207Y74252D01*
X1408957D01*
X1408707Y74502D01*
Y75001D01*
X1408957Y75251D01*
X1410207Y73752D02*
X1409957D01*
Y73502D01*
X1410207D01*
Y73752D01*
X1408957Y72502D02*
X1408707Y72252D01*
Y71752D01*
X1408957Y71503D01*
X1409207D01*
X1409457Y71752D01*
Y72002D01*
Y71752D01*
X1409707Y71503D01*
X1409957D01*
X1410207Y71752D01*
Y72252D01*
X1409957Y72502D01*
X1410207Y71003D02*
X1409957D01*
Y70753D01*
X1410207D01*
Y71003D01*
Y69753D02*
Y69253D01*
Y69503D01*
X1408707D01*
X1408957Y69753D01*
X1405206Y78750D02*
X1403707D01*
X1404206D01*
X1405206Y79750D01*
X1404456Y79000D01*
X1403707Y79750D01*
X1333707Y39751D02*
X1335207D01*
Y39001D01*
X1334957Y38751D01*
X1333957D01*
X1333707Y39001D01*
Y39751D01*
X1335207Y37251D02*
Y38251D01*
X1334207Y37251D01*
X1333957D01*
X1333707Y37501D01*
Y38001D01*
X1333957Y38251D01*
X1335207Y36752D02*
X1334957D01*
Y36502D01*
X1335207D01*
Y36752D01*
X1333957Y35502D02*
X1333707Y35252D01*
Y34752D01*
X1333957Y34502D01*
X1334207D01*
X1334457Y34752D01*
Y35002D01*
Y34752D01*
X1334707Y34502D01*
X1334957D01*
X1335207Y34752D01*
Y35252D01*
X1334957Y35502D01*
X1335207Y34003D02*
X1334957D01*
Y33753D01*
X1335207D01*
Y34003D01*
Y31753D02*
Y32753D01*
X1334207Y31753D01*
X1333957D01*
X1333707Y32003D01*
Y32503D01*
X1333957Y32753D01*
X1330206Y41250D02*
X1328707D01*
X1329206D01*
X1330206Y42250D01*
X1329456Y41500D01*
X1328707Y42250D01*
X1258707Y39751D02*
X1260207D01*
Y39001D01*
X1259957Y38751D01*
X1258957D01*
X1258707Y39001D01*
Y39751D01*
X1260207Y37251D02*
Y38251D01*
X1259207Y37251D01*
X1258957D01*
X1258707Y37501D01*
Y38001D01*
X1258957Y38251D01*
X1260207Y36752D02*
X1259957D01*
Y36502D01*
X1260207D01*
Y36752D01*
X1258957Y35502D02*
X1258707Y35252D01*
Y34752D01*
X1258957Y34502D01*
X1259207D01*
X1259457Y34752D01*
Y35002D01*
Y34752D01*
X1259707Y34502D01*
X1259957D01*
X1260207Y34752D01*
Y35252D01*
X1259957Y35502D01*
X1260207Y34003D02*
X1259957D01*
Y33753D01*
X1260207D01*
Y34003D01*
X1258957Y32753D02*
X1258707Y32503D01*
Y32003D01*
X1258957Y31753D01*
X1259207D01*
X1259457Y32003D01*
Y32253D01*
Y32003D01*
X1259707Y31753D01*
X1259957D01*
X1260207Y32003D01*
Y32503D01*
X1259957Y32753D01*
X1255206Y41250D02*
X1253707D01*
X1254206D01*
X1255206Y42250D01*
X1254456Y41500D01*
X1253707Y42250D01*
X1333707Y114751D02*
X1335207D01*
Y114001D01*
X1334957Y113751D01*
X1333957D01*
X1333707Y114001D01*
Y114751D01*
X1335207Y112251D02*
Y113251D01*
X1334207Y112251D01*
X1333957D01*
X1333707Y112501D01*
Y113001D01*
X1333957Y113251D01*
X1335207Y111752D02*
X1334957D01*
Y111502D01*
X1335207D01*
Y111752D01*
X1333957Y110502D02*
X1333707Y110252D01*
Y109752D01*
X1333957Y109502D01*
X1334207D01*
X1334457Y109752D01*
Y110002D01*
Y109752D01*
X1334707Y109502D01*
X1334957D01*
X1335207Y109752D01*
Y110252D01*
X1334957Y110502D01*
X1335207Y109002D02*
X1334957D01*
Y108753D01*
X1335207D01*
Y109002D01*
Y107003D02*
X1333707D01*
X1334457Y107753D01*
Y106753D01*
X1330206Y116250D02*
X1328707D01*
X1329206D01*
X1330206Y117250D01*
X1329456Y116500D01*
X1328707Y117250D01*
X1258707Y114751D02*
X1260207D01*
Y114001D01*
X1259957Y113751D01*
X1258957D01*
X1258707Y114001D01*
Y114751D01*
X1260207Y112251D02*
Y113251D01*
X1259207Y112251D01*
X1258957D01*
X1258707Y112501D01*
Y113001D01*
X1258957Y113251D01*
X1260207Y111752D02*
X1259957D01*
Y111502D01*
X1260207D01*
Y111752D01*
X1258957Y110502D02*
X1258707Y110252D01*
Y109752D01*
X1258957Y109502D01*
X1259207D01*
X1259457Y109752D01*
Y110002D01*
Y109752D01*
X1259707Y109502D01*
X1259957D01*
X1260207Y109752D01*
Y110252D01*
X1259957Y110502D01*
X1260207Y109002D02*
X1259957D01*
Y108753D01*
X1260207D01*
Y109002D01*
X1258707Y106753D02*
Y107753D01*
X1259457D01*
X1259207Y107253D01*
Y107003D01*
X1259457Y106753D01*
X1259957D01*
X1260207Y107003D01*
Y107503D01*
X1259957Y107753D01*
X1255206Y116250D02*
X1253707D01*
X1254206D01*
X1255206Y117250D01*
X1254456Y116500D01*
X1253707Y117250D01*
X1183707Y114751D02*
X1185207D01*
Y114001D01*
X1184957Y113751D01*
X1183957D01*
X1183707Y114001D01*
Y114751D01*
X1185207Y112251D02*
Y113251D01*
X1184207Y112251D01*
X1183957D01*
X1183707Y112501D01*
Y113001D01*
X1183957Y113251D01*
X1185207Y111752D02*
X1184957D01*
Y111502D01*
X1185207D01*
Y111752D01*
X1183957Y110502D02*
X1183707Y110252D01*
Y109752D01*
X1183957Y109502D01*
X1184207D01*
X1184457Y109752D01*
Y110002D01*
Y109752D01*
X1184707Y109502D01*
X1184957D01*
X1185207Y109752D01*
Y110252D01*
X1184957Y110502D01*
X1185207Y109002D02*
X1184957D01*
Y108753D01*
X1185207D01*
Y109002D01*
X1183707Y106753D02*
X1183957Y107253D01*
X1184457Y107753D01*
X1184957D01*
X1185207Y107503D01*
Y107003D01*
X1184957Y106753D01*
X1184707D01*
X1184457Y107003D01*
Y107753D01*
X1180206Y116250D02*
X1178707D01*
X1179206D01*
X1180206Y117250D01*
X1179456Y116500D01*
X1178707Y117250D01*
X1408707Y227251D02*
X1410207D01*
Y226501D01*
X1409957Y226251D01*
X1408957D01*
X1408707Y226501D01*
Y227251D01*
X1410207Y224751D02*
Y225751D01*
X1409207Y224751D01*
X1408957D01*
X1408707Y225001D01*
Y225501D01*
X1408957Y225751D01*
X1410207Y224252D02*
X1409957D01*
Y224002D01*
X1410207D01*
Y224252D01*
X1408957Y223002D02*
X1408707Y222752D01*
Y222252D01*
X1408957Y222002D01*
X1409207D01*
X1409457Y222252D01*
Y222502D01*
Y222252D01*
X1409707Y222002D01*
X1409957D01*
X1410207Y222252D01*
Y222752D01*
X1409957Y223002D01*
X1410207Y221502D02*
X1409957D01*
Y221253D01*
X1410207D01*
Y221502D01*
X1408707Y220253D02*
Y219253D01*
X1408957D01*
X1409957Y220253D01*
X1410207D01*
X1405206Y228750D02*
X1403707D01*
X1404206D01*
X1405206Y229750D01*
X1404456Y229000D01*
X1403707Y229750D01*
X1333707Y189751D02*
X1335207D01*
Y189001D01*
X1334957Y188751D01*
X1333957D01*
X1333707Y189001D01*
Y189751D01*
X1335207Y187251D02*
Y188251D01*
X1334207Y187251D01*
X1333957D01*
X1333707Y187501D01*
Y188001D01*
X1333957Y188251D01*
X1335207Y186752D02*
X1334957D01*
Y186502D01*
X1335207D01*
Y186752D01*
X1333957Y185502D02*
X1333707Y185252D01*
Y184752D01*
X1333957Y184502D01*
X1334207D01*
X1334457Y184752D01*
Y185002D01*
Y184752D01*
X1334707Y184502D01*
X1334957D01*
X1335207Y184752D01*
Y185252D01*
X1334957Y185502D01*
X1335207Y184002D02*
X1334957D01*
Y183753D01*
X1335207D01*
Y184002D01*
X1333957Y182753D02*
X1333707Y182503D01*
Y182003D01*
X1333957Y181753D01*
X1334207D01*
X1334457Y182003D01*
X1334707Y181753D01*
X1334957D01*
X1335207Y182003D01*
Y182503D01*
X1334957Y182753D01*
X1334707D01*
X1334457Y182503D01*
X1334207Y182753D01*
X1333957D01*
X1334457Y182503D02*
Y182003D01*
X1330206Y191250D02*
X1328707D01*
X1329206D01*
X1330206Y192250D01*
X1329456Y191500D01*
X1328707Y192250D01*
X1258707Y189751D02*
X1260207D01*
Y189001D01*
X1259957Y188751D01*
X1258957D01*
X1258707Y189001D01*
Y189751D01*
X1260207Y187251D02*
Y188251D01*
X1259207Y187251D01*
X1258957D01*
X1258707Y187501D01*
Y188001D01*
X1258957Y188251D01*
X1260207Y186752D02*
X1259957D01*
Y186502D01*
X1260207D01*
Y186752D01*
X1258957Y185502D02*
X1258707Y185252D01*
Y184752D01*
X1258957Y184502D01*
X1259207D01*
X1259457Y184752D01*
Y185002D01*
Y184752D01*
X1259707Y184502D01*
X1259957D01*
X1260207Y184752D01*
Y185252D01*
X1259957Y185502D01*
X1260207Y184002D02*
X1259957D01*
Y183753D01*
X1260207D01*
Y184002D01*
X1259957Y182753D02*
X1260207Y182503D01*
Y182003D01*
X1259957Y181753D01*
X1258957D01*
X1258707Y182003D01*
Y182503D01*
X1258957Y182753D01*
X1259207D01*
X1259457Y182503D01*
Y181753D01*
X1255206Y191250D02*
X1253707D01*
X1254206D01*
X1255206Y192250D01*
X1254456Y191500D01*
X1253707Y192250D01*
X1183707Y191000D02*
X1185207D01*
Y190251D01*
X1184957Y190001D01*
X1183957D01*
X1183707Y190251D01*
Y191000D01*
X1185207Y188501D02*
Y189501D01*
X1184207Y188501D01*
X1183957D01*
X1183707Y188751D01*
Y189251D01*
X1183957Y189501D01*
X1185207Y188001D02*
X1184957D01*
Y187751D01*
X1185207D01*
Y188001D01*
X1183957Y186752D02*
X1183707Y186502D01*
Y186002D01*
X1183957Y185752D01*
X1184207D01*
X1184457Y186002D01*
Y186252D01*
Y186002D01*
X1184707Y185752D01*
X1184957D01*
X1185207Y186002D01*
Y186502D01*
X1184957Y186752D01*
X1185207Y185252D02*
X1184957D01*
Y185002D01*
X1185207D01*
Y185252D01*
Y184002D02*
Y183503D01*
Y183753D01*
X1183707D01*
X1183957Y184002D01*
Y182753D02*
X1183707Y182503D01*
Y182003D01*
X1183957Y181753D01*
X1184957D01*
X1185207Y182003D01*
Y182503D01*
X1184957Y182753D01*
X1183957D01*
X1180206Y191250D02*
X1178707D01*
X1179206D01*
X1180206Y192250D01*
X1179456Y191500D01*
X1178707Y192250D01*
X1333707Y265500D02*
X1335207D01*
Y264751D01*
X1334957Y264501D01*
X1333957D01*
X1333707Y264751D01*
Y265500D01*
X1335207Y263001D02*
Y264001D01*
X1334207Y263001D01*
X1333957D01*
X1333707Y263251D01*
Y263751D01*
X1333957Y264001D01*
X1335207Y262501D02*
X1334957D01*
Y262251D01*
X1335207D01*
Y262501D01*
X1333957Y261252D02*
X1333707Y261002D01*
Y260502D01*
X1333957Y260252D01*
X1334207D01*
X1334457Y260502D01*
Y260752D01*
Y260502D01*
X1334707Y260252D01*
X1334957D01*
X1335207Y260502D01*
Y261002D01*
X1334957Y261252D01*
X1335207Y259752D02*
X1334957D01*
Y259502D01*
X1335207D01*
Y259752D01*
Y258503D02*
Y258003D01*
Y258253D01*
X1333707D01*
X1333957Y258503D01*
X1335207Y257253D02*
Y256753D01*
Y257003D01*
X1333707D01*
X1333957Y257253D01*
X1330206Y266250D02*
X1328707D01*
X1329206D01*
X1330206Y267250D01*
X1329456Y266500D01*
X1328707Y267250D01*
X1258707Y266000D02*
X1260207D01*
Y265250D01*
X1259957Y265001D01*
X1258957D01*
X1258707Y265250D01*
Y266000D01*
X1260207Y263501D02*
Y264501D01*
X1259207Y263501D01*
X1258957D01*
X1258707Y263751D01*
Y264251D01*
X1258957Y264501D01*
X1260207Y263001D02*
X1259957D01*
Y262751D01*
X1260207D01*
Y263001D01*
X1258957Y261752D02*
X1258707Y261502D01*
Y261002D01*
X1258957Y260752D01*
X1259207D01*
X1259457Y261002D01*
Y261252D01*
Y261002D01*
X1259707Y260752D01*
X1259957D01*
X1260207Y261002D01*
Y261502D01*
X1259957Y261752D01*
X1260207Y260252D02*
X1259957D01*
Y260002D01*
X1260207D01*
Y260252D01*
Y259002D02*
Y258503D01*
Y258753D01*
X1258707D01*
X1258957Y259002D01*
X1260207Y256753D02*
Y257753D01*
X1259207Y256753D01*
X1258957D01*
X1258707Y257003D01*
Y257503D01*
X1258957Y257753D01*
X1255206Y266250D02*
X1253707D01*
X1254206D01*
X1255206Y267250D01*
X1254456Y266500D01*
X1253707Y267250D01*
X1183707Y266000D02*
X1185207D01*
Y265250D01*
X1184957Y265001D01*
X1183957D01*
X1183707Y265250D01*
Y266000D01*
X1185207Y263501D02*
Y264501D01*
X1184207Y263501D01*
X1183957D01*
X1183707Y263751D01*
Y264251D01*
X1183957Y264501D01*
X1185207Y263001D02*
X1184957D01*
Y262751D01*
X1185207D01*
Y263001D01*
X1183957Y261752D02*
X1183707Y261502D01*
Y261002D01*
X1183957Y260752D01*
X1184207D01*
X1184457Y261002D01*
Y261252D01*
Y261002D01*
X1184707Y260752D01*
X1184957D01*
X1185207Y261002D01*
Y261502D01*
X1184957Y261752D01*
X1185207Y260252D02*
X1184957D01*
Y260002D01*
X1185207D01*
Y260252D01*
Y259002D02*
Y258503D01*
Y258753D01*
X1183707D01*
X1183957Y259002D01*
Y257753D02*
X1183707Y257503D01*
Y257003D01*
X1183957Y256753D01*
X1184207D01*
X1184457Y257003D01*
Y257253D01*
Y257003D01*
X1184707Y256753D01*
X1184957D01*
X1185207Y257003D01*
Y257503D01*
X1184957Y257753D01*
X1180206Y266250D02*
X1178707D01*
X1179206D01*
X1180206Y267250D01*
X1179456Y266500D01*
X1178707Y267250D01*
X1108707Y116000D02*
X1110207D01*
Y115251D01*
X1109957Y115001D01*
X1108957D01*
X1108707Y115251D01*
Y116000D01*
X1110207Y113501D02*
Y114501D01*
X1109207Y113501D01*
X1108957D01*
X1108707Y113751D01*
Y114251D01*
X1108957Y114501D01*
X1110207Y113001D02*
X1109957D01*
Y112751D01*
X1110207D01*
Y113001D01*
X1108957Y111752D02*
X1108707Y111502D01*
Y111002D01*
X1108957Y110752D01*
X1109207D01*
X1109457Y111002D01*
Y111252D01*
Y111002D01*
X1109707Y110752D01*
X1109957D01*
X1110207Y111002D01*
Y111502D01*
X1109957Y111752D01*
X1110207Y110252D02*
X1109957D01*
Y110002D01*
X1110207D01*
Y110252D01*
Y109002D02*
Y108503D01*
Y108753D01*
X1108707D01*
X1108957Y109002D01*
X1110207Y107003D02*
X1108707D01*
X1109457Y107753D01*
Y106753D01*
X1105206Y116250D02*
X1103707D01*
X1104206D01*
X1105206Y117250D01*
X1104456Y116500D01*
X1103707Y117250D01*
X1183707Y41000D02*
X1185207D01*
Y40251D01*
X1184957Y40001D01*
X1183957D01*
X1183707Y40251D01*
Y41000D01*
X1185207Y38501D02*
Y39501D01*
X1184207Y38501D01*
X1183957D01*
X1183707Y38751D01*
Y39251D01*
X1183957Y39501D01*
X1185207Y38001D02*
X1184957D01*
Y37751D01*
X1185207D01*
Y38001D01*
X1183957Y36752D02*
X1183707Y36502D01*
Y36002D01*
X1183957Y35752D01*
X1184207D01*
X1184457Y36002D01*
Y36252D01*
Y36002D01*
X1184707Y35752D01*
X1184957D01*
X1185207Y36002D01*
Y36502D01*
X1184957Y36752D01*
X1185207Y35252D02*
X1184957D01*
Y35002D01*
X1185207D01*
Y35252D01*
Y34003D02*
Y33503D01*
Y33753D01*
X1183707D01*
X1183957Y34003D01*
X1183707Y31753D02*
Y32753D01*
X1184457D01*
X1184207Y32253D01*
Y32003D01*
X1184457Y31753D01*
X1184957D01*
X1185207Y32003D01*
Y32503D01*
X1184957Y32753D01*
X1180206Y41250D02*
X1178707D01*
X1179206D01*
X1180206Y42250D01*
X1179456Y41500D01*
X1178707Y42250D01*
X1108707Y41000D02*
X1110207D01*
Y40251D01*
X1109957Y40001D01*
X1108957D01*
X1108707Y40251D01*
Y41000D01*
X1110207Y38501D02*
Y39501D01*
X1109207Y38501D01*
X1108957D01*
X1108707Y38751D01*
Y39251D01*
X1108957Y39501D01*
X1110207Y38001D02*
X1109957D01*
Y37751D01*
X1110207D01*
Y38001D01*
X1108957Y36752D02*
X1108707Y36502D01*
Y36002D01*
X1108957Y35752D01*
X1109207D01*
X1109457Y36002D01*
Y36252D01*
Y36002D01*
X1109707Y35752D01*
X1109957D01*
X1110207Y36002D01*
Y36502D01*
X1109957Y36752D01*
X1110207Y35252D02*
X1109957D01*
Y35002D01*
X1110207D01*
Y35252D01*
Y34003D02*
Y33503D01*
Y33753D01*
X1108707D01*
X1108957Y34003D01*
X1108707Y31753D02*
X1108957Y32253D01*
X1109457Y32753D01*
X1109957D01*
X1110207Y32503D01*
Y32003D01*
X1109957Y31753D01*
X1109707D01*
X1109457Y32003D01*
Y32753D01*
X1105206Y41250D02*
X1103707D01*
X1104206D01*
X1105206Y42250D01*
X1104456Y41500D01*
X1103707Y42250D01*
X1033707Y41000D02*
X1035207D01*
Y40251D01*
X1034957Y40001D01*
X1033957D01*
X1033707Y40251D01*
Y41000D01*
X1035207Y38501D02*
Y39501D01*
X1034207Y38501D01*
X1033957D01*
X1033707Y38751D01*
Y39251D01*
X1033957Y39501D01*
X1035207Y38001D02*
X1034957D01*
Y37751D01*
X1035207D01*
Y38001D01*
X1033957Y36752D02*
X1033707Y36502D01*
Y36002D01*
X1033957Y35752D01*
X1034207D01*
X1034457Y36002D01*
Y36252D01*
Y36002D01*
X1034707Y35752D01*
X1034957D01*
X1035207Y36002D01*
Y36502D01*
X1034957Y36752D01*
X1035207Y35252D02*
X1034957D01*
Y35002D01*
X1035207D01*
Y35252D01*
Y34003D02*
Y33503D01*
Y33753D01*
X1033707D01*
X1033957Y34003D01*
X1033707Y32753D02*
Y31753D01*
X1033957D01*
X1034957Y32753D01*
X1035207D01*
X1030206Y41250D02*
X1028707D01*
X1029206D01*
X1030206Y42250D01*
X1029456Y41500D01*
X1028707Y42250D01*
X949332Y41000D02*
X950832D01*
Y40251D01*
X950582Y40001D01*
X949582D01*
X949332Y40251D01*
Y41000D01*
X950832Y38501D02*
Y39501D01*
X949832Y38501D01*
X949582D01*
X949332Y38751D01*
Y39251D01*
X949582Y39501D01*
X950832Y38001D02*
X950582D01*
Y37751D01*
X950832D01*
Y38001D01*
X949582Y36752D02*
X949332Y36502D01*
Y36002D01*
X949582Y35752D01*
X949832D01*
X950082Y36002D01*
Y36252D01*
Y36002D01*
X950332Y35752D01*
X950582D01*
X950832Y36002D01*
Y36502D01*
X950582Y36752D01*
X950832Y35252D02*
X950582D01*
Y35002D01*
X950832D01*
Y35252D01*
Y34003D02*
Y33503D01*
Y33753D01*
X949332D01*
X949582Y34003D01*
Y32753D02*
X949332Y32503D01*
Y32003D01*
X949582Y31753D01*
X949832D01*
X950082Y32003D01*
X950332Y31753D01*
X950582D01*
X950832Y32003D01*
Y32503D01*
X950582Y32753D01*
X950332D01*
X950082Y32503D01*
X949832Y32753D01*
X949582D01*
X950082Y32503D02*
Y32003D01*
X945831Y41250D02*
X944332D01*
X944831D01*
X945831Y42250D01*
X945081Y41500D01*
X944332Y42250D01*
X846207Y41000D02*
X847707D01*
Y40251D01*
X847457Y40001D01*
X846457D01*
X846207Y40251D01*
Y41000D01*
X847707Y38501D02*
Y39501D01*
X846707Y38501D01*
X846457D01*
X846207Y38751D01*
Y39251D01*
X846457Y39501D01*
X847707Y38001D02*
X847457D01*
Y37751D01*
X847707D01*
Y38001D01*
X846457Y36752D02*
X846207Y36502D01*
Y36002D01*
X846457Y35752D01*
X846707D01*
X846957Y36002D01*
Y36252D01*
Y36002D01*
X847207Y35752D01*
X847457D01*
X847707Y36002D01*
Y36502D01*
X847457Y36752D01*
X847707Y35252D02*
X847457D01*
Y35002D01*
X847707D01*
Y35252D01*
Y34003D02*
Y33503D01*
Y33753D01*
X846207D01*
X846457Y34003D01*
X847457Y32753D02*
X847707Y32503D01*
Y32003D01*
X847457Y31753D01*
X846457D01*
X846207Y32003D01*
Y32503D01*
X846457Y32753D01*
X846707D01*
X846957Y32503D01*
Y31753D01*
X842706Y41250D02*
X841207D01*
X841706D01*
X842706Y42250D01*
X841956Y41500D01*
X841207Y42250D01*
X752457Y41250D02*
X753957D01*
Y40500D01*
X753707Y40251D01*
X752707D01*
X752457Y40500D01*
Y41250D01*
X753957Y38751D02*
Y39751D01*
X752957Y38751D01*
X752707D01*
X752457Y39001D01*
Y39501D01*
X752707Y39751D01*
X753957Y38251D02*
X753707D01*
Y38001D01*
X753957D01*
Y38251D01*
X752707Y37001D02*
X752457Y36752D01*
Y36252D01*
X752707Y36002D01*
X752957D01*
X753207Y36252D01*
Y36502D01*
Y36252D01*
X753457Y36002D01*
X753707D01*
X753957Y36252D01*
Y36752D01*
X753707Y37001D01*
X753957Y35502D02*
X753707D01*
Y35252D01*
X753957D01*
Y35502D01*
Y33253D02*
Y34252D01*
X752957Y33253D01*
X752707D01*
X752457Y33503D01*
Y34003D01*
X752707Y34252D01*
Y32753D02*
X752457Y32503D01*
Y32003D01*
X752707Y31753D01*
X753707D01*
X753957Y32003D01*
Y32503D01*
X753707Y32753D01*
X752707D01*
X748956Y41250D02*
X747457D01*
X747957D01*
X748956Y42250D01*
X748206Y41500D01*
X747457Y42250D01*
X658707Y40750D02*
X660207D01*
Y40001D01*
X659957Y39751D01*
X658957D01*
X658707Y40001D01*
Y40750D01*
X660207Y38251D02*
Y39251D01*
X659207Y38251D01*
X658957D01*
X658707Y38501D01*
Y39001D01*
X658957Y39251D01*
X660207Y37751D02*
X659957D01*
Y37501D01*
X660207D01*
Y37751D01*
X658957Y36502D02*
X658707Y36252D01*
Y35752D01*
X658957Y35502D01*
X659207D01*
X659457Y35752D01*
Y36002D01*
Y35752D01*
X659707Y35502D01*
X659957D01*
X660207Y35752D01*
Y36252D01*
X659957Y36502D01*
X660207Y35002D02*
X659957D01*
Y34752D01*
X660207D01*
Y35002D01*
Y32753D02*
Y33753D01*
X659207Y32753D01*
X658957D01*
X658707Y33003D01*
Y33503D01*
X658957Y33753D01*
X660207Y32253D02*
Y31753D01*
Y32003D01*
X658707D01*
X658957Y32253D01*
X655206Y41250D02*
X653707D01*
X654207D01*
X655206Y42250D01*
X654456Y41500D01*
X653707Y42250D01*
X564957Y41250D02*
X566457D01*
Y40500D01*
X566207Y40251D01*
X565207D01*
X564957Y40500D01*
Y41250D01*
X566457Y38751D02*
Y39751D01*
X565457Y38751D01*
X565207D01*
X564957Y39001D01*
Y39501D01*
X565207Y39751D01*
X566457Y38251D02*
X566207D01*
Y38001D01*
X566457D01*
Y38251D01*
X565207Y37001D02*
X564957Y36752D01*
Y36252D01*
X565207Y36002D01*
X565457D01*
X565707Y36252D01*
Y36502D01*
Y36252D01*
X565957Y36002D01*
X566207D01*
X566457Y36252D01*
Y36752D01*
X566207Y37001D01*
X566457Y35502D02*
X566207D01*
Y35252D01*
X566457D01*
Y35502D01*
Y33253D02*
Y34252D01*
X565457Y33253D01*
X565207D01*
X564957Y33503D01*
Y34003D01*
X565207Y34252D01*
X566457Y31753D02*
Y32753D01*
X565457Y31753D01*
X565207D01*
X564957Y32003D01*
Y32503D01*
X565207Y32753D01*
X561456Y41250D02*
X559957D01*
X560457D01*
X561456Y42250D01*
X560706Y41500D01*
X559957Y42250D01*
X489957Y41250D02*
X491457D01*
Y40500D01*
X491207Y40251D01*
X490207D01*
X489957Y40500D01*
Y41250D01*
X491457Y38751D02*
Y39751D01*
X490457Y38751D01*
X490207D01*
X489957Y39001D01*
Y39501D01*
X490207Y39751D01*
X491457Y38251D02*
X491207D01*
Y38001D01*
X491457D01*
Y38251D01*
X490207Y37001D02*
X489957Y36752D01*
Y36252D01*
X490207Y36002D01*
X490457D01*
X490707Y36252D01*
Y36502D01*
Y36252D01*
X490957Y36002D01*
X491207D01*
X491457Y36252D01*
Y36752D01*
X491207Y37001D01*
X491457Y35502D02*
X491207D01*
Y35252D01*
X491457D01*
Y35502D01*
Y33253D02*
Y34252D01*
X490457Y33253D01*
X490207D01*
X489957Y33503D01*
Y34003D01*
X490207Y34252D01*
Y32753D02*
X489957Y32503D01*
Y32003D01*
X490207Y31753D01*
X490457D01*
X490707Y32003D01*
Y32253D01*
Y32003D01*
X490957Y31753D01*
X491207D01*
X491457Y32003D01*
Y32503D01*
X491207Y32753D01*
X486456Y41250D02*
X484957D01*
X485457D01*
X486456Y42250D01*
X485706Y41500D01*
X484957Y42250D01*
X396207Y41250D02*
X397707D01*
Y40500D01*
X397457Y40251D01*
X396457D01*
X396207Y40500D01*
Y41250D01*
X397707Y38751D02*
Y39751D01*
X396707Y38751D01*
X396457D01*
X396207Y39001D01*
Y39501D01*
X396457Y39751D01*
X397707Y38251D02*
X397457D01*
Y38001D01*
X397707D01*
Y38251D01*
X396457Y37001D02*
X396207Y36752D01*
Y36252D01*
X396457Y36002D01*
X396707D01*
X396957Y36252D01*
Y36502D01*
Y36252D01*
X397207Y36002D01*
X397457D01*
X397707Y36252D01*
Y36752D01*
X397457Y37001D01*
X397707Y35502D02*
X397457D01*
Y35252D01*
X397707D01*
Y35502D01*
Y33253D02*
Y34252D01*
X396707Y33253D01*
X396457D01*
X396207Y33503D01*
Y34003D01*
X396457Y34252D01*
X397707Y32003D02*
X396207D01*
X396957Y32753D01*
Y31753D01*
X392706Y41250D02*
X391207D01*
X391706D01*
X392706Y42250D01*
X391956Y41500D01*
X391207Y42250D01*
X302457Y41250D02*
X303957D01*
Y40500D01*
X303707Y40251D01*
X302707D01*
X302457Y40500D01*
Y41250D01*
X303957Y38751D02*
Y39751D01*
X302957Y38751D01*
X302707D01*
X302457Y39001D01*
Y39501D01*
X302707Y39751D01*
X303957Y38251D02*
X303707D01*
Y38001D01*
X303957D01*
Y38251D01*
X302707Y37001D02*
X302457Y36752D01*
Y36252D01*
X302707Y36002D01*
X302957D01*
X303207Y36252D01*
Y36502D01*
Y36252D01*
X303457Y36002D01*
X303707D01*
X303957Y36252D01*
Y36752D01*
X303707Y37001D01*
X303957Y35502D02*
X303707D01*
Y35252D01*
X303957D01*
Y35502D01*
Y33253D02*
Y34252D01*
X302957Y33253D01*
X302707D01*
X302457Y33503D01*
Y34003D01*
X302707Y34252D01*
X302457Y31753D02*
Y32753D01*
X303207D01*
X302957Y32253D01*
Y32003D01*
X303207Y31753D01*
X303707D01*
X303957Y32003D01*
Y32503D01*
X303707Y32753D01*
X298956Y41250D02*
X297457D01*
X297956D01*
X298956Y42250D01*
X298206Y41500D01*
X297457Y42250D01*
X227457Y41250D02*
X228957D01*
Y40500D01*
X228707Y40251D01*
X227707D01*
X227457Y40500D01*
Y41250D01*
X228957Y38751D02*
Y39751D01*
X227957Y38751D01*
X227707D01*
X227457Y39001D01*
Y39501D01*
X227707Y39751D01*
X228957Y38251D02*
X228707D01*
Y38001D01*
X228957D01*
Y38251D01*
X227707Y37001D02*
X227457Y36752D01*
Y36252D01*
X227707Y36002D01*
X227957D01*
X228207Y36252D01*
Y36502D01*
Y36252D01*
X228457Y36002D01*
X228707D01*
X228957Y36252D01*
Y36752D01*
X228707Y37001D01*
X228957Y35502D02*
X228707D01*
Y35252D01*
X228957D01*
Y35502D01*
Y33253D02*
Y34252D01*
X227957Y33253D01*
X227707D01*
X227457Y33503D01*
Y34003D01*
X227707Y34252D01*
X227457Y31753D02*
X227707Y32253D01*
X228207Y32753D01*
X228707D01*
X228957Y32503D01*
Y32003D01*
X228707Y31753D01*
X228457D01*
X228207Y32003D01*
Y32753D01*
X223956Y41250D02*
X222457D01*
X222956D01*
X223956Y42250D01*
X223206Y41500D01*
X222457Y42250D01*
X152457Y41250D02*
X153957D01*
Y40500D01*
X153707Y40251D01*
X152707D01*
X152457Y40500D01*
Y41250D01*
X153957Y38751D02*
Y39751D01*
X152957Y38751D01*
X152707D01*
X152457Y39001D01*
Y39501D01*
X152707Y39751D01*
X153957Y38251D02*
X153707D01*
Y38001D01*
X153957D01*
Y38251D01*
X152707Y37001D02*
X152457Y36752D01*
Y36252D01*
X152707Y36002D01*
X152957D01*
X153207Y36252D01*
Y36502D01*
Y36252D01*
X153457Y36002D01*
X153707D01*
X153957Y36252D01*
Y36752D01*
X153707Y37001D01*
X153957Y35502D02*
X153707D01*
Y35252D01*
X153957D01*
Y35502D01*
Y33253D02*
Y34252D01*
X152957Y33253D01*
X152707D01*
X152457Y33503D01*
Y34003D01*
X152707Y34252D01*
X152457Y32753D02*
Y31753D01*
X152707D01*
X153707Y32753D01*
X153957D01*
X148956Y41250D02*
X147457D01*
X147957D01*
X148956Y42250D01*
X148206Y41500D01*
X147457Y42250D01*
X68082Y41250D02*
X69582D01*
Y40500D01*
X69332Y40251D01*
X68332D01*
X68082Y40500D01*
Y41250D01*
X69582Y38751D02*
Y39751D01*
X68582Y38751D01*
X68332D01*
X68082Y39001D01*
Y39501D01*
X68332Y39751D01*
X69582Y38251D02*
X69332D01*
Y38001D01*
X69582D01*
Y38251D01*
X68332Y37001D02*
X68082Y36752D01*
Y36252D01*
X68332Y36002D01*
X68582D01*
X68832Y36252D01*
Y36502D01*
Y36252D01*
X69082Y36002D01*
X69332D01*
X69582Y36252D01*
Y36752D01*
X69332Y37001D01*
X69582Y35502D02*
X69332D01*
Y35252D01*
X69582D01*
Y35502D01*
Y33253D02*
Y34252D01*
X68582Y33253D01*
X68332D01*
X68082Y33503D01*
Y34003D01*
X68332Y34252D01*
Y32753D02*
X68082Y32503D01*
Y32003D01*
X68332Y31753D01*
X68582D01*
X68832Y32003D01*
X69082Y31753D01*
X69332D01*
X69582Y32003D01*
Y32503D01*
X69332Y32753D01*
X69082D01*
X68832Y32503D01*
X68582Y32753D01*
X68332D01*
X68832Y32503D02*
Y32003D01*
X64581Y41250D02*
X63082D01*
X63582D01*
X64581Y42250D01*
X63831Y41500D01*
X63082Y42250D01*
X1005582Y116250D02*
X1007082D01*
Y115500D01*
X1006832Y115251D01*
X1005832D01*
X1005582Y115500D01*
Y116250D01*
X1007082Y113751D02*
Y114751D01*
X1006082Y113751D01*
X1005832D01*
X1005582Y114001D01*
Y114501D01*
X1005832Y114751D01*
X1007082Y113251D02*
X1006832D01*
Y113001D01*
X1007082D01*
Y113251D01*
X1005832Y112002D02*
X1005582Y111752D01*
Y111252D01*
X1005832Y111002D01*
X1006082D01*
X1006332Y111252D01*
Y111502D01*
Y111252D01*
X1006582Y111002D01*
X1006832D01*
X1007082Y111252D01*
Y111752D01*
X1006832Y112002D01*
X1007082Y110502D02*
X1006832D01*
Y110252D01*
X1007082D01*
Y110502D01*
Y108253D02*
Y109252D01*
X1006082Y108253D01*
X1005832D01*
X1005582Y108503D01*
Y109002D01*
X1005832Y109252D01*
X1006832Y107753D02*
X1007082Y107503D01*
Y107003D01*
X1006832Y106753D01*
X1005832D01*
X1005582Y107003D01*
Y107503D01*
X1005832Y107753D01*
X1006082D01*
X1006332Y107503D01*
Y106753D01*
X1002081Y116250D02*
X1000582D01*
X1001081D01*
X1002081Y117250D01*
X1001331Y116500D01*
X1000582Y117250D01*
X902457Y116250D02*
X903957D01*
Y115500D01*
X903707Y115251D01*
X902707D01*
X902457Y115500D01*
Y116250D01*
X903957Y113751D02*
Y114751D01*
X902957Y113751D01*
X902707D01*
X902457Y114001D01*
Y114501D01*
X902707Y114751D01*
X903957Y113251D02*
X903707D01*
Y113001D01*
X903957D01*
Y113251D01*
X902707Y112002D02*
X902457Y111752D01*
Y111252D01*
X902707Y111002D01*
X902957D01*
X903207Y111252D01*
Y111502D01*
Y111252D01*
X903457Y111002D01*
X903707D01*
X903957Y111252D01*
Y111752D01*
X903707Y112002D01*
X903957Y110502D02*
X903707D01*
Y110252D01*
X903957D01*
Y110502D01*
X902707Y109252D02*
X902457Y109002D01*
Y108503D01*
X902707Y108253D01*
X902957D01*
X903207Y108503D01*
Y108753D01*
Y108503D01*
X903457Y108253D01*
X903707D01*
X903957Y108503D01*
Y109002D01*
X903707Y109252D01*
X902707Y107753D02*
X902457Y107503D01*
Y107003D01*
X902707Y106753D01*
X903707D01*
X903957Y107003D01*
Y107503D01*
X903707Y107753D01*
X902707D01*
X898956Y116250D02*
X897457D01*
X897956D01*
X898956Y117250D01*
X898206Y116500D01*
X897457Y117250D01*
X827457Y115750D02*
X828957D01*
Y115001D01*
X828707Y114751D01*
X827707D01*
X827457Y115001D01*
Y115750D01*
X828957Y113251D02*
Y114251D01*
X827957Y113251D01*
X827707D01*
X827457Y113501D01*
Y114001D01*
X827707Y114251D01*
X828957Y112751D02*
X828707D01*
Y112501D01*
X828957D01*
Y112751D01*
X827707Y111502D02*
X827457Y111252D01*
Y110752D01*
X827707Y110502D01*
X827957D01*
X828207Y110752D01*
Y111002D01*
Y110752D01*
X828457Y110502D01*
X828707D01*
X828957Y110752D01*
Y111252D01*
X828707Y111502D01*
X828957Y110002D02*
X828707D01*
Y109752D01*
X828957D01*
Y110002D01*
X827707Y108753D02*
X827457Y108503D01*
Y108003D01*
X827707Y107753D01*
X827957D01*
X828207Y108003D01*
Y108253D01*
Y108003D01*
X828457Y107753D01*
X828707D01*
X828957Y108003D01*
Y108503D01*
X828707Y108753D01*
X828957Y107253D02*
Y106753D01*
Y107003D01*
X827457D01*
X827707Y107253D01*
X823956Y116250D02*
X822457D01*
X822956D01*
X823956Y117250D01*
X823206Y116500D01*
X822457Y117250D01*
X752457Y116250D02*
X753957D01*
Y115500D01*
X753707Y115251D01*
X752707D01*
X752457Y115500D01*
Y116250D01*
X753957Y113751D02*
Y114751D01*
X752957Y113751D01*
X752707D01*
X752457Y114001D01*
Y114501D01*
X752707Y114751D01*
X753957Y113251D02*
X753707D01*
Y113001D01*
X753957D01*
Y113251D01*
X752707Y112002D02*
X752457Y111752D01*
Y111252D01*
X752707Y111002D01*
X752957D01*
X753207Y111252D01*
Y111502D01*
Y111252D01*
X753457Y111002D01*
X753707D01*
X753957Y111252D01*
Y111752D01*
X753707Y112002D01*
X753957Y110502D02*
X753707D01*
Y110252D01*
X753957D01*
Y110502D01*
X752707Y109252D02*
X752457Y109002D01*
Y108503D01*
X752707Y108253D01*
X752957D01*
X753207Y108503D01*
Y108753D01*
Y108503D01*
X753457Y108253D01*
X753707D01*
X753957Y108503D01*
Y109002D01*
X753707Y109252D01*
X753957Y106753D02*
Y107753D01*
X752957Y106753D01*
X752707D01*
X752457Y107003D01*
Y107503D01*
X752707Y107753D01*
X748956Y116250D02*
X747457D01*
X747957D01*
X748956Y117250D01*
X748206Y116500D01*
X747457Y117250D01*
X677457Y116250D02*
X678957D01*
Y115500D01*
X678707Y115251D01*
X677707D01*
X677457Y115500D01*
Y116250D01*
X678957Y113751D02*
Y114751D01*
X677957Y113751D01*
X677707D01*
X677457Y114001D01*
Y114501D01*
X677707Y114751D01*
X678957Y113251D02*
X678707D01*
Y113001D01*
X678957D01*
Y113251D01*
X677707Y112002D02*
X677457Y111752D01*
Y111252D01*
X677707Y111002D01*
X677957D01*
X678207Y111252D01*
Y111502D01*
Y111252D01*
X678457Y111002D01*
X678707D01*
X678957Y111252D01*
Y111752D01*
X678707Y112002D01*
X678957Y110502D02*
X678707D01*
Y110252D01*
X678957D01*
Y110502D01*
X677707Y109252D02*
X677457Y109002D01*
Y108503D01*
X677707Y108253D01*
X677957D01*
X678207Y108503D01*
Y108753D01*
Y108503D01*
X678457Y108253D01*
X678707D01*
X678957Y108503D01*
Y109002D01*
X678707Y109252D01*
X677707Y107753D02*
X677457Y107503D01*
Y107003D01*
X677707Y106753D01*
X677957D01*
X678207Y107003D01*
Y107253D01*
Y107003D01*
X678457Y106753D01*
X678707D01*
X678957Y107003D01*
Y107503D01*
X678707Y107753D01*
X673956Y116250D02*
X672457D01*
X672957D01*
X673956Y117250D01*
X673206Y116500D01*
X672457Y117250D01*
X602457Y116250D02*
X603957D01*
Y115500D01*
X603707Y115251D01*
X602707D01*
X602457Y115500D01*
Y116250D01*
X603957Y113751D02*
Y114751D01*
X602957Y113751D01*
X602707D01*
X602457Y114001D01*
Y114501D01*
X602707Y114751D01*
X603957Y113251D02*
X603707D01*
Y113001D01*
X603957D01*
Y113251D01*
X602707Y112002D02*
X602457Y111752D01*
Y111252D01*
X602707Y111002D01*
X602957D01*
X603207Y111252D01*
Y111502D01*
Y111252D01*
X603457Y111002D01*
X603707D01*
X603957Y111252D01*
Y111752D01*
X603707Y112002D01*
X603957Y110502D02*
X603707D01*
Y110252D01*
X603957D01*
Y110502D01*
X602707Y109252D02*
X602457Y109002D01*
Y108503D01*
X602707Y108253D01*
X602957D01*
X603207Y108503D01*
Y108753D01*
Y108503D01*
X603457Y108253D01*
X603707D01*
X603957Y108503D01*
Y109002D01*
X603707Y109252D01*
X603957Y107003D02*
X602457D01*
X603207Y107753D01*
Y106753D01*
X598956Y116250D02*
X597457D01*
X597957D01*
X598956Y117250D01*
X598206Y116500D01*
X597457Y117250D01*
X527457Y116250D02*
X528957D01*
Y115500D01*
X528707Y115251D01*
X527707D01*
X527457Y115500D01*
Y116250D01*
X528957Y113751D02*
Y114751D01*
X527957Y113751D01*
X527707D01*
X527457Y114001D01*
Y114501D01*
X527707Y114751D01*
X528957Y113251D02*
X528707D01*
Y113001D01*
X528957D01*
Y113251D01*
X527707Y112002D02*
X527457Y111752D01*
Y111252D01*
X527707Y111002D01*
X527957D01*
X528207Y111252D01*
Y111502D01*
Y111252D01*
X528457Y111002D01*
X528707D01*
X528957Y111252D01*
Y111752D01*
X528707Y112002D01*
X528957Y110502D02*
X528707D01*
Y110252D01*
X528957D01*
Y110502D01*
X527707Y109252D02*
X527457Y109002D01*
Y108503D01*
X527707Y108253D01*
X527957D01*
X528207Y108503D01*
Y108753D01*
Y108503D01*
X528457Y108253D01*
X528707D01*
X528957Y108503D01*
Y109002D01*
X528707Y109252D01*
X527457Y106753D02*
Y107753D01*
X528207D01*
X527957Y107253D01*
Y107003D01*
X528207Y106753D01*
X528707D01*
X528957Y107003D01*
Y107503D01*
X528707Y107753D01*
X523956Y116250D02*
X522457D01*
X522957D01*
X523956Y117250D01*
X523206Y116500D01*
X522457Y117250D01*
X452457Y116250D02*
X453957D01*
Y115500D01*
X453707Y115251D01*
X452707D01*
X452457Y115500D01*
Y116250D01*
X453957Y113751D02*
Y114751D01*
X452957Y113751D01*
X452707D01*
X452457Y114001D01*
Y114501D01*
X452707Y114751D01*
X453957Y113251D02*
X453707D01*
Y113001D01*
X453957D01*
Y113251D01*
X452707Y112002D02*
X452457Y111752D01*
Y111252D01*
X452707Y111002D01*
X452957D01*
X453207Y111252D01*
Y111502D01*
Y111252D01*
X453457Y111002D01*
X453707D01*
X453957Y111252D01*
Y111752D01*
X453707Y112002D01*
X453957Y110502D02*
X453707D01*
Y110252D01*
X453957D01*
Y110502D01*
X452707Y109252D02*
X452457Y109002D01*
Y108503D01*
X452707Y108253D01*
X452957D01*
X453207Y108503D01*
Y108753D01*
Y108503D01*
X453457Y108253D01*
X453707D01*
X453957Y108503D01*
Y109002D01*
X453707Y109252D01*
X452457Y106753D02*
X452707Y107253D01*
X453207Y107753D01*
X453707D01*
X453957Y107503D01*
Y107003D01*
X453707Y106753D01*
X453457D01*
X453207Y107003D01*
Y107753D01*
X448956Y116250D02*
X447457D01*
X447957D01*
X448956Y117250D01*
X448206Y116500D01*
X447457Y117250D01*
X377457Y116250D02*
X378957D01*
Y115500D01*
X378707Y115251D01*
X377707D01*
X377457Y115500D01*
Y116250D01*
X378957Y113751D02*
Y114751D01*
X377957Y113751D01*
X377707D01*
X377457Y114001D01*
Y114501D01*
X377707Y114751D01*
X378957Y113251D02*
X378707D01*
Y113001D01*
X378957D01*
Y113251D01*
X377707Y112002D02*
X377457Y111752D01*
Y111252D01*
X377707Y111002D01*
X377957D01*
X378207Y111252D01*
Y111502D01*
Y111252D01*
X378457Y111002D01*
X378707D01*
X378957Y111252D01*
Y111752D01*
X378707Y112002D01*
X378957Y110502D02*
X378707D01*
Y110252D01*
X378957D01*
Y110502D01*
X377707Y109252D02*
X377457Y109002D01*
Y108503D01*
X377707Y108253D01*
X377957D01*
X378207Y108503D01*
Y108753D01*
Y108503D01*
X378457Y108253D01*
X378707D01*
X378957Y108503D01*
Y109002D01*
X378707Y109252D01*
X377457Y107753D02*
Y106753D01*
X377707D01*
X378707Y107753D01*
X378957D01*
X373956Y116250D02*
X372457D01*
X372956D01*
X373956Y117250D01*
X373206Y116500D01*
X372457Y117250D01*
X302457Y116250D02*
X303957D01*
Y115500D01*
X303707Y115251D01*
X302707D01*
X302457Y115500D01*
Y116250D01*
X303957Y113751D02*
Y114751D01*
X302957Y113751D01*
X302707D01*
X302457Y114001D01*
Y114501D01*
X302707Y114751D01*
X303957Y113251D02*
X303707D01*
Y113001D01*
X303957D01*
Y113251D01*
X302707Y112002D02*
X302457Y111752D01*
Y111252D01*
X302707Y111002D01*
X302957D01*
X303207Y111252D01*
Y111502D01*
Y111252D01*
X303457Y111002D01*
X303707D01*
X303957Y111252D01*
Y111752D01*
X303707Y112002D01*
X303957Y110502D02*
X303707D01*
Y110252D01*
X303957D01*
Y110502D01*
X302707Y109252D02*
X302457Y109002D01*
Y108503D01*
X302707Y108253D01*
X302957D01*
X303207Y108503D01*
Y108753D01*
Y108503D01*
X303457Y108253D01*
X303707D01*
X303957Y108503D01*
Y109002D01*
X303707Y109252D01*
X302707Y107753D02*
X302457Y107503D01*
Y107003D01*
X302707Y106753D01*
X302957D01*
X303207Y107003D01*
X303457Y106753D01*
X303707D01*
X303957Y107003D01*
Y107503D01*
X303707Y107753D01*
X303457D01*
X303207Y107503D01*
X302957Y107753D01*
X302707D01*
X303207Y107503D02*
Y107003D01*
X298956Y116250D02*
X297457D01*
X297956D01*
X298956Y117250D01*
X298206Y116500D01*
X297457Y117250D01*
X227457Y116250D02*
X228957D01*
Y115500D01*
X228707Y115251D01*
X227707D01*
X227457Y115500D01*
Y116250D01*
X228957Y113751D02*
Y114751D01*
X227957Y113751D01*
X227707D01*
X227457Y114001D01*
Y114501D01*
X227707Y114751D01*
X228957Y113251D02*
X228707D01*
Y113001D01*
X228957D01*
Y113251D01*
X227707Y112002D02*
X227457Y111752D01*
Y111252D01*
X227707Y111002D01*
X227957D01*
X228207Y111252D01*
Y111502D01*
Y111252D01*
X228457Y111002D01*
X228707D01*
X228957Y111252D01*
Y111752D01*
X228707Y112002D01*
X228957Y110502D02*
X228707D01*
Y110252D01*
X228957D01*
Y110502D01*
X227707Y109252D02*
X227457Y109002D01*
Y108503D01*
X227707Y108253D01*
X227957D01*
X228207Y108503D01*
Y108753D01*
Y108503D01*
X228457Y108253D01*
X228707D01*
X228957Y108503D01*
Y109002D01*
X228707Y109252D01*
Y107753D02*
X228957Y107503D01*
Y107003D01*
X228707Y106753D01*
X227707D01*
X227457Y107003D01*
Y107503D01*
X227707Y107753D01*
X227957D01*
X228207Y107503D01*
Y106753D01*
X223956Y116250D02*
X222457D01*
X222956D01*
X223956Y117250D01*
X223206Y116500D01*
X222457Y117250D01*
X114957Y116250D02*
X116457D01*
Y115500D01*
X116207Y115251D01*
X115207D01*
X114957Y115500D01*
Y116250D01*
X116457Y113751D02*
Y114751D01*
X115457Y113751D01*
X115207D01*
X114957Y114001D01*
Y114501D01*
X115207Y114751D01*
X116457Y113251D02*
X116207D01*
Y113001D01*
X116457D01*
Y113251D01*
X115207Y112002D02*
X114957Y111752D01*
Y111252D01*
X115207Y111002D01*
X115457D01*
X115707Y111252D01*
Y111502D01*
Y111252D01*
X115957Y111002D01*
X116207D01*
X116457Y111252D01*
Y111752D01*
X116207Y112002D01*
X116457Y110502D02*
X116207D01*
Y110252D01*
X116457D01*
Y110502D01*
Y108503D02*
X114957D01*
X115707Y109252D01*
Y108253D01*
X115207Y107753D02*
X114957Y107503D01*
Y107003D01*
X115207Y106753D01*
X116207D01*
X116457Y107003D01*
Y107503D01*
X116207Y107753D01*
X115207D01*
X111456Y116250D02*
X109957D01*
X110457D01*
X111456Y117250D01*
X110706Y116500D01*
X109957Y117250D01*
X1061832Y190750D02*
X1063332D01*
Y190001D01*
X1063082Y189751D01*
X1062082D01*
X1061832Y190001D01*
Y190750D01*
X1063332Y188251D02*
Y189251D01*
X1062332Y188251D01*
X1062082D01*
X1061832Y188501D01*
Y189001D01*
X1062082Y189251D01*
X1063332Y187751D02*
X1063082D01*
Y187501D01*
X1063332D01*
Y187751D01*
X1062082Y186502D02*
X1061832Y186252D01*
Y185752D01*
X1062082Y185502D01*
X1062332D01*
X1062582Y185752D01*
Y186002D01*
Y185752D01*
X1062832Y185502D01*
X1063082D01*
X1063332Y185752D01*
Y186252D01*
X1063082Y186502D01*
X1063332Y185002D02*
X1063082D01*
Y184752D01*
X1063332D01*
Y185002D01*
Y183003D02*
X1061832D01*
X1062582Y183753D01*
Y182753D01*
X1063332Y182253D02*
Y181753D01*
Y182003D01*
X1061832D01*
X1062082Y182253D01*
X1058331Y191250D02*
X1056832D01*
X1057331D01*
X1058331Y192250D01*
X1057581Y191500D01*
X1056832Y192250D01*
X939957Y191250D02*
X941457D01*
Y190500D01*
X941207Y190251D01*
X940207D01*
X939957Y190500D01*
Y191250D01*
X941457Y188751D02*
Y189751D01*
X940457Y188751D01*
X940207D01*
X939957Y189001D01*
Y189501D01*
X940207Y189751D01*
X941457Y188251D02*
X941207D01*
Y188001D01*
X941457D01*
Y188251D01*
X940207Y187002D02*
X939957Y186752D01*
Y186252D01*
X940207Y186002D01*
X940457D01*
X940707Y186252D01*
Y186502D01*
Y186252D01*
X940957Y186002D01*
X941207D01*
X941457Y186252D01*
Y186752D01*
X941207Y187002D01*
X941457Y185502D02*
X941207D01*
Y185252D01*
X941457D01*
Y185502D01*
Y183503D02*
X939957D01*
X940707Y184252D01*
Y183253D01*
X941457Y181753D02*
Y182753D01*
X940457Y181753D01*
X940207D01*
X939957Y182003D01*
Y182503D01*
X940207Y182753D01*
X936456Y191250D02*
X934957D01*
X935456D01*
X936456Y192250D01*
X935706Y191500D01*
X934957Y192250D01*
X864957Y191250D02*
X866457D01*
Y190500D01*
X866207Y190251D01*
X865207D01*
X864957Y190500D01*
Y191250D01*
X866457Y188751D02*
Y189751D01*
X865457Y188751D01*
X865207D01*
X864957Y189001D01*
Y189501D01*
X865207Y189751D01*
X866457Y188251D02*
X866207D01*
Y188001D01*
X866457D01*
Y188251D01*
X865207Y187002D02*
X864957Y186752D01*
Y186252D01*
X865207Y186002D01*
X865457D01*
X865707Y186252D01*
Y186502D01*
Y186252D01*
X865957Y186002D01*
X866207D01*
X866457Y186252D01*
Y186752D01*
X866207Y187002D01*
X866457Y185502D02*
X866207D01*
Y185252D01*
X866457D01*
Y185502D01*
Y183503D02*
X864957D01*
X865707Y184252D01*
Y183253D01*
X865207Y182753D02*
X864957Y182503D01*
Y182003D01*
X865207Y181753D01*
X865457D01*
X865707Y182003D01*
Y182253D01*
Y182003D01*
X865957Y181753D01*
X866207D01*
X866457Y182003D01*
Y182503D01*
X866207Y182753D01*
X861456Y191250D02*
X859957D01*
X860456D01*
X861456Y192250D01*
X860706Y191500D01*
X859957Y192250D01*
X789957Y191250D02*
X791457D01*
Y190500D01*
X791207Y190251D01*
X790207D01*
X789957Y190500D01*
Y191250D01*
X791457Y188751D02*
Y189751D01*
X790457Y188751D01*
X790207D01*
X789957Y189001D01*
Y189501D01*
X790207Y189751D01*
X791457Y188251D02*
X791207D01*
Y188001D01*
X791457D01*
Y188251D01*
X790207Y187002D02*
X789957Y186752D01*
Y186252D01*
X790207Y186002D01*
X790457D01*
X790707Y186252D01*
Y186502D01*
Y186252D01*
X790957Y186002D01*
X791207D01*
X791457Y186252D01*
Y186752D01*
X791207Y187002D01*
X791457Y185502D02*
X791207D01*
Y185252D01*
X791457D01*
Y185502D01*
Y183503D02*
X789957D01*
X790707Y184252D01*
Y183253D01*
X791457Y182003D02*
X789957D01*
X790707Y182753D01*
Y181753D01*
X786456Y191250D02*
X784957D01*
X785457D01*
X786456Y192250D01*
X785706Y191500D01*
X784957Y192250D01*
X714957Y191250D02*
X716457D01*
Y190500D01*
X716207Y190251D01*
X715207D01*
X714957Y190500D01*
Y191250D01*
X716457Y188751D02*
Y189751D01*
X715457Y188751D01*
X715207D01*
X714957Y189001D01*
Y189501D01*
X715207Y189751D01*
X716457Y188251D02*
X716207D01*
Y188001D01*
X716457D01*
Y188251D01*
X715207Y187002D02*
X714957Y186752D01*
Y186252D01*
X715207Y186002D01*
X715457D01*
X715707Y186252D01*
Y186502D01*
Y186252D01*
X715957Y186002D01*
X716207D01*
X716457Y186252D01*
Y186752D01*
X716207Y187002D01*
X716457Y185502D02*
X716207D01*
Y185252D01*
X716457D01*
Y185502D01*
Y183503D02*
X714957D01*
X715707Y184252D01*
Y183253D01*
X714957Y181753D02*
Y182753D01*
X715707D01*
X715457Y182253D01*
Y182003D01*
X715707Y181753D01*
X716207D01*
X716457Y182003D01*
Y182503D01*
X716207Y182753D01*
X711456Y191250D02*
X709957D01*
X710457D01*
X711456Y192250D01*
X710706Y191500D01*
X709957Y192250D01*
X639957Y191250D02*
X641457D01*
Y190500D01*
X641207Y190251D01*
X640207D01*
X639957Y190500D01*
Y191250D01*
X641457Y188751D02*
Y189751D01*
X640457Y188751D01*
X640207D01*
X639957Y189001D01*
Y189501D01*
X640207Y189751D01*
X641457Y188251D02*
X641207D01*
Y188001D01*
X641457D01*
Y188251D01*
X640207Y187002D02*
X639957Y186752D01*
Y186252D01*
X640207Y186002D01*
X640457D01*
X640707Y186252D01*
Y186502D01*
Y186252D01*
X640957Y186002D01*
X641207D01*
X641457Y186252D01*
Y186752D01*
X641207Y187002D01*
X641457Y185502D02*
X641207D01*
Y185252D01*
X641457D01*
Y185502D01*
Y183503D02*
X639957D01*
X640707Y184252D01*
Y183253D01*
X639957Y181753D02*
X640207Y182253D01*
X640707Y182753D01*
X641207D01*
X641457Y182503D01*
Y182003D01*
X641207Y181753D01*
X640957D01*
X640707Y182003D01*
Y182753D01*
X636456Y191250D02*
X634957D01*
X635457D01*
X636456Y192250D01*
X635706Y191500D01*
X634957Y192250D01*
X564957Y191250D02*
X566457D01*
Y190500D01*
X566207Y190251D01*
X565207D01*
X564957Y190500D01*
Y191250D01*
X566457Y188751D02*
Y189751D01*
X565457Y188751D01*
X565207D01*
X564957Y189001D01*
Y189501D01*
X565207Y189751D01*
X566457Y188251D02*
X566207D01*
Y188001D01*
X566457D01*
Y188251D01*
X565207Y187002D02*
X564957Y186752D01*
Y186252D01*
X565207Y186002D01*
X565457D01*
X565707Y186252D01*
Y186502D01*
Y186252D01*
X565957Y186002D01*
X566207D01*
X566457Y186252D01*
Y186752D01*
X566207Y187002D01*
X566457Y185502D02*
X566207D01*
Y185252D01*
X566457D01*
Y185502D01*
Y183503D02*
X564957D01*
X565707Y184252D01*
Y183253D01*
X564957Y182753D02*
Y181753D01*
X565207D01*
X566207Y182753D01*
X566457D01*
X561456Y191250D02*
X559957D01*
X560457D01*
X561456Y192250D01*
X560706Y191500D01*
X559957Y192250D01*
X489957Y191250D02*
X491457D01*
Y190500D01*
X491207Y190251D01*
X490207D01*
X489957Y190500D01*
Y191250D01*
X491457Y188751D02*
Y189751D01*
X490457Y188751D01*
X490207D01*
X489957Y189001D01*
Y189501D01*
X490207Y189751D01*
X491457Y188251D02*
X491207D01*
Y188001D01*
X491457D01*
Y188251D01*
X490207Y187002D02*
X489957Y186752D01*
Y186252D01*
X490207Y186002D01*
X490457D01*
X490707Y186252D01*
Y186502D01*
Y186252D01*
X490957Y186002D01*
X491207D01*
X491457Y186252D01*
Y186752D01*
X491207Y187002D01*
X491457Y185502D02*
X491207D01*
Y185252D01*
X491457D01*
Y185502D01*
Y183503D02*
X489957D01*
X490707Y184252D01*
Y183253D01*
X490207Y182753D02*
X489957Y182503D01*
Y182003D01*
X490207Y181753D01*
X490457D01*
X490707Y182003D01*
X490957Y181753D01*
X491207D01*
X491457Y182003D01*
Y182503D01*
X491207Y182753D01*
X490957D01*
X490707Y182503D01*
X490457Y182753D01*
X490207D01*
X490707Y182503D02*
Y182003D01*
X486456Y191250D02*
X484957D01*
X485457D01*
X486456Y192250D01*
X485706Y191500D01*
X484957Y192250D01*
X414957Y191250D02*
X416457D01*
Y190500D01*
X416207Y190251D01*
X415207D01*
X414957Y190500D01*
Y191250D01*
X416457Y188751D02*
Y189751D01*
X415457Y188751D01*
X415207D01*
X414957Y189001D01*
Y189501D01*
X415207Y189751D01*
X416457Y188251D02*
X416207D01*
Y188001D01*
X416457D01*
Y188251D01*
X415207Y187002D02*
X414957Y186752D01*
Y186252D01*
X415207Y186002D01*
X415457D01*
X415707Y186252D01*
Y186502D01*
Y186252D01*
X415957Y186002D01*
X416207D01*
X416457Y186252D01*
Y186752D01*
X416207Y187002D01*
X416457Y185502D02*
X416207D01*
Y185252D01*
X416457D01*
Y185502D01*
Y183503D02*
X414957D01*
X415707Y184252D01*
Y183253D01*
X416207Y182753D02*
X416457Y182503D01*
Y182003D01*
X416207Y181753D01*
X415207D01*
X414957Y182003D01*
Y182503D01*
X415207Y182753D01*
X415457D01*
X415707Y182503D01*
Y181753D01*
X411456Y191250D02*
X409957D01*
X410457D01*
X411456Y192250D01*
X410706Y191500D01*
X409957Y192250D01*
X339957Y191250D02*
X341457D01*
Y190500D01*
X341207Y190251D01*
X340207D01*
X339957Y190500D01*
Y191250D01*
X341457Y188751D02*
Y189751D01*
X340457Y188751D01*
X340207D01*
X339957Y189001D01*
Y189501D01*
X340207Y189751D01*
X341457Y188251D02*
X341207D01*
Y188001D01*
X341457D01*
Y188251D01*
X340207Y187002D02*
X339957Y186752D01*
Y186252D01*
X340207Y186002D01*
X340457D01*
X340707Y186252D01*
Y186502D01*
Y186252D01*
X340957Y186002D01*
X341207D01*
X341457Y186252D01*
Y186752D01*
X341207Y187002D01*
X341457Y185502D02*
X341207D01*
Y185252D01*
X341457D01*
Y185502D01*
X339957Y183253D02*
Y184252D01*
X340707D01*
X340457Y183753D01*
Y183503D01*
X340707Y183253D01*
X341207D01*
X341457Y183503D01*
Y184002D01*
X341207Y184252D01*
X340207Y182753D02*
X339957Y182503D01*
Y182003D01*
X340207Y181753D01*
X341207D01*
X341457Y182003D01*
Y182503D01*
X341207Y182753D01*
X340207D01*
X336456Y191250D02*
X334957D01*
X335456D01*
X336456Y192250D01*
X335706Y191500D01*
X334957Y192250D01*
X264957Y190750D02*
X266457D01*
Y190001D01*
X266207Y189751D01*
X265207D01*
X264957Y190001D01*
Y190750D01*
X266457Y188251D02*
Y189251D01*
X265457Y188251D01*
X265207D01*
X264957Y188501D01*
Y189001D01*
X265207Y189251D01*
X266457Y187751D02*
X266207D01*
Y187501D01*
X266457D01*
Y187751D01*
X265207Y186502D02*
X264957Y186252D01*
Y185752D01*
X265207Y185502D01*
X265457D01*
X265707Y185752D01*
Y186002D01*
Y185752D01*
X265957Y185502D01*
X266207D01*
X266457Y185752D01*
Y186252D01*
X266207Y186502D01*
X266457Y185002D02*
X266207D01*
Y184752D01*
X266457D01*
Y185002D01*
X264957Y182753D02*
Y183753D01*
X265707D01*
X265457Y183253D01*
Y183003D01*
X265707Y182753D01*
X266207D01*
X266457Y183003D01*
Y183503D01*
X266207Y183753D01*
X266457Y182253D02*
Y181753D01*
Y182003D01*
X264957D01*
X265207Y182253D01*
X261456Y191250D02*
X259957D01*
X260456D01*
X261456Y192250D01*
X260706Y191500D01*
X259957Y192250D01*
X189957Y191250D02*
X191457D01*
Y190500D01*
X191207Y190251D01*
X190207D01*
X189957Y190500D01*
Y191250D01*
X191457Y188751D02*
Y189751D01*
X190457Y188751D01*
X190207D01*
X189957Y189001D01*
Y189501D01*
X190207Y189751D01*
X191457Y188251D02*
X191207D01*
Y188001D01*
X191457D01*
Y188251D01*
X190207Y187002D02*
X189957Y186752D01*
Y186252D01*
X190207Y186002D01*
X190457D01*
X190707Y186252D01*
Y186502D01*
Y186252D01*
X190957Y186002D01*
X191207D01*
X191457Y186252D01*
Y186752D01*
X191207Y187002D01*
X191457Y185502D02*
X191207D01*
Y185252D01*
X191457D01*
Y185502D01*
X189957Y183253D02*
Y184252D01*
X190707D01*
X190457Y183753D01*
Y183503D01*
X190707Y183253D01*
X191207D01*
X191457Y183503D01*
Y184002D01*
X191207Y184252D01*
X191457Y181753D02*
Y182753D01*
X190457Y181753D01*
X190207D01*
X189957Y182003D01*
Y182503D01*
X190207Y182753D01*
X186456Y191250D02*
X184957D01*
X185457D01*
X186456Y192250D01*
X185706Y191500D01*
X184957Y192250D01*
X96207Y191250D02*
X97707D01*
Y190500D01*
X97457Y190251D01*
X96457D01*
X96207Y190500D01*
Y191250D01*
X97707Y188751D02*
Y189751D01*
X96707Y188751D01*
X96457D01*
X96207Y189001D01*
Y189501D01*
X96457Y189751D01*
X97707Y188251D02*
X97457D01*
Y188001D01*
X97707D01*
Y188251D01*
X96457Y187002D02*
X96207Y186752D01*
Y186252D01*
X96457Y186002D01*
X96707D01*
X96957Y186252D01*
Y186502D01*
Y186252D01*
X97207Y186002D01*
X97457D01*
X97707Y186252D01*
Y186752D01*
X97457Y187002D01*
X97707Y185502D02*
X97457D01*
Y185252D01*
X97707D01*
Y185502D01*
X96207Y183253D02*
Y184252D01*
X96957D01*
X96707Y183753D01*
Y183503D01*
X96957Y183253D01*
X97457D01*
X97707Y183503D01*
Y184002D01*
X97457Y184252D01*
X96457Y182753D02*
X96207Y182503D01*
Y182003D01*
X96457Y181753D01*
X96707D01*
X96957Y182003D01*
Y182253D01*
Y182003D01*
X97207Y181753D01*
X97457D01*
X97707Y182003D01*
Y182503D01*
X97457Y182753D01*
X92706Y191250D02*
X91207D01*
X91707D01*
X92706Y192250D01*
X91956Y191500D01*
X91207Y192250D01*
X1089957Y266250D02*
X1091457D01*
Y265500D01*
X1091207Y265250D01*
X1090207D01*
X1089957Y265500D01*
Y266250D01*
X1091457Y263751D02*
Y264751D01*
X1090457Y263751D01*
X1090207D01*
X1089957Y264001D01*
Y264501D01*
X1090207Y264751D01*
X1091457Y263251D02*
X1091207D01*
Y263001D01*
X1091457D01*
Y263251D01*
X1090207Y262001D02*
X1089957Y261752D01*
Y261252D01*
X1090207Y261002D01*
X1090457D01*
X1090707Y261252D01*
Y261502D01*
Y261252D01*
X1090957Y261002D01*
X1091207D01*
X1091457Y261252D01*
Y261752D01*
X1091207Y262001D01*
X1091457Y260502D02*
X1091207D01*
Y260252D01*
X1091457D01*
Y260502D01*
X1089957Y258253D02*
Y259252D01*
X1090707D01*
X1090457Y258753D01*
Y258503D01*
X1090707Y258253D01*
X1091207D01*
X1091457Y258503D01*
Y259002D01*
X1091207Y259252D01*
X1091457Y257003D02*
X1089957D01*
X1090707Y257753D01*
Y256753D01*
X1086456Y266250D02*
X1084957D01*
X1085456D01*
X1086456Y267250D01*
X1085706Y266500D01*
X1084957Y267250D01*
X996207Y266250D02*
X997707D01*
Y265500D01*
X997457Y265250D01*
X996457D01*
X996207Y265500D01*
Y266250D01*
X997707Y263751D02*
Y264751D01*
X996707Y263751D01*
X996457D01*
X996207Y264001D01*
Y264501D01*
X996457Y264751D01*
X997707Y263251D02*
X997457D01*
Y263001D01*
X997707D01*
Y263251D01*
X996457Y262001D02*
X996207Y261752D01*
Y261252D01*
X996457Y261002D01*
X996707D01*
X996957Y261252D01*
Y261502D01*
Y261252D01*
X997207Y261002D01*
X997457D01*
X997707Y261252D01*
Y261752D01*
X997457Y262001D01*
X997707Y260502D02*
X997457D01*
Y260252D01*
X997707D01*
Y260502D01*
X996207Y258253D02*
Y259252D01*
X996957D01*
X996707Y258753D01*
Y258503D01*
X996957Y258253D01*
X997457D01*
X997707Y258503D01*
Y259002D01*
X997457Y259252D01*
X996207Y256753D02*
Y257753D01*
X996957D01*
X996707Y257253D01*
Y257003D01*
X996957Y256753D01*
X997457D01*
X997707Y257003D01*
Y257503D01*
X997457Y257753D01*
X992706Y266250D02*
X991207D01*
X991706D01*
X992706Y267250D01*
X991956Y266500D01*
X991207Y267250D01*
X921207Y266250D02*
X922707D01*
Y265500D01*
X922457Y265250D01*
X921457D01*
X921207Y265500D01*
Y266250D01*
X922707Y263751D02*
Y264751D01*
X921707Y263751D01*
X921457D01*
X921207Y264001D01*
Y264501D01*
X921457Y264751D01*
X922707Y263251D02*
X922457D01*
Y263001D01*
X922707D01*
Y263251D01*
X921457Y262001D02*
X921207Y261752D01*
Y261252D01*
X921457Y261002D01*
X921707D01*
X921957Y261252D01*
Y261502D01*
Y261252D01*
X922207Y261002D01*
X922457D01*
X922707Y261252D01*
Y261752D01*
X922457Y262001D01*
X922707Y260502D02*
X922457D01*
Y260252D01*
X922707D01*
Y260502D01*
X921207Y258253D02*
Y259252D01*
X921957D01*
X921707Y258753D01*
Y258503D01*
X921957Y258253D01*
X922457D01*
X922707Y258503D01*
Y259002D01*
X922457Y259252D01*
X921207Y256753D02*
X921457Y257253D01*
X921957Y257753D01*
X922457D01*
X922707Y257503D01*
Y257003D01*
X922457Y256753D01*
X922207D01*
X921957Y257003D01*
Y257753D01*
X917706Y266250D02*
X916207D01*
X916706D01*
X917706Y267250D01*
X916956Y266500D01*
X916207Y267250D01*
X846207Y266250D02*
X847707D01*
Y265500D01*
X847457Y265250D01*
X846457D01*
X846207Y265500D01*
Y266250D01*
X847707Y263751D02*
Y264751D01*
X846707Y263751D01*
X846457D01*
X846207Y264001D01*
Y264501D01*
X846457Y264751D01*
X847707Y263251D02*
X847457D01*
Y263001D01*
X847707D01*
Y263251D01*
X846457Y262001D02*
X846207Y261752D01*
Y261252D01*
X846457Y261002D01*
X846707D01*
X846957Y261252D01*
Y261502D01*
Y261252D01*
X847207Y261002D01*
X847457D01*
X847707Y261252D01*
Y261752D01*
X847457Y262001D01*
X847707Y260502D02*
X847457D01*
Y260252D01*
X847707D01*
Y260502D01*
X846207Y258253D02*
Y259252D01*
X846957D01*
X846707Y258753D01*
Y258503D01*
X846957Y258253D01*
X847457D01*
X847707Y258503D01*
Y259002D01*
X847457Y259252D01*
X846207Y257753D02*
Y256753D01*
X846457D01*
X847457Y257753D01*
X847707D01*
X842706Y266250D02*
X841207D01*
X841706D01*
X842706Y267250D01*
X841956Y266500D01*
X841207Y267250D01*
X771207Y266250D02*
X772707D01*
Y265500D01*
X772457Y265250D01*
X771457D01*
X771207Y265500D01*
Y266250D01*
X772707Y263751D02*
Y264751D01*
X771707Y263751D01*
X771457D01*
X771207Y264001D01*
Y264501D01*
X771457Y264751D01*
X772707Y263251D02*
X772457D01*
Y263001D01*
X772707D01*
Y263251D01*
X771457Y262001D02*
X771207Y261752D01*
Y261252D01*
X771457Y261002D01*
X771707D01*
X771957Y261252D01*
Y261502D01*
Y261252D01*
X772207Y261002D01*
X772457D01*
X772707Y261252D01*
Y261752D01*
X772457Y262001D01*
X772707Y260502D02*
X772457D01*
Y260252D01*
X772707D01*
Y260502D01*
X771207Y258253D02*
Y259252D01*
X771957D01*
X771707Y258753D01*
Y258503D01*
X771957Y258253D01*
X772457D01*
X772707Y258503D01*
Y259002D01*
X772457Y259252D01*
X771457Y257753D02*
X771207Y257503D01*
Y257003D01*
X771457Y256753D01*
X771707D01*
X771957Y257003D01*
X772207Y256753D01*
X772457D01*
X772707Y257003D01*
Y257503D01*
X772457Y257753D01*
X772207D01*
X771957Y257503D01*
X771707Y257753D01*
X771457D01*
X771957Y257503D02*
Y257003D01*
X767706Y266250D02*
X766207D01*
X766707D01*
X767706Y267250D01*
X766956Y266500D01*
X766207Y267250D01*
X696207Y266250D02*
X697707D01*
Y265500D01*
X697457Y265250D01*
X696457D01*
X696207Y265500D01*
Y266250D01*
X697707Y263751D02*
Y264751D01*
X696707Y263751D01*
X696457D01*
X696207Y264001D01*
Y264501D01*
X696457Y264751D01*
X697707Y263251D02*
X697457D01*
Y263001D01*
X697707D01*
Y263251D01*
X696457Y262001D02*
X696207Y261752D01*
Y261252D01*
X696457Y261002D01*
X696707D01*
X696957Y261252D01*
Y261502D01*
Y261252D01*
X697207Y261002D01*
X697457D01*
X697707Y261252D01*
Y261752D01*
X697457Y262001D01*
X697707Y260502D02*
X697457D01*
Y260252D01*
X697707D01*
Y260502D01*
X696207Y258253D02*
Y259252D01*
X696957D01*
X696707Y258753D01*
Y258503D01*
X696957Y258253D01*
X697457D01*
X697707Y258503D01*
Y259002D01*
X697457Y259252D01*
Y257753D02*
X697707Y257503D01*
Y257003D01*
X697457Y256753D01*
X696457D01*
X696207Y257003D01*
Y257503D01*
X696457Y257753D01*
X696707D01*
X696957Y257503D01*
Y256753D01*
X692706Y266250D02*
X691207D01*
X691707D01*
X692706Y267250D01*
X691956Y266500D01*
X691207Y267250D01*
X621207Y266250D02*
X622707D01*
Y265500D01*
X622457Y265250D01*
X621457D01*
X621207Y265500D01*
Y266250D01*
X622707Y263751D02*
Y264751D01*
X621707Y263751D01*
X621457D01*
X621207Y264001D01*
Y264501D01*
X621457Y264751D01*
X622707Y263251D02*
X622457D01*
Y263001D01*
X622707D01*
Y263251D01*
X621457Y262001D02*
X621207Y261752D01*
Y261252D01*
X621457Y261002D01*
X621707D01*
X621957Y261252D01*
Y261502D01*
Y261252D01*
X622207Y261002D01*
X622457D01*
X622707Y261252D01*
Y261752D01*
X622457Y262001D01*
X622707Y260502D02*
X622457D01*
Y260252D01*
X622707D01*
Y260502D01*
X621207Y258253D02*
X621457Y258753D01*
X621957Y259252D01*
X622457D01*
X622707Y259002D01*
Y258503D01*
X622457Y258253D01*
X622207D01*
X621957Y258503D01*
Y259252D01*
X621457Y257753D02*
X621207Y257503D01*
Y257003D01*
X621457Y256753D01*
X622457D01*
X622707Y257003D01*
Y257503D01*
X622457Y257753D01*
X621457D01*
X617706Y266250D02*
X616207D01*
X616707D01*
X617706Y267250D01*
X616956Y266500D01*
X616207Y267250D01*
X546207Y265750D02*
X547707D01*
Y265001D01*
X547457Y264751D01*
X546457D01*
X546207Y265001D01*
Y265750D01*
X547707Y263251D02*
Y264251D01*
X546707Y263251D01*
X546457D01*
X546207Y263501D01*
Y264001D01*
X546457Y264251D01*
X547707Y262751D02*
X547457D01*
Y262501D01*
X547707D01*
Y262751D01*
X546457Y261502D02*
X546207Y261252D01*
Y260752D01*
X546457Y260502D01*
X546707D01*
X546957Y260752D01*
Y261002D01*
Y260752D01*
X547207Y260502D01*
X547457D01*
X547707Y260752D01*
Y261252D01*
X547457Y261502D01*
X547707Y260002D02*
X547457D01*
Y259752D01*
X547707D01*
Y260002D01*
X546207Y257753D02*
X546457Y258253D01*
X546957Y258753D01*
X547457D01*
X547707Y258503D01*
Y258003D01*
X547457Y257753D01*
X547207D01*
X546957Y258003D01*
Y258753D01*
X547707Y257253D02*
Y256753D01*
Y257003D01*
X546207D01*
X546457Y257253D01*
X542706Y266250D02*
X541207D01*
X541707D01*
X542706Y267250D01*
X541956Y266500D01*
X541207Y267250D01*
X471207Y266250D02*
X472707D01*
Y265500D01*
X472457Y265250D01*
X471457D01*
X471207Y265500D01*
Y266250D01*
X472707Y263751D02*
Y264751D01*
X471707Y263751D01*
X471457D01*
X471207Y264001D01*
Y264501D01*
X471457Y264751D01*
X472707Y263251D02*
X472457D01*
Y263001D01*
X472707D01*
Y263251D01*
X471457Y262001D02*
X471207Y261752D01*
Y261252D01*
X471457Y261002D01*
X471707D01*
X471957Y261252D01*
Y261502D01*
Y261252D01*
X472207Y261002D01*
X472457D01*
X472707Y261252D01*
Y261752D01*
X472457Y262001D01*
X472707Y260502D02*
X472457D01*
Y260252D01*
X472707D01*
Y260502D01*
X471207Y258253D02*
X471457Y258753D01*
X471957Y259252D01*
X472457D01*
X472707Y259002D01*
Y258503D01*
X472457Y258253D01*
X472207D01*
X471957Y258503D01*
Y259252D01*
X472707Y256753D02*
Y257753D01*
X471707Y256753D01*
X471457D01*
X471207Y257003D01*
Y257503D01*
X471457Y257753D01*
X467706Y266250D02*
X466207D01*
X466707D01*
X467706Y267250D01*
X466956Y266500D01*
X466207Y267250D01*
X396207Y266250D02*
X397707D01*
Y265500D01*
X397457Y265250D01*
X396457D01*
X396207Y265500D01*
Y266250D01*
X397707Y263751D02*
Y264751D01*
X396707Y263751D01*
X396457D01*
X396207Y264001D01*
Y264501D01*
X396457Y264751D01*
X397707Y263251D02*
X397457D01*
Y263001D01*
X397707D01*
Y263251D01*
X396457Y262001D02*
X396207Y261752D01*
Y261252D01*
X396457Y261002D01*
X396707D01*
X396957Y261252D01*
Y261502D01*
Y261252D01*
X397207Y261002D01*
X397457D01*
X397707Y261252D01*
Y261752D01*
X397457Y262001D01*
X397707Y260502D02*
X397457D01*
Y260252D01*
X397707D01*
Y260502D01*
X396207Y258253D02*
X396457Y258753D01*
X396957Y259252D01*
X397457D01*
X397707Y259002D01*
Y258503D01*
X397457Y258253D01*
X397207D01*
X396957Y258503D01*
Y259252D01*
X396457Y257753D02*
X396207Y257503D01*
Y257003D01*
X396457Y256753D01*
X396707D01*
X396957Y257003D01*
Y257253D01*
Y257003D01*
X397207Y256753D01*
X397457D01*
X397707Y257003D01*
Y257503D01*
X397457Y257753D01*
X392706Y266250D02*
X391207D01*
X391706D01*
X392706Y267250D01*
X391956Y266500D01*
X391207Y267250D01*
X321207Y266250D02*
X322707D01*
Y265500D01*
X322457Y265250D01*
X321457D01*
X321207Y265500D01*
Y266250D01*
X322707Y263751D02*
Y264751D01*
X321707Y263751D01*
X321457D01*
X321207Y264001D01*
Y264501D01*
X321457Y264751D01*
X322707Y263251D02*
X322457D01*
Y263001D01*
X322707D01*
Y263251D01*
X321457Y262001D02*
X321207Y261752D01*
Y261252D01*
X321457Y261002D01*
X321707D01*
X321957Y261252D01*
Y261502D01*
Y261252D01*
X322207Y261002D01*
X322457D01*
X322707Y261252D01*
Y261752D01*
X322457Y262001D01*
X322707Y260502D02*
X322457D01*
Y260252D01*
X322707D01*
Y260502D01*
X321207Y258253D02*
X321457Y258753D01*
X321957Y259252D01*
X322457D01*
X322707Y259002D01*
Y258503D01*
X322457Y258253D01*
X322207D01*
X321957Y258503D01*
Y259252D01*
X322707Y257003D02*
X321207D01*
X321957Y257753D01*
Y256753D01*
X317706Y266250D02*
X316207D01*
X316706D01*
X317706Y267250D01*
X316956Y266500D01*
X316207Y267250D01*
X246207Y266250D02*
X247707D01*
Y265500D01*
X247457Y265250D01*
X246457D01*
X246207Y265500D01*
Y266250D01*
X247707Y263751D02*
Y264751D01*
X246707Y263751D01*
X246457D01*
X246207Y264001D01*
Y264501D01*
X246457Y264751D01*
X247707Y263251D02*
X247457D01*
Y263001D01*
X247707D01*
Y263251D01*
X246457Y262001D02*
X246207Y261752D01*
Y261252D01*
X246457Y261002D01*
X246707D01*
X246957Y261252D01*
Y261502D01*
Y261252D01*
X247207Y261002D01*
X247457D01*
X247707Y261252D01*
Y261752D01*
X247457Y262001D01*
X247707Y260502D02*
X247457D01*
Y260252D01*
X247707D01*
Y260502D01*
X246207Y258253D02*
X246457Y258753D01*
X246957Y259252D01*
X247457D01*
X247707Y259002D01*
Y258503D01*
X247457Y258253D01*
X247207D01*
X246957Y258503D01*
Y259252D01*
X246207Y256753D02*
Y257753D01*
X246957D01*
X246707Y257253D01*
Y257003D01*
X246957Y256753D01*
X247457D01*
X247707Y257003D01*
Y257503D01*
X247457Y257753D01*
X242706Y266250D02*
X241207D01*
X241706D01*
X242706Y267250D01*
X241956Y266500D01*
X241207Y267250D01*
X171207Y266250D02*
X172707D01*
Y265500D01*
X172457Y265250D01*
X171457D01*
X171207Y265500D01*
Y266250D01*
X172707Y263751D02*
Y264751D01*
X171707Y263751D01*
X171457D01*
X171207Y264001D01*
Y264501D01*
X171457Y264751D01*
X172707Y263251D02*
X172457D01*
Y263001D01*
X172707D01*
Y263251D01*
X171457Y262001D02*
X171207Y261752D01*
Y261252D01*
X171457Y261002D01*
X171707D01*
X171957Y261252D01*
Y261502D01*
Y261252D01*
X172207Y261002D01*
X172457D01*
X172707Y261252D01*
Y261752D01*
X172457Y262001D01*
X172707Y260502D02*
X172457D01*
Y260252D01*
X172707D01*
Y260502D01*
X171207Y258253D02*
X171457Y258753D01*
X171957Y259252D01*
X172457D01*
X172707Y259002D01*
Y258503D01*
X172457Y258253D01*
X172207D01*
X171957Y258503D01*
Y259252D01*
X171207Y256753D02*
X171457Y257253D01*
X171957Y257753D01*
X172457D01*
X172707Y257503D01*
Y257003D01*
X172457Y256753D01*
X172207D01*
X171957Y257003D01*
Y257753D01*
X167706Y266250D02*
X166207D01*
X166707D01*
X167706Y267250D01*
X166956Y266500D01*
X166207Y267250D01*
X77457Y266250D02*
X78957D01*
Y265500D01*
X78707Y265250D01*
X77707D01*
X77457Y265500D01*
Y266250D01*
X78957Y263751D02*
Y264751D01*
X77957Y263751D01*
X77707D01*
X77457Y264001D01*
Y264501D01*
X77707Y264751D01*
X78957Y263251D02*
X78707D01*
Y263001D01*
X78957D01*
Y263251D01*
X77707Y262001D02*
X77457Y261752D01*
Y261252D01*
X77707Y261002D01*
X77957D01*
X78207Y261252D01*
Y261502D01*
Y261252D01*
X78457Y261002D01*
X78707D01*
X78957Y261252D01*
Y261752D01*
X78707Y262001D01*
X78957Y260502D02*
X78707D01*
Y260252D01*
X78957D01*
Y260502D01*
X77457Y258253D02*
X77707Y258753D01*
X78207Y259252D01*
X78707D01*
X78957Y259002D01*
Y258503D01*
X78707Y258253D01*
X78457D01*
X78207Y258503D01*
Y259252D01*
X77457Y257753D02*
Y256753D01*
X77707D01*
X78707Y257753D01*
X78957D01*
X73956Y266250D02*
X72457D01*
X72957D01*
X73956Y267250D01*
X73206Y266500D01*
X72457Y267250D01*
X1408707Y341250D02*
X1410207D01*
Y340500D01*
X1409957Y340250D01*
X1408957D01*
X1408707Y340500D01*
Y341250D01*
X1410207Y338751D02*
Y339751D01*
X1409207Y338751D01*
X1408957D01*
X1408707Y339001D01*
Y339501D01*
X1408957Y339751D01*
X1410207Y338251D02*
X1409957D01*
Y338001D01*
X1410207D01*
Y338251D01*
X1408957Y337001D02*
X1408707Y336752D01*
Y336252D01*
X1408957Y336002D01*
X1409207D01*
X1409457Y336252D01*
Y336502D01*
Y336252D01*
X1409707Y336002D01*
X1409957D01*
X1410207Y336252D01*
Y336752D01*
X1409957Y337001D01*
X1410207Y335502D02*
X1409957D01*
Y335252D01*
X1410207D01*
Y335502D01*
X1408707Y333253D02*
X1408957Y333753D01*
X1409457Y334252D01*
X1409957D01*
X1410207Y334002D01*
Y333503D01*
X1409957Y333253D01*
X1409707D01*
X1409457Y333503D01*
Y334252D01*
X1408957Y332753D02*
X1408707Y332503D01*
Y332003D01*
X1408957Y331753D01*
X1409207D01*
X1409457Y332003D01*
X1409707Y331753D01*
X1409957D01*
X1410207Y332003D01*
Y332503D01*
X1409957Y332753D01*
X1409707D01*
X1409457Y332503D01*
X1409207Y332753D01*
X1408957D01*
X1409457Y332503D02*
Y332003D01*
X1405206Y341250D02*
X1403707D01*
X1404206D01*
X1405206Y342250D01*
X1404456Y341500D01*
X1403707Y342250D01*
X1333707Y341250D02*
X1335207D01*
Y340500D01*
X1334957Y340250D01*
X1333957D01*
X1333707Y340500D01*
Y341250D01*
X1335207Y338751D02*
Y339751D01*
X1334207Y338751D01*
X1333957D01*
X1333707Y339001D01*
Y339501D01*
X1333957Y339751D01*
X1335207Y338251D02*
X1334957D01*
Y338001D01*
X1335207D01*
Y338251D01*
X1333957Y337001D02*
X1333707Y336752D01*
Y336252D01*
X1333957Y336002D01*
X1334207D01*
X1334457Y336252D01*
Y336502D01*
Y336252D01*
X1334707Y336002D01*
X1334957D01*
X1335207Y336252D01*
Y336752D01*
X1334957Y337001D01*
X1335207Y335502D02*
X1334957D01*
Y335252D01*
X1335207D01*
Y335502D01*
X1333707Y333253D02*
X1333957Y333753D01*
X1334457Y334252D01*
X1334957D01*
X1335207Y334002D01*
Y333503D01*
X1334957Y333253D01*
X1334707D01*
X1334457Y333503D01*
Y334252D01*
X1334957Y332753D02*
X1335207Y332503D01*
Y332003D01*
X1334957Y331753D01*
X1333957D01*
X1333707Y332003D01*
Y332503D01*
X1333957Y332753D01*
X1334207D01*
X1334457Y332503D01*
Y331753D01*
X1330206Y341250D02*
X1328707D01*
X1329206D01*
X1330206Y342250D01*
X1329456Y341500D01*
X1328707Y342250D01*
X1257886Y340868D02*
X1259386D01*
Y340119D01*
X1259136Y339869D01*
X1258136D01*
X1257886Y340119D01*
Y340868D01*
X1259386Y338369D02*
Y339369D01*
X1258386Y338369D01*
X1258136D01*
X1257886Y338619D01*
Y339119D01*
X1258136Y339369D01*
X1259386Y337869D02*
X1259136D01*
Y337619D01*
X1259386D01*
Y337869D01*
X1258136Y336620D02*
X1257886Y336370D01*
Y335870D01*
X1258136Y335620D01*
X1258386D01*
X1258636Y335870D01*
Y336120D01*
Y335870D01*
X1258886Y335620D01*
X1259136D01*
X1259386Y335870D01*
Y336370D01*
X1259136Y336620D01*
X1259386Y335120D02*
X1259136D01*
Y334870D01*
X1259386D01*
Y335120D01*
X1257886Y333871D02*
Y332871D01*
X1258136D01*
X1259136Y333871D01*
X1259386D01*
X1258136Y332371D02*
X1257886Y332121D01*
Y331621D01*
X1258136Y331371D01*
X1259136D01*
X1259386Y331621D01*
Y332121D01*
X1259136Y332371D01*
X1258136D01*
X1254385Y340868D02*
X1252886D01*
X1253386D01*
X1254385Y341868D01*
X1253636Y341118D01*
X1252886Y341868D01*
X1183707Y340750D02*
X1185207D01*
Y340001D01*
X1184957Y339751D01*
X1183957D01*
X1183707Y340001D01*
Y340750D01*
X1185207Y338251D02*
Y339251D01*
X1184207Y338251D01*
X1183957D01*
X1183707Y338501D01*
Y339001D01*
X1183957Y339251D01*
X1185207Y337751D02*
X1184957D01*
Y337501D01*
X1185207D01*
Y337751D01*
X1183957Y336502D02*
X1183707Y336252D01*
Y335752D01*
X1183957Y335502D01*
X1184207D01*
X1184457Y335752D01*
Y336002D01*
Y335752D01*
X1184707Y335502D01*
X1184957D01*
X1185207Y335752D01*
Y336252D01*
X1184957Y336502D01*
X1185207Y335002D02*
X1184957D01*
Y334752D01*
X1185207D01*
Y335002D01*
X1183707Y333753D02*
Y332753D01*
X1183957D01*
X1184957Y333753D01*
X1185207D01*
Y332253D02*
Y331753D01*
Y332003D01*
X1183707D01*
X1183957Y332253D01*
X1180206Y341250D02*
X1178707D01*
X1179206D01*
X1180206Y342250D01*
X1179456Y341500D01*
X1178707Y342250D01*
X1071207Y341250D02*
X1072707D01*
Y340500D01*
X1072457Y340250D01*
X1071457D01*
X1071207Y340500D01*
Y341250D01*
X1072707Y338751D02*
Y339751D01*
X1071707Y338751D01*
X1071457D01*
X1071207Y339001D01*
Y339501D01*
X1071457Y339751D01*
X1072707Y338251D02*
X1072457D01*
Y338001D01*
X1072707D01*
Y338251D01*
X1071457Y337001D02*
X1071207Y336752D01*
Y336252D01*
X1071457Y336002D01*
X1071707D01*
X1071957Y336252D01*
Y336502D01*
Y336252D01*
X1072207Y336002D01*
X1072457D01*
X1072707Y336252D01*
Y336752D01*
X1072457Y337001D01*
X1072707Y335502D02*
X1072457D01*
Y335252D01*
X1072707D01*
Y335502D01*
X1071207Y334252D02*
Y333253D01*
X1071457D01*
X1072457Y334252D01*
X1072707D01*
Y331753D02*
Y332753D01*
X1071707Y331753D01*
X1071457D01*
X1071207Y332003D01*
Y332503D01*
X1071457Y332753D01*
X1067706Y341250D02*
X1066207D01*
X1066706D01*
X1067706Y342250D01*
X1066956Y341500D01*
X1066207Y342250D01*
X958707Y341250D02*
X960207D01*
Y340500D01*
X959957Y340250D01*
X958957D01*
X958707Y340500D01*
Y341250D01*
X960207Y338751D02*
Y339751D01*
X959207Y338751D01*
X958957D01*
X958707Y339001D01*
Y339501D01*
X958957Y339751D01*
X960207Y338251D02*
X959957D01*
Y338001D01*
X960207D01*
Y338251D01*
X958957Y337001D02*
X958707Y336752D01*
Y336252D01*
X958957Y336002D01*
X959207D01*
X959457Y336252D01*
Y336502D01*
Y336252D01*
X959707Y336002D01*
X959957D01*
X960207Y336252D01*
Y336752D01*
X959957Y337001D01*
X960207Y335502D02*
X959957D01*
Y335252D01*
X960207D01*
Y335502D01*
X958707Y334252D02*
Y333253D01*
X958957D01*
X959957Y334252D01*
X960207D01*
X958957Y332753D02*
X958707Y332503D01*
Y332003D01*
X958957Y331753D01*
X959207D01*
X959457Y332003D01*
Y332253D01*
Y332003D01*
X959707Y331753D01*
X959957D01*
X960207Y332003D01*
Y332503D01*
X959957Y332753D01*
X955206Y341250D02*
X953707D01*
X954206D01*
X955206Y342250D01*
X954456Y341500D01*
X953707Y342250D01*
X883707Y341250D02*
X885207D01*
Y340500D01*
X884957Y340250D01*
X883957D01*
X883707Y340500D01*
Y341250D01*
X885207Y338751D02*
Y339751D01*
X884207Y338751D01*
X883957D01*
X883707Y339001D01*
Y339501D01*
X883957Y339751D01*
X885207Y338251D02*
X884957D01*
Y338001D01*
X885207D01*
Y338251D01*
X883957Y337001D02*
X883707Y336752D01*
Y336252D01*
X883957Y336002D01*
X884207D01*
X884457Y336252D01*
Y336502D01*
Y336252D01*
X884707Y336002D01*
X884957D01*
X885207Y336252D01*
Y336752D01*
X884957Y337001D01*
X885207Y335502D02*
X884957D01*
Y335252D01*
X885207D01*
Y335502D01*
X883707Y334252D02*
Y333253D01*
X883957D01*
X884957Y334252D01*
X885207D01*
Y332003D02*
X883707D01*
X884457Y332753D01*
Y331753D01*
X880206Y341250D02*
X878707D01*
X879206D01*
X880206Y342250D01*
X879456Y341500D01*
X878707Y342250D01*
X808707Y341250D02*
X810207D01*
Y340500D01*
X809957Y340250D01*
X808957D01*
X808707Y340500D01*
Y341250D01*
X810207Y338751D02*
Y339751D01*
X809207Y338751D01*
X808957D01*
X808707Y339001D01*
Y339501D01*
X808957Y339751D01*
X810207Y338251D02*
X809957D01*
Y338001D01*
X810207D01*
Y338251D01*
X808957Y337001D02*
X808707Y336752D01*
Y336252D01*
X808957Y336002D01*
X809207D01*
X809457Y336252D01*
Y336502D01*
Y336252D01*
X809707Y336002D01*
X809957D01*
X810207Y336252D01*
Y336752D01*
X809957Y337001D01*
X810207Y335502D02*
X809957D01*
Y335252D01*
X810207D01*
Y335502D01*
X808707Y334252D02*
Y333253D01*
X808957D01*
X809957Y334252D01*
X810207D01*
X808707Y331753D02*
Y332753D01*
X809457D01*
X809207Y332253D01*
Y332003D01*
X809457Y331753D01*
X809957D01*
X810207Y332003D01*
Y332503D01*
X809957Y332753D01*
X805206Y341250D02*
X803707D01*
X804206D01*
X805206Y342250D01*
X804456Y341500D01*
X803707Y342250D01*
X733707Y341250D02*
X735207D01*
Y340500D01*
X734957Y340250D01*
X733957D01*
X733707Y340500D01*
Y341250D01*
X735207Y338751D02*
Y339751D01*
X734207Y338751D01*
X733957D01*
X733707Y339001D01*
Y339501D01*
X733957Y339751D01*
X735207Y338251D02*
X734957D01*
Y338001D01*
X735207D01*
Y338251D01*
X733957Y337001D02*
X733707Y336752D01*
Y336252D01*
X733957Y336002D01*
X734207D01*
X734457Y336252D01*
Y336502D01*
Y336252D01*
X734707Y336002D01*
X734957D01*
X735207Y336252D01*
Y336752D01*
X734957Y337001D01*
X735207Y335502D02*
X734957D01*
Y335252D01*
X735207D01*
Y335502D01*
X733707Y334252D02*
Y333253D01*
X733957D01*
X734957Y334252D01*
X735207D01*
X733707Y331753D02*
X733957Y332253D01*
X734457Y332753D01*
X734957D01*
X735207Y332503D01*
Y332003D01*
X734957Y331753D01*
X734707D01*
X734457Y332003D01*
Y332753D01*
X730206Y341250D02*
X728707D01*
X729207D01*
X730206Y342250D01*
X729456Y341500D01*
X728707Y342250D01*
X658707Y341250D02*
X660207D01*
Y340500D01*
X659957Y340250D01*
X658957D01*
X658707Y340500D01*
Y341250D01*
X660207Y338751D02*
Y339751D01*
X659207Y338751D01*
X658957D01*
X658707Y339001D01*
Y339501D01*
X658957Y339751D01*
X660207Y338251D02*
X659957D01*
Y338001D01*
X660207D01*
Y338251D01*
X658957Y337001D02*
X658707Y336752D01*
Y336252D01*
X658957Y336002D01*
X659207D01*
X659457Y336252D01*
Y336502D01*
Y336252D01*
X659707Y336002D01*
X659957D01*
X660207Y336252D01*
Y336752D01*
X659957Y337001D01*
X660207Y335502D02*
X659957D01*
Y335252D01*
X660207D01*
Y335502D01*
X658707Y334252D02*
Y333253D01*
X658957D01*
X659957Y334252D01*
X660207D01*
X658707Y332753D02*
Y331753D01*
X658957D01*
X659957Y332753D01*
X660207D01*
X655206Y341250D02*
X653707D01*
X654207D01*
X655206Y342250D01*
X654456Y341500D01*
X653707Y342250D01*
X583707Y341250D02*
X585207D01*
Y340500D01*
X584957Y340250D01*
X583957D01*
X583707Y340500D01*
Y341250D01*
X585207Y338751D02*
Y339751D01*
X584207Y338751D01*
X583957D01*
X583707Y339001D01*
Y339501D01*
X583957Y339751D01*
X585207Y338251D02*
X584957D01*
Y338001D01*
X585207D01*
Y338251D01*
X583957Y337001D02*
X583707Y336752D01*
Y336252D01*
X583957Y336002D01*
X584207D01*
X584457Y336252D01*
Y336502D01*
Y336252D01*
X584707Y336002D01*
X584957D01*
X585207Y336252D01*
Y336752D01*
X584957Y337001D01*
X585207Y335502D02*
X584957D01*
Y335252D01*
X585207D01*
Y335502D01*
X583707Y334252D02*
Y333253D01*
X583957D01*
X584957Y334252D01*
X585207D01*
X583957Y332753D02*
X583707Y332503D01*
Y332003D01*
X583957Y331753D01*
X584207D01*
X584457Y332003D01*
X584707Y331753D01*
X584957D01*
X585207Y332003D01*
Y332503D01*
X584957Y332753D01*
X584707D01*
X584457Y332503D01*
X584207Y332753D01*
X583957D01*
X584457Y332503D02*
Y332003D01*
X580206Y341250D02*
X578707D01*
X579207D01*
X580206Y342250D01*
X579456Y341500D01*
X578707Y342250D01*
X508707Y341250D02*
X510207D01*
Y340500D01*
X509957Y340250D01*
X508957D01*
X508707Y340500D01*
Y341250D01*
X510207Y338751D02*
Y339751D01*
X509207Y338751D01*
X508957D01*
X508707Y339001D01*
Y339501D01*
X508957Y339751D01*
X510207Y338251D02*
X509957D01*
Y338001D01*
X510207D01*
Y338251D01*
X508957Y337001D02*
X508707Y336752D01*
Y336252D01*
X508957Y336002D01*
X509207D01*
X509457Y336252D01*
Y336502D01*
Y336252D01*
X509707Y336002D01*
X509957D01*
X510207Y336252D01*
Y336752D01*
X509957Y337001D01*
X510207Y335502D02*
X509957D01*
Y335252D01*
X510207D01*
Y335502D01*
X508707Y334252D02*
Y333253D01*
X508957D01*
X509957Y334252D01*
X510207D01*
X509957Y332753D02*
X510207Y332503D01*
Y332003D01*
X509957Y331753D01*
X508957D01*
X508707Y332003D01*
Y332503D01*
X508957Y332753D01*
X509207D01*
X509457Y332503D01*
Y331753D01*
X505206Y341250D02*
X503707D01*
X504207D01*
X505206Y342250D01*
X504456Y341500D01*
X503707Y342250D01*
X433707Y341250D02*
X435207D01*
Y340500D01*
X434957Y340250D01*
X433957D01*
X433707Y340500D01*
Y341250D01*
X435207Y338751D02*
Y339751D01*
X434207Y338751D01*
X433957D01*
X433707Y339001D01*
Y339501D01*
X433957Y339751D01*
X435207Y338251D02*
X434957D01*
Y338001D01*
X435207D01*
Y338251D01*
X433957Y337001D02*
X433707Y336752D01*
Y336252D01*
X433957Y336002D01*
X434207D01*
X434457Y336252D01*
Y336502D01*
Y336252D01*
X434707Y336002D01*
X434957D01*
X435207Y336252D01*
Y336752D01*
X434957Y337001D01*
X435207Y335502D02*
X434957D01*
Y335252D01*
X435207D01*
Y335502D01*
X433957Y334252D02*
X433707Y334002D01*
Y333503D01*
X433957Y333253D01*
X434207D01*
X434457Y333503D01*
X434707Y333253D01*
X434957D01*
X435207Y333503D01*
Y334002D01*
X434957Y334252D01*
X434707D01*
X434457Y334002D01*
X434207Y334252D01*
X433957D01*
X434457Y334002D02*
Y333503D01*
X433957Y332753D02*
X433707Y332503D01*
Y332003D01*
X433957Y331753D01*
X434957D01*
X435207Y332003D01*
Y332503D01*
X434957Y332753D01*
X433957D01*
X430206Y341250D02*
X428707D01*
X429207D01*
X430206Y342250D01*
X429456Y341500D01*
X428707Y342250D01*
X358707Y340750D02*
X360207D01*
Y340001D01*
X359957Y339751D01*
X358957D01*
X358707Y340001D01*
Y340750D01*
X360207Y338251D02*
Y339251D01*
X359207Y338251D01*
X358957D01*
X358707Y338501D01*
Y339001D01*
X358957Y339251D01*
X360207Y337751D02*
X359957D01*
Y337501D01*
X360207D01*
Y337751D01*
X358957Y336502D02*
X358707Y336252D01*
Y335752D01*
X358957Y335502D01*
X359207D01*
X359457Y335752D01*
Y336002D01*
Y335752D01*
X359707Y335502D01*
X359957D01*
X360207Y335752D01*
Y336252D01*
X359957Y336502D01*
X360207Y335002D02*
X359957D01*
Y334752D01*
X360207D01*
Y335002D01*
X358957Y333753D02*
X358707Y333503D01*
Y333003D01*
X358957Y332753D01*
X359207D01*
X359457Y333003D01*
X359707Y332753D01*
X359957D01*
X360207Y333003D01*
Y333503D01*
X359957Y333753D01*
X359707D01*
X359457Y333503D01*
X359207Y333753D01*
X358957D01*
X359457Y333503D02*
Y333003D01*
X360207Y332253D02*
Y331753D01*
Y332003D01*
X358707D01*
X358957Y332253D01*
X355206Y341250D02*
X353707D01*
X354206D01*
X355206Y342250D01*
X354456Y341500D01*
X353707Y342250D01*
X283707Y341250D02*
X285207D01*
Y340500D01*
X284957Y340250D01*
X283957D01*
X283707Y340500D01*
Y341250D01*
X285207Y338751D02*
Y339751D01*
X284207Y338751D01*
X283957D01*
X283707Y339001D01*
Y339501D01*
X283957Y339751D01*
X285207Y338251D02*
X284957D01*
Y338001D01*
X285207D01*
Y338251D01*
X283957Y337001D02*
X283707Y336752D01*
Y336252D01*
X283957Y336002D01*
X284207D01*
X284457Y336252D01*
Y336502D01*
Y336252D01*
X284707Y336002D01*
X284957D01*
X285207Y336252D01*
Y336752D01*
X284957Y337001D01*
X285207Y335502D02*
X284957D01*
Y335252D01*
X285207D01*
Y335502D01*
X283957Y334252D02*
X283707Y334002D01*
Y333503D01*
X283957Y333253D01*
X284207D01*
X284457Y333503D01*
X284707Y333253D01*
X284957D01*
X285207Y333503D01*
Y334002D01*
X284957Y334252D01*
X284707D01*
X284457Y334002D01*
X284207Y334252D01*
X283957D01*
X284457Y334002D02*
Y333503D01*
X285207Y331753D02*
Y332753D01*
X284207Y331753D01*
X283957D01*
X283707Y332003D01*
Y332503D01*
X283957Y332753D01*
X280206Y341250D02*
X278707D01*
X279206D01*
X280206Y342250D01*
X279456Y341500D01*
X278707Y342250D01*
X208707Y341250D02*
X210207D01*
Y340500D01*
X209957Y340250D01*
X208957D01*
X208707Y340500D01*
Y341250D01*
X210207Y338751D02*
Y339751D01*
X209207Y338751D01*
X208957D01*
X208707Y339001D01*
Y339501D01*
X208957Y339751D01*
X210207Y338251D02*
X209957D01*
Y338001D01*
X210207D01*
Y338251D01*
X208957Y337001D02*
X208707Y336752D01*
Y336252D01*
X208957Y336002D01*
X209207D01*
X209457Y336252D01*
Y336502D01*
Y336252D01*
X209707Y336002D01*
X209957D01*
X210207Y336252D01*
Y336752D01*
X209957Y337001D01*
X210207Y335502D02*
X209957D01*
Y335252D01*
X210207D01*
Y335502D01*
X208957Y334252D02*
X208707Y334002D01*
Y333503D01*
X208957Y333253D01*
X209207D01*
X209457Y333503D01*
X209707Y333253D01*
X209957D01*
X210207Y333503D01*
Y334002D01*
X209957Y334252D01*
X209707D01*
X209457Y334002D01*
X209207Y334252D01*
X208957D01*
X209457Y334002D02*
Y333503D01*
X208957Y332753D02*
X208707Y332503D01*
Y332003D01*
X208957Y331753D01*
X209207D01*
X209457Y332003D01*
Y332253D01*
Y332003D01*
X209707Y331753D01*
X209957D01*
X210207Y332003D01*
Y332503D01*
X209957Y332753D01*
X205206Y341250D02*
X203707D01*
X204206D01*
X205206Y342250D01*
X204456Y341500D01*
X203707Y342250D01*
X133707Y341250D02*
X135207D01*
Y340500D01*
X134957Y340250D01*
X133957D01*
X133707Y340500D01*
Y341250D01*
X135207Y338751D02*
Y339751D01*
X134207Y338751D01*
X133957D01*
X133707Y339001D01*
Y339501D01*
X133957Y339751D01*
X135207Y338251D02*
X134957D01*
Y338001D01*
X135207D01*
Y338251D01*
X133957Y337001D02*
X133707Y336752D01*
Y336252D01*
X133957Y336002D01*
X134207D01*
X134457Y336252D01*
Y336502D01*
Y336252D01*
X134707Y336002D01*
X134957D01*
X135207Y336252D01*
Y336752D01*
X134957Y337001D01*
X135207Y335502D02*
X134957D01*
Y335252D01*
X135207D01*
Y335502D01*
X133957Y334252D02*
X133707Y334002D01*
Y333503D01*
X133957Y333253D01*
X134207D01*
X134457Y333503D01*
X134707Y333253D01*
X134957D01*
X135207Y333503D01*
Y334002D01*
X134957Y334252D01*
X134707D01*
X134457Y334002D01*
X134207Y334252D01*
X133957D01*
X134457Y334002D02*
Y333503D01*
X135207Y332003D02*
X133707D01*
X134457Y332753D01*
Y331753D01*
X130206Y341250D02*
X128707D01*
X129207D01*
X130206Y342250D01*
X129456Y341500D01*
X128707Y342250D01*
X58707Y341250D02*
X60207D01*
Y340500D01*
X59957Y340250D01*
X58957D01*
X58707Y340500D01*
Y341250D01*
X60207Y338751D02*
Y339751D01*
X59207Y338751D01*
X58957D01*
X58707Y339001D01*
Y339501D01*
X58957Y339751D01*
X60207Y338251D02*
X59957D01*
Y338001D01*
X60207D01*
Y338251D01*
X58957Y337001D02*
X58707Y336752D01*
Y336252D01*
X58957Y336002D01*
X59207D01*
X59457Y336252D01*
Y336502D01*
Y336252D01*
X59707Y336002D01*
X59957D01*
X60207Y336252D01*
Y336752D01*
X59957Y337001D01*
X60207Y335502D02*
X59957D01*
Y335252D01*
X60207D01*
Y335502D01*
X58957Y334252D02*
X58707Y334002D01*
Y333503D01*
X58957Y333253D01*
X59207D01*
X59457Y333503D01*
X59707Y333253D01*
X59957D01*
X60207Y333503D01*
Y334002D01*
X59957Y334252D01*
X59707D01*
X59457Y334002D01*
X59207Y334252D01*
X58957D01*
X59457Y334002D02*
Y333503D01*
X58707Y331753D02*
Y332753D01*
X59457D01*
X59207Y332253D01*
Y332003D01*
X59457Y331753D01*
X59957D01*
X60207Y332003D01*
Y332503D01*
X59957Y332753D01*
X55206Y341250D02*
X53707D01*
X54207D01*
X55206Y342250D01*
X54456Y341500D01*
X53707Y342250D01*
X32750Y357750D02*
X34249D01*
Y358500D01*
X34000Y358750D01*
X33500D01*
X33250Y358500D01*
Y357750D01*
Y358250D02*
X32750Y358750D01*
X34000Y359249D02*
X34249Y359499D01*
Y359999D01*
X34000Y360249D01*
X33750D01*
X33500Y359999D01*
Y359749D01*
Y359999D01*
X33250Y360249D01*
X33000D01*
X32750Y359999D01*
Y359499D01*
X33000Y359249D01*
X32750Y360749D02*
X33000D01*
Y360999D01*
X32750D01*
Y360749D01*
Y362998D02*
Y361999D01*
X33750Y362998D01*
X34000D01*
X34249Y362748D01*
Y362249D01*
X34000Y361999D01*
X545250Y358250D02*
X546749D01*
Y359000D01*
X546500Y359250D01*
X546000D01*
X545750Y359000D01*
Y358250D01*
Y358750D02*
X545250Y359250D01*
Y360499D02*
X546749D01*
X546000Y359750D01*
Y360749D01*
X545250Y361249D02*
X545500D01*
Y361499D01*
X545250D01*
Y361249D01*
Y363498D02*
Y362499D01*
X546250Y363498D01*
X546500D01*
X546749Y363248D01*
Y362749D01*
X546500Y362499D01*
X1028213Y321282D02*
X1026713D01*
Y320532D01*
X1026963Y320282D01*
X1027463D01*
X1027713Y320532D01*
Y321282D01*
Y320782D02*
X1028213Y320282D01*
X1026713Y318783D02*
Y319782D01*
X1027463D01*
X1027213Y319283D01*
Y319033D01*
X1027463Y318783D01*
X1027963D01*
X1028213Y319033D01*
Y319532D01*
X1027963Y319782D01*
X1028213Y318283D02*
X1027963D01*
Y318033D01*
X1028213D01*
Y318283D01*
Y316034D02*
Y317033D01*
X1027213Y316034D01*
X1026963D01*
X1026713Y316284D01*
Y316783D01*
X1026963Y317033D01*
X1043750Y258947D02*
X1042251D01*
Y258197D01*
X1042500Y257947D01*
X1043000D01*
X1043250Y258197D01*
Y258947D01*
Y258447D02*
X1043750Y257947D01*
X1042251Y256448D02*
X1042500Y256947D01*
X1043000Y257447D01*
X1043500D01*
X1043750Y257197D01*
Y256698D01*
X1043500Y256448D01*
X1043250D01*
X1043000Y256698D01*
Y257447D01*
X1043750Y255948D02*
X1043500D01*
Y255698D01*
X1043750D01*
Y255948D01*
Y253698D02*
Y254698D01*
X1042750Y253698D01*
X1042500D01*
X1042251Y253948D01*
Y254448D01*
X1042500Y254698D01*
X984713Y346176D02*
X983213D01*
Y345426D01*
X983463Y345176D01*
X983963D01*
X984213Y345426D01*
Y346176D01*
Y345676D02*
X984713Y345176D01*
X983213Y344676D02*
Y343676D01*
X983463D01*
X984463Y344676D01*
X984713D01*
Y343177D02*
X984463D01*
Y342927D01*
X984713D01*
Y343177D01*
Y340927D02*
Y341927D01*
X983713Y340927D01*
X983463D01*
X983213Y341177D01*
Y341677D01*
X983463Y341927D01*
X1039250Y258947D02*
X1037751D01*
Y258197D01*
X1038000Y257947D01*
X1038500D01*
X1038750Y258197D01*
Y258947D01*
Y258447D02*
X1039250Y257947D01*
X1038000Y257447D02*
X1037751Y257197D01*
Y256698D01*
X1038000Y256448D01*
X1038250D01*
X1038500Y256698D01*
X1038750Y256448D01*
X1039000D01*
X1039250Y256698D01*
Y257197D01*
X1039000Y257447D01*
X1038750D01*
X1038500Y257197D01*
X1038250Y257447D01*
X1038000D01*
X1038500Y257197D02*
Y256698D01*
X1039250Y255948D02*
X1039000D01*
Y255698D01*
X1039250D01*
Y255948D01*
Y253698D02*
Y254698D01*
X1038250Y253698D01*
X1038000D01*
X1037751Y253948D01*
Y254448D01*
X1038000Y254698D01*
X83250Y311750D02*
Y310500D01*
X83000Y310250D01*
X82500D01*
X82250Y310500D01*
Y311750D01*
X81751Y310250D02*
X81251D01*
X81501D01*
Y311750D01*
X81751Y311500D01*
X80501Y310250D02*
Y310500D01*
X80251D01*
Y310250D01*
X80501D01*
X78252D02*
X79251D01*
X78252Y311250D01*
Y311500D01*
X78501Y311750D01*
X79001D01*
X79251Y311500D01*
X532750Y311750D02*
Y310500D01*
X532500Y310250D01*
X532000D01*
X531750Y310500D01*
Y311750D01*
X530251Y310250D02*
X531250D01*
X530251Y311250D01*
Y311500D01*
X530501Y311750D01*
X531001D01*
X531250Y311500D01*
X529751Y310250D02*
Y310500D01*
X529501D01*
Y310250D01*
X529751D01*
X527502D02*
X528501D01*
X527502Y311250D01*
Y311500D01*
X527752Y311750D01*
X528251D01*
X528501Y311500D01*
X1208207Y312249D02*
Y311000D01*
X1207957Y310750D01*
X1207457D01*
X1207207Y311000D01*
Y312249D01*
X1206707Y312000D02*
X1206457Y312249D01*
X1205957D01*
X1205707Y312000D01*
Y311750D01*
X1205957Y311500D01*
X1206207D01*
X1205957D01*
X1205707Y311250D01*
Y311000D01*
X1205957Y310750D01*
X1206457D01*
X1206707Y311000D01*
X1205208Y310750D02*
Y311000D01*
X1204958D01*
Y310750D01*
X1205208D01*
X1202958D02*
X1203958D01*
X1202958Y311750D01*
Y312000D01*
X1203208Y312249D01*
X1203708D01*
X1203958Y312000D01*
X1139920Y327979D02*
X1139670Y328229D01*
Y328729D01*
X1139920Y328979D01*
X1140920D01*
X1141170Y328729D01*
Y328229D01*
X1140920Y327979D01*
X1141170Y326729D02*
X1139670D01*
X1140420Y327479D01*
Y326480D01*
X1141170Y325980D02*
X1140920D01*
Y325730D01*
X1141170D01*
Y325980D01*
Y323730D02*
Y324730D01*
X1140170Y323730D01*
X1139920D01*
X1139670Y323980D01*
Y324480D01*
X1139920Y324730D01*
X1123170Y317728D02*
X1123420Y317978D01*
X1123920D01*
X1124170Y317728D01*
Y316729D01*
X1123920Y316479D01*
X1123420D01*
X1123170Y316729D01*
X1121671Y317978D02*
X1122670D01*
Y317229D01*
X1122171Y317478D01*
X1121921D01*
X1121671Y317229D01*
Y316729D01*
X1121921Y316479D01*
X1122420D01*
X1122670Y316729D01*
X1121171Y316479D02*
Y316729D01*
X1120921D01*
Y316479D01*
X1121171D01*
X1118922D02*
X1119921D01*
X1118922Y317478D01*
Y317728D01*
X1119172Y317978D01*
X1119671D01*
X1119921Y317728D01*
X1096420Y337479D02*
X1096170Y337729D01*
Y338229D01*
X1096420Y338479D01*
X1097420D01*
X1097670Y338229D01*
Y337729D01*
X1097420Y337479D01*
X1096170Y335980D02*
X1096420Y336479D01*
X1096920Y336979D01*
X1097420D01*
X1097670Y336729D01*
Y336229D01*
X1097420Y335980D01*
X1097170D01*
X1096920Y336229D01*
Y336979D01*
X1097670Y335480D02*
X1097420D01*
Y335230D01*
X1097670D01*
Y335480D01*
Y333230D02*
Y334230D01*
X1096670Y333230D01*
X1096420D01*
X1096170Y333480D01*
Y333980D01*
X1096420Y334230D01*
X1026963Y327979D02*
X1026713Y328229D01*
Y328729D01*
X1026963Y328979D01*
X1027963D01*
X1028213Y328729D01*
Y328229D01*
X1027963Y327979D01*
X1026713Y327479D02*
Y326480D01*
X1026963D01*
X1027963Y327479D01*
X1028213D01*
Y325980D02*
X1027963D01*
Y325730D01*
X1028213D01*
Y325980D01*
Y323730D02*
Y324730D01*
X1027213Y323730D01*
X1026963D01*
X1026713Y323980D01*
Y324480D01*
X1026963Y324730D01*
X1009713Y318228D02*
X1009963Y318478D01*
X1010463D01*
X1010713Y318228D01*
Y317229D01*
X1010463Y316979D01*
X1009963D01*
X1009713Y317229D01*
X1009213Y318228D02*
X1008963Y318478D01*
X1008463D01*
X1008213Y318228D01*
Y317979D01*
X1008463Y317729D01*
X1008213Y317479D01*
Y317229D01*
X1008463Y316979D01*
X1008963D01*
X1009213Y317229D01*
Y317479D01*
X1008963Y317729D01*
X1009213Y317979D01*
Y318228D01*
X1008963Y317729D02*
X1008463D01*
X1007714Y316979D02*
Y317229D01*
X1007464D01*
Y316979D01*
X1007714D01*
X1005464D02*
X1006464D01*
X1005464Y317979D01*
Y318228D01*
X1005714Y318478D01*
X1006214D01*
X1006464Y318228D01*
X983463Y337479D02*
X983213Y337729D01*
Y338229D01*
X983463Y338479D01*
X984463D01*
X984713Y338229D01*
Y337729D01*
X984463Y337479D01*
Y336979D02*
X984713Y336729D01*
Y336229D01*
X984463Y335980D01*
X983463D01*
X983213Y336229D01*
Y336729D01*
X983463Y336979D01*
X983713D01*
X983963Y336729D01*
Y335980D01*
X984713Y335480D02*
X984463D01*
Y335230D01*
X984713D01*
Y335480D01*
Y333230D02*
Y334230D01*
X983713Y333230D01*
X983463D01*
X983213Y333480D01*
Y333980D01*
X983463Y334230D01*
X1021500Y271250D02*
X1021251Y271500D01*
Y272000D01*
X1021500Y272250D01*
X1022500D01*
X1022750Y272000D01*
Y271500D01*
X1022500Y271250D01*
X1022750Y270750D02*
Y270251D01*
Y270501D01*
X1021251D01*
X1021500Y270750D01*
Y269501D02*
X1021251Y269251D01*
Y268751D01*
X1021500Y268501D01*
X1022500D01*
X1022750Y268751D01*
Y269251D01*
X1022500Y269501D01*
X1021500D01*
X1022750Y268001D02*
X1022500D01*
Y267751D01*
X1022750D01*
Y268001D01*
Y265752D02*
Y266752D01*
X1021750Y265752D01*
X1021500D01*
X1021251Y266002D01*
Y266502D01*
X1021500Y266752D01*
X1141170Y321479D02*
X1139670D01*
Y320729D01*
X1139920Y320479D01*
X1140420D01*
X1140670Y320729D01*
Y321479D01*
Y320979D02*
X1141170Y320479D01*
Y319979D02*
Y319479D01*
Y319729D01*
X1139670D01*
X1139920Y319979D01*
X1141170Y318730D02*
X1140920D01*
Y318480D01*
X1141170D01*
Y318730D01*
Y316480D02*
Y317480D01*
X1140170Y316480D01*
X1139920D01*
X1139670Y316730D01*
Y317230D01*
X1139920Y317480D01*
X1097670Y346479D02*
X1096170D01*
Y345729D01*
X1096420Y345479D01*
X1096920D01*
X1097170Y345729D01*
Y346479D01*
Y345979D02*
X1097670Y345479D01*
Y343980D02*
Y344979D01*
X1096670Y343980D01*
X1096420D01*
X1096170Y344230D01*
Y344729D01*
X1096420Y344979D01*
X1097670Y343480D02*
X1097420D01*
Y343230D01*
X1097670D01*
Y343480D01*
Y341231D02*
Y342230D01*
X1096670Y341231D01*
X1096420D01*
X1096170Y341480D01*
Y341980D01*
X1096420Y342230D01*
X1034750Y258947D02*
X1033251D01*
Y258197D01*
X1033500Y257947D01*
X1034000D01*
X1034250Y258197D01*
Y258947D01*
Y258447D02*
X1034750Y257947D01*
X1034500Y257447D02*
X1034750Y257197D01*
Y256698D01*
X1034500Y256448D01*
X1033500D01*
X1033251Y256698D01*
Y257197D01*
X1033500Y257447D01*
X1033750D01*
X1034000Y257197D01*
Y256448D01*
X1034750Y255948D02*
X1034500D01*
Y255698D01*
X1034750D01*
Y255948D01*
Y253698D02*
Y254698D01*
X1033750Y253698D01*
X1033500D01*
X1033251Y253948D01*
Y254448D01*
X1033500Y254698D01*
X1030250Y258947D02*
X1028751D01*
Y258197D01*
X1029000Y257947D01*
X1029500D01*
X1029750Y258197D01*
Y258947D01*
Y258447D02*
X1030250Y257947D01*
Y257447D02*
Y256947D01*
Y257197D01*
X1028751D01*
X1029000Y257447D01*
Y256198D02*
X1028751Y255948D01*
Y255448D01*
X1029000Y255198D01*
X1030000D01*
X1030250Y255448D01*
Y255948D01*
X1030000Y256198D01*
X1029000D01*
X1030250Y254698D02*
X1030000D01*
Y254448D01*
X1030250D01*
Y254698D01*
Y252449D02*
Y253449D01*
X1029250Y252449D01*
X1029000D01*
X1028751Y252699D01*
Y253199D01*
X1029000Y253449D01*
X1121170Y343478D02*
Y342229D01*
X1120920Y341979D01*
X1120420D01*
X1120170Y342229D01*
Y343478D01*
X1118921Y341979D02*
Y343478D01*
X1119670Y342729D01*
X1118671D01*
X1118171Y341979D02*
Y342229D01*
X1117921D01*
Y341979D01*
X1118171D01*
X1115921D02*
X1116921D01*
X1115921Y342979D01*
Y343228D01*
X1116171Y343478D01*
X1116671D01*
X1116921Y343228D01*
X1008213Y343478D02*
Y342229D01*
X1007963Y341979D01*
X1007463D01*
X1007213Y342229D01*
Y343478D01*
X1005713D02*
X1006713D01*
Y342729D01*
X1006213Y342979D01*
X1005963D01*
X1005713Y342729D01*
Y342229D01*
X1005963Y341979D01*
X1006463D01*
X1006713Y342229D01*
X1005214Y341979D02*
Y342229D01*
X1004964D01*
Y341979D01*
X1005214D01*
X1002964D02*
X1003964D01*
X1002964Y342979D01*
Y343228D01*
X1003214Y343478D01*
X1003714D01*
X1003964Y343228D01*
X1023250Y288250D02*
X1024500D01*
X1024750Y288000D01*
Y287500D01*
X1024500Y287250D01*
X1023250D01*
Y285751D02*
X1023500Y286251D01*
X1024000Y286751D01*
X1024500D01*
X1024750Y286501D01*
Y286001D01*
X1024500Y285751D01*
X1024250D01*
X1024000Y286001D01*
Y286751D01*
X1024750Y285251D02*
X1024500D01*
Y285001D01*
X1024750D01*
Y285251D01*
Y283002D02*
Y284001D01*
X1023750Y283002D01*
X1023500D01*
X1023250Y283252D01*
Y283751D01*
X1023500Y284001D01*
X1213707Y210500D02*
X1213957Y210750D01*
X1214457D01*
X1214707Y210500D01*
Y209500D01*
X1214457Y209250D01*
X1213957D01*
X1213707Y209500D01*
X1213207Y209250D02*
X1212707D01*
X1212957D01*
Y210750D01*
X1213207Y210500D01*
X1211957Y209250D02*
Y209500D01*
X1211708D01*
Y209250D01*
X1211957D01*
X1210708D02*
X1210208D01*
X1210458D01*
Y210750D01*
X1210708Y210500D01*
X1418957Y106251D02*
X1418707Y106501D01*
Y107001D01*
X1418957Y107251D01*
X1419957D01*
X1420207Y107001D01*
Y106501D01*
X1419957Y106251D01*
X1420207Y105751D02*
Y105251D01*
Y105501D01*
X1418707D01*
X1418957Y105751D01*
X1420207Y104501D02*
X1419957D01*
Y104252D01*
X1420207D01*
Y104501D01*
X1418957Y103252D02*
X1418707Y103002D01*
Y102502D01*
X1418957Y102252D01*
X1419207D01*
X1419457Y102502D01*
Y102752D01*
Y102502D01*
X1419707Y102252D01*
X1419957D01*
X1420207Y102502D01*
Y103002D01*
X1419957Y103252D01*
X1420207Y101752D02*
X1419957D01*
Y101503D01*
X1420207D01*
Y101752D01*
Y100503D02*
Y100003D01*
Y100253D01*
X1418707D01*
X1418957Y100503D01*
X1343957Y69251D02*
X1343707Y69501D01*
Y70001D01*
X1343957Y70250D01*
X1344957D01*
X1345207Y70001D01*
Y69501D01*
X1344957Y69251D01*
X1345207Y68751D02*
Y68251D01*
Y68501D01*
X1343707D01*
X1343957Y68751D01*
X1345207Y67501D02*
X1344957D01*
Y67251D01*
X1345207D01*
Y67501D01*
X1343957Y66252D02*
X1343707Y66002D01*
Y65502D01*
X1343957Y65252D01*
X1344207D01*
X1344457Y65502D01*
Y65752D01*
Y65502D01*
X1344707Y65252D01*
X1344957D01*
X1345207Y65502D01*
Y66002D01*
X1344957Y66252D01*
X1345207Y64752D02*
X1344957D01*
Y64502D01*
X1345207D01*
Y64752D01*
Y62503D02*
Y63503D01*
X1344207Y62503D01*
X1343957D01*
X1343707Y62753D01*
Y63253D01*
X1343957Y63503D01*
X1268957Y69251D02*
X1268707Y69501D01*
Y70001D01*
X1268957Y70250D01*
X1269957D01*
X1270207Y70001D01*
Y69501D01*
X1269957Y69251D01*
X1270207Y68751D02*
Y68251D01*
Y68501D01*
X1268707D01*
X1268957Y68751D01*
X1270207Y67501D02*
X1269957D01*
Y67251D01*
X1270207D01*
Y67501D01*
X1268957Y66252D02*
X1268707Y66002D01*
Y65502D01*
X1268957Y65252D01*
X1269207D01*
X1269457Y65502D01*
Y65752D01*
Y65502D01*
X1269707Y65252D01*
X1269957D01*
X1270207Y65502D01*
Y66002D01*
X1269957Y66252D01*
X1270207Y64752D02*
X1269957D01*
Y64502D01*
X1270207D01*
Y64752D01*
X1268957Y63503D02*
X1268707Y63253D01*
Y62753D01*
X1268957Y62503D01*
X1269207D01*
X1269457Y62753D01*
Y63003D01*
Y62753D01*
X1269707Y62503D01*
X1269957D01*
X1270207Y62753D01*
Y63253D01*
X1269957Y63503D01*
X1343957Y144251D02*
X1343707Y144501D01*
Y145001D01*
X1343957Y145250D01*
X1344957D01*
X1345207Y145001D01*
Y144501D01*
X1344957Y144251D01*
X1345207Y143751D02*
Y143251D01*
Y143501D01*
X1343707D01*
X1343957Y143751D01*
X1345207Y142501D02*
X1344957D01*
Y142251D01*
X1345207D01*
Y142501D01*
X1343957Y141252D02*
X1343707Y141002D01*
Y140502D01*
X1343957Y140252D01*
X1344207D01*
X1344457Y140502D01*
Y140752D01*
Y140502D01*
X1344707Y140252D01*
X1344957D01*
X1345207Y140502D01*
Y141002D01*
X1344957Y141252D01*
X1345207Y139752D02*
X1344957D01*
Y139502D01*
X1345207D01*
Y139752D01*
Y137753D02*
X1343707D01*
X1344457Y138503D01*
Y137503D01*
X1268957Y144251D02*
X1268707Y144501D01*
Y145001D01*
X1268957Y145250D01*
X1269957D01*
X1270207Y145001D01*
Y144501D01*
X1269957Y144251D01*
X1270207Y143751D02*
Y143251D01*
Y143501D01*
X1268707D01*
X1268957Y143751D01*
X1270207Y142501D02*
X1269957D01*
Y142251D01*
X1270207D01*
Y142501D01*
X1268957Y141252D02*
X1268707Y141002D01*
Y140502D01*
X1268957Y140252D01*
X1269207D01*
X1269457Y140502D01*
Y140752D01*
Y140502D01*
X1269707Y140252D01*
X1269957D01*
X1270207Y140502D01*
Y141002D01*
X1269957Y141252D01*
X1270207Y139752D02*
X1269957D01*
Y139502D01*
X1270207D01*
Y139752D01*
X1268707Y137503D02*
Y138503D01*
X1269457D01*
X1269207Y138003D01*
Y137753D01*
X1269457Y137503D01*
X1269957D01*
X1270207Y137753D01*
Y138253D01*
X1269957Y138503D01*
X1193957Y144251D02*
X1193707Y144501D01*
Y145001D01*
X1193957Y145250D01*
X1194957D01*
X1195207Y145001D01*
Y144501D01*
X1194957Y144251D01*
X1195207Y143751D02*
Y143251D01*
Y143501D01*
X1193707D01*
X1193957Y143751D01*
X1195207Y142501D02*
X1194957D01*
Y142251D01*
X1195207D01*
Y142501D01*
X1193957Y141252D02*
X1193707Y141002D01*
Y140502D01*
X1193957Y140252D01*
X1194207D01*
X1194457Y140502D01*
Y140752D01*
Y140502D01*
X1194707Y140252D01*
X1194957D01*
X1195207Y140502D01*
Y141002D01*
X1194957Y141252D01*
X1195207Y139752D02*
X1194957D01*
Y139502D01*
X1195207D01*
Y139752D01*
X1193707Y137503D02*
X1193957Y138003D01*
X1194457Y138503D01*
X1194957D01*
X1195207Y138253D01*
Y137753D01*
X1194957Y137503D01*
X1194707D01*
X1194457Y137753D01*
Y138503D01*
X1418957Y256751D02*
X1418707Y257001D01*
Y257501D01*
X1418957Y257751D01*
X1419957D01*
X1420207Y257501D01*
Y257001D01*
X1419957Y256751D01*
X1420207Y256251D02*
Y255751D01*
Y256001D01*
X1418707D01*
X1418957Y256251D01*
X1420207Y255001D02*
X1419957D01*
Y254751D01*
X1420207D01*
Y255001D01*
X1418957Y253752D02*
X1418707Y253502D01*
Y253002D01*
X1418957Y252752D01*
X1419207D01*
X1419457Y253002D01*
Y253252D01*
Y253002D01*
X1419707Y252752D01*
X1419957D01*
X1420207Y253002D01*
Y253502D01*
X1419957Y253752D01*
X1420207Y252252D02*
X1419957D01*
Y252002D01*
X1420207D01*
Y252252D01*
X1418707Y251003D02*
Y250003D01*
X1418957D01*
X1419957Y251003D01*
X1420207D01*
X1343957Y219251D02*
X1343707Y219501D01*
Y220001D01*
X1343957Y220251D01*
X1344957D01*
X1345207Y220001D01*
Y219501D01*
X1344957Y219251D01*
X1345207Y218751D02*
Y218251D01*
Y218501D01*
X1343707D01*
X1343957Y218751D01*
X1345207Y217501D02*
X1344957D01*
Y217251D01*
X1345207D01*
Y217501D01*
X1343957Y216252D02*
X1343707Y216002D01*
Y215502D01*
X1343957Y215252D01*
X1344207D01*
X1344457Y215502D01*
Y215752D01*
Y215502D01*
X1344707Y215252D01*
X1344957D01*
X1345207Y215502D01*
Y216002D01*
X1344957Y216252D01*
X1345207Y214752D02*
X1344957D01*
Y214502D01*
X1345207D01*
Y214752D01*
X1343957Y213503D02*
X1343707Y213253D01*
Y212753D01*
X1343957Y212503D01*
X1344207D01*
X1344457Y212753D01*
X1344707Y212503D01*
X1344957D01*
X1345207Y212753D01*
Y213253D01*
X1344957Y213503D01*
X1344707D01*
X1344457Y213253D01*
X1344207Y213503D01*
X1343957D01*
X1344457Y213253D02*
Y212753D01*
X1268957Y219251D02*
X1268707Y219501D01*
Y220001D01*
X1268957Y220251D01*
X1269957D01*
X1270207Y220001D01*
Y219501D01*
X1269957Y219251D01*
X1270207Y218751D02*
Y218251D01*
Y218501D01*
X1268707D01*
X1268957Y218751D01*
X1270207Y217501D02*
X1269957D01*
Y217251D01*
X1270207D01*
Y217501D01*
X1268957Y216252D02*
X1268707Y216002D01*
Y215502D01*
X1268957Y215252D01*
X1269207D01*
X1269457Y215502D01*
Y215752D01*
Y215502D01*
X1269707Y215252D01*
X1269957D01*
X1270207Y215502D01*
Y216002D01*
X1269957Y216252D01*
X1270207Y214752D02*
X1269957D01*
Y214502D01*
X1270207D01*
Y214752D01*
X1269957Y213503D02*
X1270207Y213253D01*
Y212753D01*
X1269957Y212503D01*
X1268957D01*
X1268707Y212753D01*
Y213253D01*
X1268957Y213503D01*
X1269207D01*
X1269457Y213253D01*
Y212503D01*
X1193957Y220500D02*
X1193707Y220750D01*
Y221250D01*
X1193957Y221500D01*
X1194957D01*
X1195207Y221250D01*
Y220750D01*
X1194957Y220500D01*
X1195207Y220001D02*
Y219501D01*
Y219751D01*
X1193707D01*
X1193957Y220001D01*
X1195207Y218751D02*
X1194957D01*
Y218501D01*
X1195207D01*
Y218751D01*
X1193957Y217501D02*
X1193707Y217251D01*
Y216752D01*
X1193957Y216502D01*
X1194207D01*
X1194457Y216752D01*
Y217002D01*
Y216752D01*
X1194707Y216502D01*
X1194957D01*
X1195207Y216752D01*
Y217251D01*
X1194957Y217501D01*
X1195207Y216002D02*
X1194957D01*
Y215752D01*
X1195207D01*
Y216002D01*
Y214752D02*
Y214252D01*
Y214502D01*
X1193707D01*
X1193957Y214752D01*
Y213503D02*
X1193707Y213253D01*
Y212753D01*
X1193957Y212503D01*
X1194957D01*
X1195207Y212753D01*
Y213253D01*
X1194957Y213503D01*
X1193957D01*
X1343957Y295001D02*
X1343707Y295251D01*
Y295750D01*
X1343957Y296000D01*
X1344957D01*
X1345207Y295750D01*
Y295251D01*
X1344957Y295001D01*
X1345207Y294501D02*
Y294001D01*
Y294251D01*
X1343707D01*
X1343957Y294501D01*
X1345207Y293251D02*
X1344957D01*
Y293001D01*
X1345207D01*
Y293251D01*
X1343957Y292002D02*
X1343707Y291752D01*
Y291252D01*
X1343957Y291002D01*
X1344207D01*
X1344457Y291252D01*
Y291502D01*
Y291252D01*
X1344707Y291002D01*
X1344957D01*
X1345207Y291252D01*
Y291752D01*
X1344957Y292002D01*
X1345207Y290502D02*
X1344957D01*
Y290252D01*
X1345207D01*
Y290502D01*
Y289252D02*
Y288753D01*
Y289002D01*
X1343707D01*
X1343957Y289252D01*
X1345207Y288003D02*
Y287503D01*
Y287753D01*
X1343707D01*
X1343957Y288003D01*
X1268957Y295500D02*
X1268707Y295750D01*
Y296250D01*
X1268957Y296500D01*
X1269957D01*
X1270207Y296250D01*
Y295750D01*
X1269957Y295500D01*
X1270207Y295001D02*
Y294501D01*
Y294751D01*
X1268707D01*
X1268957Y295001D01*
X1270207Y293751D02*
X1269957D01*
Y293501D01*
X1270207D01*
Y293751D01*
X1268957Y292501D02*
X1268707Y292251D01*
Y291752D01*
X1268957Y291502D01*
X1269207D01*
X1269457Y291752D01*
Y292002D01*
Y291752D01*
X1269707Y291502D01*
X1269957D01*
X1270207Y291752D01*
Y292251D01*
X1269957Y292501D01*
X1270207Y291002D02*
X1269957D01*
Y290752D01*
X1270207D01*
Y291002D01*
Y289752D02*
Y289252D01*
Y289502D01*
X1268707D01*
X1268957Y289752D01*
X1270207Y287503D02*
Y288503D01*
X1269207Y287503D01*
X1268957D01*
X1268707Y287753D01*
Y288253D01*
X1268957Y288503D01*
X1193957Y295500D02*
X1193707Y295750D01*
Y296250D01*
X1193957Y296500D01*
X1194957D01*
X1195207Y296250D01*
Y295750D01*
X1194957Y295500D01*
X1195207Y295001D02*
Y294501D01*
Y294751D01*
X1193707D01*
X1193957Y295001D01*
X1195207Y293751D02*
X1194957D01*
Y293501D01*
X1195207D01*
Y293751D01*
X1193957Y292501D02*
X1193707Y292251D01*
Y291752D01*
X1193957Y291502D01*
X1194207D01*
X1194457Y291752D01*
Y292002D01*
Y291752D01*
X1194707Y291502D01*
X1194957D01*
X1195207Y291752D01*
Y292251D01*
X1194957Y292501D01*
X1195207Y291002D02*
X1194957D01*
Y290752D01*
X1195207D01*
Y291002D01*
Y289752D02*
Y289252D01*
Y289502D01*
X1193707D01*
X1193957Y289752D01*
Y288503D02*
X1193707Y288253D01*
Y287753D01*
X1193957Y287503D01*
X1194207D01*
X1194457Y287753D01*
Y288003D01*
Y287753D01*
X1194707Y287503D01*
X1194957D01*
X1195207Y287753D01*
Y288253D01*
X1194957Y288503D01*
X1118957Y145500D02*
X1118707Y145750D01*
Y146250D01*
X1118957Y146500D01*
X1119957D01*
X1120207Y146250D01*
Y145750D01*
X1119957Y145500D01*
X1120207Y145001D02*
Y144501D01*
Y144751D01*
X1118707D01*
X1118957Y145001D01*
X1120207Y143751D02*
X1119957D01*
Y143501D01*
X1120207D01*
Y143751D01*
X1118957Y142501D02*
X1118707Y142251D01*
Y141752D01*
X1118957Y141502D01*
X1119207D01*
X1119457Y141752D01*
Y142001D01*
Y141752D01*
X1119707Y141502D01*
X1119957D01*
X1120207Y141752D01*
Y142251D01*
X1119957Y142501D01*
X1120207Y141002D02*
X1119957D01*
Y140752D01*
X1120207D01*
Y141002D01*
Y139752D02*
Y139252D01*
Y139502D01*
X1118707D01*
X1118957Y139752D01*
X1120207Y137753D02*
X1118707D01*
X1119457Y138503D01*
Y137503D01*
X1193957Y70500D02*
X1193707Y70750D01*
Y71250D01*
X1193957Y71500D01*
X1194957D01*
X1195207Y71250D01*
Y70750D01*
X1194957Y70500D01*
X1195207Y70001D02*
Y69501D01*
Y69751D01*
X1193707D01*
X1193957Y70001D01*
X1195207Y68751D02*
X1194957D01*
Y68501D01*
X1195207D01*
Y68751D01*
X1193957Y67501D02*
X1193707Y67251D01*
Y66752D01*
X1193957Y66502D01*
X1194207D01*
X1194457Y66752D01*
Y67001D01*
Y66752D01*
X1194707Y66502D01*
X1194957D01*
X1195207Y66752D01*
Y67251D01*
X1194957Y67501D01*
X1195207Y66002D02*
X1194957D01*
Y65752D01*
X1195207D01*
Y66002D01*
Y64752D02*
Y64252D01*
Y64502D01*
X1193707D01*
X1193957Y64752D01*
X1193707Y62503D02*
Y63503D01*
X1194457D01*
X1194207Y63003D01*
Y62753D01*
X1194457Y62503D01*
X1194957D01*
X1195207Y62753D01*
Y63253D01*
X1194957Y63503D01*
X1118957Y70500D02*
X1118707Y70750D01*
Y71250D01*
X1118957Y71500D01*
X1119957D01*
X1120207Y71250D01*
Y70750D01*
X1119957Y70500D01*
X1120207Y70001D02*
Y69501D01*
Y69751D01*
X1118707D01*
X1118957Y70001D01*
X1120207Y68751D02*
X1119957D01*
Y68501D01*
X1120207D01*
Y68751D01*
X1118957Y67501D02*
X1118707Y67251D01*
Y66752D01*
X1118957Y66502D01*
X1119207D01*
X1119457Y66752D01*
Y67001D01*
Y66752D01*
X1119707Y66502D01*
X1119957D01*
X1120207Y66752D01*
Y67251D01*
X1119957Y67501D01*
X1120207Y66002D02*
X1119957D01*
Y65752D01*
X1120207D01*
Y66002D01*
Y64752D02*
Y64252D01*
Y64502D01*
X1118707D01*
X1118957Y64752D01*
X1118707Y62503D02*
X1118957Y63003D01*
X1119457Y63503D01*
X1119957D01*
X1120207Y63253D01*
Y62753D01*
X1119957Y62503D01*
X1119707D01*
X1119457Y62753D01*
Y63503D01*
X1043957Y70500D02*
X1043707Y70750D01*
Y71250D01*
X1043957Y71500D01*
X1044957D01*
X1045207Y71250D01*
Y70750D01*
X1044957Y70500D01*
X1045207Y70001D02*
Y69501D01*
Y69751D01*
X1043707D01*
X1043957Y70001D01*
X1045207Y68751D02*
X1044957D01*
Y68501D01*
X1045207D01*
Y68751D01*
X1043957Y67501D02*
X1043707Y67251D01*
Y66752D01*
X1043957Y66502D01*
X1044207D01*
X1044457Y66752D01*
Y67001D01*
Y66752D01*
X1044707Y66502D01*
X1044957D01*
X1045207Y66752D01*
Y67251D01*
X1044957Y67501D01*
X1045207Y66002D02*
X1044957D01*
Y65752D01*
X1045207D01*
Y66002D01*
Y64752D02*
Y64252D01*
Y64502D01*
X1043707D01*
X1043957Y64752D01*
X1043707Y63503D02*
Y62503D01*
X1043957D01*
X1044957Y63503D01*
X1045207D01*
X959582Y70500D02*
X959332Y70750D01*
Y71250D01*
X959582Y71500D01*
X960582D01*
X960832Y71250D01*
Y70750D01*
X960582Y70500D01*
X960832Y70001D02*
Y69501D01*
Y69751D01*
X959332D01*
X959582Y70001D01*
X960832Y68751D02*
X960582D01*
Y68501D01*
X960832D01*
Y68751D01*
X959582Y67501D02*
X959332Y67251D01*
Y66752D01*
X959582Y66502D01*
X959832D01*
X960082Y66752D01*
Y67001D01*
Y66752D01*
X960332Y66502D01*
X960582D01*
X960832Y66752D01*
Y67251D01*
X960582Y67501D01*
X960832Y66002D02*
X960582D01*
Y65752D01*
X960832D01*
Y66002D01*
Y64752D02*
Y64252D01*
Y64502D01*
X959332D01*
X959582Y64752D01*
Y63503D02*
X959332Y63253D01*
Y62753D01*
X959582Y62503D01*
X959832D01*
X960082Y62753D01*
X960332Y62503D01*
X960582D01*
X960832Y62753D01*
Y63253D01*
X960582Y63503D01*
X960332D01*
X960082Y63253D01*
X959832Y63503D01*
X959582D01*
X960082Y63253D02*
Y62753D01*
X856457Y70500D02*
X856207Y70750D01*
Y71250D01*
X856457Y71500D01*
X857457D01*
X857707Y71250D01*
Y70750D01*
X857457Y70500D01*
X857707Y70001D02*
Y69501D01*
Y69751D01*
X856207D01*
X856457Y70001D01*
X857707Y68751D02*
X857457D01*
Y68501D01*
X857707D01*
Y68751D01*
X856457Y67501D02*
X856207Y67251D01*
Y66752D01*
X856457Y66502D01*
X856707D01*
X856957Y66752D01*
Y67001D01*
Y66752D01*
X857207Y66502D01*
X857457D01*
X857707Y66752D01*
Y67251D01*
X857457Y67501D01*
X857707Y66002D02*
X857457D01*
Y65752D01*
X857707D01*
Y66002D01*
Y64752D02*
Y64252D01*
Y64502D01*
X856207D01*
X856457Y64752D01*
X857457Y63503D02*
X857707Y63253D01*
Y62753D01*
X857457Y62503D01*
X856457D01*
X856207Y62753D01*
Y63253D01*
X856457Y63503D01*
X856707D01*
X856957Y63253D01*
Y62503D01*
X762707Y70750D02*
X762457Y71000D01*
Y71500D01*
X762707Y71750D01*
X763707D01*
X763957Y71500D01*
Y71000D01*
X763707Y70750D01*
X763957Y70250D02*
Y69751D01*
Y70001D01*
X762457D01*
X762707Y70250D01*
X763957Y69001D02*
X763707D01*
Y68751D01*
X763957D01*
Y69001D01*
X762707Y67751D02*
X762457Y67501D01*
Y67001D01*
X762707Y66752D01*
X762957D01*
X763207Y67001D01*
Y67251D01*
Y67001D01*
X763457Y66752D01*
X763707D01*
X763957Y67001D01*
Y67501D01*
X763707Y67751D01*
X763957Y66252D02*
X763707D01*
Y66002D01*
X763957D01*
Y66252D01*
Y64003D02*
Y65002D01*
X762957Y64003D01*
X762707D01*
X762457Y64252D01*
Y64752D01*
X762707Y65002D01*
Y63503D02*
X762457Y63253D01*
Y62753D01*
X762707Y62503D01*
X763707D01*
X763957Y62753D01*
Y63253D01*
X763707Y63503D01*
X762707D01*
X668957Y70250D02*
X668707Y70500D01*
Y71000D01*
X668957Y71250D01*
X669957D01*
X670207Y71000D01*
Y70500D01*
X669957Y70250D01*
X670207Y69751D02*
Y69251D01*
Y69501D01*
X668707D01*
X668957Y69751D01*
X670207Y68501D02*
X669957D01*
Y68251D01*
X670207D01*
Y68501D01*
X668957Y67251D02*
X668707Y67001D01*
Y66502D01*
X668957Y66252D01*
X669207D01*
X669457Y66502D01*
Y66752D01*
Y66502D01*
X669707Y66252D01*
X669957D01*
X670207Y66502D01*
Y67001D01*
X669957Y67251D01*
X670207Y65752D02*
X669957D01*
Y65502D01*
X670207D01*
Y65752D01*
Y63503D02*
Y64502D01*
X669207Y63503D01*
X668957D01*
X668707Y63753D01*
Y64252D01*
X668957Y64502D01*
X670207Y63003D02*
Y62503D01*
Y62753D01*
X668707D01*
X668957Y63003D01*
X575207Y70750D02*
X574957Y71000D01*
Y71500D01*
X575207Y71750D01*
X576207D01*
X576457Y71500D01*
Y71000D01*
X576207Y70750D01*
X576457Y70250D02*
Y69751D01*
Y70001D01*
X574957D01*
X575207Y70250D01*
X576457Y69001D02*
X576207D01*
Y68751D01*
X576457D01*
Y69001D01*
X575207Y67751D02*
X574957Y67501D01*
Y67001D01*
X575207Y66752D01*
X575457D01*
X575707Y67001D01*
Y67251D01*
Y67001D01*
X575957Y66752D01*
X576207D01*
X576457Y67001D01*
Y67501D01*
X576207Y67751D01*
X576457Y66252D02*
X576207D01*
Y66002D01*
X576457D01*
Y66252D01*
Y64003D02*
Y65002D01*
X575457Y64003D01*
X575207D01*
X574957Y64252D01*
Y64752D01*
X575207Y65002D01*
X576457Y62503D02*
Y63503D01*
X575457Y62503D01*
X575207D01*
X574957Y62753D01*
Y63253D01*
X575207Y63503D01*
X500207Y70750D02*
X499957Y71000D01*
Y71500D01*
X500207Y71750D01*
X501207D01*
X501457Y71500D01*
Y71000D01*
X501207Y70750D01*
X501457Y70250D02*
Y69751D01*
Y70001D01*
X499957D01*
X500207Y70250D01*
X501457Y69001D02*
X501207D01*
Y68751D01*
X501457D01*
Y69001D01*
X500207Y67751D02*
X499957Y67501D01*
Y67001D01*
X500207Y66752D01*
X500457D01*
X500707Y67001D01*
Y67251D01*
Y67001D01*
X500957Y66752D01*
X501207D01*
X501457Y67001D01*
Y67501D01*
X501207Y67751D01*
X501457Y66252D02*
X501207D01*
Y66002D01*
X501457D01*
Y66252D01*
Y64003D02*
Y65002D01*
X500457Y64003D01*
X500207D01*
X499957Y64252D01*
Y64752D01*
X500207Y65002D01*
Y63503D02*
X499957Y63253D01*
Y62753D01*
X500207Y62503D01*
X500457D01*
X500707Y62753D01*
Y63003D01*
Y62753D01*
X500957Y62503D01*
X501207D01*
X501457Y62753D01*
Y63253D01*
X501207Y63503D01*
X406457Y70750D02*
X406207Y71000D01*
Y71500D01*
X406457Y71750D01*
X407457D01*
X407707Y71500D01*
Y71000D01*
X407457Y70750D01*
X407707Y70250D02*
Y69751D01*
Y70001D01*
X406207D01*
X406457Y70250D01*
X407707Y69001D02*
X407457D01*
Y68751D01*
X407707D01*
Y69001D01*
X406457Y67751D02*
X406207Y67501D01*
Y67001D01*
X406457Y66752D01*
X406707D01*
X406957Y67001D01*
Y67251D01*
Y67001D01*
X407207Y66752D01*
X407457D01*
X407707Y67001D01*
Y67501D01*
X407457Y67751D01*
X407707Y66252D02*
X407457D01*
Y66002D01*
X407707D01*
Y66252D01*
Y64003D02*
Y65002D01*
X406707Y64003D01*
X406457D01*
X406207Y64252D01*
Y64752D01*
X406457Y65002D01*
X407707Y62753D02*
X406207D01*
X406957Y63503D01*
Y62503D01*
X312707Y70750D02*
X312457Y71000D01*
Y71500D01*
X312707Y71750D01*
X313707D01*
X313957Y71500D01*
Y71000D01*
X313707Y70750D01*
X313957Y70250D02*
Y69751D01*
Y70001D01*
X312457D01*
X312707Y70250D01*
X313957Y69001D02*
X313707D01*
Y68751D01*
X313957D01*
Y69001D01*
X312707Y67751D02*
X312457Y67501D01*
Y67001D01*
X312707Y66752D01*
X312957D01*
X313207Y67001D01*
Y67251D01*
Y67001D01*
X313457Y66752D01*
X313707D01*
X313957Y67001D01*
Y67501D01*
X313707Y67751D01*
X313957Y66252D02*
X313707D01*
Y66002D01*
X313957D01*
Y66252D01*
Y64003D02*
Y65002D01*
X312957Y64003D01*
X312707D01*
X312457Y64252D01*
Y64752D01*
X312707Y65002D01*
X312457Y62503D02*
Y63503D01*
X313207D01*
X312957Y63003D01*
Y62753D01*
X313207Y62503D01*
X313707D01*
X313957Y62753D01*
Y63253D01*
X313707Y63503D01*
X237707Y70750D02*
X237457Y71000D01*
Y71500D01*
X237707Y71750D01*
X238707D01*
X238957Y71500D01*
Y71000D01*
X238707Y70750D01*
X238957Y70250D02*
Y69751D01*
Y70001D01*
X237457D01*
X237707Y70250D01*
X238957Y69001D02*
X238707D01*
Y68751D01*
X238957D01*
Y69001D01*
X237707Y67751D02*
X237457Y67501D01*
Y67001D01*
X237707Y66752D01*
X237957D01*
X238207Y67001D01*
Y67251D01*
Y67001D01*
X238457Y66752D01*
X238707D01*
X238957Y67001D01*
Y67501D01*
X238707Y67751D01*
X238957Y66252D02*
X238707D01*
Y66002D01*
X238957D01*
Y66252D01*
Y64003D02*
Y65002D01*
X237957Y64003D01*
X237707D01*
X237457Y64252D01*
Y64752D01*
X237707Y65002D01*
X237457Y62503D02*
X237707Y63003D01*
X238207Y63503D01*
X238707D01*
X238957Y63253D01*
Y62753D01*
X238707Y62503D01*
X238457D01*
X238207Y62753D01*
Y63503D01*
X162707Y70750D02*
X162457Y71000D01*
Y71500D01*
X162707Y71750D01*
X163707D01*
X163957Y71500D01*
Y71000D01*
X163707Y70750D01*
X163957Y70250D02*
Y69751D01*
Y70001D01*
X162457D01*
X162707Y70250D01*
X163957Y69001D02*
X163707D01*
Y68751D01*
X163957D01*
Y69001D01*
X162707Y67751D02*
X162457Y67501D01*
Y67001D01*
X162707Y66752D01*
X162957D01*
X163207Y67001D01*
Y67251D01*
Y67001D01*
X163457Y66752D01*
X163707D01*
X163957Y67001D01*
Y67501D01*
X163707Y67751D01*
X163957Y66252D02*
X163707D01*
Y66002D01*
X163957D01*
Y66252D01*
Y64003D02*
Y65002D01*
X162957Y64003D01*
X162707D01*
X162457Y64252D01*
Y64752D01*
X162707Y65002D01*
X162457Y63503D02*
Y62503D01*
X162707D01*
X163707Y63503D01*
X163957D01*
X78332Y70750D02*
X78082Y71000D01*
Y71500D01*
X78332Y71750D01*
X79332D01*
X79582Y71500D01*
Y71000D01*
X79332Y70750D01*
X79582Y70250D02*
Y69751D01*
Y70001D01*
X78082D01*
X78332Y70250D01*
X79582Y69001D02*
X79332D01*
Y68751D01*
X79582D01*
Y69001D01*
X78332Y67751D02*
X78082Y67501D01*
Y67001D01*
X78332Y66752D01*
X78582D01*
X78832Y67001D01*
Y67251D01*
Y67001D01*
X79082Y66752D01*
X79332D01*
X79582Y67001D01*
Y67501D01*
X79332Y67751D01*
X79582Y66252D02*
X79332D01*
Y66002D01*
X79582D01*
Y66252D01*
Y64003D02*
Y65002D01*
X78582Y64003D01*
X78332D01*
X78082Y64252D01*
Y64752D01*
X78332Y65002D01*
Y63503D02*
X78082Y63253D01*
Y62753D01*
X78332Y62503D01*
X78582D01*
X78832Y62753D01*
X79082Y62503D01*
X79332D01*
X79582Y62753D01*
Y63253D01*
X79332Y63503D01*
X79082D01*
X78832Y63253D01*
X78582Y63503D01*
X78332D01*
X78832Y63253D02*
Y62753D01*
X1015832Y145750D02*
X1015582Y146000D01*
Y146500D01*
X1015832Y146750D01*
X1016832D01*
X1017082Y146500D01*
Y146000D01*
X1016832Y145750D01*
X1017082Y145250D02*
Y144751D01*
Y145001D01*
X1015582D01*
X1015832Y145250D01*
X1017082Y144001D02*
X1016832D01*
Y143751D01*
X1017082D01*
Y144001D01*
X1015832Y142751D02*
X1015582Y142501D01*
Y142001D01*
X1015832Y141752D01*
X1016082D01*
X1016332Y142001D01*
Y142251D01*
Y142001D01*
X1016582Y141752D01*
X1016832D01*
X1017082Y142001D01*
Y142501D01*
X1016832Y142751D01*
X1017082Y141252D02*
X1016832D01*
Y141002D01*
X1017082D01*
Y141252D01*
Y139003D02*
Y140002D01*
X1016082Y139003D01*
X1015832D01*
X1015582Y139252D01*
Y139752D01*
X1015832Y140002D01*
X1016832Y138503D02*
X1017082Y138253D01*
Y137753D01*
X1016832Y137503D01*
X1015832D01*
X1015582Y137753D01*
Y138253D01*
X1015832Y138503D01*
X1016082D01*
X1016332Y138253D01*
Y137503D01*
X912707Y145750D02*
X912457Y146000D01*
Y146500D01*
X912707Y146750D01*
X913707D01*
X913957Y146500D01*
Y146000D01*
X913707Y145750D01*
X913957Y145250D02*
Y144751D01*
Y145001D01*
X912457D01*
X912707Y145250D01*
X913957Y144001D02*
X913707D01*
Y143751D01*
X913957D01*
Y144001D01*
X912707Y142751D02*
X912457Y142501D01*
Y142001D01*
X912707Y141752D01*
X912957D01*
X913207Y142001D01*
Y142251D01*
Y142001D01*
X913457Y141752D01*
X913707D01*
X913957Y142001D01*
Y142501D01*
X913707Y142751D01*
X913957Y141252D02*
X913707D01*
Y141002D01*
X913957D01*
Y141252D01*
X912707Y140002D02*
X912457Y139752D01*
Y139252D01*
X912707Y139003D01*
X912957D01*
X913207Y139252D01*
Y139502D01*
Y139252D01*
X913457Y139003D01*
X913707D01*
X913957Y139252D01*
Y139752D01*
X913707Y140002D01*
X912707Y138503D02*
X912457Y138253D01*
Y137753D01*
X912707Y137503D01*
X913707D01*
X913957Y137753D01*
Y138253D01*
X913707Y138503D01*
X912707D01*
X837707Y145250D02*
X837457Y145500D01*
Y146000D01*
X837707Y146250D01*
X838707D01*
X838957Y146000D01*
Y145500D01*
X838707Y145250D01*
X838957Y144751D02*
Y144251D01*
Y144501D01*
X837457D01*
X837707Y144751D01*
X838957Y143501D02*
X838707D01*
Y143251D01*
X838957D01*
Y143501D01*
X837707Y142251D02*
X837457Y142001D01*
Y141502D01*
X837707Y141252D01*
X837957D01*
X838207Y141502D01*
Y141752D01*
Y141502D01*
X838457Y141252D01*
X838707D01*
X838957Y141502D01*
Y142001D01*
X838707Y142251D01*
X838957Y140752D02*
X838707D01*
Y140502D01*
X838957D01*
Y140752D01*
X837707Y139502D02*
X837457Y139252D01*
Y138753D01*
X837707Y138503D01*
X837957D01*
X838207Y138753D01*
Y139003D01*
Y138753D01*
X838457Y138503D01*
X838707D01*
X838957Y138753D01*
Y139252D01*
X838707Y139502D01*
X838957Y138003D02*
Y137503D01*
Y137753D01*
X837457D01*
X837707Y138003D01*
X762707Y145750D02*
X762457Y146000D01*
Y146500D01*
X762707Y146750D01*
X763707D01*
X763957Y146500D01*
Y146000D01*
X763707Y145750D01*
X763957Y145250D02*
Y144751D01*
Y145001D01*
X762457D01*
X762707Y145250D01*
X763957Y144001D02*
X763707D01*
Y143751D01*
X763957D01*
Y144001D01*
X762707Y142751D02*
X762457Y142501D01*
Y142001D01*
X762707Y141752D01*
X762957D01*
X763207Y142001D01*
Y142251D01*
Y142001D01*
X763457Y141752D01*
X763707D01*
X763957Y142001D01*
Y142501D01*
X763707Y142751D01*
X763957Y141252D02*
X763707D01*
Y141002D01*
X763957D01*
Y141252D01*
X762707Y140002D02*
X762457Y139752D01*
Y139252D01*
X762707Y139003D01*
X762957D01*
X763207Y139252D01*
Y139502D01*
Y139252D01*
X763457Y139003D01*
X763707D01*
X763957Y139252D01*
Y139752D01*
X763707Y140002D01*
X763957Y137503D02*
Y138503D01*
X762957Y137503D01*
X762707D01*
X762457Y137753D01*
Y138253D01*
X762707Y138503D01*
X687707Y145750D02*
X687457Y146000D01*
Y146500D01*
X687707Y146750D01*
X688707D01*
X688957Y146500D01*
Y146000D01*
X688707Y145750D01*
X688957Y145250D02*
Y144751D01*
Y145001D01*
X687457D01*
X687707Y145250D01*
X688957Y144001D02*
X688707D01*
Y143751D01*
X688957D01*
Y144001D01*
X687707Y142751D02*
X687457Y142501D01*
Y142001D01*
X687707Y141752D01*
X687957D01*
X688207Y142001D01*
Y142251D01*
Y142001D01*
X688457Y141752D01*
X688707D01*
X688957Y142001D01*
Y142501D01*
X688707Y142751D01*
X688957Y141252D02*
X688707D01*
Y141002D01*
X688957D01*
Y141252D01*
X687707Y140002D02*
X687457Y139752D01*
Y139252D01*
X687707Y139003D01*
X687957D01*
X688207Y139252D01*
Y139502D01*
Y139252D01*
X688457Y139003D01*
X688707D01*
X688957Y139252D01*
Y139752D01*
X688707Y140002D01*
X687707Y138503D02*
X687457Y138253D01*
Y137753D01*
X687707Y137503D01*
X687957D01*
X688207Y137753D01*
Y138003D01*
Y137753D01*
X688457Y137503D01*
X688707D01*
X688957Y137753D01*
Y138253D01*
X688707Y138503D01*
X612707Y145750D02*
X612457Y146000D01*
Y146500D01*
X612707Y146750D01*
X613707D01*
X613957Y146500D01*
Y146000D01*
X613707Y145750D01*
X613957Y145250D02*
Y144751D01*
Y145001D01*
X612457D01*
X612707Y145250D01*
X613957Y144001D02*
X613707D01*
Y143751D01*
X613957D01*
Y144001D01*
X612707Y142751D02*
X612457Y142501D01*
Y142001D01*
X612707Y141752D01*
X612957D01*
X613207Y142001D01*
Y142251D01*
Y142001D01*
X613457Y141752D01*
X613707D01*
X613957Y142001D01*
Y142501D01*
X613707Y142751D01*
X613957Y141252D02*
X613707D01*
Y141002D01*
X613957D01*
Y141252D01*
X612707Y140002D02*
X612457Y139752D01*
Y139252D01*
X612707Y139003D01*
X612957D01*
X613207Y139252D01*
Y139502D01*
Y139252D01*
X613457Y139003D01*
X613707D01*
X613957Y139252D01*
Y139752D01*
X613707Y140002D01*
X613957Y137753D02*
X612457D01*
X613207Y138503D01*
Y137503D01*
X537707Y145750D02*
X537457Y146000D01*
Y146500D01*
X537707Y146750D01*
X538707D01*
X538957Y146500D01*
Y146000D01*
X538707Y145750D01*
X538957Y145250D02*
Y144751D01*
Y145001D01*
X537457D01*
X537707Y145250D01*
X538957Y144001D02*
X538707D01*
Y143751D01*
X538957D01*
Y144001D01*
X537707Y142751D02*
X537457Y142501D01*
Y142001D01*
X537707Y141752D01*
X537957D01*
X538207Y142001D01*
Y142251D01*
Y142001D01*
X538457Y141752D01*
X538707D01*
X538957Y142001D01*
Y142501D01*
X538707Y142751D01*
X538957Y141252D02*
X538707D01*
Y141002D01*
X538957D01*
Y141252D01*
X537707Y140002D02*
X537457Y139752D01*
Y139252D01*
X537707Y139003D01*
X537957D01*
X538207Y139252D01*
Y139502D01*
Y139252D01*
X538457Y139003D01*
X538707D01*
X538957Y139252D01*
Y139752D01*
X538707Y140002D01*
X537457Y137503D02*
Y138503D01*
X538207D01*
X537957Y138003D01*
Y137753D01*
X538207Y137503D01*
X538707D01*
X538957Y137753D01*
Y138253D01*
X538707Y138503D01*
X462707Y145750D02*
X462457Y146000D01*
Y146500D01*
X462707Y146750D01*
X463707D01*
X463957Y146500D01*
Y146000D01*
X463707Y145750D01*
X463957Y145250D02*
Y144751D01*
Y145001D01*
X462457D01*
X462707Y145250D01*
X463957Y144001D02*
X463707D01*
Y143751D01*
X463957D01*
Y144001D01*
X462707Y142751D02*
X462457Y142501D01*
Y142001D01*
X462707Y141752D01*
X462957D01*
X463207Y142001D01*
Y142251D01*
Y142001D01*
X463457Y141752D01*
X463707D01*
X463957Y142001D01*
Y142501D01*
X463707Y142751D01*
X463957Y141252D02*
X463707D01*
Y141002D01*
X463957D01*
Y141252D01*
X462707Y140002D02*
X462457Y139752D01*
Y139252D01*
X462707Y139003D01*
X462957D01*
X463207Y139252D01*
Y139502D01*
Y139252D01*
X463457Y139003D01*
X463707D01*
X463957Y139252D01*
Y139752D01*
X463707Y140002D01*
X462457Y137503D02*
X462707Y138003D01*
X463207Y138503D01*
X463707D01*
X463957Y138253D01*
Y137753D01*
X463707Y137503D01*
X463457D01*
X463207Y137753D01*
Y138503D01*
X387707Y145750D02*
X387457Y146000D01*
Y146500D01*
X387707Y146750D01*
X388707D01*
X388957Y146500D01*
Y146000D01*
X388707Y145750D01*
X388957Y145250D02*
Y144751D01*
Y145001D01*
X387457D01*
X387707Y145250D01*
X388957Y144001D02*
X388707D01*
Y143751D01*
X388957D01*
Y144001D01*
X387707Y142751D02*
X387457Y142501D01*
Y142001D01*
X387707Y141752D01*
X387957D01*
X388207Y142001D01*
Y142251D01*
Y142001D01*
X388457Y141752D01*
X388707D01*
X388957Y142001D01*
Y142501D01*
X388707Y142751D01*
X388957Y141252D02*
X388707D01*
Y141002D01*
X388957D01*
Y141252D01*
X387707Y140002D02*
X387457Y139752D01*
Y139252D01*
X387707Y139003D01*
X387957D01*
X388207Y139252D01*
Y139502D01*
Y139252D01*
X388457Y139003D01*
X388707D01*
X388957Y139252D01*
Y139752D01*
X388707Y140002D01*
X387457Y138503D02*
Y137503D01*
X387707D01*
X388707Y138503D01*
X388957D01*
X312707Y145750D02*
X312457Y146000D01*
Y146500D01*
X312707Y146750D01*
X313707D01*
X313957Y146500D01*
Y146000D01*
X313707Y145750D01*
X313957Y145250D02*
Y144751D01*
Y145001D01*
X312457D01*
X312707Y145250D01*
X313957Y144001D02*
X313707D01*
Y143751D01*
X313957D01*
Y144001D01*
X312707Y142751D02*
X312457Y142501D01*
Y142001D01*
X312707Y141752D01*
X312957D01*
X313207Y142001D01*
Y142251D01*
Y142001D01*
X313457Y141752D01*
X313707D01*
X313957Y142001D01*
Y142501D01*
X313707Y142751D01*
X313957Y141252D02*
X313707D01*
Y141002D01*
X313957D01*
Y141252D01*
X312707Y140002D02*
X312457Y139752D01*
Y139252D01*
X312707Y139003D01*
X312957D01*
X313207Y139252D01*
Y139502D01*
Y139252D01*
X313457Y139003D01*
X313707D01*
X313957Y139252D01*
Y139752D01*
X313707Y140002D01*
X312707Y138503D02*
X312457Y138253D01*
Y137753D01*
X312707Y137503D01*
X312957D01*
X313207Y137753D01*
X313457Y137503D01*
X313707D01*
X313957Y137753D01*
Y138253D01*
X313707Y138503D01*
X313457D01*
X313207Y138253D01*
X312957Y138503D01*
X312707D01*
X313207Y138253D02*
Y137753D01*
X237707Y145750D02*
X237457Y146000D01*
Y146500D01*
X237707Y146750D01*
X238707D01*
X238957Y146500D01*
Y146000D01*
X238707Y145750D01*
X238957Y145250D02*
Y144751D01*
Y145001D01*
X237457D01*
X237707Y145250D01*
X238957Y144001D02*
X238707D01*
Y143751D01*
X238957D01*
Y144001D01*
X237707Y142751D02*
X237457Y142501D01*
Y142001D01*
X237707Y141752D01*
X237957D01*
X238207Y142001D01*
Y142251D01*
Y142001D01*
X238457Y141752D01*
X238707D01*
X238957Y142001D01*
Y142501D01*
X238707Y142751D01*
X238957Y141252D02*
X238707D01*
Y141002D01*
X238957D01*
Y141252D01*
X237707Y140002D02*
X237457Y139752D01*
Y139252D01*
X237707Y139003D01*
X237957D01*
X238207Y139252D01*
Y139502D01*
Y139252D01*
X238457Y139003D01*
X238707D01*
X238957Y139252D01*
Y139752D01*
X238707Y140002D01*
Y138503D02*
X238957Y138253D01*
Y137753D01*
X238707Y137503D01*
X237707D01*
X237457Y137753D01*
Y138253D01*
X237707Y138503D01*
X237957D01*
X238207Y138253D01*
Y137503D01*
X125207Y145750D02*
X124957Y146000D01*
Y146500D01*
X125207Y146750D01*
X126207D01*
X126457Y146500D01*
Y146000D01*
X126207Y145750D01*
X126457Y145250D02*
Y144751D01*
Y145001D01*
X124957D01*
X125207Y145250D01*
X126457Y144001D02*
X126207D01*
Y143751D01*
X126457D01*
Y144001D01*
X125207Y142751D02*
X124957Y142501D01*
Y142001D01*
X125207Y141752D01*
X125457D01*
X125707Y142001D01*
Y142251D01*
Y142001D01*
X125957Y141752D01*
X126207D01*
X126457Y142001D01*
Y142501D01*
X126207Y142751D01*
X126457Y141252D02*
X126207D01*
Y141002D01*
X126457D01*
Y141252D01*
Y139252D02*
X124957D01*
X125707Y140002D01*
Y139003D01*
X125207Y138503D02*
X124957Y138253D01*
Y137753D01*
X125207Y137503D01*
X126207D01*
X126457Y137753D01*
Y138253D01*
X126207Y138503D01*
X125207D01*
X1072082Y220251D02*
X1071832Y220500D01*
Y221000D01*
X1072082Y221250D01*
X1073082D01*
X1073332Y221000D01*
Y220500D01*
X1073082Y220251D01*
X1073332Y219751D02*
Y219251D01*
Y219501D01*
X1071832D01*
X1072082Y219751D01*
X1073332Y218501D02*
X1073082D01*
Y218251D01*
X1073332D01*
Y218501D01*
X1072082Y217251D02*
X1071832Y217002D01*
Y216502D01*
X1072082Y216252D01*
X1072332D01*
X1072582Y216502D01*
Y216752D01*
Y216502D01*
X1072832Y216252D01*
X1073082D01*
X1073332Y216502D01*
Y217002D01*
X1073082Y217251D01*
X1073332Y215752D02*
X1073082D01*
Y215502D01*
X1073332D01*
Y215752D01*
Y213753D02*
X1071832D01*
X1072582Y214502D01*
Y213503D01*
X1073332Y213003D02*
Y212503D01*
Y212753D01*
X1071832D01*
X1072082Y213003D01*
X950207Y220750D02*
X949957Y221000D01*
Y221500D01*
X950207Y221750D01*
X951207D01*
X951457Y221500D01*
Y221000D01*
X951207Y220750D01*
X951457Y220251D02*
Y219751D01*
Y220001D01*
X949957D01*
X950207Y220251D01*
X951457Y219001D02*
X951207D01*
Y218751D01*
X951457D01*
Y219001D01*
X950207Y217751D02*
X949957Y217501D01*
Y217002D01*
X950207Y216752D01*
X950457D01*
X950707Y217002D01*
Y217251D01*
Y217002D01*
X950957Y216752D01*
X951207D01*
X951457Y217002D01*
Y217501D01*
X951207Y217751D01*
X951457Y216252D02*
X951207D01*
Y216002D01*
X951457D01*
Y216252D01*
Y214252D02*
X949957D01*
X950707Y215002D01*
Y214002D01*
X951457Y212503D02*
Y213503D01*
X950457Y212503D01*
X950207D01*
X949957Y212753D01*
Y213253D01*
X950207Y213503D01*
X875207Y220750D02*
X874957Y221000D01*
Y221500D01*
X875207Y221750D01*
X876207D01*
X876457Y221500D01*
Y221000D01*
X876207Y220750D01*
X876457Y220251D02*
Y219751D01*
Y220001D01*
X874957D01*
X875207Y220251D01*
X876457Y219001D02*
X876207D01*
Y218751D01*
X876457D01*
Y219001D01*
X875207Y217751D02*
X874957Y217501D01*
Y217002D01*
X875207Y216752D01*
X875457D01*
X875707Y217002D01*
Y217251D01*
Y217002D01*
X875957Y216752D01*
X876207D01*
X876457Y217002D01*
Y217501D01*
X876207Y217751D01*
X876457Y216252D02*
X876207D01*
Y216002D01*
X876457D01*
Y216252D01*
Y214252D02*
X874957D01*
X875707Y215002D01*
Y214002D01*
X875207Y213503D02*
X874957Y213253D01*
Y212753D01*
X875207Y212503D01*
X875457D01*
X875707Y212753D01*
Y213003D01*
Y212753D01*
X875957Y212503D01*
X876207D01*
X876457Y212753D01*
Y213253D01*
X876207Y213503D01*
X800207Y220750D02*
X799957Y221000D01*
Y221500D01*
X800207Y221750D01*
X801207D01*
X801457Y221500D01*
Y221000D01*
X801207Y220750D01*
X801457Y220251D02*
Y219751D01*
Y220001D01*
X799957D01*
X800207Y220251D01*
X801457Y219001D02*
X801207D01*
Y218751D01*
X801457D01*
Y219001D01*
X800207Y217751D02*
X799957Y217501D01*
Y217002D01*
X800207Y216752D01*
X800457D01*
X800707Y217002D01*
Y217251D01*
Y217002D01*
X800957Y216752D01*
X801207D01*
X801457Y217002D01*
Y217501D01*
X801207Y217751D01*
X801457Y216252D02*
X801207D01*
Y216002D01*
X801457D01*
Y216252D01*
Y214252D02*
X799957D01*
X800707Y215002D01*
Y214002D01*
X801457Y212753D02*
X799957D01*
X800707Y213503D01*
Y212503D01*
X725207Y220750D02*
X724957Y221000D01*
Y221500D01*
X725207Y221750D01*
X726207D01*
X726457Y221500D01*
Y221000D01*
X726207Y220750D01*
X726457Y220251D02*
Y219751D01*
Y220001D01*
X724957D01*
X725207Y220251D01*
X726457Y219001D02*
X726207D01*
Y218751D01*
X726457D01*
Y219001D01*
X725207Y217751D02*
X724957Y217501D01*
Y217002D01*
X725207Y216752D01*
X725457D01*
X725707Y217002D01*
Y217251D01*
Y217002D01*
X725957Y216752D01*
X726207D01*
X726457Y217002D01*
Y217501D01*
X726207Y217751D01*
X726457Y216252D02*
X726207D01*
Y216002D01*
X726457D01*
Y216252D01*
Y214252D02*
X724957D01*
X725707Y215002D01*
Y214002D01*
X724957Y212503D02*
Y213503D01*
X725707D01*
X725457Y213003D01*
Y212753D01*
X725707Y212503D01*
X726207D01*
X726457Y212753D01*
Y213253D01*
X726207Y213503D01*
X650207Y220750D02*
X649957Y221000D01*
Y221500D01*
X650207Y221750D01*
X651207D01*
X651457Y221500D01*
Y221000D01*
X651207Y220750D01*
X651457Y220251D02*
Y219751D01*
Y220001D01*
X649957D01*
X650207Y220251D01*
X651457Y219001D02*
X651207D01*
Y218751D01*
X651457D01*
Y219001D01*
X650207Y217751D02*
X649957Y217501D01*
Y217002D01*
X650207Y216752D01*
X650457D01*
X650707Y217002D01*
Y217251D01*
Y217002D01*
X650957Y216752D01*
X651207D01*
X651457Y217002D01*
Y217501D01*
X651207Y217751D01*
X651457Y216252D02*
X651207D01*
Y216002D01*
X651457D01*
Y216252D01*
Y214252D02*
X649957D01*
X650707Y215002D01*
Y214002D01*
X649957Y212503D02*
X650207Y213003D01*
X650707Y213503D01*
X651207D01*
X651457Y213253D01*
Y212753D01*
X651207Y212503D01*
X650957D01*
X650707Y212753D01*
Y213503D01*
X575207Y220750D02*
X574957Y221000D01*
Y221500D01*
X575207Y221750D01*
X576207D01*
X576457Y221500D01*
Y221000D01*
X576207Y220750D01*
X576457Y220251D02*
Y219751D01*
Y220001D01*
X574957D01*
X575207Y220251D01*
X576457Y219001D02*
X576207D01*
Y218751D01*
X576457D01*
Y219001D01*
X575207Y217751D02*
X574957Y217501D01*
Y217002D01*
X575207Y216752D01*
X575457D01*
X575707Y217002D01*
Y217251D01*
Y217002D01*
X575957Y216752D01*
X576207D01*
X576457Y217002D01*
Y217501D01*
X576207Y217751D01*
X576457Y216252D02*
X576207D01*
Y216002D01*
X576457D01*
Y216252D01*
Y214252D02*
X574957D01*
X575707Y215002D01*
Y214002D01*
X574957Y213503D02*
Y212503D01*
X575207D01*
X576207Y213503D01*
X576457D01*
X500207Y220750D02*
X499957Y221000D01*
Y221500D01*
X500207Y221750D01*
X501207D01*
X501457Y221500D01*
Y221000D01*
X501207Y220750D01*
X501457Y220251D02*
Y219751D01*
Y220001D01*
X499957D01*
X500207Y220251D01*
X501457Y219001D02*
X501207D01*
Y218751D01*
X501457D01*
Y219001D01*
X500207Y217751D02*
X499957Y217501D01*
Y217002D01*
X500207Y216752D01*
X500457D01*
X500707Y217002D01*
Y217251D01*
Y217002D01*
X500957Y216752D01*
X501207D01*
X501457Y217002D01*
Y217501D01*
X501207Y217751D01*
X501457Y216252D02*
X501207D01*
Y216002D01*
X501457D01*
Y216252D01*
Y214252D02*
X499957D01*
X500707Y215002D01*
Y214002D01*
X500207Y213503D02*
X499957Y213253D01*
Y212753D01*
X500207Y212503D01*
X500457D01*
X500707Y212753D01*
X500957Y212503D01*
X501207D01*
X501457Y212753D01*
Y213253D01*
X501207Y213503D01*
X500957D01*
X500707Y213253D01*
X500457Y213503D01*
X500207D01*
X500707Y213253D02*
Y212753D01*
X425207Y220750D02*
X424957Y221000D01*
Y221500D01*
X425207Y221750D01*
X426207D01*
X426457Y221500D01*
Y221000D01*
X426207Y220750D01*
X426457Y220251D02*
Y219751D01*
Y220001D01*
X424957D01*
X425207Y220251D01*
X426457Y219001D02*
X426207D01*
Y218751D01*
X426457D01*
Y219001D01*
X425207Y217751D02*
X424957Y217501D01*
Y217002D01*
X425207Y216752D01*
X425457D01*
X425707Y217002D01*
Y217251D01*
Y217002D01*
X425957Y216752D01*
X426207D01*
X426457Y217002D01*
Y217501D01*
X426207Y217751D01*
X426457Y216252D02*
X426207D01*
Y216002D01*
X426457D01*
Y216252D01*
Y214252D02*
X424957D01*
X425707Y215002D01*
Y214002D01*
X426207Y213503D02*
X426457Y213253D01*
Y212753D01*
X426207Y212503D01*
X425207D01*
X424957Y212753D01*
Y213253D01*
X425207Y213503D01*
X425457D01*
X425707Y213253D01*
Y212503D01*
X350207Y220750D02*
X349957Y221000D01*
Y221500D01*
X350207Y221750D01*
X351207D01*
X351457Y221500D01*
Y221000D01*
X351207Y220750D01*
X351457Y220251D02*
Y219751D01*
Y220001D01*
X349957D01*
X350207Y220251D01*
X351457Y219001D02*
X351207D01*
Y218751D01*
X351457D01*
Y219001D01*
X350207Y217751D02*
X349957Y217501D01*
Y217002D01*
X350207Y216752D01*
X350457D01*
X350707Y217002D01*
Y217251D01*
Y217002D01*
X350957Y216752D01*
X351207D01*
X351457Y217002D01*
Y217501D01*
X351207Y217751D01*
X351457Y216252D02*
X351207D01*
Y216002D01*
X351457D01*
Y216252D01*
X349957Y214002D02*
Y215002D01*
X350707D01*
X350457Y214502D01*
Y214252D01*
X350707Y214002D01*
X351207D01*
X351457Y214252D01*
Y214752D01*
X351207Y215002D01*
X350207Y213503D02*
X349957Y213253D01*
Y212753D01*
X350207Y212503D01*
X351207D01*
X351457Y212753D01*
Y213253D01*
X351207Y213503D01*
X350207D01*
X275207Y220251D02*
X274957Y220500D01*
Y221000D01*
X275207Y221250D01*
X276207D01*
X276457Y221000D01*
Y220500D01*
X276207Y220251D01*
X276457Y219751D02*
Y219251D01*
Y219501D01*
X274957D01*
X275207Y219751D01*
X276457Y218501D02*
X276207D01*
Y218251D01*
X276457D01*
Y218501D01*
X275207Y217251D02*
X274957Y217002D01*
Y216502D01*
X275207Y216252D01*
X275457D01*
X275707Y216502D01*
Y216752D01*
Y216502D01*
X275957Y216252D01*
X276207D01*
X276457Y216502D01*
Y217002D01*
X276207Y217251D01*
X276457Y215752D02*
X276207D01*
Y215502D01*
X276457D01*
Y215752D01*
X274957Y213503D02*
Y214502D01*
X275707D01*
X275457Y214002D01*
Y213753D01*
X275707Y213503D01*
X276207D01*
X276457Y213753D01*
Y214252D01*
X276207Y214502D01*
X276457Y213003D02*
Y212503D01*
Y212753D01*
X274957D01*
X275207Y213003D01*
X200207Y220750D02*
X199957Y221000D01*
Y221500D01*
X200207Y221750D01*
X201207D01*
X201457Y221500D01*
Y221000D01*
X201207Y220750D01*
X201457Y220251D02*
Y219751D01*
Y220001D01*
X199957D01*
X200207Y220251D01*
X201457Y219001D02*
X201207D01*
Y218751D01*
X201457D01*
Y219001D01*
X200207Y217751D02*
X199957Y217501D01*
Y217002D01*
X200207Y216752D01*
X200457D01*
X200707Y217002D01*
Y217251D01*
Y217002D01*
X200957Y216752D01*
X201207D01*
X201457Y217002D01*
Y217501D01*
X201207Y217751D01*
X201457Y216252D02*
X201207D01*
Y216002D01*
X201457D01*
Y216252D01*
X199957Y214002D02*
Y215002D01*
X200707D01*
X200457Y214502D01*
Y214252D01*
X200707Y214002D01*
X201207D01*
X201457Y214252D01*
Y214752D01*
X201207Y215002D01*
X201457Y212503D02*
Y213503D01*
X200457Y212503D01*
X200207D01*
X199957Y212753D01*
Y213253D01*
X200207Y213503D01*
X106457Y220750D02*
X106207Y221000D01*
Y221500D01*
X106457Y221750D01*
X107457D01*
X107707Y221500D01*
Y221000D01*
X107457Y220750D01*
X107707Y220251D02*
Y219751D01*
Y220001D01*
X106207D01*
X106457Y220251D01*
X107707Y219001D02*
X107457D01*
Y218751D01*
X107707D01*
Y219001D01*
X106457Y217751D02*
X106207Y217501D01*
Y217002D01*
X106457Y216752D01*
X106707D01*
X106957Y217002D01*
Y217251D01*
Y217002D01*
X107207Y216752D01*
X107457D01*
X107707Y217002D01*
Y217501D01*
X107457Y217751D01*
X107707Y216252D02*
X107457D01*
Y216002D01*
X107707D01*
Y216252D01*
X106207Y214002D02*
Y215002D01*
X106957D01*
X106707Y214502D01*
Y214252D01*
X106957Y214002D01*
X107457D01*
X107707Y214252D01*
Y214752D01*
X107457Y215002D01*
X106457Y213503D02*
X106207Y213253D01*
Y212753D01*
X106457Y212503D01*
X106707D01*
X106957Y212753D01*
Y213003D01*
Y212753D01*
X107207Y212503D01*
X107457D01*
X107707Y212753D01*
Y213253D01*
X107457Y213503D01*
X1100207Y295750D02*
X1099957Y296000D01*
Y296500D01*
X1100207Y296750D01*
X1101207D01*
X1101457Y296500D01*
Y296000D01*
X1101207Y295750D01*
X1101457Y295251D02*
Y294751D01*
Y295001D01*
X1099957D01*
X1100207Y295251D01*
X1101457Y294001D02*
X1101207D01*
Y293751D01*
X1101457D01*
Y294001D01*
X1100207Y292751D02*
X1099957Y292501D01*
Y292002D01*
X1100207Y291752D01*
X1100457D01*
X1100707Y292002D01*
Y292251D01*
Y292002D01*
X1100957Y291752D01*
X1101207D01*
X1101457Y292002D01*
Y292501D01*
X1101207Y292751D01*
X1101457Y291252D02*
X1101207D01*
Y291002D01*
X1101457D01*
Y291252D01*
X1099957Y289002D02*
Y290002D01*
X1100707D01*
X1100457Y289502D01*
Y289252D01*
X1100707Y289002D01*
X1101207D01*
X1101457Y289252D01*
Y289752D01*
X1101207Y290002D01*
X1101457Y287753D02*
X1099957D01*
X1100707Y288503D01*
Y287503D01*
X1006457Y295750D02*
X1006207Y296000D01*
Y296500D01*
X1006457Y296750D01*
X1007457D01*
X1007707Y296500D01*
Y296000D01*
X1007457Y295750D01*
X1007707Y295251D02*
Y294751D01*
Y295001D01*
X1006207D01*
X1006457Y295251D01*
X1007707Y294001D02*
X1007457D01*
Y293751D01*
X1007707D01*
Y294001D01*
X1006457Y292751D02*
X1006207Y292501D01*
Y292002D01*
X1006457Y291752D01*
X1006707D01*
X1006957Y292002D01*
Y292251D01*
Y292002D01*
X1007207Y291752D01*
X1007457D01*
X1007707Y292002D01*
Y292501D01*
X1007457Y292751D01*
X1007707Y291252D02*
X1007457D01*
Y291002D01*
X1007707D01*
Y291252D01*
X1006207Y289002D02*
Y290002D01*
X1006957D01*
X1006707Y289502D01*
Y289252D01*
X1006957Y289002D01*
X1007457D01*
X1007707Y289252D01*
Y289752D01*
X1007457Y290002D01*
X1006207Y287503D02*
Y288503D01*
X1006957D01*
X1006707Y288003D01*
Y287753D01*
X1006957Y287503D01*
X1007457D01*
X1007707Y287753D01*
Y288253D01*
X1007457Y288503D01*
X931457Y295750D02*
X931207Y296000D01*
Y296500D01*
X931457Y296750D01*
X932457D01*
X932707Y296500D01*
Y296000D01*
X932457Y295750D01*
X932707Y295251D02*
Y294751D01*
Y295001D01*
X931207D01*
X931457Y295251D01*
X932707Y294001D02*
X932457D01*
Y293751D01*
X932707D01*
Y294001D01*
X931457Y292751D02*
X931207Y292501D01*
Y292002D01*
X931457Y291752D01*
X931707D01*
X931957Y292002D01*
Y292251D01*
Y292002D01*
X932207Y291752D01*
X932457D01*
X932707Y292002D01*
Y292501D01*
X932457Y292751D01*
X932707Y291252D02*
X932457D01*
Y291002D01*
X932707D01*
Y291252D01*
X931207Y289002D02*
Y290002D01*
X931957D01*
X931707Y289502D01*
Y289252D01*
X931957Y289002D01*
X932457D01*
X932707Y289252D01*
Y289752D01*
X932457Y290002D01*
X931207Y287503D02*
X931457Y288003D01*
X931957Y288503D01*
X932457D01*
X932707Y288253D01*
Y287753D01*
X932457Y287503D01*
X932207D01*
X931957Y287753D01*
Y288503D01*
X856457Y295750D02*
X856207Y296000D01*
Y296500D01*
X856457Y296750D01*
X857457D01*
X857707Y296500D01*
Y296000D01*
X857457Y295750D01*
X857707Y295251D02*
Y294751D01*
Y295001D01*
X856207D01*
X856457Y295251D01*
X857707Y294001D02*
X857457D01*
Y293751D01*
X857707D01*
Y294001D01*
X856457Y292751D02*
X856207Y292501D01*
Y292002D01*
X856457Y291752D01*
X856707D01*
X856957Y292002D01*
Y292251D01*
Y292002D01*
X857207Y291752D01*
X857457D01*
X857707Y292002D01*
Y292501D01*
X857457Y292751D01*
X857707Y291252D02*
X857457D01*
Y291002D01*
X857707D01*
Y291252D01*
X856207Y289002D02*
Y290002D01*
X856957D01*
X856707Y289502D01*
Y289252D01*
X856957Y289002D01*
X857457D01*
X857707Y289252D01*
Y289752D01*
X857457Y290002D01*
X856207Y288503D02*
Y287503D01*
X856457D01*
X857457Y288503D01*
X857707D01*
X781457Y295750D02*
X781207Y296000D01*
Y296500D01*
X781457Y296750D01*
X782457D01*
X782707Y296500D01*
Y296000D01*
X782457Y295750D01*
X782707Y295251D02*
Y294751D01*
Y295001D01*
X781207D01*
X781457Y295251D01*
X782707Y294001D02*
X782457D01*
Y293751D01*
X782707D01*
Y294001D01*
X781457Y292751D02*
X781207Y292501D01*
Y292002D01*
X781457Y291752D01*
X781707D01*
X781957Y292002D01*
Y292251D01*
Y292002D01*
X782207Y291752D01*
X782457D01*
X782707Y292002D01*
Y292501D01*
X782457Y292751D01*
X782707Y291252D02*
X782457D01*
Y291002D01*
X782707D01*
Y291252D01*
X781207Y289002D02*
Y290002D01*
X781957D01*
X781707Y289502D01*
Y289252D01*
X781957Y289002D01*
X782457D01*
X782707Y289252D01*
Y289752D01*
X782457Y290002D01*
X781457Y288503D02*
X781207Y288253D01*
Y287753D01*
X781457Y287503D01*
X781707D01*
X781957Y287753D01*
X782207Y287503D01*
X782457D01*
X782707Y287753D01*
Y288253D01*
X782457Y288503D01*
X782207D01*
X781957Y288253D01*
X781707Y288503D01*
X781457D01*
X781957Y288253D02*
Y287753D01*
X706457Y295750D02*
X706207Y296000D01*
Y296500D01*
X706457Y296750D01*
X707457D01*
X707707Y296500D01*
Y296000D01*
X707457Y295750D01*
X707707Y295251D02*
Y294751D01*
Y295001D01*
X706207D01*
X706457Y295251D01*
X707707Y294001D02*
X707457D01*
Y293751D01*
X707707D01*
Y294001D01*
X706457Y292751D02*
X706207Y292501D01*
Y292002D01*
X706457Y291752D01*
X706707D01*
X706957Y292002D01*
Y292251D01*
Y292002D01*
X707207Y291752D01*
X707457D01*
X707707Y292002D01*
Y292501D01*
X707457Y292751D01*
X707707Y291252D02*
X707457D01*
Y291002D01*
X707707D01*
Y291252D01*
X706207Y289002D02*
Y290002D01*
X706957D01*
X706707Y289502D01*
Y289252D01*
X706957Y289002D01*
X707457D01*
X707707Y289252D01*
Y289752D01*
X707457Y290002D01*
Y288503D02*
X707707Y288253D01*
Y287753D01*
X707457Y287503D01*
X706457D01*
X706207Y287753D01*
Y288253D01*
X706457Y288503D01*
X706707D01*
X706957Y288253D01*
Y287503D01*
X631457Y295750D02*
X631207Y296000D01*
Y296500D01*
X631457Y296750D01*
X632457D01*
X632707Y296500D01*
Y296000D01*
X632457Y295750D01*
X632707Y295251D02*
Y294751D01*
Y295001D01*
X631207D01*
X631457Y295251D01*
X632707Y294001D02*
X632457D01*
Y293751D01*
X632707D01*
Y294001D01*
X631457Y292751D02*
X631207Y292501D01*
Y292002D01*
X631457Y291752D01*
X631707D01*
X631957Y292002D01*
Y292251D01*
Y292002D01*
X632207Y291752D01*
X632457D01*
X632707Y292002D01*
Y292501D01*
X632457Y292751D01*
X632707Y291252D02*
X632457D01*
Y291002D01*
X632707D01*
Y291252D01*
X631207Y289002D02*
X631457Y289502D01*
X631957Y290002D01*
X632457D01*
X632707Y289752D01*
Y289252D01*
X632457Y289002D01*
X632207D01*
X631957Y289252D01*
Y290002D01*
X631457Y288503D02*
X631207Y288253D01*
Y287753D01*
X631457Y287503D01*
X632457D01*
X632707Y287753D01*
Y288253D01*
X632457Y288503D01*
X631457D01*
X556457Y295251D02*
X556207Y295500D01*
Y296000D01*
X556457Y296250D01*
X557457D01*
X557707Y296000D01*
Y295500D01*
X557457Y295251D01*
X557707Y294751D02*
Y294251D01*
Y294501D01*
X556207D01*
X556457Y294751D01*
X557707Y293501D02*
X557457D01*
Y293251D01*
X557707D01*
Y293501D01*
X556457Y292251D02*
X556207Y292002D01*
Y291502D01*
X556457Y291252D01*
X556707D01*
X556957Y291502D01*
Y291752D01*
Y291502D01*
X557207Y291252D01*
X557457D01*
X557707Y291502D01*
Y292002D01*
X557457Y292251D01*
X557707Y290752D02*
X557457D01*
Y290502D01*
X557707D01*
Y290752D01*
X556207Y288503D02*
X556457Y289002D01*
X556957Y289502D01*
X557457D01*
X557707Y289252D01*
Y288753D01*
X557457Y288503D01*
X557207D01*
X556957Y288753D01*
Y289502D01*
X557707Y288003D02*
Y287503D01*
Y287753D01*
X556207D01*
X556457Y288003D01*
X481457Y295750D02*
X481207Y296000D01*
Y296500D01*
X481457Y296750D01*
X482457D01*
X482707Y296500D01*
Y296000D01*
X482457Y295750D01*
X482707Y295251D02*
Y294751D01*
Y295001D01*
X481207D01*
X481457Y295251D01*
X482707Y294001D02*
X482457D01*
Y293751D01*
X482707D01*
Y294001D01*
X481457Y292751D02*
X481207Y292501D01*
Y292002D01*
X481457Y291752D01*
X481707D01*
X481957Y292002D01*
Y292251D01*
Y292002D01*
X482207Y291752D01*
X482457D01*
X482707Y292002D01*
Y292501D01*
X482457Y292751D01*
X482707Y291252D02*
X482457D01*
Y291002D01*
X482707D01*
Y291252D01*
X481207Y289002D02*
X481457Y289502D01*
X481957Y290002D01*
X482457D01*
X482707Y289752D01*
Y289252D01*
X482457Y289002D01*
X482207D01*
X481957Y289252D01*
Y290002D01*
X482707Y287503D02*
Y288503D01*
X481707Y287503D01*
X481457D01*
X481207Y287753D01*
Y288253D01*
X481457Y288503D01*
X406457Y295750D02*
X406207Y296000D01*
Y296500D01*
X406457Y296750D01*
X407457D01*
X407707Y296500D01*
Y296000D01*
X407457Y295750D01*
X407707Y295251D02*
Y294751D01*
Y295001D01*
X406207D01*
X406457Y295251D01*
X407707Y294001D02*
X407457D01*
Y293751D01*
X407707D01*
Y294001D01*
X406457Y292751D02*
X406207Y292501D01*
Y292002D01*
X406457Y291752D01*
X406707D01*
X406957Y292002D01*
Y292251D01*
Y292002D01*
X407207Y291752D01*
X407457D01*
X407707Y292002D01*
Y292501D01*
X407457Y292751D01*
X407707Y291252D02*
X407457D01*
Y291002D01*
X407707D01*
Y291252D01*
X406207Y289002D02*
X406457Y289502D01*
X406957Y290002D01*
X407457D01*
X407707Y289752D01*
Y289252D01*
X407457Y289002D01*
X407207D01*
X406957Y289252D01*
Y290002D01*
X406457Y288503D02*
X406207Y288253D01*
Y287753D01*
X406457Y287503D01*
X406707D01*
X406957Y287753D01*
Y288003D01*
Y287753D01*
X407207Y287503D01*
X407457D01*
X407707Y287753D01*
Y288253D01*
X407457Y288503D01*
X331457Y295750D02*
X331207Y296000D01*
Y296500D01*
X331457Y296750D01*
X332457D01*
X332707Y296500D01*
Y296000D01*
X332457Y295750D01*
X332707Y295251D02*
Y294751D01*
Y295001D01*
X331207D01*
X331457Y295251D01*
X332707Y294001D02*
X332457D01*
Y293751D01*
X332707D01*
Y294001D01*
X331457Y292751D02*
X331207Y292501D01*
Y292002D01*
X331457Y291752D01*
X331707D01*
X331957Y292002D01*
Y292251D01*
Y292002D01*
X332207Y291752D01*
X332457D01*
X332707Y292002D01*
Y292501D01*
X332457Y292751D01*
X332707Y291252D02*
X332457D01*
Y291002D01*
X332707D01*
Y291252D01*
X331207Y289002D02*
X331457Y289502D01*
X331957Y290002D01*
X332457D01*
X332707Y289752D01*
Y289252D01*
X332457Y289002D01*
X332207D01*
X331957Y289252D01*
Y290002D01*
X332707Y287753D02*
X331207D01*
X331957Y288503D01*
Y287503D01*
X256457Y295750D02*
X256207Y296000D01*
Y296500D01*
X256457Y296750D01*
X257457D01*
X257707Y296500D01*
Y296000D01*
X257457Y295750D01*
X257707Y295251D02*
Y294751D01*
Y295001D01*
X256207D01*
X256457Y295251D01*
X257707Y294001D02*
X257457D01*
Y293751D01*
X257707D01*
Y294001D01*
X256457Y292751D02*
X256207Y292501D01*
Y292002D01*
X256457Y291752D01*
X256707D01*
X256957Y292002D01*
Y292251D01*
Y292002D01*
X257207Y291752D01*
X257457D01*
X257707Y292002D01*
Y292501D01*
X257457Y292751D01*
X257707Y291252D02*
X257457D01*
Y291002D01*
X257707D01*
Y291252D01*
X256207Y289002D02*
X256457Y289502D01*
X256957Y290002D01*
X257457D01*
X257707Y289752D01*
Y289252D01*
X257457Y289002D01*
X257207D01*
X256957Y289252D01*
Y290002D01*
X256207Y287503D02*
Y288503D01*
X256957D01*
X256707Y288003D01*
Y287753D01*
X256957Y287503D01*
X257457D01*
X257707Y287753D01*
Y288253D01*
X257457Y288503D01*
X181457Y295750D02*
X181207Y296000D01*
Y296500D01*
X181457Y296750D01*
X182457D01*
X182707Y296500D01*
Y296000D01*
X182457Y295750D01*
X182707Y295251D02*
Y294751D01*
Y295001D01*
X181207D01*
X181457Y295251D01*
X182707Y294001D02*
X182457D01*
Y293751D01*
X182707D01*
Y294001D01*
X181457Y292751D02*
X181207Y292501D01*
Y292002D01*
X181457Y291752D01*
X181707D01*
X181957Y292002D01*
Y292251D01*
Y292002D01*
X182207Y291752D01*
X182457D01*
X182707Y292002D01*
Y292501D01*
X182457Y292751D01*
X182707Y291252D02*
X182457D01*
Y291002D01*
X182707D01*
Y291252D01*
X181207Y289002D02*
X181457Y289502D01*
X181957Y290002D01*
X182457D01*
X182707Y289752D01*
Y289252D01*
X182457Y289002D01*
X182207D01*
X181957Y289252D01*
Y290002D01*
X181207Y287503D02*
X181457Y288003D01*
X181957Y288503D01*
X182457D01*
X182707Y288253D01*
Y287753D01*
X182457Y287503D01*
X182207D01*
X181957Y287753D01*
Y288503D01*
X87707Y295750D02*
X87457Y296000D01*
Y296500D01*
X87707Y296750D01*
X88707D01*
X88957Y296500D01*
Y296000D01*
X88707Y295750D01*
X88957Y295251D02*
Y294751D01*
Y295001D01*
X87457D01*
X87707Y295251D01*
X88957Y294001D02*
X88707D01*
Y293751D01*
X88957D01*
Y294001D01*
X87707Y292751D02*
X87457Y292501D01*
Y292002D01*
X87707Y291752D01*
X87957D01*
X88207Y292002D01*
Y292251D01*
Y292002D01*
X88457Y291752D01*
X88707D01*
X88957Y292002D01*
Y292501D01*
X88707Y292751D01*
X88957Y291252D02*
X88707D01*
Y291002D01*
X88957D01*
Y291252D01*
X87457Y289002D02*
X87707Y289502D01*
X88207Y290002D01*
X88707D01*
X88957Y289752D01*
Y289252D01*
X88707Y289002D01*
X88457D01*
X88207Y289252D01*
Y290002D01*
X87457Y288503D02*
Y287503D01*
X87707D01*
X88707Y288503D01*
X88957D01*
X1418957Y370750D02*
X1418707Y371000D01*
Y371500D01*
X1418957Y371750D01*
X1419957D01*
X1420207Y371500D01*
Y371000D01*
X1419957Y370750D01*
X1420207Y370251D02*
Y369751D01*
Y370001D01*
X1418707D01*
X1418957Y370251D01*
X1420207Y369001D02*
X1419957D01*
Y368751D01*
X1420207D01*
Y369001D01*
X1418957Y367751D02*
X1418707Y367501D01*
Y367002D01*
X1418957Y366752D01*
X1419207D01*
X1419457Y367002D01*
Y367251D01*
Y367002D01*
X1419707Y366752D01*
X1419957D01*
X1420207Y367002D01*
Y367501D01*
X1419957Y367751D01*
X1420207Y366252D02*
X1419957D01*
Y366002D01*
X1420207D01*
Y366252D01*
X1418707Y364002D02*
X1418957Y364502D01*
X1419457Y365002D01*
X1419957D01*
X1420207Y364752D01*
Y364252D01*
X1419957Y364002D01*
X1419707D01*
X1419457Y364252D01*
Y365002D01*
X1418957Y363503D02*
X1418707Y363253D01*
Y362753D01*
X1418957Y362503D01*
X1419207D01*
X1419457Y362753D01*
X1419707Y362503D01*
X1419957D01*
X1420207Y362753D01*
Y363253D01*
X1419957Y363503D01*
X1419707D01*
X1419457Y363253D01*
X1419207Y363503D01*
X1418957D01*
X1419457Y363253D02*
Y362753D01*
X1343957Y370750D02*
X1343707Y371000D01*
Y371500D01*
X1343957Y371750D01*
X1344957D01*
X1345207Y371500D01*
Y371000D01*
X1344957Y370750D01*
X1345207Y370251D02*
Y369751D01*
Y370001D01*
X1343707D01*
X1343957Y370251D01*
X1345207Y369001D02*
X1344957D01*
Y368751D01*
X1345207D01*
Y369001D01*
X1343957Y367751D02*
X1343707Y367501D01*
Y367002D01*
X1343957Y366752D01*
X1344207D01*
X1344457Y367002D01*
Y367251D01*
Y367002D01*
X1344707Y366752D01*
X1344957D01*
X1345207Y367002D01*
Y367501D01*
X1344957Y367751D01*
X1345207Y366252D02*
X1344957D01*
Y366002D01*
X1345207D01*
Y366252D01*
X1343707Y364002D02*
X1343957Y364502D01*
X1344457Y365002D01*
X1344957D01*
X1345207Y364752D01*
Y364252D01*
X1344957Y364002D01*
X1344707D01*
X1344457Y364252D01*
Y365002D01*
X1344957Y363503D02*
X1345207Y363253D01*
Y362753D01*
X1344957Y362503D01*
X1343957D01*
X1343707Y362753D01*
Y363253D01*
X1343957Y363503D01*
X1344207D01*
X1344457Y363253D01*
Y362503D01*
X1268136Y370369D02*
X1267886Y370618D01*
Y371118D01*
X1268136Y371368D01*
X1269136D01*
X1269386Y371118D01*
Y370618D01*
X1269136Y370369D01*
X1269386Y369869D02*
Y369369D01*
Y369619D01*
X1267886D01*
X1268136Y369869D01*
X1269386Y368619D02*
X1269136D01*
Y368369D01*
X1269386D01*
Y368619D01*
X1268136Y367370D02*
X1267886Y367120D01*
Y366620D01*
X1268136Y366370D01*
X1268386D01*
X1268636Y366620D01*
Y366870D01*
Y366620D01*
X1268886Y366370D01*
X1269136D01*
X1269386Y366620D01*
Y367120D01*
X1269136Y367370D01*
X1269386Y365870D02*
X1269136D01*
Y365620D01*
X1269386D01*
Y365870D01*
X1267886Y364620D02*
Y363621D01*
X1268136D01*
X1269136Y364620D01*
X1269386D01*
X1268136Y363121D02*
X1267886Y362871D01*
Y362371D01*
X1268136Y362121D01*
X1269136D01*
X1269386Y362371D01*
Y362871D01*
X1269136Y363121D01*
X1268136D01*
X1193957Y370251D02*
X1193707Y370500D01*
Y371000D01*
X1193957Y371250D01*
X1194957D01*
X1195207Y371000D01*
Y370500D01*
X1194957Y370251D01*
X1195207Y369751D02*
Y369251D01*
Y369501D01*
X1193707D01*
X1193957Y369751D01*
X1195207Y368501D02*
X1194957D01*
Y368251D01*
X1195207D01*
Y368501D01*
X1193957Y367251D02*
X1193707Y367002D01*
Y366502D01*
X1193957Y366252D01*
X1194207D01*
X1194457Y366502D01*
Y366752D01*
Y366502D01*
X1194707Y366252D01*
X1194957D01*
X1195207Y366502D01*
Y367002D01*
X1194957Y367251D01*
X1195207Y365752D02*
X1194957D01*
Y365502D01*
X1195207D01*
Y365752D01*
X1193707Y364502D02*
Y363503D01*
X1193957D01*
X1194957Y364502D01*
X1195207D01*
Y363003D02*
Y362503D01*
Y362753D01*
X1193707D01*
X1193957Y363003D01*
X1081457Y370750D02*
X1081207Y371000D01*
Y371500D01*
X1081457Y371750D01*
X1082457D01*
X1082707Y371500D01*
Y371000D01*
X1082457Y370750D01*
X1082707Y370251D02*
Y369751D01*
Y370001D01*
X1081207D01*
X1081457Y370251D01*
X1082707Y369001D02*
X1082457D01*
Y368751D01*
X1082707D01*
Y369001D01*
X1081457Y367751D02*
X1081207Y367501D01*
Y367002D01*
X1081457Y366752D01*
X1081707D01*
X1081957Y367002D01*
Y367251D01*
Y367002D01*
X1082207Y366752D01*
X1082457D01*
X1082707Y367002D01*
Y367501D01*
X1082457Y367751D01*
X1082707Y366252D02*
X1082457D01*
Y366002D01*
X1082707D01*
Y366252D01*
X1081207Y365002D02*
Y364002D01*
X1081457D01*
X1082457Y365002D01*
X1082707D01*
Y362503D02*
Y363503D01*
X1081707Y362503D01*
X1081457D01*
X1081207Y362753D01*
Y363253D01*
X1081457Y363503D01*
X968957Y370750D02*
X968707Y371000D01*
Y371500D01*
X968957Y371750D01*
X969957D01*
X970207Y371500D01*
Y371000D01*
X969957Y370750D01*
X970207Y370251D02*
Y369751D01*
Y370001D01*
X968707D01*
X968957Y370251D01*
X970207Y369001D02*
X969957D01*
Y368751D01*
X970207D01*
Y369001D01*
X968957Y367751D02*
X968707Y367501D01*
Y367002D01*
X968957Y366752D01*
X969207D01*
X969457Y367002D01*
Y367251D01*
Y367002D01*
X969707Y366752D01*
X969957D01*
X970207Y367002D01*
Y367501D01*
X969957Y367751D01*
X970207Y366252D02*
X969957D01*
Y366002D01*
X970207D01*
Y366252D01*
X968707Y365002D02*
Y364002D01*
X968957D01*
X969957Y365002D01*
X970207D01*
X968957Y363503D02*
X968707Y363253D01*
Y362753D01*
X968957Y362503D01*
X969207D01*
X969457Y362753D01*
Y363003D01*
Y362753D01*
X969707Y362503D01*
X969957D01*
X970207Y362753D01*
Y363253D01*
X969957Y363503D01*
X893957Y370750D02*
X893707Y371000D01*
Y371500D01*
X893957Y371750D01*
X894957D01*
X895207Y371500D01*
Y371000D01*
X894957Y370750D01*
X895207Y370251D02*
Y369751D01*
Y370001D01*
X893707D01*
X893957Y370251D01*
X895207Y369001D02*
X894957D01*
Y368751D01*
X895207D01*
Y369001D01*
X893957Y367751D02*
X893707Y367501D01*
Y367002D01*
X893957Y366752D01*
X894207D01*
X894457Y367002D01*
Y367251D01*
Y367002D01*
X894707Y366752D01*
X894957D01*
X895207Y367002D01*
Y367501D01*
X894957Y367751D01*
X895207Y366252D02*
X894957D01*
Y366002D01*
X895207D01*
Y366252D01*
X893707Y365002D02*
Y364002D01*
X893957D01*
X894957Y365002D01*
X895207D01*
Y362753D02*
X893707D01*
X894457Y363503D01*
Y362503D01*
X818957Y370750D02*
X818707Y371000D01*
Y371500D01*
X818957Y371750D01*
X819957D01*
X820207Y371500D01*
Y371000D01*
X819957Y370750D01*
X820207Y370251D02*
Y369751D01*
Y370001D01*
X818707D01*
X818957Y370251D01*
X820207Y369001D02*
X819957D01*
Y368751D01*
X820207D01*
Y369001D01*
X818957Y367751D02*
X818707Y367501D01*
Y367002D01*
X818957Y366752D01*
X819207D01*
X819457Y367002D01*
Y367251D01*
Y367002D01*
X819707Y366752D01*
X819957D01*
X820207Y367002D01*
Y367501D01*
X819957Y367751D01*
X820207Y366252D02*
X819957D01*
Y366002D01*
X820207D01*
Y366252D01*
X818707Y365002D02*
Y364002D01*
X818957D01*
X819957Y365002D01*
X820207D01*
X818707Y362503D02*
Y363503D01*
X819457D01*
X819207Y363003D01*
Y362753D01*
X819457Y362503D01*
X819957D01*
X820207Y362753D01*
Y363253D01*
X819957Y363503D01*
X691457Y329250D02*
X691207Y329500D01*
Y330000D01*
X691457Y330250D01*
X692457D01*
X692707Y330000D01*
Y329500D01*
X692457Y329250D01*
X692707Y328750D02*
Y328251D01*
Y328501D01*
X691207D01*
X691457Y328750D01*
X692707Y327501D02*
X692457D01*
Y327251D01*
X692707D01*
Y327501D01*
X691457Y326251D02*
X691207Y326001D01*
Y325501D01*
X691457Y325252D01*
X691707D01*
X691957Y325501D01*
Y325751D01*
Y325501D01*
X692207Y325252D01*
X692457D01*
X692707Y325501D01*
Y326001D01*
X692457Y326251D01*
X692707Y324752D02*
X692457D01*
Y324502D01*
X692707D01*
Y324752D01*
X691207Y323502D02*
Y322502D01*
X691457D01*
X692457Y323502D01*
X692707D01*
X691207Y321003D02*
X691457Y321503D01*
X691957Y322003D01*
X692457D01*
X692707Y321753D01*
Y321253D01*
X692457Y321003D01*
X692207D01*
X691957Y321253D01*
Y322003D01*
X668957Y370750D02*
X668707Y371000D01*
Y371500D01*
X668957Y371750D01*
X669957D01*
X670207Y371500D01*
Y371000D01*
X669957Y370750D01*
X670207Y370251D02*
Y369751D01*
Y370001D01*
X668707D01*
X668957Y370251D01*
X670207Y369001D02*
X669957D01*
Y368751D01*
X670207D01*
Y369001D01*
X668957Y367751D02*
X668707Y367501D01*
Y367002D01*
X668957Y366752D01*
X669207D01*
X669457Y367002D01*
Y367251D01*
Y367002D01*
X669707Y366752D01*
X669957D01*
X670207Y367002D01*
Y367501D01*
X669957Y367751D01*
X670207Y366252D02*
X669957D01*
Y366002D01*
X670207D01*
Y366252D01*
X668707Y365002D02*
Y364002D01*
X668957D01*
X669957Y365002D01*
X670207D01*
X668707Y363503D02*
Y362503D01*
X668957D01*
X669957Y363503D01*
X670207D01*
X593957Y370750D02*
X593707Y371000D01*
Y371500D01*
X593957Y371750D01*
X594957D01*
X595207Y371500D01*
Y371000D01*
X594957Y370750D01*
X595207Y370251D02*
Y369751D01*
Y370001D01*
X593707D01*
X593957Y370251D01*
X595207Y369001D02*
X594957D01*
Y368751D01*
X595207D01*
Y369001D01*
X593957Y367751D02*
X593707Y367501D01*
Y367002D01*
X593957Y366752D01*
X594207D01*
X594457Y367002D01*
Y367251D01*
Y367002D01*
X594707Y366752D01*
X594957D01*
X595207Y367002D01*
Y367501D01*
X594957Y367751D01*
X595207Y366252D02*
X594957D01*
Y366002D01*
X595207D01*
Y366252D01*
X593707Y365002D02*
Y364002D01*
X593957D01*
X594957Y365002D01*
X595207D01*
X593957Y363503D02*
X593707Y363253D01*
Y362753D01*
X593957Y362503D01*
X594207D01*
X594457Y362753D01*
X594707Y362503D01*
X594957D01*
X595207Y362753D01*
Y363253D01*
X594957Y363503D01*
X594707D01*
X594457Y363253D01*
X594207Y363503D01*
X593957D01*
X594457Y363253D02*
Y362753D01*
X518957Y370750D02*
X518707Y371000D01*
Y371500D01*
X518957Y371750D01*
X519957D01*
X520207Y371500D01*
Y371000D01*
X519957Y370750D01*
X520207Y370251D02*
Y369751D01*
Y370001D01*
X518707D01*
X518957Y370251D01*
X520207Y369001D02*
X519957D01*
Y368751D01*
X520207D01*
Y369001D01*
X518957Y367751D02*
X518707Y367501D01*
Y367002D01*
X518957Y366752D01*
X519207D01*
X519457Y367002D01*
Y367251D01*
Y367002D01*
X519707Y366752D01*
X519957D01*
X520207Y367002D01*
Y367501D01*
X519957Y367751D01*
X520207Y366252D02*
X519957D01*
Y366002D01*
X520207D01*
Y366252D01*
X518707Y365002D02*
Y364002D01*
X518957D01*
X519957Y365002D01*
X520207D01*
X519957Y363503D02*
X520207Y363253D01*
Y362753D01*
X519957Y362503D01*
X518957D01*
X518707Y362753D01*
Y363253D01*
X518957Y363503D01*
X519207D01*
X519457Y363253D01*
Y362503D01*
X443957Y370750D02*
X443707Y371000D01*
Y371500D01*
X443957Y371750D01*
X444957D01*
X445207Y371500D01*
Y371000D01*
X444957Y370750D01*
X445207Y370251D02*
Y369751D01*
Y370001D01*
X443707D01*
X443957Y370251D01*
X445207Y369001D02*
X444957D01*
Y368751D01*
X445207D01*
Y369001D01*
X443957Y367751D02*
X443707Y367501D01*
Y367002D01*
X443957Y366752D01*
X444207D01*
X444457Y367002D01*
Y367251D01*
Y367002D01*
X444707Y366752D01*
X444957D01*
X445207Y367002D01*
Y367501D01*
X444957Y367751D01*
X445207Y366252D02*
X444957D01*
Y366002D01*
X445207D01*
Y366252D01*
X443957Y365002D02*
X443707Y364752D01*
Y364252D01*
X443957Y364002D01*
X444207D01*
X444457Y364252D01*
X444707Y364002D01*
X444957D01*
X445207Y364252D01*
Y364752D01*
X444957Y365002D01*
X444707D01*
X444457Y364752D01*
X444207Y365002D01*
X443957D01*
X444457Y364752D02*
Y364252D01*
X443957Y363503D02*
X443707Y363253D01*
Y362753D01*
X443957Y362503D01*
X444957D01*
X445207Y362753D01*
Y363253D01*
X444957Y363503D01*
X443957D01*
X368957Y370251D02*
X368707Y370500D01*
Y371000D01*
X368957Y371250D01*
X369957D01*
X370207Y371000D01*
Y370500D01*
X369957Y370251D01*
X370207Y369751D02*
Y369251D01*
Y369501D01*
X368707D01*
X368957Y369751D01*
X370207Y368501D02*
X369957D01*
Y368251D01*
X370207D01*
Y368501D01*
X368957Y367251D02*
X368707Y367002D01*
Y366502D01*
X368957Y366252D01*
X369207D01*
X369457Y366502D01*
Y366752D01*
Y366502D01*
X369707Y366252D01*
X369957D01*
X370207Y366502D01*
Y367002D01*
X369957Y367251D01*
X370207Y365752D02*
X369957D01*
Y365502D01*
X370207D01*
Y365752D01*
X368957Y364502D02*
X368707Y364252D01*
Y363753D01*
X368957Y363503D01*
X369207D01*
X369457Y363753D01*
X369707Y363503D01*
X369957D01*
X370207Y363753D01*
Y364252D01*
X369957Y364502D01*
X369707D01*
X369457Y364252D01*
X369207Y364502D01*
X368957D01*
X369457Y364252D02*
Y363753D01*
X370207Y363003D02*
Y362503D01*
Y362753D01*
X368707D01*
X368957Y363003D01*
X293957Y370750D02*
X293707Y371000D01*
Y371500D01*
X293957Y371750D01*
X294957D01*
X295207Y371500D01*
Y371000D01*
X294957Y370750D01*
X295207Y370251D02*
Y369751D01*
Y370001D01*
X293707D01*
X293957Y370251D01*
X295207Y369001D02*
X294957D01*
Y368751D01*
X295207D01*
Y369001D01*
X293957Y367751D02*
X293707Y367501D01*
Y367002D01*
X293957Y366752D01*
X294207D01*
X294457Y367002D01*
Y367251D01*
Y367002D01*
X294707Y366752D01*
X294957D01*
X295207Y367002D01*
Y367501D01*
X294957Y367751D01*
X295207Y366252D02*
X294957D01*
Y366002D01*
X295207D01*
Y366252D01*
X293957Y365002D02*
X293707Y364752D01*
Y364252D01*
X293957Y364002D01*
X294207D01*
X294457Y364252D01*
X294707Y364002D01*
X294957D01*
X295207Y364252D01*
Y364752D01*
X294957Y365002D01*
X294707D01*
X294457Y364752D01*
X294207Y365002D01*
X293957D01*
X294457Y364752D02*
Y364252D01*
X295207Y362503D02*
Y363503D01*
X294207Y362503D01*
X293957D01*
X293707Y362753D01*
Y363253D01*
X293957Y363503D01*
X218957Y370750D02*
X218707Y371000D01*
Y371500D01*
X218957Y371750D01*
X219957D01*
X220207Y371500D01*
Y371000D01*
X219957Y370750D01*
X220207Y370251D02*
Y369751D01*
Y370001D01*
X218707D01*
X218957Y370251D01*
X220207Y369001D02*
X219957D01*
Y368751D01*
X220207D01*
Y369001D01*
X218957Y367751D02*
X218707Y367501D01*
Y367002D01*
X218957Y366752D01*
X219207D01*
X219457Y367002D01*
Y367251D01*
Y367002D01*
X219707Y366752D01*
X219957D01*
X220207Y367002D01*
Y367501D01*
X219957Y367751D01*
X220207Y366252D02*
X219957D01*
Y366002D01*
X220207D01*
Y366252D01*
X218957Y365002D02*
X218707Y364752D01*
Y364252D01*
X218957Y364002D01*
X219207D01*
X219457Y364252D01*
X219707Y364002D01*
X219957D01*
X220207Y364252D01*
Y364752D01*
X219957Y365002D01*
X219707D01*
X219457Y364752D01*
X219207Y365002D01*
X218957D01*
X219457Y364752D02*
Y364252D01*
X218957Y363503D02*
X218707Y363253D01*
Y362753D01*
X218957Y362503D01*
X219207D01*
X219457Y362753D01*
Y363003D01*
Y362753D01*
X219707Y362503D01*
X219957D01*
X220207Y362753D01*
Y363253D01*
X219957Y363503D01*
X143957Y370750D02*
X143707Y371000D01*
Y371500D01*
X143957Y371750D01*
X144957D01*
X145207Y371500D01*
Y371000D01*
X144957Y370750D01*
X145207Y370251D02*
Y369751D01*
Y370001D01*
X143707D01*
X143957Y370251D01*
X145207Y369001D02*
X144957D01*
Y368751D01*
X145207D01*
Y369001D01*
X143957Y367751D02*
X143707Y367501D01*
Y367002D01*
X143957Y366752D01*
X144207D01*
X144457Y367002D01*
Y367251D01*
Y367002D01*
X144707Y366752D01*
X144957D01*
X145207Y367002D01*
Y367501D01*
X144957Y367751D01*
X145207Y366252D02*
X144957D01*
Y366002D01*
X145207D01*
Y366252D01*
X143957Y365002D02*
X143707Y364752D01*
Y364252D01*
X143957Y364002D01*
X144207D01*
X144457Y364252D01*
X144707Y364002D01*
X144957D01*
X145207Y364252D01*
Y364752D01*
X144957Y365002D01*
X144707D01*
X144457Y364752D01*
X144207Y365002D01*
X143957D01*
X144457Y364752D02*
Y364252D01*
X145207Y362753D02*
X143707D01*
X144457Y363503D01*
Y362503D01*
X68957Y370750D02*
X68707Y371000D01*
Y371500D01*
X68957Y371750D01*
X69957D01*
X70207Y371500D01*
Y371000D01*
X69957Y370750D01*
X70207Y370251D02*
Y369751D01*
Y370001D01*
X68707D01*
X68957Y370251D01*
X70207Y369001D02*
X69957D01*
Y368751D01*
X70207D01*
Y369001D01*
X68957Y367751D02*
X68707Y367501D01*
Y367002D01*
X68957Y366752D01*
X69207D01*
X69457Y367002D01*
Y367251D01*
Y367002D01*
X69707Y366752D01*
X69957D01*
X70207Y367002D01*
Y367501D01*
X69957Y367751D01*
X70207Y366252D02*
X69957D01*
Y366002D01*
X70207D01*
Y366252D01*
X68957Y365002D02*
X68707Y364752D01*
Y364252D01*
X68957Y364002D01*
X69207D01*
X69457Y364252D01*
X69707Y364002D01*
X69957D01*
X70207Y364252D01*
Y364752D01*
X69957Y365002D01*
X69707D01*
X69457Y364752D01*
X69207Y365002D01*
X68957D01*
X69457Y364752D02*
Y364252D01*
X68707Y362503D02*
Y363503D01*
X69457D01*
X69207Y363003D01*
Y362753D01*
X69457Y362503D01*
X69957D01*
X70207Y362753D01*
Y363253D01*
X69957Y363503D01*
X220500Y210500D02*
X220750Y210750D01*
X221250D01*
X221500Y210500D01*
Y209500D01*
X221250Y209250D01*
X220750D01*
X220500Y209500D01*
X219001Y209250D02*
X220001D01*
X219001Y210250D01*
Y210500D01*
X219251Y210750D01*
X219751D01*
X220001Y210500D01*
X218501Y209250D02*
Y209500D01*
X218251D01*
Y209250D01*
X218501D01*
X217251D02*
X216752D01*
X217001D01*
Y210750D01*
X217251Y210500D01*
X745000D02*
X745250Y210750D01*
X745750D01*
X746000Y210500D01*
Y209500D01*
X745750Y209250D01*
X745250D01*
X745000Y209500D01*
X744500Y210500D02*
X744251Y210750D01*
X743751D01*
X743501Y210500D01*
Y210250D01*
X743751Y210000D01*
X744001D01*
X743751D01*
X743501Y209750D01*
Y209500D01*
X743751Y209250D01*
X744251D01*
X744500Y209500D01*
X743001Y209250D02*
Y209500D01*
X742751D01*
Y209250D01*
X743001D01*
X741751D02*
X741252D01*
X741501D01*
Y210750D01*
X741751Y210500D01*
X783000Y133500D02*
X783250Y133749D01*
X783750D01*
X784000Y133500D01*
Y132500D01*
X783750Y132250D01*
X783250D01*
X783000Y132500D01*
X781751Y132250D02*
Y133749D01*
X782501Y133000D01*
X781501D01*
X781001Y132250D02*
Y132500D01*
X780751D01*
Y132250D01*
X781001D01*
X779751D02*
X779251D01*
X779501D01*
Y133749D01*
X779751Y133500D01*
X951750Y279000D02*
X952000Y279250D01*
X952500D01*
X952750Y279000D01*
Y278000D01*
X952500Y277750D01*
X952000D01*
X951750Y278000D01*
X950251Y279250D02*
X951250D01*
Y278500D01*
X950751Y278750D01*
X950501D01*
X950251Y278500D01*
Y278000D01*
X950501Y277750D01*
X951001D01*
X951250Y278000D01*
X949751Y277750D02*
Y278000D01*
X949501D01*
Y277750D01*
X949751D01*
X948501D02*
X948001D01*
X948251D01*
Y279250D01*
X948501Y279000D01*
X1138707Y133500D02*
X1138957Y133749D01*
X1139457D01*
X1139707Y133500D01*
Y132500D01*
X1139457Y132250D01*
X1138957D01*
X1138707Y132500D01*
X1137207Y133749D02*
X1137707Y133500D01*
X1138207Y133000D01*
Y132500D01*
X1137957Y132250D01*
X1137457D01*
X1137207Y132500D01*
Y132750D01*
X1137457Y133000D01*
X1138207D01*
X1136708Y132250D02*
Y132500D01*
X1136458D01*
Y132250D01*
X1136708D01*
X1135458D02*
X1134958D01*
X1135208D01*
Y133749D01*
X1135458Y133500D01*
X1289207Y279000D02*
X1289457Y279250D01*
X1289957D01*
X1290207Y279000D01*
Y278000D01*
X1289957Y277750D01*
X1289457D01*
X1289207Y278000D01*
X1288707Y279250D02*
X1287707D01*
Y279000D01*
X1288707Y278000D01*
Y277750D01*
X1287208D02*
Y278000D01*
X1286958D01*
Y277750D01*
X1287208D01*
X1285958D02*
X1285458D01*
X1285708D01*
Y279250D01*
X1285958Y279000D01*
X164500Y133500D02*
X164750Y133749D01*
X165250D01*
X165500Y133500D01*
Y132500D01*
X165250Y132250D01*
X164750D01*
X164500Y132500D01*
X164000Y133500D02*
X163751Y133749D01*
X163251D01*
X163001Y133500D01*
Y133250D01*
X163251Y133000D01*
X163001Y132750D01*
Y132500D01*
X163251Y132250D01*
X163751D01*
X164000Y132500D01*
Y132750D01*
X163751Y133000D01*
X164000Y133250D01*
Y133500D01*
X163751Y133000D02*
X163251D01*
X162501Y132250D02*
Y132500D01*
X162251D01*
Y132250D01*
X162501D01*
X161251D02*
X160751D01*
X161001D01*
Y133749D01*
X161251Y133500D01*
X351750Y279000D02*
X352000Y279250D01*
X352500D01*
X352750Y279000D01*
Y278000D01*
X352500Y277750D01*
X352000D01*
X351750Y278000D01*
X351251D02*
X351001Y277750D01*
X350501D01*
X350251Y278000D01*
Y279000D01*
X350501Y279250D01*
X351001D01*
X351251Y279000D01*
Y278750D01*
X351001Y278500D01*
X350251D01*
X349751Y277750D02*
Y278000D01*
X349501D01*
Y277750D01*
X349751D01*
X348501D02*
X348002D01*
X348251D01*
Y279250D01*
X348501Y279000D01*
X483500Y133500D02*
X483750Y133749D01*
X484250D01*
X484500Y133500D01*
Y132500D01*
X484250Y132250D01*
X483750D01*
X483500Y132500D01*
X483001Y132250D02*
X482501D01*
X482751D01*
Y133749D01*
X483001Y133500D01*
X481751D02*
X481501Y133749D01*
X481001D01*
X480751Y133500D01*
Y132500D01*
X481001Y132250D01*
X481501D01*
X481751Y132500D01*
Y133500D01*
X480251Y132250D02*
Y132500D01*
X480001D01*
Y132250D01*
X480251D01*
X479002D02*
X478502D01*
X478752D01*
Y133749D01*
X479002Y133500D01*
X652250Y279000D02*
X652500Y279250D01*
X653000D01*
X653250Y279000D01*
Y278000D01*
X653000Y277750D01*
X652500D01*
X652250Y278000D01*
X651751Y277750D02*
X651251D01*
X651501D01*
Y279250D01*
X651751Y279000D01*
X650501Y277750D02*
X650001D01*
X650251D01*
Y279250D01*
X650501Y279000D01*
X649251Y277750D02*
Y278000D01*
X649001D01*
Y277750D01*
X649251D01*
X648002D02*
X647502D01*
X647752D01*
Y279250D01*
X648002Y279000D01*
X164500Y333500D02*
X164750Y333750D01*
X165250D01*
X165500Y333500D01*
Y332500D01*
X165250Y332250D01*
X164750D01*
X164500Y332500D01*
X164000Y332250D02*
X163501D01*
X163751D01*
Y333750D01*
X164000Y333500D01*
X161751Y332250D02*
X162751D01*
X161751Y333250D01*
Y333500D01*
X162001Y333750D01*
X162501D01*
X162751Y333500D01*
X161251Y332250D02*
Y332500D01*
X161001D01*
Y332250D01*
X161251D01*
X160002D02*
X159502D01*
X159752D01*
Y333750D01*
X160002Y333500D01*
X464500D02*
X464750Y333750D01*
X465250D01*
X465500Y333500D01*
Y332500D01*
X465250Y332250D01*
X464750D01*
X464500Y332500D01*
X464001Y332250D02*
X463501D01*
X463751D01*
Y333750D01*
X464001Y333500D01*
X462751D02*
X462501Y333750D01*
X462001D01*
X461751Y333500D01*
Y333250D01*
X462001Y333000D01*
X462251D01*
X462001D01*
X461751Y332750D01*
Y332500D01*
X462001Y332250D01*
X462501D01*
X462751Y332500D01*
X461251Y332250D02*
Y332500D01*
X461001D01*
Y332250D01*
X461251D01*
X460002D02*
X459502D01*
X459752D01*
Y333750D01*
X460002Y333500D01*
X914250D02*
X914500Y333750D01*
X915000D01*
X915250Y333500D01*
Y332500D01*
X915000Y332250D01*
X914500D01*
X914250Y332500D01*
X913750Y332250D02*
X913251D01*
X913501D01*
Y333750D01*
X913750Y333500D01*
X911751Y332250D02*
Y333750D01*
X912501Y333000D01*
X911501D01*
X911001Y332250D02*
Y332500D01*
X910751D01*
Y332250D01*
X911001D01*
X909752D02*
X909252D01*
X909502D01*
Y333750D01*
X909752Y333500D01*
X1289207D02*
X1289457Y333750D01*
X1289957D01*
X1290207Y333500D01*
Y332500D01*
X1289957Y332250D01*
X1289457D01*
X1289207Y332500D01*
X1288707Y332250D02*
X1288207D01*
X1288457D01*
Y333750D01*
X1288707Y333500D01*
X1286458Y333750D02*
X1287457D01*
Y333000D01*
X1286958Y333250D01*
X1286708D01*
X1286458Y333000D01*
Y332500D01*
X1286708Y332250D01*
X1287208D01*
X1287457Y332500D01*
X1285958Y332250D02*
Y332500D01*
X1285708D01*
Y332250D01*
X1285958D01*
X1284708D02*
X1284209D01*
X1284459D01*
Y333750D01*
X1284708Y333500D01*
X535750Y354500D02*
Y355500D01*
X536000Y355750D01*
X536500D01*
X536750Y355500D01*
Y354500D01*
X536500Y354250D01*
X536000D01*
X536250Y354750D02*
X535750Y354250D01*
X536000D02*
X535750Y354500D01*
X535250Y354250D02*
X534751D01*
X535001D01*
Y355750D01*
X535250Y355500D01*
X534001Y354250D02*
Y354500D01*
X533751D01*
Y354250D01*
X534001D01*
X531752D02*
X532751D01*
X531752Y355250D01*
Y355500D01*
X532001Y355750D01*
X532501D01*
X532751Y355500D01*
X1420207Y115500D02*
X1418707D01*
Y114750D01*
X1418957Y114500D01*
X1419457D01*
X1419707Y114750D01*
Y115500D01*
Y115000D02*
X1420207Y114500D01*
Y114000D02*
Y113501D01*
Y113751D01*
X1418707D01*
X1418957Y114000D01*
X1420207Y112751D02*
Y112251D01*
Y112501D01*
X1418707D01*
X1418957Y112751D01*
X1420207Y111501D02*
X1419957D01*
Y111251D01*
X1420207D01*
Y111501D01*
Y109252D02*
Y110252D01*
X1419207Y109252D01*
X1418957D01*
X1418707Y109502D01*
Y110002D01*
X1418957Y110252D01*
X1030553Y304750D02*
Y306249D01*
X1029803D01*
X1029554Y306000D01*
Y305500D01*
X1029803Y305250D01*
X1030553D01*
X1030053D02*
X1029554Y304750D01*
X1029054D02*
X1028554D01*
X1028804D01*
Y306249D01*
X1029054Y306000D01*
X1026804Y304750D02*
X1027804D01*
X1026804Y305750D01*
Y306000D01*
X1027054Y306249D01*
X1027554D01*
X1027804Y306000D01*
X1026305Y304750D02*
Y305000D01*
X1026055D01*
Y304750D01*
X1026305D01*
X1024055D02*
X1025055D01*
X1024055Y305750D01*
Y306000D01*
X1024305Y306249D01*
X1024805D01*
X1025055Y306000D01*
X604725Y376057D02*
Y374807D01*
X604475Y374557D01*
X603975D01*
X603725Y374807D01*
Y376057D01*
X603225Y374557D02*
X602725D01*
X602975D01*
Y376057D01*
X603225Y375807D01*
X601976Y374557D02*
Y374807D01*
X601726D01*
Y374557D01*
X601976D01*
X600726D02*
X600226D01*
X600476D01*
Y376057D01*
X600726Y375807D01*
D70*
X92471Y333301D02*
X91732Y333727D01*
Y332875D01*
X92471Y333301D01*
X542356Y333478D02*
X541618Y333905D01*
Y333052D01*
X542356Y333478D01*
X1217313Y333978D02*
X1216575Y334405D01*
Y333552D01*
X1217313Y333978D01*
X1107949Y319146D02*
X1107211Y319572D01*
Y318720D01*
X1107949Y319146D01*
X994992D02*
X994254Y319572D01*
Y318720D01*
X994992Y319146D01*
X1024409Y296963D02*
X1023671Y297389D01*
Y296536D01*
X1024409Y296963D01*
X534742Y372411D02*
X534004Y372838D01*
Y371985D01*
X534742Y372411D01*
D71*
X84892Y328675D02*
X84447Y329599D01*
X83448Y329827D01*
X82647Y329188D01*
Y328163D01*
X83448Y327524D01*
X84447Y327752D01*
X84892Y328675D01*
X534777Y328852D02*
X534333Y329776D01*
X533334Y330004D01*
X532532Y329365D01*
Y328340D01*
X533334Y327701D01*
X534333Y327929D01*
X534777Y328852D01*
X1209734Y329352D02*
X1209289Y330276D01*
X1208290Y330504D01*
X1207489Y329865D01*
Y328840D01*
X1208290Y328201D01*
X1209289Y328429D01*
X1209734Y329352D01*
X1117497Y324854D02*
X1117052Y325778D01*
X1116053Y326006D01*
X1115251Y325367D01*
Y324342D01*
X1116053Y323703D01*
X1117052Y323931D01*
X1117497Y324854D01*
X1004539D02*
X1004095Y325778D01*
X1003095Y326006D01*
X1002294Y325367D01*
Y324342D01*
X1003095Y323703D01*
X1004095Y323931D01*
X1004539Y324854D01*
X1030807Y288104D02*
X1030362Y289028D01*
X1029363Y289256D01*
X1028561Y288617D01*
Y287592D01*
X1029363Y286953D01*
X1030362Y287181D01*
X1030807Y288104D01*
D72*
X852641Y297689D02*
X853677Y297825D01*
X854641Y298225D01*
X855470Y298861D01*
X856105Y299689D01*
X856505Y300654D01*
X856641Y301689D01*
Y367689D02*
X856505Y368724D01*
X856105Y369689D01*
X855470Y370517D01*
X854641Y371153D01*
X853677Y371553D01*
X852641Y371689D01*
X593641Y301689D02*
X593778Y300654D01*
X594177Y299689D01*
X594813Y298861D01*
X595641Y298225D01*
X596606Y297825D01*
X597641Y297689D01*
Y371689D02*
X596606Y371553D01*
X595641Y371153D01*
X594813Y370517D01*
X594177Y369689D01*
X593778Y368724D01*
X593641Y367689D01*
Y301689D02*
Y367689D01*
X856641Y301689D02*
Y367689D01*
X597641Y297689D02*
X852641Y297689D01*
X597641Y371689D02*
X852641Y371689D01*
D73*
X87648Y312533D02*
Y332612D01*
X73081Y312533D02*
Y332612D01*
X87648D01*
X73081Y312533D02*
X87648D01*
X537533Y312711D02*
Y332789D01*
X522967Y312711D02*
Y332789D01*
X537533D01*
X522967Y312711D02*
X537533D01*
X1212490Y313211D02*
Y333289D01*
X1197923Y313211D02*
Y333289D01*
X1212490D01*
X1197923Y313211D02*
X1212490D01*
X1112378Y340996D02*
X1124977D01*
X1112378Y320917D02*
X1124977D01*
Y340996D01*
X1112378Y320917D02*
Y340996D01*
X999421D02*
X1012020D01*
X999421Y320917D02*
X1012020D01*
Y340996D01*
X999421Y320917D02*
Y340996D01*
X1045767Y279443D02*
Y292041D01*
X1025689Y279443D02*
Y292041D01*
Y279443D02*
X1045767D01*
X1025689Y292041D02*
X1045767D01*
X1217107Y197450D02*
Y203050D01*
X1208307D02*
X1217107D01*
X1208307Y197450D02*
Y203050D01*
Y197450D02*
X1217107D01*
X223400D02*
Y203050D01*
X214600D02*
X223400D01*
X214600Y197450D02*
Y203050D01*
Y197450D02*
X223400D01*
X748400D02*
Y203050D01*
X739600D02*
X748400D01*
X739600Y197450D02*
Y203050D01*
Y197450D02*
X748400D01*
X539368Y362569D02*
Y368376D01*
X529132Y362569D02*
Y368376D01*
X537596D02*
X539368D01*
X529132D02*
X530904D01*
D74*
X675141Y351689D02*
X677055Y349776D01*
X675141Y356689D02*
X682055Y349776D01*
X675141Y361689D02*
X687055Y349776D01*
X675141Y366689D02*
X692055Y349776D01*
X700141Y371689D02*
X721848Y349982D01*
X695141Y371689D02*
X716848Y349982D01*
X690141Y371689D02*
X712055Y349776D01*
X675141Y371689D02*
X697055Y349776D01*
X680141Y371689D02*
X702055Y349776D01*
X685141Y371689D02*
X707055Y349776D01*
X730141Y371689D02*
X756348Y345482D01*
X725141Y371689D02*
X751223Y345607D01*
X720141Y371689D02*
X746348Y345482D01*
X705141Y371689D02*
X726848Y349982D01*
X710141Y371689D02*
X736598Y345232D01*
X715141Y371689D02*
X741348Y345482D01*
X745141Y371689D02*
X770598Y346232D01*
X740141Y371689D02*
X766348Y345482D01*
X735141Y371689D02*
X761348Y345482D01*
X750141Y371689D02*
X770598Y351232D01*
X755141Y371689D02*
X770598Y356232D01*
X760141Y371689D02*
X770641Y361189D01*
X765141Y371689D02*
X770641Y366189D01*
X731141Y345276D02*
Y349776D01*
X675141D02*
Y371689D01*
X770641Y345276D02*
Y371689D01*
X675141Y349776D02*
X731141D01*
Y345276D02*
X770641D01*
M02*
