G04*
G04 #@! TF.GenerationSoftware,Altium Limited,Altium Designer,19.1.5 (86)*
G04*
G04 Layer_Color=65535*
%FSLAX25Y25*%
%MOIN*%
G70*
G01*
G75*
%ADD10C,0.01000*%
%ADD11C,0.00500*%
D10*
X1034348Y62340D02*
X1033641Y63048D01*
X1032934Y62340D01*
X1033641Y61633D01*
X1034348Y62340D01*
X846848D02*
X846141Y63048D01*
X845434Y62340D01*
X846141Y61633D01*
X846848Y62340D01*
X1184348Y362340D02*
X1183641Y363048D01*
X1182934Y362340D01*
X1183641Y361633D01*
X1184348Y362340D01*
X59348D02*
X58641Y363048D01*
X57934Y362340D01*
X58641Y361633D01*
X59348Y362340D01*
X1409348Y99840D02*
X1408641Y100548D01*
X1407934Y99840D01*
X1408641Y99133D01*
X1409348Y99840D01*
X1334348Y62340D02*
X1333641Y63048D01*
X1332934Y62340D01*
X1333641Y61633D01*
X1334348Y62340D01*
X1259348D02*
X1258641Y63048D01*
X1257934Y62340D01*
X1258641Y61633D01*
X1259348Y62340D01*
X1334348Y137341D02*
X1333641Y138048D01*
X1332934Y137341D01*
X1333641Y136633D01*
X1334348Y137341D01*
X1259348D02*
X1258641Y138048D01*
X1257934Y137341D01*
X1258641Y136633D01*
X1259348Y137341D01*
X1184348D02*
X1183641Y138048D01*
X1182934Y137341D01*
X1183641Y136633D01*
X1184348Y137341D01*
X1409348Y249840D02*
X1408641Y250548D01*
X1407934Y249840D01*
X1408641Y249133D01*
X1409348Y249840D01*
X1334348Y212340D02*
X1333641Y213048D01*
X1332934Y212340D01*
X1333641Y211633D01*
X1334348Y212340D01*
X1259348D02*
X1258641Y213048D01*
X1257934Y212340D01*
X1258641Y211633D01*
X1259348Y212340D01*
X1184348D02*
X1183641Y213048D01*
X1182934Y212340D01*
X1183641Y211633D01*
X1184348Y212340D01*
X1334348Y287340D02*
X1333641Y288048D01*
X1332934Y287340D01*
X1333641Y286633D01*
X1334348Y287340D01*
X1259348D02*
X1258641Y288048D01*
X1257934Y287340D01*
X1258641Y286633D01*
X1259348Y287340D01*
X1184348D02*
X1183641Y288048D01*
X1182934Y287340D01*
X1183641Y286633D01*
X1184348Y287340D01*
X1109348Y137341D02*
X1108641Y138048D01*
X1107934Y137341D01*
X1108641Y136633D01*
X1109348Y137341D01*
X1184348Y62340D02*
X1183641Y63048D01*
X1182934Y62340D01*
X1183641Y61633D01*
X1184348Y62340D01*
X1109348D02*
X1108641Y63048D01*
X1107934Y62340D01*
X1108641Y61633D01*
X1109348Y62340D01*
X949973D02*
X949266Y63048D01*
X948559Y62340D01*
X949266Y61633D01*
X949973Y62340D01*
X753098D02*
X752391Y63048D01*
X751684Y62340D01*
X752391Y61633D01*
X753098Y62340D01*
X659348D02*
X658641Y63048D01*
X657934Y62340D01*
X658641Y61633D01*
X659348Y62340D01*
X565598D02*
X564891Y63048D01*
X564184Y62340D01*
X564891Y61633D01*
X565598Y62340D01*
X490598D02*
X489891Y63048D01*
X489184Y62340D01*
X489891Y61633D01*
X490598Y62340D01*
X396848D02*
X396141Y63048D01*
X395434Y62340D01*
X396141Y61633D01*
X396848Y62340D01*
X303098D02*
X302391Y63048D01*
X301684Y62340D01*
X302391Y61633D01*
X303098Y62340D01*
X228098D02*
X227391Y63048D01*
X226684Y62340D01*
X227391Y61633D01*
X228098Y62340D01*
X153098D02*
X152391Y63048D01*
X151684Y62340D01*
X152391Y61633D01*
X153098Y62340D01*
X68723D02*
X68016Y63048D01*
X67309Y62340D01*
X68016Y61633D01*
X68723Y62340D01*
X1006223Y137341D02*
X1005516Y138048D01*
X1004809Y137341D01*
X1005516Y136633D01*
X1006223Y137341D01*
X903098D02*
X902391Y138048D01*
X901684Y137341D01*
X902391Y136633D01*
X903098Y137341D01*
X828098D02*
X827391Y138048D01*
X826684Y137341D01*
X827391Y136633D01*
X828098Y137341D01*
X753098D02*
X752391Y138048D01*
X751684Y137341D01*
X752391Y136633D01*
X753098Y137341D01*
X678098D02*
X677391Y138048D01*
X676684Y137341D01*
X677391Y136633D01*
X678098Y137341D01*
X603098D02*
X602391Y138048D01*
X601684Y137341D01*
X602391Y136633D01*
X603098Y137341D01*
X528098D02*
X527391Y138048D01*
X526684Y137341D01*
X527391Y136633D01*
X528098Y137341D01*
X453098D02*
X452391Y138048D01*
X451684Y137341D01*
X452391Y136633D01*
X453098Y137341D01*
X378098D02*
X377391Y138048D01*
X376684Y137341D01*
X377391Y136633D01*
X378098Y137341D01*
X303098D02*
X302391Y138048D01*
X301684Y137341D01*
X302391Y136633D01*
X303098Y137341D01*
X228098D02*
X227391Y138048D01*
X226684Y137341D01*
X227391Y136633D01*
X228098Y137341D01*
X115598D02*
X114891Y138048D01*
X114184Y137341D01*
X114891Y136633D01*
X115598Y137341D01*
X1062473Y212340D02*
X1061766Y213048D01*
X1061059Y212340D01*
X1061766Y211633D01*
X1062473Y212340D01*
X940598D02*
X939891Y213048D01*
X939184Y212340D01*
X939891Y211633D01*
X940598Y212340D01*
X865598D02*
X864891Y213048D01*
X864184Y212340D01*
X864891Y211633D01*
X865598Y212340D01*
X790598D02*
X789891Y213048D01*
X789184Y212340D01*
X789891Y211633D01*
X790598Y212340D01*
X715598D02*
X714891Y213048D01*
X714184Y212340D01*
X714891Y211633D01*
X715598Y212340D01*
X640598D02*
X639891Y213048D01*
X639184Y212340D01*
X639891Y211633D01*
X640598Y212340D01*
X565598D02*
X564891Y213048D01*
X564184Y212340D01*
X564891Y211633D01*
X565598Y212340D01*
X490598D02*
X489891Y213048D01*
X489184Y212340D01*
X489891Y211633D01*
X490598Y212340D01*
X415598D02*
X414891Y213048D01*
X414184Y212340D01*
X414891Y211633D01*
X415598Y212340D01*
X340598D02*
X339891Y213048D01*
X339184Y212340D01*
X339891Y211633D01*
X340598Y212340D01*
X265598D02*
X264891Y213048D01*
X264184Y212340D01*
X264891Y211633D01*
X265598Y212340D01*
X190598D02*
X189891Y213048D01*
X189184Y212340D01*
X189891Y211633D01*
X190598Y212340D01*
X96848D02*
X96141Y213048D01*
X95434Y212340D01*
X96141Y211633D01*
X96848Y212340D01*
X1090598Y287340D02*
X1089891Y288048D01*
X1089184Y287340D01*
X1089891Y286633D01*
X1090598Y287340D01*
X996848D02*
X996141Y288048D01*
X995434Y287340D01*
X996141Y286633D01*
X996848Y287340D01*
X921848D02*
X921141Y288048D01*
X920434Y287340D01*
X921141Y286633D01*
X921848Y287340D01*
X846848D02*
X846141Y288048D01*
X845434Y287340D01*
X846141Y286633D01*
X846848Y287340D01*
X771848D02*
X771141Y288048D01*
X770434Y287340D01*
X771141Y286633D01*
X771848Y287340D01*
X696848D02*
X696141Y288048D01*
X695434Y287340D01*
X696141Y286633D01*
X696848Y287340D01*
X621848D02*
X621141Y288048D01*
X620434Y287340D01*
X621141Y286633D01*
X621848Y287340D01*
X546848D02*
X546141Y288048D01*
X545434Y287340D01*
X546141Y286633D01*
X546848Y287340D01*
X471848D02*
X471141Y288048D01*
X470434Y287340D01*
X471141Y286633D01*
X471848Y287340D01*
X396848D02*
X396141Y288048D01*
X395434Y287340D01*
X396141Y286633D01*
X396848Y287340D01*
X321848D02*
X321141Y288048D01*
X320434Y287340D01*
X321141Y286633D01*
X321848Y287340D01*
X246848D02*
X246141Y288048D01*
X245434Y287340D01*
X246141Y286633D01*
X246848Y287340D01*
X171848D02*
X171141Y288048D01*
X170434Y287340D01*
X171141Y286633D01*
X171848Y287340D01*
X78098D02*
X77391Y288048D01*
X76684Y287340D01*
X77391Y286633D01*
X78098Y287340D01*
X1409348Y362340D02*
X1408641Y363048D01*
X1407934Y362340D01*
X1408641Y361633D01*
X1409348Y362340D01*
X1334348D02*
X1333641Y363048D01*
X1332934Y362340D01*
X1333641Y361633D01*
X1334348Y362340D01*
X1258528Y361959D02*
X1257821Y362666D01*
X1257113Y361959D01*
X1257821Y361252D01*
X1258528Y361959D01*
X1071848Y362340D02*
X1071141Y363048D01*
X1070434Y362340D01*
X1071141Y361633D01*
X1071848Y362340D01*
X959348D02*
X958641Y363048D01*
X957934Y362340D01*
X958641Y361633D01*
X959348Y362340D01*
X884348D02*
X883641Y363048D01*
X882934Y362340D01*
X883641Y361633D01*
X884348Y362340D01*
X809348D02*
X808641Y363048D01*
X807934Y362340D01*
X808641Y361633D01*
X809348Y362340D01*
X734348D02*
X733641Y363048D01*
X732934Y362340D01*
X733641Y361633D01*
X734348Y362340D01*
X659348D02*
X658641Y363048D01*
X657934Y362340D01*
X658641Y361633D01*
X659348Y362340D01*
X584348D02*
X583641Y363048D01*
X582934Y362340D01*
X583641Y361633D01*
X584348Y362340D01*
X509348D02*
X508641Y363048D01*
X507934Y362340D01*
X508641Y361633D01*
X509348Y362340D01*
X434348D02*
X433641Y363048D01*
X432934Y362340D01*
X433641Y361633D01*
X434348Y362340D01*
X359348D02*
X358641Y363048D01*
X357934Y362340D01*
X358641Y361633D01*
X359348Y362340D01*
X284348D02*
X283641Y363048D01*
X282934Y362340D01*
X283641Y361633D01*
X284348Y362340D01*
X209348D02*
X208641Y363048D01*
X207934Y362340D01*
X208641Y361633D01*
X209348Y362340D01*
X134348D02*
X133641Y363048D01*
X132934Y362340D01*
X133641Y361633D01*
X134348Y362340D01*
X1018842Y63329D02*
X1031441D01*
X1018842Y74352D02*
X1031441D01*
X831342Y63329D02*
X843941D01*
X831342Y74352D02*
X843941D01*
X1168842Y363329D02*
X1181440D01*
X1168842Y374352D02*
X1181440D01*
X43842Y363329D02*
X56441D01*
X43842Y374352D02*
X56441D01*
X1014708Y62405D02*
Y75201D01*
X1035574D01*
Y62405D02*
Y75201D01*
X1014708Y62405D02*
X1035574D01*
X995614Y20772D02*
Y79827D01*
X1054669D01*
Y20772D02*
Y79827D01*
X995614Y20772D02*
X1054669D01*
X827208Y62405D02*
Y75201D01*
X848075D01*
Y62405D02*
Y75201D01*
X827208Y62405D02*
X848075D01*
X808114Y20772D02*
Y79827D01*
X867169D01*
Y20772D02*
Y79827D01*
X808114Y20772D02*
X867169D01*
X1164708Y362405D02*
Y375201D01*
X1185574D01*
Y362405D02*
Y375201D01*
X1164708Y362405D02*
X1185574D01*
X1145614Y320772D02*
Y379827D01*
X1204669D01*
Y320772D02*
Y379827D01*
X1145614Y320772D02*
X1204669D01*
X39708Y362405D02*
Y375201D01*
X60574D01*
Y362405D02*
Y375201D01*
X39708Y362405D02*
X60574D01*
X20614Y320772D02*
Y379827D01*
X79669D01*
Y320772D02*
Y379827D01*
X20614Y320772D02*
X79669D01*
X1393842Y100829D02*
X1406440D01*
X1393842Y111852D02*
X1406440D01*
X1318842Y63329D02*
X1331440D01*
X1318842Y74352D02*
X1331440D01*
X1243842Y63329D02*
X1256441D01*
X1243842Y74352D02*
X1256441D01*
X1318842Y138329D02*
X1331440D01*
X1318842Y149352D02*
X1331440D01*
X1243842Y138329D02*
X1256440D01*
X1243842Y149352D02*
X1256440D01*
X1168842Y138329D02*
X1181440D01*
X1168842Y149352D02*
X1181440D01*
X1393842Y250829D02*
X1406440D01*
X1393842Y261852D02*
X1406440D01*
X1318842Y213329D02*
X1331440D01*
X1318842Y224352D02*
X1331440D01*
X1243842Y213329D02*
X1256440D01*
X1243842Y224352D02*
X1256440D01*
X1168842Y213329D02*
X1181440D01*
X1168842Y224352D02*
X1181440D01*
X1318842Y288329D02*
X1331440D01*
X1318842Y299352D02*
X1331440D01*
X1243842Y288329D02*
X1256440D01*
X1243842Y299352D02*
X1256440D01*
X1168842Y288329D02*
X1181440D01*
X1168842Y299352D02*
X1181440D01*
X1093842Y138329D02*
X1106441D01*
X1093842Y149352D02*
X1106441D01*
X1168842Y63329D02*
X1181441D01*
X1168842Y74352D02*
X1181441D01*
X1093842Y63329D02*
X1106441D01*
X1093842Y74352D02*
X1106441D01*
X934467Y63329D02*
X947066D01*
X934467Y74352D02*
X947066D01*
X737592Y63329D02*
X750191D01*
X737592Y74352D02*
X750191D01*
X643842Y63329D02*
X656441D01*
X643842Y74352D02*
X656441D01*
X550092Y63329D02*
X562691D01*
X550092Y74352D02*
X562691D01*
X475092Y63329D02*
X487691D01*
X475092Y74352D02*
X487691D01*
X381342Y63329D02*
X393941D01*
X381342Y74352D02*
X393941D01*
X287592Y63329D02*
X300191D01*
X287592Y74352D02*
X300191D01*
X212592Y63329D02*
X225191D01*
X212592Y74352D02*
X225191D01*
X137592Y63329D02*
X150191D01*
X137592Y74352D02*
X150191D01*
X53217Y63329D02*
X65816D01*
X53217Y74352D02*
X65816D01*
X990717Y138329D02*
X1003316D01*
X990717Y149352D02*
X1003316D01*
X887592Y138329D02*
X900191D01*
X887592Y149352D02*
X900191D01*
X812592Y138329D02*
X825191D01*
X812592Y149352D02*
X825191D01*
X737592Y138329D02*
X750191D01*
X737592Y149352D02*
X750191D01*
X662592Y138329D02*
X675191D01*
X662592Y149352D02*
X675191D01*
X587592Y138329D02*
X600191D01*
X587592Y149352D02*
X600191D01*
X512592Y138329D02*
X525191D01*
X512592Y149352D02*
X525191D01*
X437592Y138329D02*
X450191D01*
X437592Y149352D02*
X450191D01*
X362592Y138329D02*
X375191D01*
X362592Y149352D02*
X375191D01*
X287592Y138329D02*
X300191D01*
X287592Y149352D02*
X300191D01*
X212592Y138329D02*
X225191D01*
X212592Y149352D02*
X225191D01*
X100092Y138329D02*
X112691D01*
X100092Y149352D02*
X112691D01*
X1046967Y213329D02*
X1059566D01*
X1046967Y224352D02*
X1059566D01*
X925092Y213329D02*
X937691D01*
X925092Y224352D02*
X937691D01*
X850092Y213329D02*
X862691D01*
X850092Y224352D02*
X862691D01*
X775092Y213329D02*
X787691D01*
X775092Y224352D02*
X787691D01*
X700092Y213329D02*
X712691D01*
X700092Y224352D02*
X712691D01*
X625092Y213329D02*
X637691D01*
X625092Y224352D02*
X637691D01*
X550092Y213329D02*
X562691D01*
X550092Y224352D02*
X562691D01*
X475092Y213329D02*
X487691D01*
X475092Y224352D02*
X487691D01*
X400092Y213329D02*
X412691D01*
X400092Y224352D02*
X412691D01*
X325092Y213329D02*
X337691D01*
X325092Y224352D02*
X337691D01*
X250092Y213329D02*
X262691D01*
X250092Y224352D02*
X262691D01*
X175092Y213329D02*
X187691D01*
X175092Y224352D02*
X187691D01*
X81342Y213329D02*
X93941D01*
X81342Y224352D02*
X93941D01*
X1075092Y288329D02*
X1087691D01*
X1075092Y299352D02*
X1087691D01*
X981342Y288329D02*
X993941D01*
X981342Y299352D02*
X993941D01*
X906342Y288329D02*
X918941D01*
X906342Y299352D02*
X918941D01*
X831342Y288329D02*
X843941D01*
X831342Y299352D02*
X843941D01*
X756342Y288329D02*
X768941D01*
X756342Y299352D02*
X768941D01*
X681342Y288329D02*
X693941D01*
X681342Y299352D02*
X693941D01*
X606342Y288329D02*
X618941D01*
X606342Y299352D02*
X618941D01*
X531342Y288329D02*
X543941D01*
X531342Y299352D02*
X543941D01*
X456342Y288329D02*
X468941D01*
X456342Y299352D02*
X468941D01*
X381342Y288329D02*
X393941D01*
X381342Y299352D02*
X393941D01*
X306342Y288329D02*
X318941D01*
X306342Y299352D02*
X318941D01*
X231342Y288329D02*
X243941D01*
X231342Y299352D02*
X243941D01*
X156342Y288329D02*
X168941D01*
X156342Y299352D02*
X168941D01*
X62592Y288329D02*
X75191D01*
X62592Y299352D02*
X75191D01*
X1393842Y363329D02*
X1406440D01*
X1393842Y374352D02*
X1406440D01*
X1318842Y363329D02*
X1331440D01*
X1318842Y374352D02*
X1331440D01*
X1243021Y362947D02*
X1255620D01*
X1243021Y373971D02*
X1255620D01*
X1056342Y363329D02*
X1068941D01*
X1056342Y374352D02*
X1068941D01*
X943842Y363329D02*
X956441D01*
X943842Y374352D02*
X956441D01*
X868842Y363329D02*
X881441D01*
X868842Y374352D02*
X881441D01*
X793842Y363329D02*
X806441D01*
X793842Y374352D02*
X806441D01*
X718842Y363329D02*
X731441D01*
X718842Y374352D02*
X731441D01*
X643842Y363329D02*
X656441D01*
X643842Y374352D02*
X656441D01*
X568842Y363329D02*
X581441D01*
X568842Y374352D02*
X581441D01*
X493842Y363329D02*
X506441D01*
X493842Y374352D02*
X506441D01*
X418842Y363329D02*
X431441D01*
X418842Y374352D02*
X431441D01*
X343842Y363329D02*
X356441D01*
X343842Y374352D02*
X356441D01*
X268842Y363329D02*
X281441D01*
X268842Y374352D02*
X281441D01*
X193842Y363329D02*
X206441D01*
X193842Y374352D02*
X206441D01*
X118842Y363329D02*
X131441D01*
X118842Y374352D02*
X131441D01*
X1389708Y99905D02*
Y112701D01*
X1410574D01*
Y99905D02*
Y112701D01*
X1389708Y99905D02*
X1410574D01*
X1370614Y58272D02*
Y117327D01*
X1429669D01*
Y58272D02*
Y117327D01*
X1370614Y58272D02*
X1429669D01*
X1314708Y62405D02*
Y75201D01*
X1335574D01*
Y62405D02*
Y75201D01*
X1314708Y62405D02*
X1335574D01*
X1295614Y20772D02*
Y79827D01*
X1354669D01*
Y20772D02*
Y79827D01*
X1295614Y20772D02*
X1354669D01*
X1239708Y62405D02*
Y75201D01*
X1260574D01*
Y62405D02*
Y75201D01*
X1239708Y62405D02*
X1260574D01*
X1220614Y20772D02*
Y79827D01*
X1279669D01*
Y20772D02*
Y79827D01*
X1220614Y20772D02*
X1279669D01*
X1314708Y137405D02*
Y150201D01*
X1335574D01*
Y137405D02*
Y150201D01*
X1314708Y137405D02*
X1335574D01*
X1295614Y95772D02*
Y154827D01*
X1354669D01*
Y95772D02*
Y154827D01*
X1295614Y95772D02*
X1354669D01*
X1239708Y137405D02*
Y150201D01*
X1260574D01*
Y137405D02*
Y150201D01*
X1239708Y137405D02*
X1260574D01*
X1220614Y95772D02*
Y154827D01*
X1279669D01*
Y95772D02*
Y154827D01*
X1220614Y95772D02*
X1279669D01*
X1164708Y137405D02*
Y150201D01*
X1185574D01*
Y137405D02*
Y150201D01*
X1164708Y137405D02*
X1185574D01*
X1145614Y95772D02*
Y154827D01*
X1204669D01*
Y95772D02*
Y154827D01*
X1145614Y95772D02*
X1204669D01*
X1389708Y249905D02*
Y262701D01*
X1410574D01*
Y249905D02*
Y262701D01*
X1389708Y249905D02*
X1410574D01*
X1370614Y208272D02*
Y267327D01*
X1429669D01*
Y208272D02*
Y267327D01*
X1370614Y208272D02*
X1429669D01*
X1314708Y212405D02*
Y225201D01*
X1335574D01*
Y212405D02*
Y225201D01*
X1314708Y212405D02*
X1335574D01*
X1295614Y170772D02*
Y229827D01*
X1354669D01*
Y170772D02*
Y229827D01*
X1295614Y170772D02*
X1354669D01*
X1239708Y212405D02*
Y225201D01*
X1260574D01*
Y212405D02*
Y225201D01*
X1239708Y212405D02*
X1260574D01*
X1220614Y170772D02*
Y229827D01*
X1279669D01*
Y170772D02*
Y229827D01*
X1220614Y170772D02*
X1279669D01*
X1164708Y212405D02*
Y225201D01*
X1185574D01*
Y212405D02*
Y225201D01*
X1164708Y212405D02*
X1185574D01*
X1145614Y170772D02*
Y229827D01*
X1204669D01*
Y170772D02*
Y229827D01*
X1145614Y170772D02*
X1204669D01*
X1314708Y287405D02*
Y300201D01*
X1335574D01*
Y287405D02*
Y300201D01*
X1314708Y287405D02*
X1335574D01*
X1295614Y245772D02*
Y304827D01*
X1354669D01*
Y245772D02*
Y304827D01*
X1295614Y245772D02*
X1354669D01*
X1239708Y287405D02*
Y300201D01*
X1260574D01*
Y287405D02*
Y300201D01*
X1239708Y287405D02*
X1260574D01*
X1220614Y245772D02*
Y304827D01*
X1279669D01*
Y245772D02*
Y304827D01*
X1220614Y245772D02*
X1279669D01*
X1164708Y287405D02*
Y300201D01*
X1185574D01*
Y287405D02*
Y300201D01*
X1164708Y287405D02*
X1185574D01*
X1145614Y245772D02*
Y304827D01*
X1204669D01*
Y245772D02*
Y304827D01*
X1145614Y245772D02*
X1204669D01*
X1089708Y137405D02*
Y150201D01*
X1110574D01*
Y137405D02*
Y150201D01*
X1089708Y137405D02*
X1110574D01*
X1070614Y95772D02*
Y154827D01*
X1129669D01*
Y95772D02*
Y154827D01*
X1070614Y95772D02*
X1129669D01*
X1164708Y62405D02*
Y75201D01*
X1185574D01*
Y62405D02*
Y75201D01*
X1164708Y62405D02*
X1185574D01*
X1145614Y20772D02*
Y79827D01*
X1204669D01*
Y20772D02*
Y79827D01*
X1145614Y20772D02*
X1204669D01*
X1089708Y62405D02*
Y75201D01*
X1110574D01*
Y62405D02*
Y75201D01*
X1089708Y62405D02*
X1110574D01*
X1070614Y20772D02*
Y79827D01*
X1129669D01*
Y20772D02*
Y79827D01*
X1070614Y20772D02*
X1129669D01*
X930333Y62405D02*
Y75201D01*
X951199D01*
Y62405D02*
Y75201D01*
X930333Y62405D02*
X951199D01*
X911239Y20772D02*
Y79827D01*
X970294D01*
Y20772D02*
Y79827D01*
X911239Y20772D02*
X970294D01*
X733458Y62405D02*
Y75201D01*
X754324D01*
Y62405D02*
Y75201D01*
X733458Y62405D02*
X754324D01*
X714364Y20772D02*
Y79827D01*
X773419D01*
Y20772D02*
Y79827D01*
X714364Y20772D02*
X773419D01*
X639708Y62405D02*
Y75201D01*
X660574D01*
Y62405D02*
Y75201D01*
X639708Y62405D02*
X660574D01*
X620614Y20772D02*
Y79827D01*
X679669D01*
Y20772D02*
Y79827D01*
X620614Y20772D02*
X679669D01*
X545958Y62405D02*
Y75201D01*
X566824D01*
Y62405D02*
Y75201D01*
X545958Y62405D02*
X566824D01*
X526864Y20772D02*
Y79827D01*
X585919D01*
Y20772D02*
Y79827D01*
X526864Y20772D02*
X585919D01*
X470958Y62405D02*
Y75201D01*
X491824D01*
Y62405D02*
Y75201D01*
X470958Y62405D02*
X491824D01*
X451864Y20772D02*
Y79827D01*
X510919D01*
Y20772D02*
Y79827D01*
X451864Y20772D02*
X510919D01*
X377208Y62405D02*
Y75201D01*
X398074D01*
Y62405D02*
Y75201D01*
X377208Y62405D02*
X398074D01*
X358114Y20772D02*
Y79827D01*
X417169D01*
Y20772D02*
Y79827D01*
X358114Y20772D02*
X417169D01*
X283458Y62405D02*
Y75201D01*
X304324D01*
Y62405D02*
Y75201D01*
X283458Y62405D02*
X304324D01*
X264364Y20772D02*
Y79827D01*
X323419D01*
Y20772D02*
Y79827D01*
X264364Y20772D02*
X323419D01*
X208458Y62405D02*
Y75201D01*
X229324D01*
Y62405D02*
Y75201D01*
X208458Y62405D02*
X229324D01*
X189364Y20772D02*
Y79827D01*
X248419D01*
Y20772D02*
Y79827D01*
X189364Y20772D02*
X248419D01*
X133458Y62405D02*
Y75201D01*
X154324D01*
Y62405D02*
Y75201D01*
X133458Y62405D02*
X154324D01*
X114364Y20772D02*
Y79827D01*
X173419D01*
Y20772D02*
Y79827D01*
X114364Y20772D02*
X173419D01*
X49083Y62405D02*
Y75201D01*
X69949D01*
Y62405D02*
Y75201D01*
X49083Y62405D02*
X69949D01*
X29989Y20772D02*
Y79827D01*
X89044D01*
Y20772D02*
Y79827D01*
X29989Y20772D02*
X89044D01*
X986583Y137405D02*
Y150201D01*
X1007449D01*
Y137405D02*
Y150201D01*
X986583Y137405D02*
X1007449D01*
X967489Y95772D02*
Y154827D01*
X1026544D01*
Y95772D02*
Y154827D01*
X967489Y95772D02*
X1026544D01*
X883458Y137405D02*
Y150201D01*
X904324D01*
Y137405D02*
Y150201D01*
X883458Y137405D02*
X904324D01*
X864364Y95772D02*
Y154827D01*
X923419D01*
Y95772D02*
Y154827D01*
X864364Y95772D02*
X923419D01*
X808458Y137405D02*
Y150201D01*
X829324D01*
Y137405D02*
Y150201D01*
X808458Y137405D02*
X829324D01*
X789364Y95772D02*
Y154827D01*
X848419D01*
Y95772D02*
Y154827D01*
X789364Y95772D02*
X848419D01*
X733458Y137405D02*
Y150201D01*
X754324D01*
Y137405D02*
Y150201D01*
X733458Y137405D02*
X754324D01*
X714364Y95772D02*
Y154827D01*
X773419D01*
Y95772D02*
Y154827D01*
X714364Y95772D02*
X773419D01*
X658458Y137405D02*
Y150201D01*
X679324D01*
Y137405D02*
Y150201D01*
X658458Y137405D02*
X679324D01*
X639364Y95772D02*
Y154827D01*
X698419D01*
Y95772D02*
Y154827D01*
X639364Y95772D02*
X698419D01*
X583458Y137405D02*
Y150201D01*
X604324D01*
Y137405D02*
Y150201D01*
X583458Y137405D02*
X604324D01*
X564364Y95772D02*
Y154827D01*
X623419D01*
Y95772D02*
Y154827D01*
X564364Y95772D02*
X623419D01*
X508458Y137405D02*
Y150201D01*
X529324D01*
Y137405D02*
Y150201D01*
X508458Y137405D02*
X529324D01*
X489364Y95772D02*
Y154827D01*
X548419D01*
Y95772D02*
Y154827D01*
X489364Y95772D02*
X548419D01*
X433458Y137405D02*
Y150201D01*
X454324D01*
Y137405D02*
Y150201D01*
X433458Y137405D02*
X454324D01*
X414364Y95772D02*
Y154827D01*
X473419D01*
Y95772D02*
Y154827D01*
X414364Y95772D02*
X473419D01*
X358458Y137405D02*
Y150201D01*
X379324D01*
Y137405D02*
Y150201D01*
X358458Y137405D02*
X379324D01*
X339364Y95772D02*
Y154827D01*
X398419D01*
Y95772D02*
Y154827D01*
X339364Y95772D02*
X398419D01*
X283458Y137405D02*
Y150201D01*
X304324D01*
Y137405D02*
Y150201D01*
X283458Y137405D02*
X304324D01*
X264364Y95772D02*
Y154827D01*
X323419D01*
Y95772D02*
Y154827D01*
X264364Y95772D02*
X323419D01*
X208458Y137405D02*
Y150201D01*
X229324D01*
Y137405D02*
Y150201D01*
X208458Y137405D02*
X229324D01*
X189364Y95772D02*
Y154827D01*
X248419D01*
Y95772D02*
Y154827D01*
X189364Y95772D02*
X248419D01*
X95958Y137405D02*
Y150201D01*
X116824D01*
Y137405D02*
Y150201D01*
X95958Y137405D02*
X116824D01*
X76864Y95772D02*
Y154827D01*
X135919D01*
Y95772D02*
Y154827D01*
X76864Y95772D02*
X135919D01*
X1042833Y212405D02*
Y225201D01*
X1063699D01*
Y212405D02*
Y225201D01*
X1042833Y212405D02*
X1063699D01*
X1023739Y170772D02*
Y229827D01*
X1082794D01*
Y170772D02*
Y229827D01*
X1023739Y170772D02*
X1082794D01*
X920958Y212405D02*
Y225201D01*
X941824D01*
Y212405D02*
Y225201D01*
X920958Y212405D02*
X941824D01*
X901864Y170772D02*
Y229827D01*
X960919D01*
Y170772D02*
Y229827D01*
X901864Y170772D02*
X960919D01*
X845958Y212405D02*
Y225201D01*
X866824D01*
Y212405D02*
Y225201D01*
X845958Y212405D02*
X866824D01*
X826864Y170772D02*
Y229827D01*
X885919D01*
Y170772D02*
Y229827D01*
X826864Y170772D02*
X885919D01*
X770958Y212405D02*
Y225201D01*
X791824D01*
Y212405D02*
Y225201D01*
X770958Y212405D02*
X791824D01*
X751864Y170772D02*
Y229827D01*
X810919D01*
Y170772D02*
Y229827D01*
X751864Y170772D02*
X810919D01*
X695958Y212405D02*
Y225201D01*
X716824D01*
Y212405D02*
Y225201D01*
X695958Y212405D02*
X716824D01*
X676864Y170772D02*
Y229827D01*
X735919D01*
Y170772D02*
Y229827D01*
X676864Y170772D02*
X735919D01*
X620958Y212405D02*
Y225201D01*
X641824D01*
Y212405D02*
Y225201D01*
X620958Y212405D02*
X641824D01*
X601864Y170772D02*
Y229827D01*
X660919D01*
Y170772D02*
Y229827D01*
X601864Y170772D02*
X660919D01*
X545958Y212405D02*
Y225201D01*
X566824D01*
Y212405D02*
Y225201D01*
X545958Y212405D02*
X566824D01*
X526864Y170772D02*
Y229827D01*
X585919D01*
Y170772D02*
Y229827D01*
X526864Y170772D02*
X585919D01*
X470958Y212405D02*
Y225201D01*
X491824D01*
Y212405D02*
Y225201D01*
X470958Y212405D02*
X491824D01*
X451864Y170772D02*
Y229827D01*
X510919D01*
Y170772D02*
Y229827D01*
X451864Y170772D02*
X510919D01*
X395958Y212405D02*
Y225201D01*
X416824D01*
Y212405D02*
Y225201D01*
X395958Y212405D02*
X416824D01*
X376864Y170772D02*
Y229827D01*
X435919D01*
Y170772D02*
Y229827D01*
X376864Y170772D02*
X435919D01*
X320958Y212405D02*
Y225201D01*
X341824D01*
Y212405D02*
Y225201D01*
X320958Y212405D02*
X341824D01*
X301864Y170772D02*
Y229827D01*
X360919D01*
Y170772D02*
Y229827D01*
X301864Y170772D02*
X360919D01*
X245958Y212405D02*
Y225201D01*
X266824D01*
Y212405D02*
Y225201D01*
X245958Y212405D02*
X266824D01*
X226864Y170772D02*
Y229827D01*
X285919D01*
Y170772D02*
Y229827D01*
X226864Y170772D02*
X285919D01*
X170958Y212405D02*
Y225201D01*
X191824D01*
Y212405D02*
Y225201D01*
X170958Y212405D02*
X191824D01*
X151864Y170772D02*
Y229827D01*
X210919D01*
Y170772D02*
Y229827D01*
X151864Y170772D02*
X210919D01*
X77208Y212405D02*
Y225201D01*
X98074D01*
Y212405D02*
Y225201D01*
X77208Y212405D02*
X98074D01*
X58114Y170772D02*
Y229827D01*
X117169D01*
Y170772D02*
Y229827D01*
X58114Y170772D02*
X117169D01*
X1070958Y287405D02*
Y300201D01*
X1091824D01*
Y287405D02*
Y300201D01*
X1070958Y287405D02*
X1091824D01*
X1051864Y245772D02*
Y304827D01*
X1110919D01*
Y245772D02*
Y304827D01*
X1051864Y245772D02*
X1110919D01*
X977208Y287405D02*
Y300201D01*
X998074D01*
Y287405D02*
Y300201D01*
X977208Y287405D02*
X998074D01*
X958114Y245772D02*
Y304827D01*
X1017169D01*
Y245772D02*
Y304827D01*
X958114Y245772D02*
X1017169D01*
X902208Y287405D02*
Y300201D01*
X923074D01*
Y287405D02*
Y300201D01*
X902208Y287405D02*
X923074D01*
X883114Y245772D02*
Y304827D01*
X942169D01*
Y245772D02*
Y304827D01*
X883114Y245772D02*
X942169D01*
X827208Y287405D02*
Y300201D01*
X848074D01*
Y287405D02*
Y300201D01*
X827208Y287405D02*
X848074D01*
X808114Y245772D02*
Y304827D01*
X867169D01*
Y245772D02*
Y304827D01*
X808114Y245772D02*
X867169D01*
X752208Y287405D02*
Y300201D01*
X773074D01*
Y287405D02*
Y300201D01*
X752208Y287405D02*
X773074D01*
X733114Y245772D02*
Y304827D01*
X792169D01*
Y245772D02*
Y304827D01*
X733114Y245772D02*
X792169D01*
X677208Y287405D02*
Y300201D01*
X698074D01*
Y287405D02*
Y300201D01*
X677208Y287405D02*
X698074D01*
X658114Y245772D02*
Y304827D01*
X717169D01*
Y245772D02*
Y304827D01*
X658114Y245772D02*
X717169D01*
X602208Y287405D02*
Y300201D01*
X623074D01*
Y287405D02*
Y300201D01*
X602208Y287405D02*
X623074D01*
X583114Y245772D02*
Y304827D01*
X642169D01*
Y245772D02*
Y304827D01*
X583114Y245772D02*
X642169D01*
X527208Y287405D02*
Y300201D01*
X548074D01*
Y287405D02*
Y300201D01*
X527208Y287405D02*
X548074D01*
X508114Y245772D02*
Y304827D01*
X567169D01*
Y245772D02*
Y304827D01*
X508114Y245772D02*
X567169D01*
X452208Y287405D02*
Y300201D01*
X473074D01*
Y287405D02*
Y300201D01*
X452208Y287405D02*
X473074D01*
X433114Y245772D02*
Y304827D01*
X492169D01*
Y245772D02*
Y304827D01*
X433114Y245772D02*
X492169D01*
X377208Y287405D02*
Y300201D01*
X398074D01*
Y287405D02*
Y300201D01*
X377208Y287405D02*
X398074D01*
X358114Y245772D02*
Y304827D01*
X417169D01*
Y245772D02*
Y304827D01*
X358114Y245772D02*
X417169D01*
X302208Y287405D02*
Y300201D01*
X323074D01*
Y287405D02*
Y300201D01*
X302208Y287405D02*
X323074D01*
X283114Y245772D02*
Y304827D01*
X342169D01*
Y245772D02*
Y304827D01*
X283114Y245772D02*
X342169D01*
X227208Y287405D02*
Y300201D01*
X248074D01*
Y287405D02*
Y300201D01*
X227208Y287405D02*
X248074D01*
X208114Y245772D02*
Y304827D01*
X267169D01*
Y245772D02*
Y304827D01*
X208114Y245772D02*
X267169D01*
X152208Y287405D02*
Y300201D01*
X173074D01*
Y287405D02*
Y300201D01*
X152208Y287405D02*
X173074D01*
X133114Y245772D02*
Y304827D01*
X192169D01*
Y245772D02*
Y304827D01*
X133114Y245772D02*
X192169D01*
X58458Y287405D02*
Y300201D01*
X79324D01*
Y287405D02*
Y300201D01*
X58458Y287405D02*
X79324D01*
X39364Y245772D02*
Y304827D01*
X98419D01*
Y245772D02*
Y304827D01*
X39364Y245772D02*
X98419D01*
X1389708Y362405D02*
Y375201D01*
X1410574D01*
Y362405D02*
Y375201D01*
X1389708Y362405D02*
X1410574D01*
X1370614Y320772D02*
Y379827D01*
X1429669D01*
Y320772D02*
Y379827D01*
X1370614Y320772D02*
X1429669D01*
X1314708Y362405D02*
Y375201D01*
X1335574D01*
Y362405D02*
Y375201D01*
X1314708Y362405D02*
X1335574D01*
X1295614Y320772D02*
Y379827D01*
X1354669D01*
Y320772D02*
Y379827D01*
X1295614Y320772D02*
X1354669D01*
X1238887Y362024D02*
Y374819D01*
X1259754D01*
Y362024D02*
Y374819D01*
X1238887Y362024D02*
X1259754D01*
X1219793Y320390D02*
Y379445D01*
X1278848D01*
Y320390D02*
Y379445D01*
X1219793Y320390D02*
X1278848D01*
X1052208Y362405D02*
Y375201D01*
X1073074D01*
Y362405D02*
Y375201D01*
X1052208Y362405D02*
X1073074D01*
X1033114Y320772D02*
Y379827D01*
X1092169D01*
Y320772D02*
Y379827D01*
X1033114Y320772D02*
X1092169D01*
X939708Y362405D02*
Y375201D01*
X960574D01*
Y362405D02*
Y375201D01*
X939708Y362405D02*
X960574D01*
X920614Y320772D02*
Y379827D01*
X979669D01*
Y320772D02*
Y379827D01*
X920614Y320772D02*
X979669D01*
X864708Y362405D02*
Y375201D01*
X885574D01*
Y362405D02*
Y375201D01*
X864708Y362405D02*
X885574D01*
X845614Y320772D02*
Y379827D01*
X904669D01*
Y320772D02*
Y379827D01*
X845614Y320772D02*
X904669D01*
X789708Y362405D02*
Y375201D01*
X810574D01*
Y362405D02*
Y375201D01*
X789708Y362405D02*
X810574D01*
X770614Y320772D02*
Y379827D01*
X829669D01*
Y320772D02*
Y379827D01*
X770614Y320772D02*
X829669D01*
X714708Y362405D02*
Y375201D01*
X735574D01*
Y362405D02*
Y375201D01*
X714708Y362405D02*
X735574D01*
X695614Y320772D02*
Y379827D01*
X754669D01*
Y320772D02*
Y379827D01*
X695614Y320772D02*
X754669D01*
X639708Y362405D02*
Y375201D01*
X660574D01*
Y362405D02*
Y375201D01*
X639708Y362405D02*
X660574D01*
X620614Y320772D02*
Y379827D01*
X679669D01*
Y320772D02*
Y379827D01*
X620614Y320772D02*
X679669D01*
X564708Y362405D02*
Y375201D01*
X585574D01*
Y362405D02*
Y375201D01*
X564708Y362405D02*
X585574D01*
X545614Y320772D02*
Y379827D01*
X604669D01*
Y320772D02*
Y379827D01*
X545614Y320772D02*
X604669D01*
X489708Y362405D02*
Y375201D01*
X510574D01*
Y362405D02*
Y375201D01*
X489708Y362405D02*
X510574D01*
X470614Y320772D02*
Y379827D01*
X529669D01*
Y320772D02*
Y379827D01*
X470614Y320772D02*
X529669D01*
X414708Y362405D02*
Y375201D01*
X435574D01*
Y362405D02*
Y375201D01*
X414708Y362405D02*
X435574D01*
X395614Y320772D02*
Y379827D01*
X454669D01*
Y320772D02*
Y379827D01*
X395614Y320772D02*
X454669D01*
X339708Y362405D02*
Y375201D01*
X360574D01*
Y362405D02*
Y375201D01*
X339708Y362405D02*
X360574D01*
X320614Y320772D02*
Y379827D01*
X379669D01*
Y320772D02*
Y379827D01*
X320614Y320772D02*
X379669D01*
X264708Y362405D02*
Y375201D01*
X285574D01*
Y362405D02*
Y375201D01*
X264708Y362405D02*
X285574D01*
X245614Y320772D02*
Y379827D01*
X304669D01*
Y320772D02*
Y379827D01*
X245614Y320772D02*
X304669D01*
X189708Y362405D02*
Y375201D01*
X210574D01*
Y362405D02*
Y375201D01*
X189708Y362405D02*
X210574D01*
X170614Y320772D02*
Y379827D01*
X229669D01*
Y320772D02*
Y379827D01*
X170614Y320772D02*
X229669D01*
X114708Y362405D02*
Y375201D01*
X135574D01*
Y362405D02*
Y375201D01*
X114708Y362405D02*
X135574D01*
X95614Y320772D02*
Y379827D01*
X154669D01*
Y320772D02*
Y379827D01*
X95614Y320772D02*
X154669D01*
D11*
X1029335Y76841D02*
Y78341D01*
X1028585D01*
X1028335Y78091D01*
Y77091D01*
X1028585Y76841D01*
X1029335D01*
X1027835Y78341D02*
X1027335D01*
X1027586D01*
Y76841D01*
X1027835Y77091D01*
X1026586Y78341D02*
Y78091D01*
X1026336D01*
Y78341D01*
X1026586D01*
X1025336Y77091D02*
X1025086Y76841D01*
X1024586D01*
X1024337Y77091D01*
Y77341D01*
X1024586Y77591D01*
X1024836D01*
X1024586D01*
X1024337Y77841D01*
Y78091D01*
X1024586Y78341D01*
X1025086D01*
X1025336Y78091D01*
X1023837Y78341D02*
Y78091D01*
X1023587D01*
Y78341D01*
X1023837D01*
X1022587D02*
X1022087D01*
X1022337D01*
Y76841D01*
X1022587Y77091D01*
X1021338Y76841D02*
X1020338D01*
Y77091D01*
X1021338Y78091D01*
Y78341D01*
X841835Y76841D02*
Y78341D01*
X841085D01*
X840835Y78091D01*
Y77091D01*
X841085Y76841D01*
X841835D01*
X840335Y78341D02*
X839835D01*
X840086D01*
Y76841D01*
X840335Y77091D01*
X839086Y78341D02*
Y78091D01*
X838836D01*
Y78341D01*
X839086D01*
X837836Y77091D02*
X837586Y76841D01*
X837086D01*
X836837Y77091D01*
Y77341D01*
X837086Y77591D01*
X837336D01*
X837086D01*
X836837Y77841D01*
Y78091D01*
X837086Y78341D01*
X837586D01*
X837836Y78091D01*
X836337Y78341D02*
Y78091D01*
X836087D01*
Y78341D01*
X836337D01*
X835087D02*
X834587D01*
X834837D01*
Y76841D01*
X835087Y77091D01*
X833838Y78091D02*
X833588Y78341D01*
X833088D01*
X832838Y78091D01*
Y77091D01*
X833088Y76841D01*
X833588D01*
X833838Y77091D01*
Y77341D01*
X833588Y77591D01*
X832838D01*
X1179085Y376841D02*
Y378341D01*
X1178335D01*
X1178085Y378091D01*
Y377091D01*
X1178335Y376841D01*
X1179085D01*
X1177586Y378341D02*
X1177086D01*
X1177335D01*
Y376841D01*
X1177586Y377091D01*
X1176336Y378341D02*
Y378091D01*
X1176086D01*
Y378341D01*
X1176336D01*
X1175086Y377091D02*
X1174836Y376841D01*
X1174337D01*
X1174087Y377091D01*
Y377341D01*
X1174337Y377591D01*
X1174586D01*
X1174337D01*
X1174087Y377841D01*
Y378091D01*
X1174337Y378341D01*
X1174836D01*
X1175086Y378091D01*
X1173587Y378341D02*
Y378091D01*
X1173337D01*
Y378341D01*
X1173587D01*
X1172337Y376841D02*
X1171338D01*
Y377091D01*
X1172337Y378091D01*
Y378341D01*
X1170838D02*
X1170338D01*
X1170588D01*
Y376841D01*
X1170838Y377091D01*
X54585Y376841D02*
Y378341D01*
X53835D01*
X53585Y378091D01*
Y377091D01*
X53835Y376841D01*
X54585D01*
X53085Y378341D02*
X52586D01*
X52835D01*
Y376841D01*
X53085Y377091D01*
X51836Y378341D02*
Y378091D01*
X51586D01*
Y378341D01*
X51836D01*
X50586Y377091D02*
X50336Y376841D01*
X49836D01*
X49586Y377091D01*
Y377341D01*
X49836Y377591D01*
X50086D01*
X49836D01*
X49586Y377841D01*
Y378091D01*
X49836Y378341D01*
X50336D01*
X50586Y378091D01*
X49087Y378341D02*
Y378091D01*
X48837D01*
Y378341D01*
X49087D01*
X47837Y377091D02*
X47587Y376841D01*
X47087D01*
X46837Y377091D01*
Y377341D01*
X47087Y377591D01*
X46837Y377841D01*
Y378091D01*
X47087Y378341D01*
X47587D01*
X47837Y378091D01*
Y377841D01*
X47587Y377591D01*
X47837Y377341D01*
Y377091D01*
X47587Y377591D02*
X47087D01*
X45338Y376841D02*
X46338D01*
Y377591D01*
X45838Y377341D01*
X45588D01*
X45338Y377591D01*
Y378091D01*
X45588Y378341D01*
X46088D01*
X46338Y378091D01*
X1046466Y82090D02*
X1046216Y82340D01*
X1045716D01*
X1045467Y82090D01*
Y81840D01*
X1045716Y81590D01*
X1046216D01*
X1046466Y81340D01*
Y81090D01*
X1046216Y80840D01*
X1045716D01*
X1045467Y81090D01*
X1046966Y80840D02*
X1047466D01*
X1047216D01*
Y82340D01*
X1046966Y82090D01*
X1048216Y80840D02*
Y81090D01*
X1048466D01*
Y80840D01*
X1048216D01*
X1049465Y82090D02*
X1049715Y82340D01*
X1050215D01*
X1050465Y82090D01*
Y81840D01*
X1050215Y81590D01*
X1049965D01*
X1050215D01*
X1050465Y81340D01*
Y81090D01*
X1050215Y80840D01*
X1049715D01*
X1049465Y81090D01*
X1050965Y80840D02*
Y81090D01*
X1051215D01*
Y80840D01*
X1050965D01*
X1052214D02*
X1052714D01*
X1052464D01*
Y82340D01*
X1052214Y82090D01*
X1053464Y82340D02*
X1054464D01*
Y82090D01*
X1053464Y81090D01*
Y80840D01*
X858966Y82090D02*
X858716Y82340D01*
X858216D01*
X857967Y82090D01*
Y81840D01*
X858216Y81590D01*
X858716D01*
X858966Y81340D01*
Y81090D01*
X858716Y80840D01*
X858216D01*
X857967Y81090D01*
X859466Y80840D02*
X859966D01*
X859716D01*
Y82340D01*
X859466Y82090D01*
X860716Y80840D02*
Y81090D01*
X860966D01*
Y80840D01*
X860716D01*
X861965Y82090D02*
X862215Y82340D01*
X862715D01*
X862965Y82090D01*
Y81840D01*
X862715Y81590D01*
X862465D01*
X862715D01*
X862965Y81340D01*
Y81090D01*
X862715Y80840D01*
X862215D01*
X861965Y81090D01*
X863465Y80840D02*
Y81090D01*
X863715D01*
Y80840D01*
X863465D01*
X864714D02*
X865214D01*
X864964D01*
Y82340D01*
X864714Y82090D01*
X865964Y81090D02*
X866214Y80840D01*
X866714D01*
X866964Y81090D01*
Y82090D01*
X866714Y82340D01*
X866214D01*
X865964Y82090D01*
Y81840D01*
X866214Y81590D01*
X866964D01*
X1196466Y319590D02*
X1196216Y319840D01*
X1195716D01*
X1195467Y319590D01*
Y319340D01*
X1195716Y319090D01*
X1196216D01*
X1196466Y318840D01*
Y318590D01*
X1196216Y318340D01*
X1195716D01*
X1195467Y318590D01*
X1196966Y318340D02*
X1197466D01*
X1197216D01*
Y319840D01*
X1196966Y319590D01*
X1198216Y318340D02*
Y318590D01*
X1198466D01*
Y318340D01*
X1198216D01*
X1199465Y319590D02*
X1199715Y319840D01*
X1200215D01*
X1200465Y319590D01*
Y319340D01*
X1200215Y319090D01*
X1199965D01*
X1200215D01*
X1200465Y318840D01*
Y318590D01*
X1200215Y318340D01*
X1199715D01*
X1199465Y318590D01*
X1200965Y318340D02*
Y318590D01*
X1201215D01*
Y318340D01*
X1200965D01*
X1202214Y319840D02*
X1203214D01*
Y319590D01*
X1202214Y318590D01*
Y318340D01*
X1203714D02*
X1204214D01*
X1203964D01*
Y319840D01*
X1203714Y319590D01*
X71466D02*
X71216Y319840D01*
X70717D01*
X70467Y319590D01*
Y319340D01*
X70717Y319090D01*
X71216D01*
X71466Y318840D01*
Y318590D01*
X71216Y318340D01*
X70717D01*
X70467Y318590D01*
X71966Y318340D02*
X72466D01*
X72216D01*
Y319840D01*
X71966Y319590D01*
X73216Y318340D02*
Y318590D01*
X73466D01*
Y318340D01*
X73216D01*
X74465Y319590D02*
X74715Y319840D01*
X75215D01*
X75465Y319590D01*
Y319340D01*
X75215Y319090D01*
X74965D01*
X75215D01*
X75465Y318840D01*
Y318590D01*
X75215Y318340D01*
X74715D01*
X74465Y318590D01*
X75965Y318340D02*
Y318590D01*
X76215D01*
Y318340D01*
X75965D01*
X77214Y319590D02*
X77464Y319840D01*
X77964D01*
X78214Y319590D01*
Y319340D01*
X77964Y319090D01*
X78214Y318840D01*
Y318590D01*
X77964Y318340D01*
X77464D01*
X77214Y318590D01*
Y318840D01*
X77464Y319090D01*
X77214Y319340D01*
Y319590D01*
X77464Y319090D02*
X77964D01*
X79714Y319840D02*
X78714D01*
Y319090D01*
X79214Y319340D01*
X79464D01*
X79714Y319090D01*
Y318590D01*
X79464Y318340D01*
X78964D01*
X78714Y318590D01*
X1402586Y114341D02*
Y115840D01*
X1401836D01*
X1401586Y115591D01*
Y114591D01*
X1401836Y114341D01*
X1402586D01*
X1401086Y115840D02*
X1400586D01*
X1400836D01*
Y114341D01*
X1401086Y114591D01*
X1399836Y115840D02*
Y115591D01*
X1399586D01*
Y115840D01*
X1399836D01*
X1398587Y114591D02*
X1398337Y114341D01*
X1397837D01*
X1397587Y114591D01*
Y114841D01*
X1397837Y115091D01*
X1398087D01*
X1397837D01*
X1397587Y115341D01*
Y115591D01*
X1397837Y115840D01*
X1398337D01*
X1398587Y115591D01*
X1397087Y115840D02*
Y115591D01*
X1396837D01*
Y115840D01*
X1397087D01*
X1395838D02*
X1395338D01*
X1395588D01*
Y114341D01*
X1395838Y114591D01*
X1328085Y76841D02*
Y78341D01*
X1327335D01*
X1327086Y78091D01*
Y77091D01*
X1327335Y76841D01*
X1328085D01*
X1326586Y78341D02*
X1326086D01*
X1326336D01*
Y76841D01*
X1326586Y77091D01*
X1325336Y78341D02*
Y78091D01*
X1325086D01*
Y78341D01*
X1325336D01*
X1324087Y77091D02*
X1323837Y76841D01*
X1323337D01*
X1323087Y77091D01*
Y77341D01*
X1323337Y77591D01*
X1323587D01*
X1323337D01*
X1323087Y77841D01*
Y78091D01*
X1323337Y78341D01*
X1323837D01*
X1324087Y78091D01*
X1322587Y78341D02*
Y78091D01*
X1322337D01*
Y78341D01*
X1322587D01*
X1320338D02*
X1321338D01*
X1320338Y77341D01*
Y77091D01*
X1320588Y76841D01*
X1321088D01*
X1321338Y77091D01*
X1253085Y76841D02*
Y78341D01*
X1252335D01*
X1252086Y78091D01*
Y77091D01*
X1252335Y76841D01*
X1253085D01*
X1251586Y78341D02*
X1251086D01*
X1251336D01*
Y76841D01*
X1251586Y77091D01*
X1250336Y78341D02*
Y78091D01*
X1250086D01*
Y78341D01*
X1250336D01*
X1249087Y77091D02*
X1248837Y76841D01*
X1248337D01*
X1248087Y77091D01*
Y77341D01*
X1248337Y77591D01*
X1248587D01*
X1248337D01*
X1248087Y77841D01*
Y78091D01*
X1248337Y78341D01*
X1248837D01*
X1249087Y78091D01*
X1247587Y78341D02*
Y78091D01*
X1247337D01*
Y78341D01*
X1247587D01*
X1246338Y77091D02*
X1246088Y76841D01*
X1245588D01*
X1245338Y77091D01*
Y77341D01*
X1245588Y77591D01*
X1245838D01*
X1245588D01*
X1245338Y77841D01*
Y78091D01*
X1245588Y78341D01*
X1246088D01*
X1246338Y78091D01*
X1328085Y151841D02*
Y153340D01*
X1327335D01*
X1327086Y153091D01*
Y152091D01*
X1327335Y151841D01*
X1328085D01*
X1326586Y153340D02*
X1326086D01*
X1326336D01*
Y151841D01*
X1326586Y152091D01*
X1325336Y153340D02*
Y153091D01*
X1325086D01*
Y153340D01*
X1325336D01*
X1324087Y152091D02*
X1323837Y151841D01*
X1323337D01*
X1323087Y152091D01*
Y152341D01*
X1323337Y152591D01*
X1323587D01*
X1323337D01*
X1323087Y152841D01*
Y153091D01*
X1323337Y153340D01*
X1323837D01*
X1324087Y153091D01*
X1322587Y153340D02*
Y153091D01*
X1322337D01*
Y153340D01*
X1322587D01*
X1320588D02*
Y151841D01*
X1321338Y152591D01*
X1320338D01*
X1253085Y151841D02*
Y153340D01*
X1252335D01*
X1252086Y153091D01*
Y152091D01*
X1252335Y151841D01*
X1253085D01*
X1251586Y153340D02*
X1251086D01*
X1251336D01*
Y151841D01*
X1251586Y152091D01*
X1250336Y153340D02*
Y153091D01*
X1250086D01*
Y153340D01*
X1250336D01*
X1249087Y152091D02*
X1248837Y151841D01*
X1248337D01*
X1248087Y152091D01*
Y152341D01*
X1248337Y152591D01*
X1248587D01*
X1248337D01*
X1248087Y152841D01*
Y153091D01*
X1248337Y153340D01*
X1248837D01*
X1249087Y153091D01*
X1247587Y153340D02*
Y153091D01*
X1247337D01*
Y153340D01*
X1247587D01*
X1245338Y151841D02*
X1246338D01*
Y152591D01*
X1245838Y152341D01*
X1245588D01*
X1245338Y152591D01*
Y153091D01*
X1245588Y153340D01*
X1246088D01*
X1246338Y153091D01*
X1178085Y151841D02*
Y153340D01*
X1177335D01*
X1177086Y153091D01*
Y152091D01*
X1177335Y151841D01*
X1178085D01*
X1176586Y153340D02*
X1176086D01*
X1176336D01*
Y151841D01*
X1176586Y152091D01*
X1175336Y153340D02*
Y153091D01*
X1175086D01*
Y153340D01*
X1175336D01*
X1174087Y152091D02*
X1173837Y151841D01*
X1173337D01*
X1173087Y152091D01*
Y152341D01*
X1173337Y152591D01*
X1173587D01*
X1173337D01*
X1173087Y152841D01*
Y153091D01*
X1173337Y153340D01*
X1173837D01*
X1174087Y153091D01*
X1172587Y153340D02*
Y153091D01*
X1172337D01*
Y153340D01*
X1172587D01*
X1170338Y151841D02*
X1170838Y152091D01*
X1171338Y152591D01*
Y153091D01*
X1171088Y153340D01*
X1170588D01*
X1170338Y153091D01*
Y152841D01*
X1170588Y152591D01*
X1171338D01*
X1403085Y264341D02*
Y265841D01*
X1402335D01*
X1402086Y265591D01*
Y264591D01*
X1402335Y264341D01*
X1403085D01*
X1401586Y265841D02*
X1401086D01*
X1401336D01*
Y264341D01*
X1401586Y264591D01*
X1400336Y265841D02*
Y265591D01*
X1400086D01*
Y265841D01*
X1400336D01*
X1399087Y264591D02*
X1398837Y264341D01*
X1398337D01*
X1398087Y264591D01*
Y264841D01*
X1398337Y265091D01*
X1398587D01*
X1398337D01*
X1398087Y265341D01*
Y265591D01*
X1398337Y265841D01*
X1398837D01*
X1399087Y265591D01*
X1397587Y265841D02*
Y265591D01*
X1397337D01*
Y265841D01*
X1397587D01*
X1396338Y264341D02*
X1395338D01*
Y264591D01*
X1396338Y265591D01*
Y265841D01*
X1328085Y226841D02*
Y228341D01*
X1327335D01*
X1327086Y228091D01*
Y227091D01*
X1327335Y226841D01*
X1328085D01*
X1326586Y228341D02*
X1326086D01*
X1326336D01*
Y226841D01*
X1326586Y227091D01*
X1325336Y228341D02*
Y228091D01*
X1325086D01*
Y228341D01*
X1325336D01*
X1324087Y227091D02*
X1323837Y226841D01*
X1323337D01*
X1323087Y227091D01*
Y227341D01*
X1323337Y227591D01*
X1323587D01*
X1323337D01*
X1323087Y227841D01*
Y228091D01*
X1323337Y228341D01*
X1323837D01*
X1324087Y228091D01*
X1322587Y228341D02*
Y228091D01*
X1322337D01*
Y228341D01*
X1322587D01*
X1321338Y227091D02*
X1321088Y226841D01*
X1320588D01*
X1320338Y227091D01*
Y227341D01*
X1320588Y227591D01*
X1320338Y227841D01*
Y228091D01*
X1320588Y228341D01*
X1321088D01*
X1321338Y228091D01*
Y227841D01*
X1321088Y227591D01*
X1321338Y227341D01*
Y227091D01*
X1321088Y227591D02*
X1320588D01*
X1253085Y226841D02*
Y228341D01*
X1252335D01*
X1252086Y228091D01*
Y227091D01*
X1252335Y226841D01*
X1253085D01*
X1251586Y228341D02*
X1251086D01*
X1251336D01*
Y226841D01*
X1251586Y227091D01*
X1250336Y228341D02*
Y228091D01*
X1250086D01*
Y228341D01*
X1250336D01*
X1249087Y227091D02*
X1248837Y226841D01*
X1248337D01*
X1248087Y227091D01*
Y227341D01*
X1248337Y227591D01*
X1248587D01*
X1248337D01*
X1248087Y227841D01*
Y228091D01*
X1248337Y228341D01*
X1248837D01*
X1249087Y228091D01*
X1247587Y228341D02*
Y228091D01*
X1247337D01*
Y228341D01*
X1247587D01*
X1246338Y228091D02*
X1246088Y228341D01*
X1245588D01*
X1245338Y228091D01*
Y227091D01*
X1245588Y226841D01*
X1246088D01*
X1246338Y227091D01*
Y227341D01*
X1246088Y227591D01*
X1245338D01*
X1179335Y226841D02*
Y228341D01*
X1178585D01*
X1178335Y228091D01*
Y227091D01*
X1178585Y226841D01*
X1179335D01*
X1177835Y228341D02*
X1177335D01*
X1177586D01*
Y226841D01*
X1177835Y227091D01*
X1176586Y228341D02*
Y228091D01*
X1176336D01*
Y228341D01*
X1176586D01*
X1175336Y227091D02*
X1175086Y226841D01*
X1174586D01*
X1174337Y227091D01*
Y227341D01*
X1174586Y227591D01*
X1174836D01*
X1174586D01*
X1174337Y227841D01*
Y228091D01*
X1174586Y228341D01*
X1175086D01*
X1175336Y228091D01*
X1173837Y228341D02*
Y228091D01*
X1173587D01*
Y228341D01*
X1173837D01*
X1172587D02*
X1172087D01*
X1172337D01*
Y226841D01*
X1172587Y227091D01*
X1171338D02*
X1171088Y226841D01*
X1170588D01*
X1170338Y227091D01*
Y228091D01*
X1170588Y228341D01*
X1171088D01*
X1171338Y228091D01*
Y227091D01*
X1328835Y301841D02*
Y303341D01*
X1328085D01*
X1327835Y303091D01*
Y302091D01*
X1328085Y301841D01*
X1328835D01*
X1327335Y303341D02*
X1326836D01*
X1327086D01*
Y301841D01*
X1327335Y302091D01*
X1326086Y303341D02*
Y303091D01*
X1325836D01*
Y303341D01*
X1326086D01*
X1324836Y302091D02*
X1324586Y301841D01*
X1324087D01*
X1323837Y302091D01*
Y302341D01*
X1324087Y302591D01*
X1324337D01*
X1324087D01*
X1323837Y302841D01*
Y303091D01*
X1324087Y303341D01*
X1324586D01*
X1324836Y303091D01*
X1323337Y303341D02*
Y303091D01*
X1323087D01*
Y303341D01*
X1323337D01*
X1322087D02*
X1321587D01*
X1321837D01*
Y301841D01*
X1322087Y302091D01*
X1320838Y303341D02*
X1320338D01*
X1320588D01*
Y301841D01*
X1320838Y302091D01*
X1254335Y301841D02*
Y303341D01*
X1253585D01*
X1253335Y303091D01*
Y302091D01*
X1253585Y301841D01*
X1254335D01*
X1252835Y303341D02*
X1252335D01*
X1252586D01*
Y301841D01*
X1252835Y302091D01*
X1251586Y303341D02*
Y303091D01*
X1251336D01*
Y303341D01*
X1251586D01*
X1250336Y302091D02*
X1250086Y301841D01*
X1249586D01*
X1249337Y302091D01*
Y302341D01*
X1249586Y302591D01*
X1249836D01*
X1249586D01*
X1249337Y302841D01*
Y303091D01*
X1249586Y303341D01*
X1250086D01*
X1250336Y303091D01*
X1248837Y303341D02*
Y303091D01*
X1248587D01*
Y303341D01*
X1248837D01*
X1247587D02*
X1247087D01*
X1247337D01*
Y301841D01*
X1247587Y302091D01*
X1245338Y303341D02*
X1246338D01*
X1245338Y302341D01*
Y302091D01*
X1245588Y301841D01*
X1246088D01*
X1246338Y302091D01*
X1179335Y301841D02*
Y303341D01*
X1178585D01*
X1178335Y303091D01*
Y302091D01*
X1178585Y301841D01*
X1179335D01*
X1177835Y303341D02*
X1177335D01*
X1177586D01*
Y301841D01*
X1177835Y302091D01*
X1176586Y303341D02*
Y303091D01*
X1176336D01*
Y303341D01*
X1176586D01*
X1175336Y302091D02*
X1175086Y301841D01*
X1174586D01*
X1174337Y302091D01*
Y302341D01*
X1174586Y302591D01*
X1174836D01*
X1174586D01*
X1174337Y302841D01*
Y303091D01*
X1174586Y303341D01*
X1175086D01*
X1175336Y303091D01*
X1173837Y303341D02*
Y303091D01*
X1173587D01*
Y303341D01*
X1173837D01*
X1172587D02*
X1172087D01*
X1172337D01*
Y301841D01*
X1172587Y302091D01*
X1171338D02*
X1171088Y301841D01*
X1170588D01*
X1170338Y302091D01*
Y302341D01*
X1170588Y302591D01*
X1170838D01*
X1170588D01*
X1170338Y302841D01*
Y303091D01*
X1170588Y303341D01*
X1171088D01*
X1171338Y303091D01*
X1104335Y151841D02*
Y153340D01*
X1103585D01*
X1103335Y153091D01*
Y152091D01*
X1103585Y151841D01*
X1104335D01*
X1102835Y153340D02*
X1102335D01*
X1102586D01*
Y151841D01*
X1102835Y152091D01*
X1101586Y153340D02*
Y153091D01*
X1101336D01*
Y153340D01*
X1101586D01*
X1100336Y152091D02*
X1100086Y151841D01*
X1099586D01*
X1099337Y152091D01*
Y152341D01*
X1099586Y152591D01*
X1099836D01*
X1099586D01*
X1099337Y152841D01*
Y153091D01*
X1099586Y153340D01*
X1100086D01*
X1100336Y153091D01*
X1098837Y153340D02*
Y153091D01*
X1098587D01*
Y153340D01*
X1098837D01*
X1097587D02*
X1097087D01*
X1097337D01*
Y151841D01*
X1097587Y152091D01*
X1095588Y153340D02*
Y151841D01*
X1096338Y152591D01*
X1095338D01*
X1179335Y76841D02*
Y78341D01*
X1178585D01*
X1178335Y78091D01*
Y77091D01*
X1178585Y76841D01*
X1179335D01*
X1177835Y78341D02*
X1177335D01*
X1177586D01*
Y76841D01*
X1177835Y77091D01*
X1176586Y78341D02*
Y78091D01*
X1176336D01*
Y78341D01*
X1176586D01*
X1175336Y77091D02*
X1175086Y76841D01*
X1174586D01*
X1174337Y77091D01*
Y77341D01*
X1174586Y77591D01*
X1174836D01*
X1174586D01*
X1174337Y77841D01*
Y78091D01*
X1174586Y78341D01*
X1175086D01*
X1175336Y78091D01*
X1173837Y78341D02*
Y78091D01*
X1173587D01*
Y78341D01*
X1173837D01*
X1172587D02*
X1172087D01*
X1172337D01*
Y76841D01*
X1172587Y77091D01*
X1170338Y76841D02*
X1171338D01*
Y77591D01*
X1170838Y77341D01*
X1170588D01*
X1170338Y77591D01*
Y78091D01*
X1170588Y78341D01*
X1171088D01*
X1171338Y78091D01*
X1104335Y76841D02*
Y78341D01*
X1103585D01*
X1103335Y78091D01*
Y77091D01*
X1103585Y76841D01*
X1104335D01*
X1102835Y78341D02*
X1102335D01*
X1102586D01*
Y76841D01*
X1102835Y77091D01*
X1101586Y78341D02*
Y78091D01*
X1101336D01*
Y78341D01*
X1101586D01*
X1100336Y77091D02*
X1100086Y76841D01*
X1099586D01*
X1099337Y77091D01*
Y77341D01*
X1099586Y77591D01*
X1099836D01*
X1099586D01*
X1099337Y77841D01*
Y78091D01*
X1099586Y78341D01*
X1100086D01*
X1100336Y78091D01*
X1098837Y78341D02*
Y78091D01*
X1098587D01*
Y78341D01*
X1098837D01*
X1097587D02*
X1097087D01*
X1097337D01*
Y76841D01*
X1097587Y77091D01*
X1095338Y76841D02*
X1095838Y77091D01*
X1096338Y77591D01*
Y78091D01*
X1096088Y78341D01*
X1095588D01*
X1095338Y78091D01*
Y77841D01*
X1095588Y77591D01*
X1096338D01*
X944960Y76841D02*
Y78341D01*
X944210D01*
X943960Y78091D01*
Y77091D01*
X944210Y76841D01*
X944960D01*
X943460Y78341D02*
X942960D01*
X943211D01*
Y76841D01*
X943460Y77091D01*
X942211Y78341D02*
Y78091D01*
X941961D01*
Y78341D01*
X942211D01*
X940961Y77091D02*
X940711Y76841D01*
X940211D01*
X939962Y77091D01*
Y77341D01*
X940211Y77591D01*
X940461D01*
X940211D01*
X939962Y77841D01*
Y78091D01*
X940211Y78341D01*
X940711D01*
X940961Y78091D01*
X939462Y78341D02*
Y78091D01*
X939212D01*
Y78341D01*
X939462D01*
X938212D02*
X937712D01*
X937962D01*
Y76841D01*
X938212Y77091D01*
X936963D02*
X936713Y76841D01*
X936213D01*
X935963Y77091D01*
Y77341D01*
X936213Y77591D01*
X935963Y77841D01*
Y78091D01*
X936213Y78341D01*
X936713D01*
X936963Y78091D01*
Y77841D01*
X936713Y77591D01*
X936963Y77341D01*
Y77091D01*
X936713Y77591D02*
X936213D01*
X748335Y76841D02*
Y78341D01*
X747585D01*
X747335Y78091D01*
Y77091D01*
X747585Y76841D01*
X748335D01*
X746835Y78341D02*
X746336D01*
X746585D01*
Y76841D01*
X746835Y77091D01*
X745586Y78341D02*
Y78091D01*
X745336D01*
Y78341D01*
X745586D01*
X744336Y77091D02*
X744086Y76841D01*
X743586D01*
X743336Y77091D01*
Y77341D01*
X743586Y77591D01*
X743836D01*
X743586D01*
X743336Y77841D01*
Y78091D01*
X743586Y78341D01*
X744086D01*
X744336Y78091D01*
X742837Y78341D02*
Y78091D01*
X742587D01*
Y78341D01*
X742837D01*
X740587D02*
X741587D01*
X740587Y77341D01*
Y77091D01*
X740837Y76841D01*
X741337D01*
X741587Y77091D01*
X740088D02*
X739838Y76841D01*
X739338D01*
X739088Y77091D01*
Y78091D01*
X739338Y78341D01*
X739838D01*
X740088Y78091D01*
Y77091D01*
X654085Y76841D02*
Y78341D01*
X653335D01*
X653085Y78091D01*
Y77091D01*
X653335Y76841D01*
X654085D01*
X652586Y78341D02*
X652086D01*
X652336D01*
Y76841D01*
X652586Y77091D01*
X651336Y78341D02*
Y78091D01*
X651086D01*
Y78341D01*
X651336D01*
X650086Y77091D02*
X649836Y76841D01*
X649336D01*
X649087Y77091D01*
Y77341D01*
X649336Y77591D01*
X649586D01*
X649336D01*
X649087Y77841D01*
Y78091D01*
X649336Y78341D01*
X649836D01*
X650086Y78091D01*
X648587Y78341D02*
Y78091D01*
X648337D01*
Y78341D01*
X648587D01*
X646338D02*
X647337D01*
X646338Y77341D01*
Y77091D01*
X646587Y76841D01*
X647087D01*
X647337Y77091D01*
X645838Y78341D02*
X645338D01*
X645588D01*
Y76841D01*
X645838Y77091D01*
X560835Y76841D02*
Y78341D01*
X560085D01*
X559835Y78091D01*
Y77091D01*
X560085Y76841D01*
X560835D01*
X559335Y78341D02*
X558836D01*
X559085D01*
Y76841D01*
X559335Y77091D01*
X558086Y78341D02*
Y78091D01*
X557836D01*
Y78341D01*
X558086D01*
X556836Y77091D02*
X556586Y76841D01*
X556086D01*
X555836Y77091D01*
Y77341D01*
X556086Y77591D01*
X556336D01*
X556086D01*
X555836Y77841D01*
Y78091D01*
X556086Y78341D01*
X556586D01*
X556836Y78091D01*
X555337Y78341D02*
Y78091D01*
X555087D01*
Y78341D01*
X555337D01*
X553087D02*
X554087D01*
X553087Y77341D01*
Y77091D01*
X553337Y76841D01*
X553837D01*
X554087Y77091D01*
X551588Y78341D02*
X552588D01*
X551588Y77341D01*
Y77091D01*
X551838Y76841D01*
X552338D01*
X552588Y77091D01*
X485835Y76841D02*
Y78341D01*
X485085D01*
X484835Y78091D01*
Y77091D01*
X485085Y76841D01*
X485835D01*
X484335Y78341D02*
X483836D01*
X484085D01*
Y76841D01*
X484335Y77091D01*
X483086Y78341D02*
Y78091D01*
X482836D01*
Y78341D01*
X483086D01*
X481836Y77091D02*
X481586Y76841D01*
X481086D01*
X480836Y77091D01*
Y77341D01*
X481086Y77591D01*
X481336D01*
X481086D01*
X480836Y77841D01*
Y78091D01*
X481086Y78341D01*
X481586D01*
X481836Y78091D01*
X480337Y78341D02*
Y78091D01*
X480087D01*
Y78341D01*
X480337D01*
X478087D02*
X479087D01*
X478087Y77341D01*
Y77091D01*
X478337Y76841D01*
X478837D01*
X479087Y77091D01*
X477588D02*
X477338Y76841D01*
X476838D01*
X476588Y77091D01*
Y77341D01*
X476838Y77591D01*
X477088D01*
X476838D01*
X476588Y77841D01*
Y78091D01*
X476838Y78341D01*
X477338D01*
X477588Y78091D01*
X392085Y76841D02*
Y78341D01*
X391335D01*
X391085Y78091D01*
Y77091D01*
X391335Y76841D01*
X392085D01*
X390585Y78341D02*
X390086D01*
X390335D01*
Y76841D01*
X390585Y77091D01*
X389336Y78341D02*
Y78091D01*
X389086D01*
Y78341D01*
X389336D01*
X388086Y77091D02*
X387836Y76841D01*
X387336D01*
X387086Y77091D01*
Y77341D01*
X387336Y77591D01*
X387586D01*
X387336D01*
X387086Y77841D01*
Y78091D01*
X387336Y78341D01*
X387836D01*
X388086Y78091D01*
X386587Y78341D02*
Y78091D01*
X386337D01*
Y78341D01*
X386587D01*
X384337D02*
X385337D01*
X384337Y77341D01*
Y77091D01*
X384587Y76841D01*
X385087D01*
X385337Y77091D01*
X383088Y78341D02*
Y76841D01*
X383838Y77591D01*
X382838D01*
X298335Y76841D02*
Y78341D01*
X297585D01*
X297335Y78091D01*
Y77091D01*
X297585Y76841D01*
X298335D01*
X296835Y78341D02*
X296336D01*
X296585D01*
Y76841D01*
X296835Y77091D01*
X295586Y78341D02*
Y78091D01*
X295336D01*
Y78341D01*
X295586D01*
X294336Y77091D02*
X294086Y76841D01*
X293586D01*
X293336Y77091D01*
Y77341D01*
X293586Y77591D01*
X293836D01*
X293586D01*
X293336Y77841D01*
Y78091D01*
X293586Y78341D01*
X294086D01*
X294336Y78091D01*
X292837Y78341D02*
Y78091D01*
X292587D01*
Y78341D01*
X292837D01*
X290587D02*
X291587D01*
X290587Y77341D01*
Y77091D01*
X290837Y76841D01*
X291337D01*
X291587Y77091D01*
X289088Y76841D02*
X290088D01*
Y77591D01*
X289588Y77341D01*
X289338D01*
X289088Y77591D01*
Y78091D01*
X289338Y78341D01*
X289838D01*
X290088Y78091D01*
X223335Y76841D02*
Y78341D01*
X222585D01*
X222335Y78091D01*
Y77091D01*
X222585Y76841D01*
X223335D01*
X221835Y78341D02*
X221336D01*
X221585D01*
Y76841D01*
X221835Y77091D01*
X220586Y78341D02*
Y78091D01*
X220336D01*
Y78341D01*
X220586D01*
X219336Y77091D02*
X219086Y76841D01*
X218586D01*
X218336Y77091D01*
Y77341D01*
X218586Y77591D01*
X218836D01*
X218586D01*
X218336Y77841D01*
Y78091D01*
X218586Y78341D01*
X219086D01*
X219336Y78091D01*
X217837Y78341D02*
Y78091D01*
X217587D01*
Y78341D01*
X217837D01*
X215587D02*
X216587D01*
X215587Y77341D01*
Y77091D01*
X215837Y76841D01*
X216337D01*
X216587Y77091D01*
X214088Y76841D02*
X214588Y77091D01*
X215088Y77591D01*
Y78091D01*
X214838Y78341D01*
X214338D01*
X214088Y78091D01*
Y77841D01*
X214338Y77591D01*
X215088D01*
X148335Y76841D02*
Y78341D01*
X147585D01*
X147335Y78091D01*
Y77091D01*
X147585Y76841D01*
X148335D01*
X146835Y78341D02*
X146335D01*
X146585D01*
Y76841D01*
X146835Y77091D01*
X145586Y78341D02*
Y78091D01*
X145336D01*
Y78341D01*
X145586D01*
X144336Y77091D02*
X144086Y76841D01*
X143586D01*
X143336Y77091D01*
Y77341D01*
X143586Y77591D01*
X143836D01*
X143586D01*
X143336Y77841D01*
Y78091D01*
X143586Y78341D01*
X144086D01*
X144336Y78091D01*
X142837Y78341D02*
Y78091D01*
X142587D01*
Y78341D01*
X142837D01*
X140587D02*
X141587D01*
X140587Y77341D01*
Y77091D01*
X140837Y76841D01*
X141337D01*
X141587Y77091D01*
X140087Y76841D02*
X139088D01*
Y77091D01*
X140087Y78091D01*
Y78341D01*
X63960Y76841D02*
Y78341D01*
X63210D01*
X62960Y78091D01*
Y77091D01*
X63210Y76841D01*
X63960D01*
X62460Y78341D02*
X61961D01*
X62210D01*
Y76841D01*
X62460Y77091D01*
X61211Y78341D02*
Y78091D01*
X60961D01*
Y78341D01*
X61211D01*
X59961Y77091D02*
X59711Y76841D01*
X59211D01*
X58961Y77091D01*
Y77341D01*
X59211Y77591D01*
X59461D01*
X59211D01*
X58961Y77841D01*
Y78091D01*
X59211Y78341D01*
X59711D01*
X59961Y78091D01*
X58462Y78341D02*
Y78091D01*
X58212D01*
Y78341D01*
X58462D01*
X56212D02*
X57212D01*
X56212Y77341D01*
Y77091D01*
X56462Y76841D01*
X56962D01*
X57212Y77091D01*
X55712D02*
X55462Y76841D01*
X54963D01*
X54713Y77091D01*
Y77341D01*
X54963Y77591D01*
X54713Y77841D01*
Y78091D01*
X54963Y78341D01*
X55462D01*
X55712Y78091D01*
Y77841D01*
X55462Y77591D01*
X55712Y77341D01*
Y77091D01*
X55462Y77591D02*
X54963D01*
X1001460Y151841D02*
Y153340D01*
X1000710D01*
X1000460Y153091D01*
Y152091D01*
X1000710Y151841D01*
X1001460D01*
X999960Y153340D02*
X999461D01*
X999710D01*
Y151841D01*
X999960Y152091D01*
X998711Y153340D02*
Y153091D01*
X998461D01*
Y153340D01*
X998711D01*
X997461Y152091D02*
X997211Y151841D01*
X996711D01*
X996461Y152091D01*
Y152341D01*
X996711Y152591D01*
X996961D01*
X996711D01*
X996461Y152841D01*
Y153091D01*
X996711Y153340D01*
X997211D01*
X997461Y153091D01*
X995962Y153340D02*
Y153091D01*
X995712D01*
Y153340D01*
X995962D01*
X993712D02*
X994712D01*
X993712Y152341D01*
Y152091D01*
X993962Y151841D01*
X994462D01*
X994712Y152091D01*
X993213Y153091D02*
X992963Y153340D01*
X992463D01*
X992213Y153091D01*
Y152091D01*
X992463Y151841D01*
X992963D01*
X993213Y152091D01*
Y152341D01*
X992963Y152591D01*
X992213D01*
X898335Y151841D02*
Y153340D01*
X897585D01*
X897335Y153091D01*
Y152091D01*
X897585Y151841D01*
X898335D01*
X896835Y153340D02*
X896336D01*
X896585D01*
Y151841D01*
X896835Y152091D01*
X895586Y153340D02*
Y153091D01*
X895336D01*
Y153340D01*
X895586D01*
X894336Y152091D02*
X894086Y151841D01*
X893586D01*
X893336Y152091D01*
Y152341D01*
X893586Y152591D01*
X893836D01*
X893586D01*
X893336Y152841D01*
Y153091D01*
X893586Y153340D01*
X894086D01*
X894336Y153091D01*
X892837Y153340D02*
Y153091D01*
X892587D01*
Y153340D01*
X892837D01*
X891587Y152091D02*
X891337Y151841D01*
X890837D01*
X890587Y152091D01*
Y152341D01*
X890837Y152591D01*
X891087D01*
X890837D01*
X890587Y152841D01*
Y153091D01*
X890837Y153340D01*
X891337D01*
X891587Y153091D01*
X890088Y152091D02*
X889838Y151841D01*
X889338D01*
X889088Y152091D01*
Y153091D01*
X889338Y153340D01*
X889838D01*
X890088Y153091D01*
Y152091D01*
X822835Y151841D02*
Y153340D01*
X822085D01*
X821835Y153091D01*
Y152091D01*
X822085Y151841D01*
X822835D01*
X821336Y153340D02*
X820836D01*
X821085D01*
Y151841D01*
X821336Y152091D01*
X820086Y153340D02*
Y153091D01*
X819836D01*
Y153340D01*
X820086D01*
X818836Y152091D02*
X818586Y151841D01*
X818087D01*
X817837Y152091D01*
Y152341D01*
X818087Y152591D01*
X818336D01*
X818087D01*
X817837Y152841D01*
Y153091D01*
X818087Y153340D01*
X818586D01*
X818836Y153091D01*
X817337Y153340D02*
Y153091D01*
X817087D01*
Y153340D01*
X817337D01*
X816087Y152091D02*
X815837Y151841D01*
X815337D01*
X815088Y152091D01*
Y152341D01*
X815337Y152591D01*
X815587D01*
X815337D01*
X815088Y152841D01*
Y153091D01*
X815337Y153340D01*
X815837D01*
X816087Y153091D01*
X814588Y153340D02*
X814088D01*
X814338D01*
Y151841D01*
X814588Y152091D01*
X748335Y151841D02*
Y153340D01*
X747585D01*
X747335Y153091D01*
Y152091D01*
X747585Y151841D01*
X748335D01*
X746835Y153340D02*
X746336D01*
X746585D01*
Y151841D01*
X746835Y152091D01*
X745586Y153340D02*
Y153091D01*
X745336D01*
Y153340D01*
X745586D01*
X744336Y152091D02*
X744086Y151841D01*
X743586D01*
X743336Y152091D01*
Y152341D01*
X743586Y152591D01*
X743836D01*
X743586D01*
X743336Y152841D01*
Y153091D01*
X743586Y153340D01*
X744086D01*
X744336Y153091D01*
X742837Y153340D02*
Y153091D01*
X742587D01*
Y153340D01*
X742837D01*
X741587Y152091D02*
X741337Y151841D01*
X740837D01*
X740587Y152091D01*
Y152341D01*
X740837Y152591D01*
X741087D01*
X740837D01*
X740587Y152841D01*
Y153091D01*
X740837Y153340D01*
X741337D01*
X741587Y153091D01*
X739088Y153340D02*
X740088D01*
X739088Y152341D01*
Y152091D01*
X739338Y151841D01*
X739838D01*
X740088Y152091D01*
X673335Y151841D02*
Y153340D01*
X672585D01*
X672335Y153091D01*
Y152091D01*
X672585Y151841D01*
X673335D01*
X671835Y153340D02*
X671336D01*
X671585D01*
Y151841D01*
X671835Y152091D01*
X670586Y153340D02*
Y153091D01*
X670336D01*
Y153340D01*
X670586D01*
X669336Y152091D02*
X669086Y151841D01*
X668586D01*
X668336Y152091D01*
Y152341D01*
X668586Y152591D01*
X668836D01*
X668586D01*
X668336Y152841D01*
Y153091D01*
X668586Y153340D01*
X669086D01*
X669336Y153091D01*
X667837Y153340D02*
Y153091D01*
X667587D01*
Y153340D01*
X667837D01*
X666587Y152091D02*
X666337Y151841D01*
X665837D01*
X665587Y152091D01*
Y152341D01*
X665837Y152591D01*
X666087D01*
X665837D01*
X665587Y152841D01*
Y153091D01*
X665837Y153340D01*
X666337D01*
X666587Y153091D01*
X665088Y152091D02*
X664838Y151841D01*
X664338D01*
X664088Y152091D01*
Y152341D01*
X664338Y152591D01*
X664588D01*
X664338D01*
X664088Y152841D01*
Y153091D01*
X664338Y153340D01*
X664838D01*
X665088Y153091D01*
X598335Y151841D02*
Y153340D01*
X597585D01*
X597335Y153091D01*
Y152091D01*
X597585Y151841D01*
X598335D01*
X596835Y153340D02*
X596336D01*
X596585D01*
Y151841D01*
X596835Y152091D01*
X595586Y153340D02*
Y153091D01*
X595336D01*
Y153340D01*
X595586D01*
X594336Y152091D02*
X594086Y151841D01*
X593586D01*
X593336Y152091D01*
Y152341D01*
X593586Y152591D01*
X593836D01*
X593586D01*
X593336Y152841D01*
Y153091D01*
X593586Y153340D01*
X594086D01*
X594336Y153091D01*
X592837Y153340D02*
Y153091D01*
X592587D01*
Y153340D01*
X592837D01*
X591587Y152091D02*
X591337Y151841D01*
X590837D01*
X590587Y152091D01*
Y152341D01*
X590837Y152591D01*
X591087D01*
X590837D01*
X590587Y152841D01*
Y153091D01*
X590837Y153340D01*
X591337D01*
X591587Y153091D01*
X589338Y153340D02*
Y151841D01*
X590088Y152591D01*
X589088D01*
X523335Y151841D02*
Y153340D01*
X522585D01*
X522335Y153091D01*
Y152091D01*
X522585Y151841D01*
X523335D01*
X521835Y153340D02*
X521336D01*
X521585D01*
Y151841D01*
X521835Y152091D01*
X520586Y153340D02*
Y153091D01*
X520336D01*
Y153340D01*
X520586D01*
X519336Y152091D02*
X519086Y151841D01*
X518586D01*
X518336Y152091D01*
Y152341D01*
X518586Y152591D01*
X518836D01*
X518586D01*
X518336Y152841D01*
Y153091D01*
X518586Y153340D01*
X519086D01*
X519336Y153091D01*
X517837Y153340D02*
Y153091D01*
X517587D01*
Y153340D01*
X517837D01*
X516587Y152091D02*
X516337Y151841D01*
X515837D01*
X515587Y152091D01*
Y152341D01*
X515837Y152591D01*
X516087D01*
X515837D01*
X515587Y152841D01*
Y153091D01*
X515837Y153340D01*
X516337D01*
X516587Y153091D01*
X514088Y151841D02*
X515088D01*
Y152591D01*
X514588Y152341D01*
X514338D01*
X514088Y152591D01*
Y153091D01*
X514338Y153340D01*
X514838D01*
X515088Y153091D01*
X448335Y151841D02*
Y153340D01*
X447585D01*
X447335Y153091D01*
Y152091D01*
X447585Y151841D01*
X448335D01*
X446835Y153340D02*
X446336D01*
X446585D01*
Y151841D01*
X446835Y152091D01*
X445586Y153340D02*
Y153091D01*
X445336D01*
Y153340D01*
X445586D01*
X444336Y152091D02*
X444086Y151841D01*
X443586D01*
X443336Y152091D01*
Y152341D01*
X443586Y152591D01*
X443836D01*
X443586D01*
X443336Y152841D01*
Y153091D01*
X443586Y153340D01*
X444086D01*
X444336Y153091D01*
X442837Y153340D02*
Y153091D01*
X442587D01*
Y153340D01*
X442837D01*
X441587Y152091D02*
X441337Y151841D01*
X440837D01*
X440587Y152091D01*
Y152341D01*
X440837Y152591D01*
X441087D01*
X440837D01*
X440587Y152841D01*
Y153091D01*
X440837Y153340D01*
X441337D01*
X441587Y153091D01*
X439088Y151841D02*
X439588Y152091D01*
X440088Y152591D01*
Y153091D01*
X439838Y153340D01*
X439338D01*
X439088Y153091D01*
Y152841D01*
X439338Y152591D01*
X440088D01*
X373335Y151841D02*
Y153340D01*
X372585D01*
X372335Y153091D01*
Y152091D01*
X372585Y151841D01*
X373335D01*
X371835Y153340D02*
X371336D01*
X371585D01*
Y151841D01*
X371835Y152091D01*
X370586Y153340D02*
Y153091D01*
X370336D01*
Y153340D01*
X370586D01*
X369336Y152091D02*
X369086Y151841D01*
X368586D01*
X368336Y152091D01*
Y152341D01*
X368586Y152591D01*
X368836D01*
X368586D01*
X368336Y152841D01*
Y153091D01*
X368586Y153340D01*
X369086D01*
X369336Y153091D01*
X367837Y153340D02*
Y153091D01*
X367587D01*
Y153340D01*
X367837D01*
X366587Y152091D02*
X366337Y151841D01*
X365837D01*
X365587Y152091D01*
Y152341D01*
X365837Y152591D01*
X366087D01*
X365837D01*
X365587Y152841D01*
Y153091D01*
X365837Y153340D01*
X366337D01*
X366587Y153091D01*
X365088Y151841D02*
X364088D01*
Y152091D01*
X365088Y153091D01*
Y153340D01*
X298335Y151841D02*
Y153340D01*
X297585D01*
X297335Y153091D01*
Y152091D01*
X297585Y151841D01*
X298335D01*
X296835Y153340D02*
X296336D01*
X296585D01*
Y151841D01*
X296835Y152091D01*
X295586Y153340D02*
Y153091D01*
X295336D01*
Y153340D01*
X295586D01*
X294336Y152091D02*
X294086Y151841D01*
X293586D01*
X293336Y152091D01*
Y152341D01*
X293586Y152591D01*
X293836D01*
X293586D01*
X293336Y152841D01*
Y153091D01*
X293586Y153340D01*
X294086D01*
X294336Y153091D01*
X292837Y153340D02*
Y153091D01*
X292587D01*
Y153340D01*
X292837D01*
X291587Y152091D02*
X291337Y151841D01*
X290837D01*
X290587Y152091D01*
Y152341D01*
X290837Y152591D01*
X291087D01*
X290837D01*
X290587Y152841D01*
Y153091D01*
X290837Y153340D01*
X291337D01*
X291587Y153091D01*
X290088Y152091D02*
X289838Y151841D01*
X289338D01*
X289088Y152091D01*
Y152341D01*
X289338Y152591D01*
X289088Y152841D01*
Y153091D01*
X289338Y153340D01*
X289838D01*
X290088Y153091D01*
Y152841D01*
X289838Y152591D01*
X290088Y152341D01*
Y152091D01*
X289838Y152591D02*
X289338D01*
X223335Y151841D02*
Y153340D01*
X222585D01*
X222335Y153091D01*
Y152091D01*
X222585Y151841D01*
X223335D01*
X221835Y153340D02*
X221336D01*
X221585D01*
Y151841D01*
X221835Y152091D01*
X220586Y153340D02*
Y153091D01*
X220336D01*
Y153340D01*
X220586D01*
X219336Y152091D02*
X219086Y151841D01*
X218586D01*
X218336Y152091D01*
Y152341D01*
X218586Y152591D01*
X218836D01*
X218586D01*
X218336Y152841D01*
Y153091D01*
X218586Y153340D01*
X219086D01*
X219336Y153091D01*
X217837Y153340D02*
Y153091D01*
X217587D01*
Y153340D01*
X217837D01*
X216587Y152091D02*
X216337Y151841D01*
X215837D01*
X215587Y152091D01*
Y152341D01*
X215837Y152591D01*
X216087D01*
X215837D01*
X215587Y152841D01*
Y153091D01*
X215837Y153340D01*
X216337D01*
X216587Y153091D01*
X215088D02*
X214838Y153340D01*
X214338D01*
X214088Y153091D01*
Y152091D01*
X214338Y151841D01*
X214838D01*
X215088Y152091D01*
Y152341D01*
X214838Y152591D01*
X214088D01*
X110835Y151841D02*
Y153340D01*
X110085D01*
X109835Y153091D01*
Y152091D01*
X110085Y151841D01*
X110835D01*
X109335Y153340D02*
X108835D01*
X109085D01*
Y151841D01*
X109335Y152091D01*
X108086Y153340D02*
Y153091D01*
X107836D01*
Y153340D01*
X108086D01*
X106836Y152091D02*
X106586Y151841D01*
X106086D01*
X105836Y152091D01*
Y152341D01*
X106086Y152591D01*
X106336D01*
X106086D01*
X105836Y152841D01*
Y153091D01*
X106086Y153340D01*
X106586D01*
X106836Y153091D01*
X105337Y153340D02*
Y153091D01*
X105087D01*
Y153340D01*
X105337D01*
X103337D02*
Y151841D01*
X104087Y152591D01*
X103087D01*
X102587Y152091D02*
X102338Y151841D01*
X101838D01*
X101588Y152091D01*
Y153091D01*
X101838Y153340D01*
X102338D01*
X102587Y153091D01*
Y152091D01*
X1057210Y226841D02*
Y228341D01*
X1056460D01*
X1056210Y228091D01*
Y227091D01*
X1056460Y226841D01*
X1057210D01*
X1055711Y228341D02*
X1055211D01*
X1055460D01*
Y226841D01*
X1055711Y227091D01*
X1054461Y228341D02*
Y228091D01*
X1054211D01*
Y228341D01*
X1054461D01*
X1053211Y227091D02*
X1052961Y226841D01*
X1052462D01*
X1052212Y227091D01*
Y227341D01*
X1052462Y227591D01*
X1052711D01*
X1052462D01*
X1052212Y227841D01*
Y228091D01*
X1052462Y228341D01*
X1052961D01*
X1053211Y228091D01*
X1051712Y228341D02*
Y228091D01*
X1051462D01*
Y228341D01*
X1051712D01*
X1049712D02*
Y226841D01*
X1050462Y227591D01*
X1049463D01*
X1048963Y228341D02*
X1048463D01*
X1048713D01*
Y226841D01*
X1048963Y227091D01*
X935835Y226841D02*
Y228341D01*
X935085D01*
X934835Y228091D01*
Y227091D01*
X935085Y226841D01*
X935835D01*
X934335Y228341D02*
X933836D01*
X934085D01*
Y226841D01*
X934335Y227091D01*
X933086Y228341D02*
Y228091D01*
X932836D01*
Y228341D01*
X933086D01*
X931836Y227091D02*
X931586Y226841D01*
X931086D01*
X930836Y227091D01*
Y227341D01*
X931086Y227591D01*
X931336D01*
X931086D01*
X930836Y227841D01*
Y228091D01*
X931086Y228341D01*
X931586D01*
X931836Y228091D01*
X930337Y228341D02*
Y228091D01*
X930087D01*
Y228341D01*
X930337D01*
X928337D02*
Y226841D01*
X929087Y227591D01*
X928087D01*
X926588Y228341D02*
X927588D01*
X926588Y227341D01*
Y227091D01*
X926838Y226841D01*
X927338D01*
X927588Y227091D01*
X860835Y226841D02*
Y228341D01*
X860085D01*
X859835Y228091D01*
Y227091D01*
X860085Y226841D01*
X860835D01*
X859335Y228341D02*
X858836D01*
X859085D01*
Y226841D01*
X859335Y227091D01*
X858086Y228341D02*
Y228091D01*
X857836D01*
Y228341D01*
X858086D01*
X856836Y227091D02*
X856586Y226841D01*
X856086D01*
X855836Y227091D01*
Y227341D01*
X856086Y227591D01*
X856336D01*
X856086D01*
X855836Y227841D01*
Y228091D01*
X856086Y228341D01*
X856586D01*
X856836Y228091D01*
X855337Y228341D02*
Y228091D01*
X855087D01*
Y228341D01*
X855337D01*
X853337D02*
Y226841D01*
X854087Y227591D01*
X853087D01*
X852588Y227091D02*
X852338Y226841D01*
X851838D01*
X851588Y227091D01*
Y227341D01*
X851838Y227591D01*
X852088D01*
X851838D01*
X851588Y227841D01*
Y228091D01*
X851838Y228341D01*
X852338D01*
X852588Y228091D01*
X785835Y226841D02*
Y228341D01*
X785085D01*
X784835Y228091D01*
Y227091D01*
X785085Y226841D01*
X785835D01*
X784335Y228341D02*
X783836D01*
X784085D01*
Y226841D01*
X784335Y227091D01*
X783086Y228341D02*
Y228091D01*
X782836D01*
Y228341D01*
X783086D01*
X781836Y227091D02*
X781586Y226841D01*
X781086D01*
X780836Y227091D01*
Y227341D01*
X781086Y227591D01*
X781336D01*
X781086D01*
X780836Y227841D01*
Y228091D01*
X781086Y228341D01*
X781586D01*
X781836Y228091D01*
X780337Y228341D02*
Y228091D01*
X780087D01*
Y228341D01*
X780337D01*
X778337D02*
Y226841D01*
X779087Y227591D01*
X778087D01*
X776838Y228341D02*
Y226841D01*
X777588Y227591D01*
X776588D01*
X710835Y226841D02*
Y228341D01*
X710085D01*
X709835Y228091D01*
Y227091D01*
X710085Y226841D01*
X710835D01*
X709335Y228341D02*
X708836D01*
X709085D01*
Y226841D01*
X709335Y227091D01*
X708086Y228341D02*
Y228091D01*
X707836D01*
Y228341D01*
X708086D01*
X706836Y227091D02*
X706586Y226841D01*
X706086D01*
X705836Y227091D01*
Y227341D01*
X706086Y227591D01*
X706336D01*
X706086D01*
X705836Y227841D01*
Y228091D01*
X706086Y228341D01*
X706586D01*
X706836Y228091D01*
X705337Y228341D02*
Y228091D01*
X705087D01*
Y228341D01*
X705337D01*
X703337D02*
Y226841D01*
X704087Y227591D01*
X703087D01*
X701588Y226841D02*
X702588D01*
Y227591D01*
X702088Y227341D01*
X701838D01*
X701588Y227591D01*
Y228091D01*
X701838Y228341D01*
X702338D01*
X702588Y228091D01*
X635835Y226841D02*
Y228341D01*
X635085D01*
X634835Y228091D01*
Y227091D01*
X635085Y226841D01*
X635835D01*
X634335Y228341D02*
X633836D01*
X634085D01*
Y226841D01*
X634335Y227091D01*
X633086Y228341D02*
Y228091D01*
X632836D01*
Y228341D01*
X633086D01*
X631836Y227091D02*
X631586Y226841D01*
X631086D01*
X630836Y227091D01*
Y227341D01*
X631086Y227591D01*
X631336D01*
X631086D01*
X630836Y227841D01*
Y228091D01*
X631086Y228341D01*
X631586D01*
X631836Y228091D01*
X630337Y228341D02*
Y228091D01*
X630087D01*
Y228341D01*
X630337D01*
X628337D02*
Y226841D01*
X629087Y227591D01*
X628087D01*
X626588Y226841D02*
X627088Y227091D01*
X627588Y227591D01*
Y228091D01*
X627338Y228341D01*
X626838D01*
X626588Y228091D01*
Y227841D01*
X626838Y227591D01*
X627588D01*
X560835Y226841D02*
Y228341D01*
X560085D01*
X559835Y228091D01*
Y227091D01*
X560085Y226841D01*
X560835D01*
X559335Y228341D02*
X558836D01*
X559085D01*
Y226841D01*
X559335Y227091D01*
X558086Y228341D02*
Y228091D01*
X557836D01*
Y228341D01*
X558086D01*
X556836Y227091D02*
X556586Y226841D01*
X556086D01*
X555836Y227091D01*
Y227341D01*
X556086Y227591D01*
X556336D01*
X556086D01*
X555836Y227841D01*
Y228091D01*
X556086Y228341D01*
X556586D01*
X556836Y228091D01*
X555337Y228341D02*
Y228091D01*
X555087D01*
Y228341D01*
X555337D01*
X553337D02*
Y226841D01*
X554087Y227591D01*
X553087D01*
X552588Y226841D02*
X551588D01*
Y227091D01*
X552588Y228091D01*
Y228341D01*
X485835Y226841D02*
Y228341D01*
X485085D01*
X484835Y228091D01*
Y227091D01*
X485085Y226841D01*
X485835D01*
X484335Y228341D02*
X483836D01*
X484085D01*
Y226841D01*
X484335Y227091D01*
X483086Y228341D02*
Y228091D01*
X482836D01*
Y228341D01*
X483086D01*
X481836Y227091D02*
X481586Y226841D01*
X481086D01*
X480836Y227091D01*
Y227341D01*
X481086Y227591D01*
X481336D01*
X481086D01*
X480836Y227841D01*
Y228091D01*
X481086Y228341D01*
X481586D01*
X481836Y228091D01*
X480337Y228341D02*
Y228091D01*
X480087D01*
Y228341D01*
X480337D01*
X478337D02*
Y226841D01*
X479087Y227591D01*
X478087D01*
X477588Y227091D02*
X477338Y226841D01*
X476838D01*
X476588Y227091D01*
Y227341D01*
X476838Y227591D01*
X476588Y227841D01*
Y228091D01*
X476838Y228341D01*
X477338D01*
X477588Y228091D01*
Y227841D01*
X477338Y227591D01*
X477588Y227341D01*
Y227091D01*
X477338Y227591D02*
X476838D01*
X410835Y226841D02*
Y228341D01*
X410085D01*
X409835Y228091D01*
Y227091D01*
X410085Y226841D01*
X410835D01*
X409335Y228341D02*
X408836D01*
X409085D01*
Y226841D01*
X409335Y227091D01*
X408086Y228341D02*
Y228091D01*
X407836D01*
Y228341D01*
X408086D01*
X406836Y227091D02*
X406586Y226841D01*
X406086D01*
X405836Y227091D01*
Y227341D01*
X406086Y227591D01*
X406336D01*
X406086D01*
X405836Y227841D01*
Y228091D01*
X406086Y228341D01*
X406586D01*
X406836Y228091D01*
X405337Y228341D02*
Y228091D01*
X405087D01*
Y228341D01*
X405337D01*
X403337D02*
Y226841D01*
X404087Y227591D01*
X403087D01*
X402588Y228091D02*
X402338Y228341D01*
X401838D01*
X401588Y228091D01*
Y227091D01*
X401838Y226841D01*
X402338D01*
X402588Y227091D01*
Y227341D01*
X402338Y227591D01*
X401588D01*
X335835Y226841D02*
Y228341D01*
X335085D01*
X334835Y228091D01*
Y227091D01*
X335085Y226841D01*
X335835D01*
X334335Y228341D02*
X333836D01*
X334085D01*
Y226841D01*
X334335Y227091D01*
X333086Y228341D02*
Y228091D01*
X332836D01*
Y228341D01*
X333086D01*
X331836Y227091D02*
X331586Y226841D01*
X331086D01*
X330836Y227091D01*
Y227341D01*
X331086Y227591D01*
X331336D01*
X331086D01*
X330836Y227841D01*
Y228091D01*
X331086Y228341D01*
X331586D01*
X331836Y228091D01*
X330337Y228341D02*
Y228091D01*
X330087D01*
Y228341D01*
X330337D01*
X328087Y226841D02*
X329087D01*
Y227591D01*
X328587Y227341D01*
X328337D01*
X328087Y227591D01*
Y228091D01*
X328337Y228341D01*
X328837D01*
X329087Y228091D01*
X327588Y227091D02*
X327338Y226841D01*
X326838D01*
X326588Y227091D01*
Y228091D01*
X326838Y228341D01*
X327338D01*
X327588Y228091D01*
Y227091D01*
X260335Y226841D02*
Y228341D01*
X259585D01*
X259335Y228091D01*
Y227091D01*
X259585Y226841D01*
X260335D01*
X258836Y228341D02*
X258336D01*
X258586D01*
Y226841D01*
X258836Y227091D01*
X257586Y228341D02*
Y228091D01*
X257336D01*
Y228341D01*
X257586D01*
X256336Y227091D02*
X256086Y226841D01*
X255587D01*
X255337Y227091D01*
Y227341D01*
X255587Y227591D01*
X255836D01*
X255587D01*
X255337Y227841D01*
Y228091D01*
X255587Y228341D01*
X256086D01*
X256336Y228091D01*
X254837Y228341D02*
Y228091D01*
X254587D01*
Y228341D01*
X254837D01*
X252588Y226841D02*
X253587D01*
Y227591D01*
X253087Y227341D01*
X252837D01*
X252588Y227591D01*
Y228091D01*
X252837Y228341D01*
X253337D01*
X253587Y228091D01*
X252088Y228341D02*
X251588D01*
X251838D01*
Y226841D01*
X252088Y227091D01*
X185835Y226841D02*
Y228341D01*
X185085D01*
X184835Y228091D01*
Y227091D01*
X185085Y226841D01*
X185835D01*
X184335Y228341D02*
X183835D01*
X184085D01*
Y226841D01*
X184335Y227091D01*
X183086Y228341D02*
Y228091D01*
X182836D01*
Y228341D01*
X183086D01*
X181836Y227091D02*
X181586Y226841D01*
X181086D01*
X180836Y227091D01*
Y227341D01*
X181086Y227591D01*
X181336D01*
X181086D01*
X180836Y227841D01*
Y228091D01*
X181086Y228341D01*
X181586D01*
X181836Y228091D01*
X180337Y228341D02*
Y228091D01*
X180087D01*
Y228341D01*
X180337D01*
X178087Y226841D02*
X179087D01*
Y227591D01*
X178587Y227341D01*
X178337D01*
X178087Y227591D01*
Y228091D01*
X178337Y228341D01*
X178837D01*
X179087Y228091D01*
X176588Y228341D02*
X177587D01*
X176588Y227341D01*
Y227091D01*
X176838Y226841D01*
X177338D01*
X177587Y227091D01*
X92085Y226841D02*
Y228341D01*
X91335D01*
X91085Y228091D01*
Y227091D01*
X91335Y226841D01*
X92085D01*
X90585Y228341D02*
X90086D01*
X90335D01*
Y226841D01*
X90585Y227091D01*
X89336Y228341D02*
Y228091D01*
X89086D01*
Y228341D01*
X89336D01*
X88086Y227091D02*
X87836Y226841D01*
X87336D01*
X87086Y227091D01*
Y227341D01*
X87336Y227591D01*
X87586D01*
X87336D01*
X87086Y227841D01*
Y228091D01*
X87336Y228341D01*
X87836D01*
X88086Y228091D01*
X86587Y228341D02*
Y228091D01*
X86337D01*
Y228341D01*
X86587D01*
X84337Y226841D02*
X85337D01*
Y227591D01*
X84837Y227341D01*
X84587D01*
X84337Y227591D01*
Y228091D01*
X84587Y228341D01*
X85087D01*
X85337Y228091D01*
X83837Y227091D02*
X83587Y226841D01*
X83088D01*
X82838Y227091D01*
Y227341D01*
X83088Y227591D01*
X83338D01*
X83088D01*
X82838Y227841D01*
Y228091D01*
X83088Y228341D01*
X83587D01*
X83837Y228091D01*
X1085835Y301841D02*
Y303341D01*
X1085085D01*
X1084835Y303091D01*
Y302091D01*
X1085085Y301841D01*
X1085835D01*
X1084335Y303341D02*
X1083836D01*
X1084085D01*
Y301841D01*
X1084335Y302091D01*
X1083086Y303341D02*
Y303091D01*
X1082836D01*
Y303341D01*
X1083086D01*
X1081836Y302091D02*
X1081586Y301841D01*
X1081086D01*
X1080836Y302091D01*
Y302341D01*
X1081086Y302591D01*
X1081336D01*
X1081086D01*
X1080836Y302841D01*
Y303091D01*
X1081086Y303341D01*
X1081586D01*
X1081836Y303091D01*
X1080337Y303341D02*
Y303091D01*
X1080087D01*
Y303341D01*
X1080337D01*
X1078087Y301841D02*
X1079087D01*
Y302591D01*
X1078587Y302341D01*
X1078337D01*
X1078087Y302591D01*
Y303091D01*
X1078337Y303341D01*
X1078837D01*
X1079087Y303091D01*
X1076838Y303341D02*
Y301841D01*
X1077588Y302591D01*
X1076588D01*
X992085Y301841D02*
Y303341D01*
X991335D01*
X991085Y303091D01*
Y302091D01*
X991335Y301841D01*
X992085D01*
X990585Y303341D02*
X990086D01*
X990335D01*
Y301841D01*
X990585Y302091D01*
X989336Y303341D02*
Y303091D01*
X989086D01*
Y303341D01*
X989336D01*
X988086Y302091D02*
X987836Y301841D01*
X987336D01*
X987086Y302091D01*
Y302341D01*
X987336Y302591D01*
X987586D01*
X987336D01*
X987086Y302841D01*
Y303091D01*
X987336Y303341D01*
X987836D01*
X988086Y303091D01*
X986587Y303341D02*
Y303091D01*
X986337D01*
Y303341D01*
X986587D01*
X984337Y301841D02*
X985337D01*
Y302591D01*
X984837Y302341D01*
X984587D01*
X984337Y302591D01*
Y303091D01*
X984587Y303341D01*
X985087D01*
X985337Y303091D01*
X982838Y301841D02*
X983838D01*
Y302591D01*
X983338Y302341D01*
X983088D01*
X982838Y302591D01*
Y303091D01*
X983088Y303341D01*
X983588D01*
X983838Y303091D01*
X917085Y301841D02*
Y303341D01*
X916335D01*
X916085Y303091D01*
Y302091D01*
X916335Y301841D01*
X917085D01*
X915585Y303341D02*
X915086D01*
X915335D01*
Y301841D01*
X915585Y302091D01*
X914336Y303341D02*
Y303091D01*
X914086D01*
Y303341D01*
X914336D01*
X913086Y302091D02*
X912836Y301841D01*
X912336D01*
X912086Y302091D01*
Y302341D01*
X912336Y302591D01*
X912586D01*
X912336D01*
X912086Y302841D01*
Y303091D01*
X912336Y303341D01*
X912836D01*
X913086Y303091D01*
X911587Y303341D02*
Y303091D01*
X911337D01*
Y303341D01*
X911587D01*
X909337Y301841D02*
X910337D01*
Y302591D01*
X909837Y302341D01*
X909587D01*
X909337Y302591D01*
Y303091D01*
X909587Y303341D01*
X910087D01*
X910337Y303091D01*
X907838Y301841D02*
X908338Y302091D01*
X908838Y302591D01*
Y303091D01*
X908588Y303341D01*
X908088D01*
X907838Y303091D01*
Y302841D01*
X908088Y302591D01*
X908838D01*
X842085Y301841D02*
Y303341D01*
X841335D01*
X841085Y303091D01*
Y302091D01*
X841335Y301841D01*
X842085D01*
X840585Y303341D02*
X840086D01*
X840335D01*
Y301841D01*
X840585Y302091D01*
X839336Y303341D02*
Y303091D01*
X839086D01*
Y303341D01*
X839336D01*
X838086Y302091D02*
X837836Y301841D01*
X837336D01*
X837086Y302091D01*
Y302341D01*
X837336Y302591D01*
X837586D01*
X837336D01*
X837086Y302841D01*
Y303091D01*
X837336Y303341D01*
X837836D01*
X838086Y303091D01*
X836587Y303341D02*
Y303091D01*
X836337D01*
Y303341D01*
X836587D01*
X834337Y301841D02*
X835337D01*
Y302591D01*
X834837Y302341D01*
X834587D01*
X834337Y302591D01*
Y303091D01*
X834587Y303341D01*
X835087D01*
X835337Y303091D01*
X833838Y301841D02*
X832838D01*
Y302091D01*
X833838Y303091D01*
Y303341D01*
X767085Y301841D02*
Y303341D01*
X766335D01*
X766085Y303091D01*
Y302091D01*
X766335Y301841D01*
X767085D01*
X765585Y303341D02*
X765086D01*
X765335D01*
Y301841D01*
X765585Y302091D01*
X764336Y303341D02*
Y303091D01*
X764086D01*
Y303341D01*
X764336D01*
X763086Y302091D02*
X762836Y301841D01*
X762336D01*
X762086Y302091D01*
Y302341D01*
X762336Y302591D01*
X762586D01*
X762336D01*
X762086Y302841D01*
Y303091D01*
X762336Y303341D01*
X762836D01*
X763086Y303091D01*
X761587Y303341D02*
Y303091D01*
X761337D01*
Y303341D01*
X761587D01*
X759337Y301841D02*
X760337D01*
Y302591D01*
X759837Y302341D01*
X759587D01*
X759337Y302591D01*
Y303091D01*
X759587Y303341D01*
X760087D01*
X760337Y303091D01*
X758838Y302091D02*
X758588Y301841D01*
X758088D01*
X757838Y302091D01*
Y302341D01*
X758088Y302591D01*
X757838Y302841D01*
Y303091D01*
X758088Y303341D01*
X758588D01*
X758838Y303091D01*
Y302841D01*
X758588Y302591D01*
X758838Y302341D01*
Y302091D01*
X758588Y302591D02*
X758088D01*
X692085Y301841D02*
Y303341D01*
X691335D01*
X691085Y303091D01*
Y302091D01*
X691335Y301841D01*
X692085D01*
X690585Y303341D02*
X690086D01*
X690335D01*
Y301841D01*
X690585Y302091D01*
X689336Y303341D02*
Y303091D01*
X689086D01*
Y303341D01*
X689336D01*
X688086Y302091D02*
X687836Y301841D01*
X687336D01*
X687086Y302091D01*
Y302341D01*
X687336Y302591D01*
X687586D01*
X687336D01*
X687086Y302841D01*
Y303091D01*
X687336Y303341D01*
X687836D01*
X688086Y303091D01*
X686587Y303341D02*
Y303091D01*
X686337D01*
Y303341D01*
X686587D01*
X684337Y301841D02*
X685337D01*
Y302591D01*
X684837Y302341D01*
X684587D01*
X684337Y302591D01*
Y303091D01*
X684587Y303341D01*
X685087D01*
X685337Y303091D01*
X683838D02*
X683588Y303341D01*
X683088D01*
X682838Y303091D01*
Y302091D01*
X683088Y301841D01*
X683588D01*
X683838Y302091D01*
Y302341D01*
X683588Y302591D01*
X682838D01*
X617085Y301841D02*
Y303341D01*
X616335D01*
X616085Y303091D01*
Y302091D01*
X616335Y301841D01*
X617085D01*
X615585Y303341D02*
X615086D01*
X615335D01*
Y301841D01*
X615585Y302091D01*
X614336Y303341D02*
Y303091D01*
X614086D01*
Y303341D01*
X614336D01*
X613086Y302091D02*
X612836Y301841D01*
X612336D01*
X612086Y302091D01*
Y302341D01*
X612336Y302591D01*
X612586D01*
X612336D01*
X612086Y302841D01*
Y303091D01*
X612336Y303341D01*
X612836D01*
X613086Y303091D01*
X611587Y303341D02*
Y303091D01*
X611337D01*
Y303341D01*
X611587D01*
X609337Y301841D02*
X609837Y302091D01*
X610337Y302591D01*
Y303091D01*
X610087Y303341D01*
X609587D01*
X609337Y303091D01*
Y302841D01*
X609587Y302591D01*
X610337D01*
X608838Y302091D02*
X608588Y301841D01*
X608088D01*
X607838Y302091D01*
Y303091D01*
X608088Y303341D01*
X608588D01*
X608838Y303091D01*
Y302091D01*
X541585Y301841D02*
Y303341D01*
X540835D01*
X540585Y303091D01*
Y302091D01*
X540835Y301841D01*
X541585D01*
X540086Y303341D02*
X539586D01*
X539836D01*
Y301841D01*
X540086Y302091D01*
X538836Y303341D02*
Y303091D01*
X538586D01*
Y303341D01*
X538836D01*
X537586Y302091D02*
X537336Y301841D01*
X536836D01*
X536587Y302091D01*
Y302341D01*
X536836Y302591D01*
X537086D01*
X536836D01*
X536587Y302841D01*
Y303091D01*
X536836Y303341D01*
X537336D01*
X537586Y303091D01*
X536087Y303341D02*
Y303091D01*
X535837D01*
Y303341D01*
X536087D01*
X533838Y301841D02*
X534337Y302091D01*
X534837Y302591D01*
Y303091D01*
X534587Y303341D01*
X534087D01*
X533838Y303091D01*
Y302841D01*
X534087Y302591D01*
X534837D01*
X533338Y303341D02*
X532838D01*
X533088D01*
Y301841D01*
X533338Y302091D01*
X467085Y301841D02*
Y303341D01*
X466335D01*
X466085Y303091D01*
Y302091D01*
X466335Y301841D01*
X467085D01*
X465585Y303341D02*
X465086D01*
X465335D01*
Y301841D01*
X465585Y302091D01*
X464336Y303341D02*
Y303091D01*
X464086D01*
Y303341D01*
X464336D01*
X463086Y302091D02*
X462836Y301841D01*
X462336D01*
X462086Y302091D01*
Y302341D01*
X462336Y302591D01*
X462586D01*
X462336D01*
X462086Y302841D01*
Y303091D01*
X462336Y303341D01*
X462836D01*
X463086Y303091D01*
X461587Y303341D02*
Y303091D01*
X461337D01*
Y303341D01*
X461587D01*
X459337Y301841D02*
X459837Y302091D01*
X460337Y302591D01*
Y303091D01*
X460087Y303341D01*
X459587D01*
X459337Y303091D01*
Y302841D01*
X459587Y302591D01*
X460337D01*
X457838Y303341D02*
X458838D01*
X457838Y302341D01*
Y302091D01*
X458088Y301841D01*
X458588D01*
X458838Y302091D01*
X392085Y301841D02*
Y303341D01*
X391335D01*
X391085Y303091D01*
Y302091D01*
X391335Y301841D01*
X392085D01*
X390585Y303341D02*
X390086D01*
X390335D01*
Y301841D01*
X390585Y302091D01*
X389336Y303341D02*
Y303091D01*
X389086D01*
Y303341D01*
X389336D01*
X388086Y302091D02*
X387836Y301841D01*
X387336D01*
X387086Y302091D01*
Y302341D01*
X387336Y302591D01*
X387586D01*
X387336D01*
X387086Y302841D01*
Y303091D01*
X387336Y303341D01*
X387836D01*
X388086Y303091D01*
X386587Y303341D02*
Y303091D01*
X386337D01*
Y303341D01*
X386587D01*
X384337Y301841D02*
X384837Y302091D01*
X385337Y302591D01*
Y303091D01*
X385087Y303341D01*
X384587D01*
X384337Y303091D01*
Y302841D01*
X384587Y302591D01*
X385337D01*
X383838Y302091D02*
X383588Y301841D01*
X383088D01*
X382838Y302091D01*
Y302341D01*
X383088Y302591D01*
X383338D01*
X383088D01*
X382838Y302841D01*
Y303091D01*
X383088Y303341D01*
X383588D01*
X383838Y303091D01*
X317085Y301841D02*
Y303341D01*
X316335D01*
X316085Y303091D01*
Y302091D01*
X316335Y301841D01*
X317085D01*
X315585Y303341D02*
X315086D01*
X315335D01*
Y301841D01*
X315585Y302091D01*
X314336Y303341D02*
Y303091D01*
X314086D01*
Y303341D01*
X314336D01*
X313086Y302091D02*
X312836Y301841D01*
X312336D01*
X312086Y302091D01*
Y302341D01*
X312336Y302591D01*
X312586D01*
X312336D01*
X312086Y302841D01*
Y303091D01*
X312336Y303341D01*
X312836D01*
X313086Y303091D01*
X311587Y303341D02*
Y303091D01*
X311337D01*
Y303341D01*
X311587D01*
X309337Y301841D02*
X309837Y302091D01*
X310337Y302591D01*
Y303091D01*
X310087Y303341D01*
X309587D01*
X309337Y303091D01*
Y302841D01*
X309587Y302591D01*
X310337D01*
X308088Y303341D02*
Y301841D01*
X308838Y302591D01*
X307838D01*
X242085Y301841D02*
Y303341D01*
X241335D01*
X241085Y303091D01*
Y302091D01*
X241335Y301841D01*
X242085D01*
X240585Y303341D02*
X240086D01*
X240335D01*
Y301841D01*
X240585Y302091D01*
X239336Y303341D02*
Y303091D01*
X239086D01*
Y303341D01*
X239336D01*
X238086Y302091D02*
X237836Y301841D01*
X237336D01*
X237086Y302091D01*
Y302341D01*
X237336Y302591D01*
X237586D01*
X237336D01*
X237086Y302841D01*
Y303091D01*
X237336Y303341D01*
X237836D01*
X238086Y303091D01*
X236587Y303341D02*
Y303091D01*
X236337D01*
Y303341D01*
X236587D01*
X234337Y301841D02*
X234837Y302091D01*
X235337Y302591D01*
Y303091D01*
X235087Y303341D01*
X234587D01*
X234337Y303091D01*
Y302841D01*
X234587Y302591D01*
X235337D01*
X232838Y301841D02*
X233838D01*
Y302591D01*
X233338Y302341D01*
X233088D01*
X232838Y302591D01*
Y303091D01*
X233088Y303341D01*
X233588D01*
X233838Y303091D01*
X167085Y301841D02*
Y303341D01*
X166335D01*
X166085Y303091D01*
Y302091D01*
X166335Y301841D01*
X167085D01*
X165585Y303341D02*
X165085D01*
X165335D01*
Y301841D01*
X165585Y302091D01*
X164336Y303341D02*
Y303091D01*
X164086D01*
Y303341D01*
X164336D01*
X163086Y302091D02*
X162836Y301841D01*
X162336D01*
X162086Y302091D01*
Y302341D01*
X162336Y302591D01*
X162586D01*
X162336D01*
X162086Y302841D01*
Y303091D01*
X162336Y303341D01*
X162836D01*
X163086Y303091D01*
X161587Y303341D02*
Y303091D01*
X161337D01*
Y303341D01*
X161587D01*
X159337Y301841D02*
X159837Y302091D01*
X160337Y302591D01*
Y303091D01*
X160087Y303341D01*
X159587D01*
X159337Y303091D01*
Y302841D01*
X159587Y302591D01*
X160337D01*
X157838Y301841D02*
X158338Y302091D01*
X158837Y302591D01*
Y303091D01*
X158588Y303341D01*
X158088D01*
X157838Y303091D01*
Y302841D01*
X158088Y302591D01*
X158837D01*
X73335Y301841D02*
Y303341D01*
X72585D01*
X72335Y303091D01*
Y302091D01*
X72585Y301841D01*
X73335D01*
X71835Y303341D02*
X71336D01*
X71585D01*
Y301841D01*
X71835Y302091D01*
X70586Y303341D02*
Y303091D01*
X70336D01*
Y303341D01*
X70586D01*
X69336Y302091D02*
X69086Y301841D01*
X68586D01*
X68336Y302091D01*
Y302341D01*
X68586Y302591D01*
X68836D01*
X68586D01*
X68336Y302841D01*
Y303091D01*
X68586Y303341D01*
X69086D01*
X69336Y303091D01*
X67837Y303341D02*
Y303091D01*
X67587D01*
Y303341D01*
X67837D01*
X65587Y301841D02*
X66087Y302091D01*
X66587Y302591D01*
Y303091D01*
X66337Y303341D01*
X65837D01*
X65587Y303091D01*
Y302841D01*
X65837Y302591D01*
X66587D01*
X65087Y301841D02*
X64088D01*
Y302091D01*
X65087Y303091D01*
Y303341D01*
X1404585Y376841D02*
Y378341D01*
X1403835D01*
X1403585Y378091D01*
Y377091D01*
X1403835Y376841D01*
X1404585D01*
X1403085Y378341D02*
X1402586D01*
X1402835D01*
Y376841D01*
X1403085Y377091D01*
X1401836Y378341D02*
Y378091D01*
X1401586D01*
Y378341D01*
X1401836D01*
X1400586Y377091D02*
X1400336Y376841D01*
X1399836D01*
X1399586Y377091D01*
Y377341D01*
X1399836Y377591D01*
X1400086D01*
X1399836D01*
X1399586Y377841D01*
Y378091D01*
X1399836Y378341D01*
X1400336D01*
X1400586Y378091D01*
X1399087Y378341D02*
Y378091D01*
X1398837D01*
Y378341D01*
X1399087D01*
X1396837Y376841D02*
X1397337Y377091D01*
X1397837Y377591D01*
Y378091D01*
X1397587Y378341D01*
X1397087D01*
X1396837Y378091D01*
Y377841D01*
X1397087Y377591D01*
X1397837D01*
X1396338Y377091D02*
X1396088Y376841D01*
X1395588D01*
X1395338Y377091D01*
Y377341D01*
X1395588Y377591D01*
X1395338Y377841D01*
Y378091D01*
X1395588Y378341D01*
X1396088D01*
X1396338Y378091D01*
Y377841D01*
X1396088Y377591D01*
X1396338Y377341D01*
Y377091D01*
X1396088Y377591D02*
X1395588D01*
X1329585Y376841D02*
Y378341D01*
X1328835D01*
X1328585Y378091D01*
Y377091D01*
X1328835Y376841D01*
X1329585D01*
X1328085Y378341D02*
X1327586D01*
X1327835D01*
Y376841D01*
X1328085Y377091D01*
X1326836Y378341D02*
Y378091D01*
X1326586D01*
Y378341D01*
X1326836D01*
X1325586Y377091D02*
X1325336Y376841D01*
X1324836D01*
X1324586Y377091D01*
Y377341D01*
X1324836Y377591D01*
X1325086D01*
X1324836D01*
X1324586Y377841D01*
Y378091D01*
X1324836Y378341D01*
X1325336D01*
X1325586Y378091D01*
X1324087Y378341D02*
Y378091D01*
X1323837D01*
Y378341D01*
X1324087D01*
X1321837Y376841D02*
X1322337Y377091D01*
X1322837Y377591D01*
Y378091D01*
X1322587Y378341D01*
X1322087D01*
X1321837Y378091D01*
Y377841D01*
X1322087Y377591D01*
X1322837D01*
X1321338Y378091D02*
X1321088Y378341D01*
X1320588D01*
X1320338Y378091D01*
Y377091D01*
X1320588Y376841D01*
X1321088D01*
X1321338Y377091D01*
Y377341D01*
X1321088Y377591D01*
X1320338D01*
X1253764Y376459D02*
Y377959D01*
X1253014D01*
X1252764Y377709D01*
Y376709D01*
X1253014Y376459D01*
X1253764D01*
X1252264Y377959D02*
X1251765D01*
X1252015D01*
Y376459D01*
X1252264Y376709D01*
X1251015Y377959D02*
Y377709D01*
X1250765D01*
Y377959D01*
X1251015D01*
X1249765Y376709D02*
X1249515Y376459D01*
X1249016D01*
X1248766Y376709D01*
Y376959D01*
X1249016Y377209D01*
X1249265D01*
X1249016D01*
X1248766Y377459D01*
Y377709D01*
X1249016Y377959D01*
X1249515D01*
X1249765Y377709D01*
X1248266Y377959D02*
Y377709D01*
X1248016D01*
Y377959D01*
X1248266D01*
X1247016Y376459D02*
X1246017D01*
Y376709D01*
X1247016Y377709D01*
Y377959D01*
X1245517Y376709D02*
X1245267Y376459D01*
X1244767D01*
X1244517Y376709D01*
Y377709D01*
X1244767Y377959D01*
X1245267D01*
X1245517Y377709D01*
Y376709D01*
X1067085Y376841D02*
Y378341D01*
X1066335D01*
X1066085Y378091D01*
Y377091D01*
X1066335Y376841D01*
X1067085D01*
X1065585Y378341D02*
X1065086D01*
X1065335D01*
Y376841D01*
X1065585Y377091D01*
X1064336Y378341D02*
Y378091D01*
X1064086D01*
Y378341D01*
X1064336D01*
X1063086Y377091D02*
X1062836Y376841D01*
X1062336D01*
X1062086Y377091D01*
Y377341D01*
X1062336Y377591D01*
X1062586D01*
X1062336D01*
X1062086Y377841D01*
Y378091D01*
X1062336Y378341D01*
X1062836D01*
X1063086Y378091D01*
X1061587Y378341D02*
Y378091D01*
X1061337D01*
Y378341D01*
X1061587D01*
X1060337Y376841D02*
X1059337D01*
Y377091D01*
X1060337Y378091D01*
Y378341D01*
X1057838D02*
X1058838D01*
X1057838Y377341D01*
Y377091D01*
X1058088Y376841D01*
X1058588D01*
X1058838Y377091D01*
X954585Y376841D02*
Y378341D01*
X953835D01*
X953585Y378091D01*
Y377091D01*
X953835Y376841D01*
X954585D01*
X953085Y378341D02*
X952586D01*
X952835D01*
Y376841D01*
X953085Y377091D01*
X951836Y378341D02*
Y378091D01*
X951586D01*
Y378341D01*
X951836D01*
X950586Y377091D02*
X950336Y376841D01*
X949836D01*
X949586Y377091D01*
Y377341D01*
X949836Y377591D01*
X950086D01*
X949836D01*
X949586Y377841D01*
Y378091D01*
X949836Y378341D01*
X950336D01*
X950586Y378091D01*
X949087Y378341D02*
Y378091D01*
X948837D01*
Y378341D01*
X949087D01*
X947837Y376841D02*
X946837D01*
Y377091D01*
X947837Y378091D01*
Y378341D01*
X946338Y377091D02*
X946088Y376841D01*
X945588D01*
X945338Y377091D01*
Y377341D01*
X945588Y377591D01*
X945838D01*
X945588D01*
X945338Y377841D01*
Y378091D01*
X945588Y378341D01*
X946088D01*
X946338Y378091D01*
X879585Y376841D02*
Y378341D01*
X878835D01*
X878585Y378091D01*
Y377091D01*
X878835Y376841D01*
X879585D01*
X878085Y378341D02*
X877586D01*
X877835D01*
Y376841D01*
X878085Y377091D01*
X876836Y378341D02*
Y378091D01*
X876586D01*
Y378341D01*
X876836D01*
X875586Y377091D02*
X875336Y376841D01*
X874836D01*
X874586Y377091D01*
Y377341D01*
X874836Y377591D01*
X875086D01*
X874836D01*
X874586Y377841D01*
Y378091D01*
X874836Y378341D01*
X875336D01*
X875586Y378091D01*
X874087Y378341D02*
Y378091D01*
X873837D01*
Y378341D01*
X874087D01*
X872837Y376841D02*
X871837D01*
Y377091D01*
X872837Y378091D01*
Y378341D01*
X870588D02*
Y376841D01*
X871338Y377591D01*
X870338D01*
X804585Y376841D02*
Y378341D01*
X803835D01*
X803585Y378091D01*
Y377091D01*
X803835Y376841D01*
X804585D01*
X803085Y378341D02*
X802586D01*
X802835D01*
Y376841D01*
X803085Y377091D01*
X801836Y378341D02*
Y378091D01*
X801586D01*
Y378341D01*
X801836D01*
X800586Y377091D02*
X800336Y376841D01*
X799836D01*
X799586Y377091D01*
Y377341D01*
X799836Y377591D01*
X800086D01*
X799836D01*
X799586Y377841D01*
Y378091D01*
X799836Y378341D01*
X800336D01*
X800586Y378091D01*
X799087Y378341D02*
Y378091D01*
X798837D01*
Y378341D01*
X799087D01*
X797837Y376841D02*
X796837D01*
Y377091D01*
X797837Y378091D01*
Y378341D01*
X795338Y376841D02*
X796338D01*
Y377591D01*
X795838Y377341D01*
X795588D01*
X795338Y377591D01*
Y378091D01*
X795588Y378341D01*
X796088D01*
X796338Y378091D01*
X729585Y376841D02*
Y378341D01*
X728835D01*
X728585Y378091D01*
Y377091D01*
X728835Y376841D01*
X729585D01*
X728085Y378341D02*
X727586D01*
X727835D01*
Y376841D01*
X728085Y377091D01*
X726836Y378341D02*
Y378091D01*
X726586D01*
Y378341D01*
X726836D01*
X725586Y377091D02*
X725336Y376841D01*
X724836D01*
X724586Y377091D01*
Y377341D01*
X724836Y377591D01*
X725086D01*
X724836D01*
X724586Y377841D01*
Y378091D01*
X724836Y378341D01*
X725336D01*
X725586Y378091D01*
X724087Y378341D02*
Y378091D01*
X723837D01*
Y378341D01*
X724087D01*
X722837Y376841D02*
X721837D01*
Y377091D01*
X722837Y378091D01*
Y378341D01*
X720338Y376841D02*
X720838Y377091D01*
X721338Y377591D01*
Y378091D01*
X721088Y378341D01*
X720588D01*
X720338Y378091D01*
Y377841D01*
X720588Y377591D01*
X721338D01*
X654585Y376841D02*
Y378341D01*
X653835D01*
X653585Y378091D01*
Y377091D01*
X653835Y376841D01*
X654585D01*
X653085Y378341D02*
X652586D01*
X652835D01*
Y376841D01*
X653085Y377091D01*
X651836Y378341D02*
Y378091D01*
X651586D01*
Y378341D01*
X651836D01*
X650586Y377091D02*
X650336Y376841D01*
X649836D01*
X649586Y377091D01*
Y377341D01*
X649836Y377591D01*
X650086D01*
X649836D01*
X649586Y377841D01*
Y378091D01*
X649836Y378341D01*
X650336D01*
X650586Y378091D01*
X649087Y378341D02*
Y378091D01*
X648837D01*
Y378341D01*
X649087D01*
X647837Y376841D02*
X646837D01*
Y377091D01*
X647837Y378091D01*
Y378341D01*
X646338Y376841D02*
X645338D01*
Y377091D01*
X646338Y378091D01*
Y378341D01*
X579585Y376841D02*
Y378341D01*
X578835D01*
X578585Y378091D01*
Y377091D01*
X578835Y376841D01*
X579585D01*
X578085Y378341D02*
X577586D01*
X577835D01*
Y376841D01*
X578085Y377091D01*
X576836Y378341D02*
Y378091D01*
X576586D01*
Y378341D01*
X576836D01*
X575586Y377091D02*
X575336Y376841D01*
X574836D01*
X574586Y377091D01*
Y377341D01*
X574836Y377591D01*
X575086D01*
X574836D01*
X574586Y377841D01*
Y378091D01*
X574836Y378341D01*
X575336D01*
X575586Y378091D01*
X574087Y378341D02*
Y378091D01*
X573837D01*
Y378341D01*
X574087D01*
X572837Y376841D02*
X571837D01*
Y377091D01*
X572837Y378091D01*
Y378341D01*
X571338Y377091D02*
X571088Y376841D01*
X570588D01*
X570338Y377091D01*
Y377341D01*
X570588Y377591D01*
X570338Y377841D01*
Y378091D01*
X570588Y378341D01*
X571088D01*
X571338Y378091D01*
Y377841D01*
X571088Y377591D01*
X571338Y377341D01*
Y377091D01*
X571088Y377591D02*
X570588D01*
X504585Y376841D02*
Y378341D01*
X503835D01*
X503585Y378091D01*
Y377091D01*
X503835Y376841D01*
X504585D01*
X503085Y378341D02*
X502586D01*
X502835D01*
Y376841D01*
X503085Y377091D01*
X501836Y378341D02*
Y378091D01*
X501586D01*
Y378341D01*
X501836D01*
X500586Y377091D02*
X500336Y376841D01*
X499836D01*
X499586Y377091D01*
Y377341D01*
X499836Y377591D01*
X500086D01*
X499836D01*
X499586Y377841D01*
Y378091D01*
X499836Y378341D01*
X500336D01*
X500586Y378091D01*
X499087Y378341D02*
Y378091D01*
X498837D01*
Y378341D01*
X499087D01*
X497837Y376841D02*
X496837D01*
Y377091D01*
X497837Y378091D01*
Y378341D01*
X496338Y378091D02*
X496088Y378341D01*
X495588D01*
X495338Y378091D01*
Y377091D01*
X495588Y376841D01*
X496088D01*
X496338Y377091D01*
Y377341D01*
X496088Y377591D01*
X495338D01*
X429585Y376841D02*
Y378341D01*
X428835D01*
X428585Y378091D01*
Y377091D01*
X428835Y376841D01*
X429585D01*
X428085Y378341D02*
X427586D01*
X427835D01*
Y376841D01*
X428085Y377091D01*
X426836Y378341D02*
Y378091D01*
X426586D01*
Y378341D01*
X426836D01*
X425586Y377091D02*
X425336Y376841D01*
X424836D01*
X424586Y377091D01*
Y377341D01*
X424836Y377591D01*
X425086D01*
X424836D01*
X424586Y377841D01*
Y378091D01*
X424836Y378341D01*
X425336D01*
X425586Y378091D01*
X424087Y378341D02*
Y378091D01*
X423837D01*
Y378341D01*
X424087D01*
X422837Y377091D02*
X422587Y376841D01*
X422087D01*
X421837Y377091D01*
Y377341D01*
X422087Y377591D01*
X421837Y377841D01*
Y378091D01*
X422087Y378341D01*
X422587D01*
X422837Y378091D01*
Y377841D01*
X422587Y377591D01*
X422837Y377341D01*
Y377091D01*
X422587Y377591D02*
X422087D01*
X421338Y377091D02*
X421088Y376841D01*
X420588D01*
X420338Y377091D01*
Y378091D01*
X420588Y378341D01*
X421088D01*
X421338Y378091D01*
Y377091D01*
X354085Y376841D02*
Y378341D01*
X353335D01*
X353085Y378091D01*
Y377091D01*
X353335Y376841D01*
X354085D01*
X352586Y378341D02*
X352086D01*
X352336D01*
Y376841D01*
X352586Y377091D01*
X351336Y378341D02*
Y378091D01*
X351086D01*
Y378341D01*
X351336D01*
X350086Y377091D02*
X349836Y376841D01*
X349337D01*
X349087Y377091D01*
Y377341D01*
X349337Y377591D01*
X349586D01*
X349337D01*
X349087Y377841D01*
Y378091D01*
X349337Y378341D01*
X349836D01*
X350086Y378091D01*
X348587Y378341D02*
Y378091D01*
X348337D01*
Y378341D01*
X348587D01*
X347337Y377091D02*
X347087Y376841D01*
X346587D01*
X346338Y377091D01*
Y377341D01*
X346587Y377591D01*
X346338Y377841D01*
Y378091D01*
X346587Y378341D01*
X347087D01*
X347337Y378091D01*
Y377841D01*
X347087Y377591D01*
X347337Y377341D01*
Y377091D01*
X347087Y377591D02*
X346587D01*
X345838Y378341D02*
X345338D01*
X345588D01*
Y376841D01*
X345838Y377091D01*
X279585Y376841D02*
Y378341D01*
X278835D01*
X278585Y378091D01*
Y377091D01*
X278835Y376841D01*
X279585D01*
X278085Y378341D02*
X277586D01*
X277835D01*
Y376841D01*
X278085Y377091D01*
X276836Y378341D02*
Y378091D01*
X276586D01*
Y378341D01*
X276836D01*
X275586Y377091D02*
X275336Y376841D01*
X274836D01*
X274586Y377091D01*
Y377341D01*
X274836Y377591D01*
X275086D01*
X274836D01*
X274586Y377841D01*
Y378091D01*
X274836Y378341D01*
X275336D01*
X275586Y378091D01*
X274087Y378341D02*
Y378091D01*
X273837D01*
Y378341D01*
X274087D01*
X272837Y377091D02*
X272587Y376841D01*
X272087D01*
X271837Y377091D01*
Y377341D01*
X272087Y377591D01*
X271837Y377841D01*
Y378091D01*
X272087Y378341D01*
X272587D01*
X272837Y378091D01*
Y377841D01*
X272587Y377591D01*
X272837Y377341D01*
Y377091D01*
X272587Y377591D02*
X272087D01*
X270338Y378341D02*
X271338D01*
X270338Y377341D01*
Y377091D01*
X270588Y376841D01*
X271088D01*
X271338Y377091D01*
X204585Y376841D02*
Y378341D01*
X203835D01*
X203585Y378091D01*
Y377091D01*
X203835Y376841D01*
X204585D01*
X203085Y378341D02*
X202586D01*
X202835D01*
Y376841D01*
X203085Y377091D01*
X201836Y378341D02*
Y378091D01*
X201586D01*
Y378341D01*
X201836D01*
X200586Y377091D02*
X200336Y376841D01*
X199836D01*
X199586Y377091D01*
Y377341D01*
X199836Y377591D01*
X200086D01*
X199836D01*
X199586Y377841D01*
Y378091D01*
X199836Y378341D01*
X200336D01*
X200586Y378091D01*
X199087Y378341D02*
Y378091D01*
X198837D01*
Y378341D01*
X199087D01*
X197837Y377091D02*
X197587Y376841D01*
X197087D01*
X196837Y377091D01*
Y377341D01*
X197087Y377591D01*
X196837Y377841D01*
Y378091D01*
X197087Y378341D01*
X197587D01*
X197837Y378091D01*
Y377841D01*
X197587Y377591D01*
X197837Y377341D01*
Y377091D01*
X197587Y377591D02*
X197087D01*
X196337Y377091D02*
X196088Y376841D01*
X195588D01*
X195338Y377091D01*
Y377341D01*
X195588Y377591D01*
X195838D01*
X195588D01*
X195338Y377841D01*
Y378091D01*
X195588Y378341D01*
X196088D01*
X196337Y378091D01*
X129585Y376841D02*
Y378341D01*
X128835D01*
X128585Y378091D01*
Y377091D01*
X128835Y376841D01*
X129585D01*
X128085Y378341D02*
X127585D01*
X127835D01*
Y376841D01*
X128085Y377091D01*
X126836Y378341D02*
Y378091D01*
X126586D01*
Y378341D01*
X126836D01*
X125586Y377091D02*
X125336Y376841D01*
X124836D01*
X124586Y377091D01*
Y377341D01*
X124836Y377591D01*
X125086D01*
X124836D01*
X124586Y377841D01*
Y378091D01*
X124836Y378341D01*
X125336D01*
X125586Y378091D01*
X124087Y378341D02*
Y378091D01*
X123837D01*
Y378341D01*
X124087D01*
X122837Y377091D02*
X122587Y376841D01*
X122087D01*
X121837Y377091D01*
Y377341D01*
X122087Y377591D01*
X121837Y377841D01*
Y378091D01*
X122087Y378341D01*
X122587D01*
X122837Y378091D01*
Y377841D01*
X122587Y377591D01*
X122837Y377341D01*
Y377091D01*
X122587Y377591D02*
X122087D01*
X120588Y378341D02*
Y376841D01*
X121337Y377591D01*
X120338D01*
X1421466Y57090D02*
X1421216Y57340D01*
X1420716D01*
X1420467Y57090D01*
Y56840D01*
X1420716Y56590D01*
X1421216D01*
X1421466Y56340D01*
Y56090D01*
X1421216Y55840D01*
X1420716D01*
X1420467Y56090D01*
X1421966Y55840D02*
X1422466D01*
X1422216D01*
Y57340D01*
X1421966Y57090D01*
X1423216Y55840D02*
Y56090D01*
X1423466D01*
Y55840D01*
X1423216D01*
X1424465Y57090D02*
X1424715Y57340D01*
X1425215D01*
X1425465Y57090D01*
Y56840D01*
X1425215Y56590D01*
X1424965D01*
X1425215D01*
X1425465Y56340D01*
Y56090D01*
X1425215Y55840D01*
X1424715D01*
X1424465Y56090D01*
X1425965Y55840D02*
Y56090D01*
X1426215D01*
Y55840D01*
X1425965D01*
X1427214D02*
X1427714D01*
X1427464D01*
Y57340D01*
X1427214Y57090D01*
X1346466Y82090D02*
X1346216Y82340D01*
X1345716D01*
X1345467Y82090D01*
Y81840D01*
X1345716Y81590D01*
X1346216D01*
X1346466Y81340D01*
Y81090D01*
X1346216Y80840D01*
X1345716D01*
X1345467Y81090D01*
X1346966Y80840D02*
X1347466D01*
X1347216D01*
Y82340D01*
X1346966Y82090D01*
X1348216Y80840D02*
Y81090D01*
X1348466D01*
Y80840D01*
X1348216D01*
X1349465Y82090D02*
X1349715Y82340D01*
X1350215D01*
X1350465Y82090D01*
Y81840D01*
X1350215Y81590D01*
X1349965D01*
X1350215D01*
X1350465Y81340D01*
Y81090D01*
X1350215Y80840D01*
X1349715D01*
X1349465Y81090D01*
X1350965Y80840D02*
Y81090D01*
X1351215D01*
Y80840D01*
X1350965D01*
X1353214D02*
X1352214D01*
X1353214Y81840D01*
Y82090D01*
X1352964Y82340D01*
X1352464D01*
X1352214Y82090D01*
X1271466D02*
X1271216Y82340D01*
X1270716D01*
X1270467Y82090D01*
Y81840D01*
X1270716Y81590D01*
X1271216D01*
X1271466Y81340D01*
Y81090D01*
X1271216Y80840D01*
X1270716D01*
X1270467Y81090D01*
X1271966Y80840D02*
X1272466D01*
X1272216D01*
Y82340D01*
X1271966Y82090D01*
X1273216Y80840D02*
Y81090D01*
X1273466D01*
Y80840D01*
X1273216D01*
X1274465Y82090D02*
X1274715Y82340D01*
X1275215D01*
X1275465Y82090D01*
Y81840D01*
X1275215Y81590D01*
X1274965D01*
X1275215D01*
X1275465Y81340D01*
Y81090D01*
X1275215Y80840D01*
X1274715D01*
X1274465Y81090D01*
X1275965Y80840D02*
Y81090D01*
X1276215D01*
Y80840D01*
X1275965D01*
X1277214Y82090D02*
X1277464Y82340D01*
X1277964D01*
X1278214Y82090D01*
Y81840D01*
X1277964Y81590D01*
X1277714D01*
X1277964D01*
X1278214Y81340D01*
Y81090D01*
X1277964Y80840D01*
X1277464D01*
X1277214Y81090D01*
X1346466Y94590D02*
X1346216Y94840D01*
X1345716D01*
X1345467Y94590D01*
Y94340D01*
X1345716Y94090D01*
X1346216D01*
X1346466Y93840D01*
Y93590D01*
X1346216Y93340D01*
X1345716D01*
X1345467Y93590D01*
X1346966Y93340D02*
X1347466D01*
X1347216D01*
Y94840D01*
X1346966Y94590D01*
X1348216Y93340D02*
Y93590D01*
X1348466D01*
Y93340D01*
X1348216D01*
X1349465Y94590D02*
X1349715Y94840D01*
X1350215D01*
X1350465Y94590D01*
Y94340D01*
X1350215Y94090D01*
X1349965D01*
X1350215D01*
X1350465Y93840D01*
Y93590D01*
X1350215Y93340D01*
X1349715D01*
X1349465Y93590D01*
X1350965Y93340D02*
Y93590D01*
X1351215D01*
Y93340D01*
X1350965D01*
X1352964D02*
Y94840D01*
X1352214Y94090D01*
X1353214D01*
X1271466Y94590D02*
X1271216Y94840D01*
X1270716D01*
X1270467Y94590D01*
Y94340D01*
X1270716Y94090D01*
X1271216D01*
X1271466Y93840D01*
Y93590D01*
X1271216Y93340D01*
X1270716D01*
X1270467Y93590D01*
X1271966Y93340D02*
X1272466D01*
X1272216D01*
Y94840D01*
X1271966Y94590D01*
X1273216Y93340D02*
Y93590D01*
X1273466D01*
Y93340D01*
X1273216D01*
X1274465Y94590D02*
X1274715Y94840D01*
X1275215D01*
X1275465Y94590D01*
Y94340D01*
X1275215Y94090D01*
X1274965D01*
X1275215D01*
X1275465Y93840D01*
Y93590D01*
X1275215Y93340D01*
X1274715D01*
X1274465Y93590D01*
X1275965Y93340D02*
Y93590D01*
X1276215D01*
Y93340D01*
X1275965D01*
X1278214Y94840D02*
X1277214D01*
Y94090D01*
X1277714Y94340D01*
X1277964D01*
X1278214Y94090D01*
Y93590D01*
X1277964Y93340D01*
X1277464D01*
X1277214Y93590D01*
X1196466Y94590D02*
X1196216Y94840D01*
X1195716D01*
X1195467Y94590D01*
Y94340D01*
X1195716Y94090D01*
X1196216D01*
X1196466Y93840D01*
Y93590D01*
X1196216Y93340D01*
X1195716D01*
X1195467Y93590D01*
X1196966Y93340D02*
X1197466D01*
X1197216D01*
Y94840D01*
X1196966Y94590D01*
X1198216Y93340D02*
Y93590D01*
X1198466D01*
Y93340D01*
X1198216D01*
X1199465Y94590D02*
X1199715Y94840D01*
X1200215D01*
X1200465Y94590D01*
Y94340D01*
X1200215Y94090D01*
X1199965D01*
X1200215D01*
X1200465Y93840D01*
Y93590D01*
X1200215Y93340D01*
X1199715D01*
X1199465Y93590D01*
X1200965Y93340D02*
Y93590D01*
X1201215D01*
Y93340D01*
X1200965D01*
X1203214Y94840D02*
X1202714Y94590D01*
X1202214Y94090D01*
Y93590D01*
X1202464Y93340D01*
X1202964D01*
X1203214Y93590D01*
Y93840D01*
X1202964Y94090D01*
X1202214D01*
X1421466Y207090D02*
X1421216Y207340D01*
X1420716D01*
X1420467Y207090D01*
Y206840D01*
X1420716Y206590D01*
X1421216D01*
X1421466Y206340D01*
Y206090D01*
X1421216Y205840D01*
X1420716D01*
X1420467Y206090D01*
X1421966Y205840D02*
X1422466D01*
X1422216D01*
Y207340D01*
X1421966Y207090D01*
X1423216Y205840D02*
Y206090D01*
X1423466D01*
Y205840D01*
X1423216D01*
X1424465Y207090D02*
X1424715Y207340D01*
X1425215D01*
X1425465Y207090D01*
Y206840D01*
X1425215Y206590D01*
X1424965D01*
X1425215D01*
X1425465Y206340D01*
Y206090D01*
X1425215Y205840D01*
X1424715D01*
X1424465Y206090D01*
X1425965Y205840D02*
Y206090D01*
X1426215D01*
Y205840D01*
X1425965D01*
X1427214Y207340D02*
X1428214D01*
Y207090D01*
X1427214Y206090D01*
Y205840D01*
X1346466Y169590D02*
X1346216Y169840D01*
X1345716D01*
X1345467Y169590D01*
Y169340D01*
X1345716Y169090D01*
X1346216D01*
X1346466Y168840D01*
Y168590D01*
X1346216Y168341D01*
X1345716D01*
X1345467Y168590D01*
X1346966Y168341D02*
X1347466D01*
X1347216D01*
Y169840D01*
X1346966Y169590D01*
X1348216Y168341D02*
Y168590D01*
X1348466D01*
Y168341D01*
X1348216D01*
X1349465Y169590D02*
X1349715Y169840D01*
X1350215D01*
X1350465Y169590D01*
Y169340D01*
X1350215Y169090D01*
X1349965D01*
X1350215D01*
X1350465Y168840D01*
Y168590D01*
X1350215Y168341D01*
X1349715D01*
X1349465Y168590D01*
X1350965Y168341D02*
Y168590D01*
X1351215D01*
Y168341D01*
X1350965D01*
X1352214Y169590D02*
X1352464Y169840D01*
X1352964D01*
X1353214Y169590D01*
Y169340D01*
X1352964Y169090D01*
X1353214Y168840D01*
Y168590D01*
X1352964Y168341D01*
X1352464D01*
X1352214Y168590D01*
Y168840D01*
X1352464Y169090D01*
X1352214Y169340D01*
Y169590D01*
X1352464Y169090D02*
X1352964D01*
X1271466Y169590D02*
X1271216Y169840D01*
X1270716D01*
X1270467Y169590D01*
Y169340D01*
X1270716Y169090D01*
X1271216D01*
X1271466Y168840D01*
Y168590D01*
X1271216Y168341D01*
X1270716D01*
X1270467Y168590D01*
X1271966Y168341D02*
X1272466D01*
X1272216D01*
Y169840D01*
X1271966Y169590D01*
X1273216Y168341D02*
Y168590D01*
X1273466D01*
Y168341D01*
X1273216D01*
X1274465Y169590D02*
X1274715Y169840D01*
X1275215D01*
X1275465Y169590D01*
Y169340D01*
X1275215Y169090D01*
X1274965D01*
X1275215D01*
X1275465Y168840D01*
Y168590D01*
X1275215Y168341D01*
X1274715D01*
X1274465Y168590D01*
X1275965Y168341D02*
Y168590D01*
X1276215D01*
Y168341D01*
X1275965D01*
X1277214Y168590D02*
X1277464Y168341D01*
X1277964D01*
X1278214Y168590D01*
Y169590D01*
X1277964Y169840D01*
X1277464D01*
X1277214Y169590D01*
Y169340D01*
X1277464Y169090D01*
X1278214D01*
X1196466Y169590D02*
X1196216Y169840D01*
X1195716D01*
X1195467Y169590D01*
Y169340D01*
X1195716Y169090D01*
X1196216D01*
X1196466Y168840D01*
Y168590D01*
X1196216Y168341D01*
X1195716D01*
X1195467Y168590D01*
X1196966Y168341D02*
X1197466D01*
X1197216D01*
Y169840D01*
X1196966Y169590D01*
X1198216Y168341D02*
Y168590D01*
X1198466D01*
Y168341D01*
X1198216D01*
X1199465Y169590D02*
X1199715Y169840D01*
X1200215D01*
X1200465Y169590D01*
Y169340D01*
X1200215Y169090D01*
X1199965D01*
X1200215D01*
X1200465Y168840D01*
Y168590D01*
X1200215Y168341D01*
X1199715D01*
X1199465Y168590D01*
X1200965Y168341D02*
Y168590D01*
X1201215D01*
Y168341D01*
X1200965D01*
X1202214D02*
X1202714D01*
X1202464D01*
Y169840D01*
X1202214Y169590D01*
X1203464D02*
X1203714Y169840D01*
X1204214D01*
X1204464Y169590D01*
Y168590D01*
X1204214Y168341D01*
X1203714D01*
X1203464Y168590D01*
Y169590D01*
X1346466Y244590D02*
X1346216Y244840D01*
X1345716D01*
X1345467Y244590D01*
Y244340D01*
X1345716Y244090D01*
X1346216D01*
X1346466Y243840D01*
Y243590D01*
X1346216Y243340D01*
X1345716D01*
X1345467Y243590D01*
X1346966Y243340D02*
X1347466D01*
X1347216D01*
Y244840D01*
X1346966Y244590D01*
X1348216Y243340D02*
Y243590D01*
X1348466D01*
Y243340D01*
X1348216D01*
X1349465Y244590D02*
X1349715Y244840D01*
X1350215D01*
X1350465Y244590D01*
Y244340D01*
X1350215Y244090D01*
X1349965D01*
X1350215D01*
X1350465Y243840D01*
Y243590D01*
X1350215Y243340D01*
X1349715D01*
X1349465Y243590D01*
X1350965Y243340D02*
Y243590D01*
X1351215D01*
Y243340D01*
X1350965D01*
X1352214D02*
X1352714D01*
X1352464D01*
Y244840D01*
X1352214Y244590D01*
X1353464Y243340D02*
X1353964D01*
X1353714D01*
Y244840D01*
X1353464Y244590D01*
X1271466D02*
X1271216Y244840D01*
X1270716D01*
X1270467Y244590D01*
Y244340D01*
X1270716Y244090D01*
X1271216D01*
X1271466Y243840D01*
Y243590D01*
X1271216Y243340D01*
X1270716D01*
X1270467Y243590D01*
X1271966Y243340D02*
X1272466D01*
X1272216D01*
Y244840D01*
X1271966Y244590D01*
X1273216Y243340D02*
Y243590D01*
X1273466D01*
Y243340D01*
X1273216D01*
X1274465Y244590D02*
X1274715Y244840D01*
X1275215D01*
X1275465Y244590D01*
Y244340D01*
X1275215Y244090D01*
X1274965D01*
X1275215D01*
X1275465Y243840D01*
Y243590D01*
X1275215Y243340D01*
X1274715D01*
X1274465Y243590D01*
X1275965Y243340D02*
Y243590D01*
X1276215D01*
Y243340D01*
X1275965D01*
X1277214D02*
X1277714D01*
X1277464D01*
Y244840D01*
X1277214Y244590D01*
X1279464Y243340D02*
X1278464D01*
X1279464Y244340D01*
Y244590D01*
X1279214Y244840D01*
X1278714D01*
X1278464Y244590D01*
X1196466D02*
X1196216Y244840D01*
X1195716D01*
X1195467Y244590D01*
Y244340D01*
X1195716Y244090D01*
X1196216D01*
X1196466Y243840D01*
Y243590D01*
X1196216Y243340D01*
X1195716D01*
X1195467Y243590D01*
X1196966Y243340D02*
X1197466D01*
X1197216D01*
Y244840D01*
X1196966Y244590D01*
X1198216Y243340D02*
Y243590D01*
X1198466D01*
Y243340D01*
X1198216D01*
X1199465Y244590D02*
X1199715Y244840D01*
X1200215D01*
X1200465Y244590D01*
Y244340D01*
X1200215Y244090D01*
X1199965D01*
X1200215D01*
X1200465Y243840D01*
Y243590D01*
X1200215Y243340D01*
X1199715D01*
X1199465Y243590D01*
X1200965Y243340D02*
Y243590D01*
X1201215D01*
Y243340D01*
X1200965D01*
X1202214D02*
X1202714D01*
X1202464D01*
Y244840D01*
X1202214Y244590D01*
X1203464D02*
X1203714Y244840D01*
X1204214D01*
X1204464Y244590D01*
Y244340D01*
X1204214Y244090D01*
X1203964D01*
X1204214D01*
X1204464Y243840D01*
Y243590D01*
X1204214Y243340D01*
X1203714D01*
X1203464Y243590D01*
X1121466Y94590D02*
X1121216Y94840D01*
X1120716D01*
X1120467Y94590D01*
Y94340D01*
X1120716Y94090D01*
X1121216D01*
X1121466Y93840D01*
Y93590D01*
X1121216Y93340D01*
X1120716D01*
X1120467Y93590D01*
X1121966Y93340D02*
X1122466D01*
X1122216D01*
Y94840D01*
X1121966Y94590D01*
X1123216Y93340D02*
Y93590D01*
X1123466D01*
Y93340D01*
X1123216D01*
X1124465Y94590D02*
X1124715Y94840D01*
X1125215D01*
X1125465Y94590D01*
Y94340D01*
X1125215Y94090D01*
X1124965D01*
X1125215D01*
X1125465Y93840D01*
Y93590D01*
X1125215Y93340D01*
X1124715D01*
X1124465Y93590D01*
X1125965Y93340D02*
Y93590D01*
X1126215D01*
Y93340D01*
X1125965D01*
X1127214D02*
X1127714D01*
X1127464D01*
Y94840D01*
X1127214Y94590D01*
X1129214Y93340D02*
Y94840D01*
X1128464Y94090D01*
X1129464D01*
X1196466Y82090D02*
X1196216Y82340D01*
X1195716D01*
X1195467Y82090D01*
Y81840D01*
X1195716Y81590D01*
X1196216D01*
X1196466Y81340D01*
Y81090D01*
X1196216Y80840D01*
X1195716D01*
X1195467Y81090D01*
X1196966Y80840D02*
X1197466D01*
X1197216D01*
Y82340D01*
X1196966Y82090D01*
X1198216Y80840D02*
Y81090D01*
X1198466D01*
Y80840D01*
X1198216D01*
X1199465Y82090D02*
X1199715Y82340D01*
X1200215D01*
X1200465Y82090D01*
Y81840D01*
X1200215Y81590D01*
X1199965D01*
X1200215D01*
X1200465Y81340D01*
Y81090D01*
X1200215Y80840D01*
X1199715D01*
X1199465Y81090D01*
X1200965Y80840D02*
Y81090D01*
X1201215D01*
Y80840D01*
X1200965D01*
X1202214D02*
X1202714D01*
X1202464D01*
Y82340D01*
X1202214Y82090D01*
X1204464Y82340D02*
X1203464D01*
Y81590D01*
X1203964Y81840D01*
X1204214D01*
X1204464Y81590D01*
Y81090D01*
X1204214Y80840D01*
X1203714D01*
X1203464Y81090D01*
X1121466Y82090D02*
X1121216Y82340D01*
X1120716D01*
X1120467Y82090D01*
Y81840D01*
X1120716Y81590D01*
X1121216D01*
X1121466Y81340D01*
Y81090D01*
X1121216Y80840D01*
X1120716D01*
X1120467Y81090D01*
X1121966Y80840D02*
X1122466D01*
X1122216D01*
Y82340D01*
X1121966Y82090D01*
X1123216Y80840D02*
Y81090D01*
X1123466D01*
Y80840D01*
X1123216D01*
X1124465Y82090D02*
X1124715Y82340D01*
X1125215D01*
X1125465Y82090D01*
Y81840D01*
X1125215Y81590D01*
X1124965D01*
X1125215D01*
X1125465Y81340D01*
Y81090D01*
X1125215Y80840D01*
X1124715D01*
X1124465Y81090D01*
X1125965Y80840D02*
Y81090D01*
X1126215D01*
Y80840D01*
X1125965D01*
X1127214D02*
X1127714D01*
X1127464D01*
Y82340D01*
X1127214Y82090D01*
X1129464Y82340D02*
X1128964Y82090D01*
X1128464Y81590D01*
Y81090D01*
X1128714Y80840D01*
X1129214D01*
X1129464Y81090D01*
Y81340D01*
X1129214Y81590D01*
X1128464D01*
X962091Y82090D02*
X961841Y82340D01*
X961341D01*
X961092Y82090D01*
Y81840D01*
X961341Y81590D01*
X961841D01*
X962091Y81340D01*
Y81090D01*
X961841Y80840D01*
X961341D01*
X961092Y81090D01*
X962591Y80840D02*
X963091D01*
X962841D01*
Y82340D01*
X962591Y82090D01*
X963841Y80840D02*
Y81090D01*
X964091D01*
Y80840D01*
X963841D01*
X965090Y82090D02*
X965340Y82340D01*
X965840D01*
X966090Y82090D01*
Y81840D01*
X965840Y81590D01*
X965590D01*
X965840D01*
X966090Y81340D01*
Y81090D01*
X965840Y80840D01*
X965340D01*
X965090Y81090D01*
X966590Y80840D02*
Y81090D01*
X966840D01*
Y80840D01*
X966590D01*
X967839D02*
X968339D01*
X968089D01*
Y82340D01*
X967839Y82090D01*
X969089D02*
X969339Y82340D01*
X969839D01*
X970089Y82090D01*
Y81840D01*
X969839Y81590D01*
X970089Y81340D01*
Y81090D01*
X969839Y80840D01*
X969339D01*
X969089Y81090D01*
Y81340D01*
X969339Y81590D01*
X969089Y81840D01*
Y82090D01*
X969339Y81590D02*
X969839D01*
X765216Y82090D02*
X764966Y82340D01*
X764466D01*
X764217Y82090D01*
Y81840D01*
X764466Y81590D01*
X764966D01*
X765216Y81340D01*
Y81090D01*
X764966Y80840D01*
X764466D01*
X764217Y81090D01*
X765716Y80840D02*
X766216D01*
X765966D01*
Y82340D01*
X765716Y82090D01*
X766966Y80840D02*
Y81090D01*
X767216D01*
Y80840D01*
X766966D01*
X768215Y82090D02*
X768465Y82340D01*
X768965D01*
X769215Y82090D01*
Y81840D01*
X768965Y81590D01*
X768715D01*
X768965D01*
X769215Y81340D01*
Y81090D01*
X768965Y80840D01*
X768465D01*
X768215Y81090D01*
X769715Y80840D02*
Y81090D01*
X769965D01*
Y80840D01*
X769715D01*
X771964D02*
X770964D01*
X771964Y81840D01*
Y82090D01*
X771714Y82340D01*
X771214D01*
X770964Y82090D01*
X772464D02*
X772714Y82340D01*
X773214D01*
X773464Y82090D01*
Y81090D01*
X773214Y80840D01*
X772714D01*
X772464Y81090D01*
Y82090D01*
X671466D02*
X671216Y82340D01*
X670716D01*
X670467Y82090D01*
Y81840D01*
X670716Y81590D01*
X671216D01*
X671466Y81340D01*
Y81090D01*
X671216Y80840D01*
X670716D01*
X670467Y81090D01*
X671966Y80840D02*
X672466D01*
X672216D01*
Y82340D01*
X671966Y82090D01*
X673216Y80840D02*
Y81090D01*
X673466D01*
Y80840D01*
X673216D01*
X674465Y82090D02*
X674715Y82340D01*
X675215D01*
X675465Y82090D01*
Y81840D01*
X675215Y81590D01*
X674965D01*
X675215D01*
X675465Y81340D01*
Y81090D01*
X675215Y80840D01*
X674715D01*
X674465Y81090D01*
X675965Y80840D02*
Y81090D01*
X676215D01*
Y80840D01*
X675965D01*
X678214D02*
X677214D01*
X678214Y81840D01*
Y82090D01*
X677964Y82340D01*
X677464D01*
X677214Y82090D01*
X678714Y80840D02*
X679214D01*
X678964D01*
Y82340D01*
X678714Y82090D01*
X577716D02*
X577466Y82340D01*
X576966D01*
X576717Y82090D01*
Y81840D01*
X576966Y81590D01*
X577466D01*
X577716Y81340D01*
Y81090D01*
X577466Y80840D01*
X576966D01*
X576717Y81090D01*
X578216Y80840D02*
X578716D01*
X578466D01*
Y82340D01*
X578216Y82090D01*
X579466Y80840D02*
Y81090D01*
X579716D01*
Y80840D01*
X579466D01*
X580715Y82090D02*
X580965Y82340D01*
X581465D01*
X581715Y82090D01*
Y81840D01*
X581465Y81590D01*
X581215D01*
X581465D01*
X581715Y81340D01*
Y81090D01*
X581465Y80840D01*
X580965D01*
X580715Y81090D01*
X582215Y80840D02*
Y81090D01*
X582465D01*
Y80840D01*
X582215D01*
X584464D02*
X583464D01*
X584464Y81840D01*
Y82090D01*
X584214Y82340D01*
X583714D01*
X583464Y82090D01*
X585964Y80840D02*
X584964D01*
X585964Y81840D01*
Y82090D01*
X585714Y82340D01*
X585214D01*
X584964Y82090D01*
X502716D02*
X502466Y82340D01*
X501966D01*
X501717Y82090D01*
Y81840D01*
X501966Y81590D01*
X502466D01*
X502716Y81340D01*
Y81090D01*
X502466Y80840D01*
X501966D01*
X501717Y81090D01*
X503216Y80840D02*
X503716D01*
X503466D01*
Y82340D01*
X503216Y82090D01*
X504466Y80840D02*
Y81090D01*
X504716D01*
Y80840D01*
X504466D01*
X505715Y82090D02*
X505965Y82340D01*
X506465D01*
X506715Y82090D01*
Y81840D01*
X506465Y81590D01*
X506215D01*
X506465D01*
X506715Y81340D01*
Y81090D01*
X506465Y80840D01*
X505965D01*
X505715Y81090D01*
X507215Y80840D02*
Y81090D01*
X507465D01*
Y80840D01*
X507215D01*
X509464D02*
X508464D01*
X509464Y81840D01*
Y82090D01*
X509214Y82340D01*
X508714D01*
X508464Y82090D01*
X509964D02*
X510214Y82340D01*
X510714D01*
X510964Y82090D01*
Y81840D01*
X510714Y81590D01*
X510464D01*
X510714D01*
X510964Y81340D01*
Y81090D01*
X510714Y80840D01*
X510214D01*
X509964Y81090D01*
X408966Y82090D02*
X408716Y82340D01*
X408216D01*
X407967Y82090D01*
Y81840D01*
X408216Y81590D01*
X408716D01*
X408966Y81340D01*
Y81090D01*
X408716Y80840D01*
X408216D01*
X407967Y81090D01*
X409466Y80840D02*
X409966D01*
X409716D01*
Y82340D01*
X409466Y82090D01*
X410716Y80840D02*
Y81090D01*
X410966D01*
Y80840D01*
X410716D01*
X411965Y82090D02*
X412215Y82340D01*
X412715D01*
X412965Y82090D01*
Y81840D01*
X412715Y81590D01*
X412465D01*
X412715D01*
X412965Y81340D01*
Y81090D01*
X412715Y80840D01*
X412215D01*
X411965Y81090D01*
X413465Y80840D02*
Y81090D01*
X413715D01*
Y80840D01*
X413465D01*
X415714D02*
X414714D01*
X415714Y81840D01*
Y82090D01*
X415464Y82340D01*
X414964D01*
X414714Y82090D01*
X416964Y80840D02*
Y82340D01*
X416214Y81590D01*
X417214D01*
X315216Y82090D02*
X314966Y82340D01*
X314467D01*
X314216Y82090D01*
Y81840D01*
X314467Y81590D01*
X314966D01*
X315216Y81340D01*
Y81090D01*
X314966Y80840D01*
X314467D01*
X314216Y81090D01*
X315716Y80840D02*
X316216D01*
X315966D01*
Y82340D01*
X315716Y82090D01*
X316966Y80840D02*
Y81090D01*
X317216D01*
Y80840D01*
X316966D01*
X318215Y82090D02*
X318465Y82340D01*
X318965D01*
X319215Y82090D01*
Y81840D01*
X318965Y81590D01*
X318715D01*
X318965D01*
X319215Y81340D01*
Y81090D01*
X318965Y80840D01*
X318465D01*
X318215Y81090D01*
X319715Y80840D02*
Y81090D01*
X319965D01*
Y80840D01*
X319715D01*
X321964D02*
X320964D01*
X321964Y81840D01*
Y82090D01*
X321714Y82340D01*
X321214D01*
X320964Y82090D01*
X323464Y82340D02*
X322464D01*
Y81590D01*
X322964Y81840D01*
X323214D01*
X323464Y81590D01*
Y81090D01*
X323214Y80840D01*
X322714D01*
X322464Y81090D01*
X240216Y82090D02*
X239966Y82340D01*
X239467D01*
X239216Y82090D01*
Y81840D01*
X239467Y81590D01*
X239966D01*
X240216Y81340D01*
Y81090D01*
X239966Y80840D01*
X239467D01*
X239216Y81090D01*
X240716Y80840D02*
X241216D01*
X240966D01*
Y82340D01*
X240716Y82090D01*
X241966Y80840D02*
Y81090D01*
X242216D01*
Y80840D01*
X241966D01*
X243215Y82090D02*
X243465Y82340D01*
X243965D01*
X244215Y82090D01*
Y81840D01*
X243965Y81590D01*
X243715D01*
X243965D01*
X244215Y81340D01*
Y81090D01*
X243965Y80840D01*
X243465D01*
X243215Y81090D01*
X244715Y80840D02*
Y81090D01*
X244965D01*
Y80840D01*
X244715D01*
X246964D02*
X245964D01*
X246964Y81840D01*
Y82090D01*
X246714Y82340D01*
X246214D01*
X245964Y82090D01*
X248464Y82340D02*
X247964Y82090D01*
X247464Y81590D01*
Y81090D01*
X247714Y80840D01*
X248214D01*
X248464Y81090D01*
Y81340D01*
X248214Y81590D01*
X247464D01*
X165216Y82090D02*
X164966Y82340D01*
X164467D01*
X164216Y82090D01*
Y81840D01*
X164467Y81590D01*
X164966D01*
X165216Y81340D01*
Y81090D01*
X164966Y80840D01*
X164467D01*
X164216Y81090D01*
X165716Y80840D02*
X166216D01*
X165966D01*
Y82340D01*
X165716Y82090D01*
X166966Y80840D02*
Y81090D01*
X167216D01*
Y80840D01*
X166966D01*
X168215Y82090D02*
X168465Y82340D01*
X168965D01*
X169215Y82090D01*
Y81840D01*
X168965Y81590D01*
X168715D01*
X168965D01*
X169215Y81340D01*
Y81090D01*
X168965Y80840D01*
X168465D01*
X168215Y81090D01*
X169715Y80840D02*
Y81090D01*
X169965D01*
Y80840D01*
X169715D01*
X171964D02*
X170964D01*
X171964Y81840D01*
Y82090D01*
X171714Y82340D01*
X171214D01*
X170964Y82090D01*
X172464Y82340D02*
X173464D01*
Y82090D01*
X172464Y81090D01*
Y80840D01*
X80841Y82090D02*
X80591Y82340D01*
X80092D01*
X79842Y82090D01*
Y81840D01*
X80092Y81590D01*
X80591D01*
X80841Y81340D01*
Y81090D01*
X80591Y80840D01*
X80092D01*
X79842Y81090D01*
X81341Y80840D02*
X81841D01*
X81591D01*
Y82340D01*
X81341Y82090D01*
X82591Y80840D02*
Y81090D01*
X82841D01*
Y80840D01*
X82591D01*
X83840Y82090D02*
X84090Y82340D01*
X84590D01*
X84840Y82090D01*
Y81840D01*
X84590Y81590D01*
X84340D01*
X84590D01*
X84840Y81340D01*
Y81090D01*
X84590Y80840D01*
X84090D01*
X83840Y81090D01*
X85340Y80840D02*
Y81090D01*
X85590D01*
Y80840D01*
X85340D01*
X87589D02*
X86589D01*
X87589Y81840D01*
Y82090D01*
X87339Y82340D01*
X86839D01*
X86589Y82090D01*
X88089D02*
X88339Y82340D01*
X88839D01*
X89089Y82090D01*
Y81840D01*
X88839Y81590D01*
X89089Y81340D01*
Y81090D01*
X88839Y80840D01*
X88339D01*
X88089Y81090D01*
Y81340D01*
X88339Y81590D01*
X88089Y81840D01*
Y82090D01*
X88339Y81590D02*
X88839D01*
X1018341Y94590D02*
X1018091Y94840D01*
X1017591D01*
X1017342Y94590D01*
Y94340D01*
X1017591Y94090D01*
X1018091D01*
X1018341Y93840D01*
Y93590D01*
X1018091Y93340D01*
X1017591D01*
X1017342Y93590D01*
X1018841Y93340D02*
X1019341D01*
X1019091D01*
Y94840D01*
X1018841Y94590D01*
X1020091Y93340D02*
Y93590D01*
X1020341D01*
Y93340D01*
X1020091D01*
X1021340Y94590D02*
X1021590Y94840D01*
X1022090D01*
X1022340Y94590D01*
Y94340D01*
X1022090Y94090D01*
X1021840D01*
X1022090D01*
X1022340Y93840D01*
Y93590D01*
X1022090Y93340D01*
X1021590D01*
X1021340Y93590D01*
X1022840Y93340D02*
Y93590D01*
X1023090D01*
Y93340D01*
X1022840D01*
X1025089D02*
X1024089D01*
X1025089Y94340D01*
Y94590D01*
X1024839Y94840D01*
X1024339D01*
X1024089Y94590D01*
X1025589Y93590D02*
X1025839Y93340D01*
X1026339D01*
X1026589Y93590D01*
Y94590D01*
X1026339Y94840D01*
X1025839D01*
X1025589Y94590D01*
Y94340D01*
X1025839Y94090D01*
X1026589D01*
X915216Y94590D02*
X914966Y94840D01*
X914466D01*
X914217Y94590D01*
Y94340D01*
X914466Y94090D01*
X914966D01*
X915216Y93840D01*
Y93590D01*
X914966Y93340D01*
X914466D01*
X914217Y93590D01*
X915716Y93340D02*
X916216D01*
X915966D01*
Y94840D01*
X915716Y94590D01*
X916966Y93340D02*
Y93590D01*
X917216D01*
Y93340D01*
X916966D01*
X918215Y94590D02*
X918465Y94840D01*
X918965D01*
X919215Y94590D01*
Y94340D01*
X918965Y94090D01*
X918715D01*
X918965D01*
X919215Y93840D01*
Y93590D01*
X918965Y93340D01*
X918465D01*
X918215Y93590D01*
X919715Y93340D02*
Y93590D01*
X919965D01*
Y93340D01*
X919715D01*
X920964Y94590D02*
X921214Y94840D01*
X921714D01*
X921964Y94590D01*
Y94340D01*
X921714Y94090D01*
X921464D01*
X921714D01*
X921964Y93840D01*
Y93590D01*
X921714Y93340D01*
X921214D01*
X920964Y93590D01*
X922464Y94590D02*
X922714Y94840D01*
X923214D01*
X923464Y94590D01*
Y93590D01*
X923214Y93340D01*
X922714D01*
X922464Y93590D01*
Y94590D01*
X840216D02*
X839966Y94840D01*
X839466D01*
X839217Y94590D01*
Y94340D01*
X839466Y94090D01*
X839966D01*
X840216Y93840D01*
Y93590D01*
X839966Y93340D01*
X839466D01*
X839217Y93590D01*
X840716Y93340D02*
X841216D01*
X840966D01*
Y94840D01*
X840716Y94590D01*
X841966Y93340D02*
Y93590D01*
X842216D01*
Y93340D01*
X841966D01*
X843215Y94590D02*
X843465Y94840D01*
X843965D01*
X844215Y94590D01*
Y94340D01*
X843965Y94090D01*
X843715D01*
X843965D01*
X844215Y93840D01*
Y93590D01*
X843965Y93340D01*
X843465D01*
X843215Y93590D01*
X844715Y93340D02*
Y93590D01*
X844965D01*
Y93340D01*
X844715D01*
X845964Y94590D02*
X846214Y94840D01*
X846714D01*
X846964Y94590D01*
Y94340D01*
X846714Y94090D01*
X846464D01*
X846714D01*
X846964Y93840D01*
Y93590D01*
X846714Y93340D01*
X846214D01*
X845964Y93590D01*
X847464Y93340D02*
X847964D01*
X847714D01*
Y94840D01*
X847464Y94590D01*
X765216D02*
X764966Y94840D01*
X764466D01*
X764217Y94590D01*
Y94340D01*
X764466Y94090D01*
X764966D01*
X765216Y93840D01*
Y93590D01*
X764966Y93340D01*
X764466D01*
X764217Y93590D01*
X765716Y93340D02*
X766216D01*
X765966D01*
Y94840D01*
X765716Y94590D01*
X766966Y93340D02*
Y93590D01*
X767216D01*
Y93340D01*
X766966D01*
X768215Y94590D02*
X768465Y94840D01*
X768965D01*
X769215Y94590D01*
Y94340D01*
X768965Y94090D01*
X768715D01*
X768965D01*
X769215Y93840D01*
Y93590D01*
X768965Y93340D01*
X768465D01*
X768215Y93590D01*
X769715Y93340D02*
Y93590D01*
X769965D01*
Y93340D01*
X769715D01*
X770964Y94590D02*
X771214Y94840D01*
X771714D01*
X771964Y94590D01*
Y94340D01*
X771714Y94090D01*
X771464D01*
X771714D01*
X771964Y93840D01*
Y93590D01*
X771714Y93340D01*
X771214D01*
X770964Y93590D01*
X773464Y93340D02*
X772464D01*
X773464Y94340D01*
Y94590D01*
X773214Y94840D01*
X772714D01*
X772464Y94590D01*
X690216D02*
X689966Y94840D01*
X689466D01*
X689217Y94590D01*
Y94340D01*
X689466Y94090D01*
X689966D01*
X690216Y93840D01*
Y93590D01*
X689966Y93340D01*
X689466D01*
X689217Y93590D01*
X690716Y93340D02*
X691216D01*
X690966D01*
Y94840D01*
X690716Y94590D01*
X691966Y93340D02*
Y93590D01*
X692216D01*
Y93340D01*
X691966D01*
X693215Y94590D02*
X693465Y94840D01*
X693965D01*
X694215Y94590D01*
Y94340D01*
X693965Y94090D01*
X693715D01*
X693965D01*
X694215Y93840D01*
Y93590D01*
X693965Y93340D01*
X693465D01*
X693215Y93590D01*
X694715Y93340D02*
Y93590D01*
X694965D01*
Y93340D01*
X694715D01*
X695964Y94590D02*
X696214Y94840D01*
X696714D01*
X696964Y94590D01*
Y94340D01*
X696714Y94090D01*
X696464D01*
X696714D01*
X696964Y93840D01*
Y93590D01*
X696714Y93340D01*
X696214D01*
X695964Y93590D01*
X697464Y94590D02*
X697714Y94840D01*
X698214D01*
X698464Y94590D01*
Y94340D01*
X698214Y94090D01*
X697964D01*
X698214D01*
X698464Y93840D01*
Y93590D01*
X698214Y93340D01*
X697714D01*
X697464Y93590D01*
X615216Y94590D02*
X614966Y94840D01*
X614466D01*
X614217Y94590D01*
Y94340D01*
X614466Y94090D01*
X614966D01*
X615216Y93840D01*
Y93590D01*
X614966Y93340D01*
X614466D01*
X614217Y93590D01*
X615716Y93340D02*
X616216D01*
X615966D01*
Y94840D01*
X615716Y94590D01*
X616966Y93340D02*
Y93590D01*
X617216D01*
Y93340D01*
X616966D01*
X618215Y94590D02*
X618465Y94840D01*
X618965D01*
X619215Y94590D01*
Y94340D01*
X618965Y94090D01*
X618715D01*
X618965D01*
X619215Y93840D01*
Y93590D01*
X618965Y93340D01*
X618465D01*
X618215Y93590D01*
X619715Y93340D02*
Y93590D01*
X619965D01*
Y93340D01*
X619715D01*
X620964Y94590D02*
X621214Y94840D01*
X621714D01*
X621964Y94590D01*
Y94340D01*
X621714Y94090D01*
X621464D01*
X621714D01*
X621964Y93840D01*
Y93590D01*
X621714Y93340D01*
X621214D01*
X620964Y93590D01*
X623214Y93340D02*
Y94840D01*
X622464Y94090D01*
X623464D01*
X540216Y94590D02*
X539966Y94840D01*
X539466D01*
X539217Y94590D01*
Y94340D01*
X539466Y94090D01*
X539966D01*
X540216Y93840D01*
Y93590D01*
X539966Y93340D01*
X539466D01*
X539217Y93590D01*
X540716Y93340D02*
X541216D01*
X540966D01*
Y94840D01*
X540716Y94590D01*
X541966Y93340D02*
Y93590D01*
X542216D01*
Y93340D01*
X541966D01*
X543215Y94590D02*
X543465Y94840D01*
X543965D01*
X544215Y94590D01*
Y94340D01*
X543965Y94090D01*
X543715D01*
X543965D01*
X544215Y93840D01*
Y93590D01*
X543965Y93340D01*
X543465D01*
X543215Y93590D01*
X544715Y93340D02*
Y93590D01*
X544965D01*
Y93340D01*
X544715D01*
X545964Y94590D02*
X546214Y94840D01*
X546714D01*
X546964Y94590D01*
Y94340D01*
X546714Y94090D01*
X546464D01*
X546714D01*
X546964Y93840D01*
Y93590D01*
X546714Y93340D01*
X546214D01*
X545964Y93590D01*
X548464Y94840D02*
X547464D01*
Y94090D01*
X547964Y94340D01*
X548214D01*
X548464Y94090D01*
Y93590D01*
X548214Y93340D01*
X547714D01*
X547464Y93590D01*
X465216Y94590D02*
X464966Y94840D01*
X464466D01*
X464217Y94590D01*
Y94340D01*
X464466Y94090D01*
X464966D01*
X465216Y93840D01*
Y93590D01*
X464966Y93340D01*
X464466D01*
X464217Y93590D01*
X465716Y93340D02*
X466216D01*
X465966D01*
Y94840D01*
X465716Y94590D01*
X466966Y93340D02*
Y93590D01*
X467216D01*
Y93340D01*
X466966D01*
X468215Y94590D02*
X468465Y94840D01*
X468965D01*
X469215Y94590D01*
Y94340D01*
X468965Y94090D01*
X468715D01*
X468965D01*
X469215Y93840D01*
Y93590D01*
X468965Y93340D01*
X468465D01*
X468215Y93590D01*
X469715Y93340D02*
Y93590D01*
X469965D01*
Y93340D01*
X469715D01*
X470964Y94590D02*
X471214Y94840D01*
X471714D01*
X471964Y94590D01*
Y94340D01*
X471714Y94090D01*
X471464D01*
X471714D01*
X471964Y93840D01*
Y93590D01*
X471714Y93340D01*
X471214D01*
X470964Y93590D01*
X473464Y94840D02*
X472964Y94590D01*
X472464Y94090D01*
Y93590D01*
X472714Y93340D01*
X473214D01*
X473464Y93590D01*
Y93840D01*
X473214Y94090D01*
X472464D01*
X390216Y94590D02*
X389966Y94840D01*
X389467D01*
X389216Y94590D01*
Y94340D01*
X389467Y94090D01*
X389966D01*
X390216Y93840D01*
Y93590D01*
X389966Y93340D01*
X389467D01*
X389216Y93590D01*
X390716Y93340D02*
X391216D01*
X390966D01*
Y94840D01*
X390716Y94590D01*
X391966Y93340D02*
Y93590D01*
X392216D01*
Y93340D01*
X391966D01*
X393215Y94590D02*
X393465Y94840D01*
X393965D01*
X394215Y94590D01*
Y94340D01*
X393965Y94090D01*
X393715D01*
X393965D01*
X394215Y93840D01*
Y93590D01*
X393965Y93340D01*
X393465D01*
X393215Y93590D01*
X394715Y93340D02*
Y93590D01*
X394965D01*
Y93340D01*
X394715D01*
X395964Y94590D02*
X396214Y94840D01*
X396714D01*
X396964Y94590D01*
Y94340D01*
X396714Y94090D01*
X396464D01*
X396714D01*
X396964Y93840D01*
Y93590D01*
X396714Y93340D01*
X396214D01*
X395964Y93590D01*
X397464Y94840D02*
X398464D01*
Y94590D01*
X397464Y93590D01*
Y93340D01*
X315216Y94590D02*
X314966Y94840D01*
X314467D01*
X314216Y94590D01*
Y94340D01*
X314467Y94090D01*
X314966D01*
X315216Y93840D01*
Y93590D01*
X314966Y93340D01*
X314467D01*
X314216Y93590D01*
X315716Y93340D02*
X316216D01*
X315966D01*
Y94840D01*
X315716Y94590D01*
X316966Y93340D02*
Y93590D01*
X317216D01*
Y93340D01*
X316966D01*
X318215Y94590D02*
X318465Y94840D01*
X318965D01*
X319215Y94590D01*
Y94340D01*
X318965Y94090D01*
X318715D01*
X318965D01*
X319215Y93840D01*
Y93590D01*
X318965Y93340D01*
X318465D01*
X318215Y93590D01*
X319715Y93340D02*
Y93590D01*
X319965D01*
Y93340D01*
X319715D01*
X320964Y94590D02*
X321214Y94840D01*
X321714D01*
X321964Y94590D01*
Y94340D01*
X321714Y94090D01*
X321464D01*
X321714D01*
X321964Y93840D01*
Y93590D01*
X321714Y93340D01*
X321214D01*
X320964Y93590D01*
X322464Y94590D02*
X322714Y94840D01*
X323214D01*
X323464Y94590D01*
Y94340D01*
X323214Y94090D01*
X323464Y93840D01*
Y93590D01*
X323214Y93340D01*
X322714D01*
X322464Y93590D01*
Y93840D01*
X322714Y94090D01*
X322464Y94340D01*
Y94590D01*
X322714Y94090D02*
X323214D01*
X240216Y94590D02*
X239966Y94840D01*
X239467D01*
X239216Y94590D01*
Y94340D01*
X239467Y94090D01*
X239966D01*
X240216Y93840D01*
Y93590D01*
X239966Y93340D01*
X239467D01*
X239216Y93590D01*
X240716Y93340D02*
X241216D01*
X240966D01*
Y94840D01*
X240716Y94590D01*
X241966Y93340D02*
Y93590D01*
X242216D01*
Y93340D01*
X241966D01*
X243215Y94590D02*
X243465Y94840D01*
X243965D01*
X244215Y94590D01*
Y94340D01*
X243965Y94090D01*
X243715D01*
X243965D01*
X244215Y93840D01*
Y93590D01*
X243965Y93340D01*
X243465D01*
X243215Y93590D01*
X244715Y93340D02*
Y93590D01*
X244965D01*
Y93340D01*
X244715D01*
X245964Y94590D02*
X246214Y94840D01*
X246714D01*
X246964Y94590D01*
Y94340D01*
X246714Y94090D01*
X246464D01*
X246714D01*
X246964Y93840D01*
Y93590D01*
X246714Y93340D01*
X246214D01*
X245964Y93590D01*
X247464D02*
X247714Y93340D01*
X248214D01*
X248464Y93590D01*
Y94590D01*
X248214Y94840D01*
X247714D01*
X247464Y94590D01*
Y94340D01*
X247714Y94090D01*
X248464D01*
X127716Y94590D02*
X127466Y94840D01*
X126967D01*
X126716Y94590D01*
Y94340D01*
X126967Y94090D01*
X127466D01*
X127716Y93840D01*
Y93590D01*
X127466Y93340D01*
X126967D01*
X126716Y93590D01*
X128216Y93340D02*
X128716D01*
X128466D01*
Y94840D01*
X128216Y94590D01*
X129466Y93340D02*
Y93590D01*
X129716D01*
Y93340D01*
X129466D01*
X130715Y94590D02*
X130965Y94840D01*
X131465D01*
X131715Y94590D01*
Y94340D01*
X131465Y94090D01*
X131215D01*
X131465D01*
X131715Y93840D01*
Y93590D01*
X131465Y93340D01*
X130965D01*
X130715Y93590D01*
X132215Y93340D02*
Y93590D01*
X132465D01*
Y93340D01*
X132215D01*
X134214D02*
Y94840D01*
X133464Y94090D01*
X134464D01*
X134964Y94590D02*
X135214Y94840D01*
X135714D01*
X135964Y94590D01*
Y93590D01*
X135714Y93340D01*
X135214D01*
X134964Y93590D01*
Y94590D01*
X1074591Y169590D02*
X1074341Y169840D01*
X1073841D01*
X1073592Y169590D01*
Y169340D01*
X1073841Y169090D01*
X1074341D01*
X1074591Y168840D01*
Y168590D01*
X1074341Y168341D01*
X1073841D01*
X1073592Y168590D01*
X1075091Y168341D02*
X1075591D01*
X1075341D01*
Y169840D01*
X1075091Y169590D01*
X1076341Y168341D02*
Y168590D01*
X1076591D01*
Y168341D01*
X1076341D01*
X1077590Y169590D02*
X1077840Y169840D01*
X1078340D01*
X1078590Y169590D01*
Y169340D01*
X1078340Y169090D01*
X1078090D01*
X1078340D01*
X1078590Y168840D01*
Y168590D01*
X1078340Y168341D01*
X1077840D01*
X1077590Y168590D01*
X1079090Y168341D02*
Y168590D01*
X1079340D01*
Y168341D01*
X1079090D01*
X1081089D02*
Y169840D01*
X1080339Y169090D01*
X1081339D01*
X1081839Y168341D02*
X1082339D01*
X1082089D01*
Y169840D01*
X1081839Y169590D01*
X952716D02*
X952466Y169840D01*
X951966D01*
X951717Y169590D01*
Y169340D01*
X951966Y169090D01*
X952466D01*
X952716Y168840D01*
Y168590D01*
X952466Y168341D01*
X951966D01*
X951717Y168590D01*
X953216Y168341D02*
X953716D01*
X953466D01*
Y169840D01*
X953216Y169590D01*
X954466Y168341D02*
Y168590D01*
X954716D01*
Y168341D01*
X954466D01*
X955715Y169590D02*
X955965Y169840D01*
X956465D01*
X956715Y169590D01*
Y169340D01*
X956465Y169090D01*
X956215D01*
X956465D01*
X956715Y168840D01*
Y168590D01*
X956465Y168341D01*
X955965D01*
X955715Y168590D01*
X957215Y168341D02*
Y168590D01*
X957465D01*
Y168341D01*
X957215D01*
X959214D02*
Y169840D01*
X958464Y169090D01*
X959464D01*
X960964Y168341D02*
X959964D01*
X960964Y169340D01*
Y169590D01*
X960714Y169840D01*
X960214D01*
X959964Y169590D01*
X877716D02*
X877466Y169840D01*
X876966D01*
X876717Y169590D01*
Y169340D01*
X876966Y169090D01*
X877466D01*
X877716Y168840D01*
Y168590D01*
X877466Y168341D01*
X876966D01*
X876717Y168590D01*
X878216Y168341D02*
X878716D01*
X878466D01*
Y169840D01*
X878216Y169590D01*
X879466Y168341D02*
Y168590D01*
X879716D01*
Y168341D01*
X879466D01*
X880715Y169590D02*
X880965Y169840D01*
X881465D01*
X881715Y169590D01*
Y169340D01*
X881465Y169090D01*
X881215D01*
X881465D01*
X881715Y168840D01*
Y168590D01*
X881465Y168341D01*
X880965D01*
X880715Y168590D01*
X882215Y168341D02*
Y168590D01*
X882465D01*
Y168341D01*
X882215D01*
X884214D02*
Y169840D01*
X883464Y169090D01*
X884464D01*
X884964Y169590D02*
X885214Y169840D01*
X885714D01*
X885964Y169590D01*
Y169340D01*
X885714Y169090D01*
X885464D01*
X885714D01*
X885964Y168840D01*
Y168590D01*
X885714Y168341D01*
X885214D01*
X884964Y168590D01*
X802716Y169590D02*
X802466Y169840D01*
X801966D01*
X801717Y169590D01*
Y169340D01*
X801966Y169090D01*
X802466D01*
X802716Y168840D01*
Y168590D01*
X802466Y168341D01*
X801966D01*
X801717Y168590D01*
X803216Y168341D02*
X803716D01*
X803466D01*
Y169840D01*
X803216Y169590D01*
X804466Y168341D02*
Y168590D01*
X804716D01*
Y168341D01*
X804466D01*
X805715Y169590D02*
X805965Y169840D01*
X806465D01*
X806715Y169590D01*
Y169340D01*
X806465Y169090D01*
X806215D01*
X806465D01*
X806715Y168840D01*
Y168590D01*
X806465Y168341D01*
X805965D01*
X805715Y168590D01*
X807215Y168341D02*
Y168590D01*
X807465D01*
Y168341D01*
X807215D01*
X809214D02*
Y169840D01*
X808464Y169090D01*
X809464D01*
X810714Y168341D02*
Y169840D01*
X809964Y169090D01*
X810964D01*
X727716Y169590D02*
X727466Y169840D01*
X726966D01*
X726717Y169590D01*
Y169340D01*
X726966Y169090D01*
X727466D01*
X727716Y168840D01*
Y168590D01*
X727466Y168341D01*
X726966D01*
X726717Y168590D01*
X728216Y168341D02*
X728716D01*
X728466D01*
Y169840D01*
X728216Y169590D01*
X729466Y168341D02*
Y168590D01*
X729716D01*
Y168341D01*
X729466D01*
X730715Y169590D02*
X730965Y169840D01*
X731465D01*
X731715Y169590D01*
Y169340D01*
X731465Y169090D01*
X731215D01*
X731465D01*
X731715Y168840D01*
Y168590D01*
X731465Y168341D01*
X730965D01*
X730715Y168590D01*
X732215Y168341D02*
Y168590D01*
X732465D01*
Y168341D01*
X732215D01*
X734214D02*
Y169840D01*
X733464Y169090D01*
X734464D01*
X735964Y169840D02*
X734964D01*
Y169090D01*
X735464Y169340D01*
X735714D01*
X735964Y169090D01*
Y168590D01*
X735714Y168341D01*
X735214D01*
X734964Y168590D01*
X652716Y169590D02*
X652466Y169840D01*
X651966D01*
X651717Y169590D01*
Y169340D01*
X651966Y169090D01*
X652466D01*
X652716Y168840D01*
Y168590D01*
X652466Y168341D01*
X651966D01*
X651717Y168590D01*
X653216Y168341D02*
X653716D01*
X653466D01*
Y169840D01*
X653216Y169590D01*
X654466Y168341D02*
Y168590D01*
X654716D01*
Y168341D01*
X654466D01*
X655715Y169590D02*
X655965Y169840D01*
X656465D01*
X656715Y169590D01*
Y169340D01*
X656465Y169090D01*
X656215D01*
X656465D01*
X656715Y168840D01*
Y168590D01*
X656465Y168341D01*
X655965D01*
X655715Y168590D01*
X657215Y168341D02*
Y168590D01*
X657465D01*
Y168341D01*
X657215D01*
X659214D02*
Y169840D01*
X658464Y169090D01*
X659464D01*
X660964Y169840D02*
X660464Y169590D01*
X659964Y169090D01*
Y168590D01*
X660214Y168341D01*
X660714D01*
X660964Y168590D01*
Y168840D01*
X660714Y169090D01*
X659964D01*
X577716Y169590D02*
X577466Y169840D01*
X576966D01*
X576717Y169590D01*
Y169340D01*
X576966Y169090D01*
X577466D01*
X577716Y168840D01*
Y168590D01*
X577466Y168341D01*
X576966D01*
X576717Y168590D01*
X578216Y168341D02*
X578716D01*
X578466D01*
Y169840D01*
X578216Y169590D01*
X579466Y168341D02*
Y168590D01*
X579716D01*
Y168341D01*
X579466D01*
X580715Y169590D02*
X580965Y169840D01*
X581465D01*
X581715Y169590D01*
Y169340D01*
X581465Y169090D01*
X581215D01*
X581465D01*
X581715Y168840D01*
Y168590D01*
X581465Y168341D01*
X580965D01*
X580715Y168590D01*
X582215Y168341D02*
Y168590D01*
X582465D01*
Y168341D01*
X582215D01*
X584214D02*
Y169840D01*
X583464Y169090D01*
X584464D01*
X584964Y169840D02*
X585964D01*
Y169590D01*
X584964Y168590D01*
Y168341D01*
X502716Y169590D02*
X502466Y169840D01*
X501966D01*
X501717Y169590D01*
Y169340D01*
X501966Y169090D01*
X502466D01*
X502716Y168840D01*
Y168590D01*
X502466Y168341D01*
X501966D01*
X501717Y168590D01*
X503216Y168341D02*
X503716D01*
X503466D01*
Y169840D01*
X503216Y169590D01*
X504466Y168341D02*
Y168590D01*
X504716D01*
Y168341D01*
X504466D01*
X505715Y169590D02*
X505965Y169840D01*
X506465D01*
X506715Y169590D01*
Y169340D01*
X506465Y169090D01*
X506215D01*
X506465D01*
X506715Y168840D01*
Y168590D01*
X506465Y168341D01*
X505965D01*
X505715Y168590D01*
X507215Y168341D02*
Y168590D01*
X507465D01*
Y168341D01*
X507215D01*
X509214D02*
Y169840D01*
X508464Y169090D01*
X509464D01*
X509964Y169590D02*
X510214Y169840D01*
X510714D01*
X510964Y169590D01*
Y169340D01*
X510714Y169090D01*
X510964Y168840D01*
Y168590D01*
X510714Y168341D01*
X510214D01*
X509964Y168590D01*
Y168840D01*
X510214Y169090D01*
X509964Y169340D01*
Y169590D01*
X510214Y169090D02*
X510714D01*
X427716Y169590D02*
X427466Y169840D01*
X426966D01*
X426717Y169590D01*
Y169340D01*
X426966Y169090D01*
X427466D01*
X427716Y168840D01*
Y168590D01*
X427466Y168341D01*
X426966D01*
X426717Y168590D01*
X428216Y168341D02*
X428716D01*
X428466D01*
Y169840D01*
X428216Y169590D01*
X429466Y168341D02*
Y168590D01*
X429716D01*
Y168341D01*
X429466D01*
X430715Y169590D02*
X430965Y169840D01*
X431465D01*
X431715Y169590D01*
Y169340D01*
X431465Y169090D01*
X431215D01*
X431465D01*
X431715Y168840D01*
Y168590D01*
X431465Y168341D01*
X430965D01*
X430715Y168590D01*
X432215Y168341D02*
Y168590D01*
X432465D01*
Y168341D01*
X432215D01*
X434214D02*
Y169840D01*
X433464Y169090D01*
X434464D01*
X434964Y168590D02*
X435214Y168341D01*
X435714D01*
X435964Y168590D01*
Y169590D01*
X435714Y169840D01*
X435214D01*
X434964Y169590D01*
Y169340D01*
X435214Y169090D01*
X435964D01*
X352716Y169590D02*
X352466Y169840D01*
X351967D01*
X351716Y169590D01*
Y169340D01*
X351967Y169090D01*
X352466D01*
X352716Y168840D01*
Y168590D01*
X352466Y168341D01*
X351967D01*
X351716Y168590D01*
X353216Y168341D02*
X353716D01*
X353466D01*
Y169840D01*
X353216Y169590D01*
X354466Y168341D02*
Y168590D01*
X354716D01*
Y168341D01*
X354466D01*
X355715Y169590D02*
X355965Y169840D01*
X356465D01*
X356715Y169590D01*
Y169340D01*
X356465Y169090D01*
X356215D01*
X356465D01*
X356715Y168840D01*
Y168590D01*
X356465Y168341D01*
X355965D01*
X355715Y168590D01*
X357215Y168341D02*
Y168590D01*
X357465D01*
Y168341D01*
X357215D01*
X359464Y169840D02*
X358464D01*
Y169090D01*
X358964Y169340D01*
X359214D01*
X359464Y169090D01*
Y168590D01*
X359214Y168341D01*
X358714D01*
X358464Y168590D01*
X359964Y169590D02*
X360214Y169840D01*
X360714D01*
X360964Y169590D01*
Y168590D01*
X360714Y168341D01*
X360214D01*
X359964Y168590D01*
Y169590D01*
X277716D02*
X277466Y169840D01*
X276967D01*
X276716Y169590D01*
Y169340D01*
X276967Y169090D01*
X277466D01*
X277716Y168840D01*
Y168590D01*
X277466Y168341D01*
X276967D01*
X276716Y168590D01*
X278216Y168341D02*
X278716D01*
X278466D01*
Y169840D01*
X278216Y169590D01*
X279466Y168341D02*
Y168590D01*
X279716D01*
Y168341D01*
X279466D01*
X280715Y169590D02*
X280965Y169840D01*
X281465D01*
X281715Y169590D01*
Y169340D01*
X281465Y169090D01*
X281215D01*
X281465D01*
X281715Y168840D01*
Y168590D01*
X281465Y168341D01*
X280965D01*
X280715Y168590D01*
X282215Y168341D02*
Y168590D01*
X282465D01*
Y168341D01*
X282215D01*
X284464Y169840D02*
X283464D01*
Y169090D01*
X283964Y169340D01*
X284214D01*
X284464Y169090D01*
Y168590D01*
X284214Y168341D01*
X283714D01*
X283464Y168590D01*
X284964Y168341D02*
X285464D01*
X285214D01*
Y169840D01*
X284964Y169590D01*
X202716D02*
X202466Y169840D01*
X201967D01*
X201716Y169590D01*
Y169340D01*
X201967Y169090D01*
X202466D01*
X202716Y168840D01*
Y168590D01*
X202466Y168341D01*
X201967D01*
X201716Y168590D01*
X203216Y168341D02*
X203716D01*
X203466D01*
Y169840D01*
X203216Y169590D01*
X204466Y168341D02*
Y168590D01*
X204716D01*
Y168341D01*
X204466D01*
X205715Y169590D02*
X205965Y169840D01*
X206465D01*
X206715Y169590D01*
Y169340D01*
X206465Y169090D01*
X206215D01*
X206465D01*
X206715Y168840D01*
Y168590D01*
X206465Y168341D01*
X205965D01*
X205715Y168590D01*
X207215Y168341D02*
Y168590D01*
X207465D01*
Y168341D01*
X207215D01*
X209464Y169840D02*
X208464D01*
Y169090D01*
X208964Y169340D01*
X209214D01*
X209464Y169090D01*
Y168590D01*
X209214Y168341D01*
X208714D01*
X208464Y168590D01*
X210964Y168341D02*
X209964D01*
X210964Y169340D01*
Y169590D01*
X210714Y169840D01*
X210214D01*
X209964Y169590D01*
X108966D02*
X108716Y169840D01*
X108217D01*
X107966Y169590D01*
Y169340D01*
X108217Y169090D01*
X108716D01*
X108966Y168840D01*
Y168590D01*
X108716Y168341D01*
X108217D01*
X107966Y168590D01*
X109466Y168341D02*
X109966D01*
X109716D01*
Y169840D01*
X109466Y169590D01*
X110716Y168341D02*
Y168590D01*
X110966D01*
Y168341D01*
X110716D01*
X111965Y169590D02*
X112215Y169840D01*
X112715D01*
X112965Y169590D01*
Y169340D01*
X112715Y169090D01*
X112465D01*
X112715D01*
X112965Y168840D01*
Y168590D01*
X112715Y168341D01*
X112215D01*
X111965Y168590D01*
X113465Y168341D02*
Y168590D01*
X113715D01*
Y168341D01*
X113465D01*
X115714Y169840D02*
X114714D01*
Y169090D01*
X115214Y169340D01*
X115464D01*
X115714Y169090D01*
Y168590D01*
X115464Y168341D01*
X114964D01*
X114714Y168590D01*
X116214Y169590D02*
X116464Y169840D01*
X116964D01*
X117214Y169590D01*
Y169340D01*
X116964Y169090D01*
X116714D01*
X116964D01*
X117214Y168840D01*
Y168590D01*
X116964Y168341D01*
X116464D01*
X116214Y168590D01*
X1102716Y244590D02*
X1102466Y244840D01*
X1101966D01*
X1101717Y244590D01*
Y244340D01*
X1101966Y244090D01*
X1102466D01*
X1102716Y243840D01*
Y243590D01*
X1102466Y243340D01*
X1101966D01*
X1101717Y243590D01*
X1103216Y243340D02*
X1103716D01*
X1103466D01*
Y244840D01*
X1103216Y244590D01*
X1104466Y243340D02*
Y243590D01*
X1104716D01*
Y243340D01*
X1104466D01*
X1105715Y244590D02*
X1105965Y244840D01*
X1106465D01*
X1106715Y244590D01*
Y244340D01*
X1106465Y244090D01*
X1106215D01*
X1106465D01*
X1106715Y243840D01*
Y243590D01*
X1106465Y243340D01*
X1105965D01*
X1105715Y243590D01*
X1107215Y243340D02*
Y243590D01*
X1107465D01*
Y243340D01*
X1107215D01*
X1109464Y244840D02*
X1108464D01*
Y244090D01*
X1108964Y244340D01*
X1109214D01*
X1109464Y244090D01*
Y243590D01*
X1109214Y243340D01*
X1108714D01*
X1108464Y243590D01*
X1110714Y243340D02*
Y244840D01*
X1109964Y244090D01*
X1110964D01*
X1008966Y244590D02*
X1008716Y244840D01*
X1008216D01*
X1007967Y244590D01*
Y244340D01*
X1008216Y244090D01*
X1008716D01*
X1008966Y243840D01*
Y243590D01*
X1008716Y243340D01*
X1008216D01*
X1007967Y243590D01*
X1009466Y243340D02*
X1009966D01*
X1009716D01*
Y244840D01*
X1009466Y244590D01*
X1010716Y243340D02*
Y243590D01*
X1010966D01*
Y243340D01*
X1010716D01*
X1011965Y244590D02*
X1012215Y244840D01*
X1012715D01*
X1012965Y244590D01*
Y244340D01*
X1012715Y244090D01*
X1012465D01*
X1012715D01*
X1012965Y243840D01*
Y243590D01*
X1012715Y243340D01*
X1012215D01*
X1011965Y243590D01*
X1013465Y243340D02*
Y243590D01*
X1013715D01*
Y243340D01*
X1013465D01*
X1015714Y244840D02*
X1014714D01*
Y244090D01*
X1015214Y244340D01*
X1015464D01*
X1015714Y244090D01*
Y243590D01*
X1015464Y243340D01*
X1014964D01*
X1014714Y243590D01*
X1017214Y244840D02*
X1016214D01*
Y244090D01*
X1016714Y244340D01*
X1016964D01*
X1017214Y244090D01*
Y243590D01*
X1016964Y243340D01*
X1016464D01*
X1016214Y243590D01*
X933966Y244590D02*
X933716Y244840D01*
X933216D01*
X932967Y244590D01*
Y244340D01*
X933216Y244090D01*
X933716D01*
X933966Y243840D01*
Y243590D01*
X933716Y243340D01*
X933216D01*
X932967Y243590D01*
X934466Y243340D02*
X934966D01*
X934716D01*
Y244840D01*
X934466Y244590D01*
X935716Y243340D02*
Y243590D01*
X935966D01*
Y243340D01*
X935716D01*
X936965Y244590D02*
X937215Y244840D01*
X937715D01*
X937965Y244590D01*
Y244340D01*
X937715Y244090D01*
X937465D01*
X937715D01*
X937965Y243840D01*
Y243590D01*
X937715Y243340D01*
X937215D01*
X936965Y243590D01*
X938465Y243340D02*
Y243590D01*
X938715D01*
Y243340D01*
X938465D01*
X940714Y244840D02*
X939714D01*
Y244090D01*
X940214Y244340D01*
X940464D01*
X940714Y244090D01*
Y243590D01*
X940464Y243340D01*
X939964D01*
X939714Y243590D01*
X942214Y244840D02*
X941714Y244590D01*
X941214Y244090D01*
Y243590D01*
X941464Y243340D01*
X941964D01*
X942214Y243590D01*
Y243840D01*
X941964Y244090D01*
X941214D01*
X858966Y244590D02*
X858716Y244840D01*
X858216D01*
X857967Y244590D01*
Y244340D01*
X858216Y244090D01*
X858716D01*
X858966Y243840D01*
Y243590D01*
X858716Y243340D01*
X858216D01*
X857967Y243590D01*
X859466Y243340D02*
X859966D01*
X859716D01*
Y244840D01*
X859466Y244590D01*
X860716Y243340D02*
Y243590D01*
X860966D01*
Y243340D01*
X860716D01*
X861965Y244590D02*
X862215Y244840D01*
X862715D01*
X862965Y244590D01*
Y244340D01*
X862715Y244090D01*
X862465D01*
X862715D01*
X862965Y243840D01*
Y243590D01*
X862715Y243340D01*
X862215D01*
X861965Y243590D01*
X863465Y243340D02*
Y243590D01*
X863715D01*
Y243340D01*
X863465D01*
X865714Y244840D02*
X864714D01*
Y244090D01*
X865214Y244340D01*
X865464D01*
X865714Y244090D01*
Y243590D01*
X865464Y243340D01*
X864964D01*
X864714Y243590D01*
X866214Y244840D02*
X867214D01*
Y244590D01*
X866214Y243590D01*
Y243340D01*
X783966Y244590D02*
X783716Y244840D01*
X783216D01*
X782967Y244590D01*
Y244340D01*
X783216Y244090D01*
X783716D01*
X783966Y243840D01*
Y243590D01*
X783716Y243340D01*
X783216D01*
X782967Y243590D01*
X784466Y243340D02*
X784966D01*
X784716D01*
Y244840D01*
X784466Y244590D01*
X785716Y243340D02*
Y243590D01*
X785966D01*
Y243340D01*
X785716D01*
X786965Y244590D02*
X787215Y244840D01*
X787715D01*
X787965Y244590D01*
Y244340D01*
X787715Y244090D01*
X787465D01*
X787715D01*
X787965Y243840D01*
Y243590D01*
X787715Y243340D01*
X787215D01*
X786965Y243590D01*
X788465Y243340D02*
Y243590D01*
X788715D01*
Y243340D01*
X788465D01*
X790714Y244840D02*
X789714D01*
Y244090D01*
X790214Y244340D01*
X790464D01*
X790714Y244090D01*
Y243590D01*
X790464Y243340D01*
X789964D01*
X789714Y243590D01*
X791214Y244590D02*
X791464Y244840D01*
X791964D01*
X792214Y244590D01*
Y244340D01*
X791964Y244090D01*
X792214Y243840D01*
Y243590D01*
X791964Y243340D01*
X791464D01*
X791214Y243590D01*
Y243840D01*
X791464Y244090D01*
X791214Y244340D01*
Y244590D01*
X791464Y244090D02*
X791964D01*
X708966Y244590D02*
X708716Y244840D01*
X708216D01*
X707967Y244590D01*
Y244340D01*
X708216Y244090D01*
X708716D01*
X708966Y243840D01*
Y243590D01*
X708716Y243340D01*
X708216D01*
X707967Y243590D01*
X709466Y243340D02*
X709966D01*
X709716D01*
Y244840D01*
X709466Y244590D01*
X710716Y243340D02*
Y243590D01*
X710966D01*
Y243340D01*
X710716D01*
X711965Y244590D02*
X712215Y244840D01*
X712715D01*
X712965Y244590D01*
Y244340D01*
X712715Y244090D01*
X712465D01*
X712715D01*
X712965Y243840D01*
Y243590D01*
X712715Y243340D01*
X712215D01*
X711965Y243590D01*
X713465Y243340D02*
Y243590D01*
X713715D01*
Y243340D01*
X713465D01*
X715714Y244840D02*
X714714D01*
Y244090D01*
X715214Y244340D01*
X715464D01*
X715714Y244090D01*
Y243590D01*
X715464Y243340D01*
X714964D01*
X714714Y243590D01*
X716214D02*
X716464Y243340D01*
X716964D01*
X717214Y243590D01*
Y244590D01*
X716964Y244840D01*
X716464D01*
X716214Y244590D01*
Y244340D01*
X716464Y244090D01*
X717214D01*
X633966Y244590D02*
X633716Y244840D01*
X633216D01*
X632967Y244590D01*
Y244340D01*
X633216Y244090D01*
X633716D01*
X633966Y243840D01*
Y243590D01*
X633716Y243340D01*
X633216D01*
X632967Y243590D01*
X634466Y243340D02*
X634966D01*
X634716D01*
Y244840D01*
X634466Y244590D01*
X635716Y243340D02*
Y243590D01*
X635966D01*
Y243340D01*
X635716D01*
X636965Y244590D02*
X637215Y244840D01*
X637715D01*
X637965Y244590D01*
Y244340D01*
X637715Y244090D01*
X637465D01*
X637715D01*
X637965Y243840D01*
Y243590D01*
X637715Y243340D01*
X637215D01*
X636965Y243590D01*
X638465Y243340D02*
Y243590D01*
X638715D01*
Y243340D01*
X638465D01*
X640714Y244840D02*
X640214Y244590D01*
X639714Y244090D01*
Y243590D01*
X639964Y243340D01*
X640464D01*
X640714Y243590D01*
Y243840D01*
X640464Y244090D01*
X639714D01*
X641214Y244590D02*
X641464Y244840D01*
X641964D01*
X642214Y244590D01*
Y243590D01*
X641964Y243340D01*
X641464D01*
X641214Y243590D01*
Y244590D01*
X558966D02*
X558716Y244840D01*
X558216D01*
X557967Y244590D01*
Y244340D01*
X558216Y244090D01*
X558716D01*
X558966Y243840D01*
Y243590D01*
X558716Y243340D01*
X558216D01*
X557967Y243590D01*
X559466Y243340D02*
X559966D01*
X559716D01*
Y244840D01*
X559466Y244590D01*
X560716Y243340D02*
Y243590D01*
X560966D01*
Y243340D01*
X560716D01*
X561965Y244590D02*
X562215Y244840D01*
X562715D01*
X562965Y244590D01*
Y244340D01*
X562715Y244090D01*
X562465D01*
X562715D01*
X562965Y243840D01*
Y243590D01*
X562715Y243340D01*
X562215D01*
X561965Y243590D01*
X563465Y243340D02*
Y243590D01*
X563715D01*
Y243340D01*
X563465D01*
X565714Y244840D02*
X565214Y244590D01*
X564714Y244090D01*
Y243590D01*
X564964Y243340D01*
X565464D01*
X565714Y243590D01*
Y243840D01*
X565464Y244090D01*
X564714D01*
X566214Y243340D02*
X566714D01*
X566464D01*
Y244840D01*
X566214Y244590D01*
X483966D02*
X483716Y244840D01*
X483216D01*
X482967Y244590D01*
Y244340D01*
X483216Y244090D01*
X483716D01*
X483966Y243840D01*
Y243590D01*
X483716Y243340D01*
X483216D01*
X482967Y243590D01*
X484466Y243340D02*
X484966D01*
X484716D01*
Y244840D01*
X484466Y244590D01*
X485716Y243340D02*
Y243590D01*
X485966D01*
Y243340D01*
X485716D01*
X486965Y244590D02*
X487215Y244840D01*
X487715D01*
X487965Y244590D01*
Y244340D01*
X487715Y244090D01*
X487465D01*
X487715D01*
X487965Y243840D01*
Y243590D01*
X487715Y243340D01*
X487215D01*
X486965Y243590D01*
X488465Y243340D02*
Y243590D01*
X488715D01*
Y243340D01*
X488465D01*
X490714Y244840D02*
X490214Y244590D01*
X489714Y244090D01*
Y243590D01*
X489964Y243340D01*
X490464D01*
X490714Y243590D01*
Y243840D01*
X490464Y244090D01*
X489714D01*
X492214Y243340D02*
X491214D01*
X492214Y244340D01*
Y244590D01*
X491964Y244840D01*
X491464D01*
X491214Y244590D01*
X408966D02*
X408716Y244840D01*
X408216D01*
X407967Y244590D01*
Y244340D01*
X408216Y244090D01*
X408716D01*
X408966Y243840D01*
Y243590D01*
X408716Y243340D01*
X408216D01*
X407967Y243590D01*
X409466Y243340D02*
X409966D01*
X409716D01*
Y244840D01*
X409466Y244590D01*
X410716Y243340D02*
Y243590D01*
X410966D01*
Y243340D01*
X410716D01*
X411965Y244590D02*
X412215Y244840D01*
X412715D01*
X412965Y244590D01*
Y244340D01*
X412715Y244090D01*
X412465D01*
X412715D01*
X412965Y243840D01*
Y243590D01*
X412715Y243340D01*
X412215D01*
X411965Y243590D01*
X413465Y243340D02*
Y243590D01*
X413715D01*
Y243340D01*
X413465D01*
X415714Y244840D02*
X415214Y244590D01*
X414714Y244090D01*
Y243590D01*
X414964Y243340D01*
X415464D01*
X415714Y243590D01*
Y243840D01*
X415464Y244090D01*
X414714D01*
X416214Y244590D02*
X416464Y244840D01*
X416964D01*
X417214Y244590D01*
Y244340D01*
X416964Y244090D01*
X416714D01*
X416964D01*
X417214Y243840D01*
Y243590D01*
X416964Y243340D01*
X416464D01*
X416214Y243590D01*
X333966Y244590D02*
X333716Y244840D01*
X333217D01*
X332966Y244590D01*
Y244340D01*
X333217Y244090D01*
X333716D01*
X333966Y243840D01*
Y243590D01*
X333716Y243340D01*
X333217D01*
X332966Y243590D01*
X334466Y243340D02*
X334966D01*
X334716D01*
Y244840D01*
X334466Y244590D01*
X335716Y243340D02*
Y243590D01*
X335966D01*
Y243340D01*
X335716D01*
X336965Y244590D02*
X337215Y244840D01*
X337715D01*
X337965Y244590D01*
Y244340D01*
X337715Y244090D01*
X337465D01*
X337715D01*
X337965Y243840D01*
Y243590D01*
X337715Y243340D01*
X337215D01*
X336965Y243590D01*
X338465Y243340D02*
Y243590D01*
X338715D01*
Y243340D01*
X338465D01*
X340714Y244840D02*
X340214Y244590D01*
X339714Y244090D01*
Y243590D01*
X339964Y243340D01*
X340464D01*
X340714Y243590D01*
Y243840D01*
X340464Y244090D01*
X339714D01*
X341964Y243340D02*
Y244840D01*
X341214Y244090D01*
X342214D01*
X258966Y244590D02*
X258716Y244840D01*
X258217D01*
X257966Y244590D01*
Y244340D01*
X258217Y244090D01*
X258716D01*
X258966Y243840D01*
Y243590D01*
X258716Y243340D01*
X258217D01*
X257966Y243590D01*
X259466Y243340D02*
X259966D01*
X259716D01*
Y244840D01*
X259466Y244590D01*
X260716Y243340D02*
Y243590D01*
X260966D01*
Y243340D01*
X260716D01*
X261965Y244590D02*
X262215Y244840D01*
X262715D01*
X262965Y244590D01*
Y244340D01*
X262715Y244090D01*
X262465D01*
X262715D01*
X262965Y243840D01*
Y243590D01*
X262715Y243340D01*
X262215D01*
X261965Y243590D01*
X263465Y243340D02*
Y243590D01*
X263715D01*
Y243340D01*
X263465D01*
X265714Y244840D02*
X265214Y244590D01*
X264714Y244090D01*
Y243590D01*
X264964Y243340D01*
X265464D01*
X265714Y243590D01*
Y243840D01*
X265464Y244090D01*
X264714D01*
X267214Y244840D02*
X266214D01*
Y244090D01*
X266714Y244340D01*
X266964D01*
X267214Y244090D01*
Y243590D01*
X266964Y243340D01*
X266464D01*
X266214Y243590D01*
X183966Y244590D02*
X183716Y244840D01*
X183217D01*
X182966Y244590D01*
Y244340D01*
X183217Y244090D01*
X183716D01*
X183966Y243840D01*
Y243590D01*
X183716Y243340D01*
X183217D01*
X182966Y243590D01*
X184466Y243340D02*
X184966D01*
X184716D01*
Y244840D01*
X184466Y244590D01*
X185716Y243340D02*
Y243590D01*
X185966D01*
Y243340D01*
X185716D01*
X186965Y244590D02*
X187215Y244840D01*
X187715D01*
X187965Y244590D01*
Y244340D01*
X187715Y244090D01*
X187465D01*
X187715D01*
X187965Y243840D01*
Y243590D01*
X187715Y243340D01*
X187215D01*
X186965Y243590D01*
X188465Y243340D02*
Y243590D01*
X188715D01*
Y243340D01*
X188465D01*
X190714Y244840D02*
X190214Y244590D01*
X189714Y244090D01*
Y243590D01*
X189964Y243340D01*
X190464D01*
X190714Y243590D01*
Y243840D01*
X190464Y244090D01*
X189714D01*
X192214Y244840D02*
X191714Y244590D01*
X191214Y244090D01*
Y243590D01*
X191464Y243340D01*
X191964D01*
X192214Y243590D01*
Y243840D01*
X191964Y244090D01*
X191214D01*
X90216Y244590D02*
X89966Y244840D01*
X89467D01*
X89217Y244590D01*
Y244340D01*
X89467Y244090D01*
X89966D01*
X90216Y243840D01*
Y243590D01*
X89966Y243340D01*
X89467D01*
X89217Y243590D01*
X90716Y243340D02*
X91216D01*
X90966D01*
Y244840D01*
X90716Y244590D01*
X91966Y243340D02*
Y243590D01*
X92216D01*
Y243340D01*
X91966D01*
X93215Y244590D02*
X93465Y244840D01*
X93965D01*
X94215Y244590D01*
Y244340D01*
X93965Y244090D01*
X93715D01*
X93965D01*
X94215Y243840D01*
Y243590D01*
X93965Y243340D01*
X93465D01*
X93215Y243590D01*
X94715Y243340D02*
Y243590D01*
X94965D01*
Y243340D01*
X94715D01*
X96964Y244840D02*
X96464Y244590D01*
X95964Y244090D01*
Y243590D01*
X96214Y243340D01*
X96714D01*
X96964Y243590D01*
Y243840D01*
X96714Y244090D01*
X95964D01*
X97464Y244840D02*
X98464D01*
Y244590D01*
X97464Y243590D01*
Y243340D01*
X1421466Y319590D02*
X1421216Y319840D01*
X1420716D01*
X1420467Y319590D01*
Y319340D01*
X1420716Y319090D01*
X1421216D01*
X1421466Y318840D01*
Y318590D01*
X1421216Y318340D01*
X1420716D01*
X1420467Y318590D01*
X1421966Y318340D02*
X1422466D01*
X1422216D01*
Y319840D01*
X1421966Y319590D01*
X1423216Y318340D02*
Y318590D01*
X1423466D01*
Y318340D01*
X1423216D01*
X1424465Y319590D02*
X1424715Y319840D01*
X1425215D01*
X1425465Y319590D01*
Y319340D01*
X1425215Y319090D01*
X1424965D01*
X1425215D01*
X1425465Y318840D01*
Y318590D01*
X1425215Y318340D01*
X1424715D01*
X1424465Y318590D01*
X1425965Y318340D02*
Y318590D01*
X1426215D01*
Y318340D01*
X1425965D01*
X1428214Y319840D02*
X1427714Y319590D01*
X1427214Y319090D01*
Y318590D01*
X1427464Y318340D01*
X1427964D01*
X1428214Y318590D01*
Y318840D01*
X1427964Y319090D01*
X1427214D01*
X1428714Y319590D02*
X1428964Y319840D01*
X1429464D01*
X1429714Y319590D01*
Y319340D01*
X1429464Y319090D01*
X1429714Y318840D01*
Y318590D01*
X1429464Y318340D01*
X1428964D01*
X1428714Y318590D01*
Y318840D01*
X1428964Y319090D01*
X1428714Y319340D01*
Y319590D01*
X1428964Y319090D02*
X1429464D01*
X1346466Y319590D02*
X1346216Y319840D01*
X1345716D01*
X1345467Y319590D01*
Y319340D01*
X1345716Y319090D01*
X1346216D01*
X1346466Y318840D01*
Y318590D01*
X1346216Y318340D01*
X1345716D01*
X1345467Y318590D01*
X1346966Y318340D02*
X1347466D01*
X1347216D01*
Y319840D01*
X1346966Y319590D01*
X1348216Y318340D02*
Y318590D01*
X1348466D01*
Y318340D01*
X1348216D01*
X1349465Y319590D02*
X1349715Y319840D01*
X1350215D01*
X1350465Y319590D01*
Y319340D01*
X1350215Y319090D01*
X1349965D01*
X1350215D01*
X1350465Y318840D01*
Y318590D01*
X1350215Y318340D01*
X1349715D01*
X1349465Y318590D01*
X1350965Y318340D02*
Y318590D01*
X1351215D01*
Y318340D01*
X1350965D01*
X1353214Y319840D02*
X1352714Y319590D01*
X1352214Y319090D01*
Y318590D01*
X1352464Y318340D01*
X1352964D01*
X1353214Y318590D01*
Y318840D01*
X1352964Y319090D01*
X1352214D01*
X1353714Y318590D02*
X1353964Y318340D01*
X1354464D01*
X1354714Y318590D01*
Y319590D01*
X1354464Y319840D01*
X1353964D01*
X1353714Y319590D01*
Y319340D01*
X1353964Y319090D01*
X1354714D01*
X1270645Y319208D02*
X1270395Y319458D01*
X1269896D01*
X1269646Y319208D01*
Y318958D01*
X1269896Y318708D01*
X1270395D01*
X1270645Y318459D01*
Y318209D01*
X1270395Y317959D01*
X1269896D01*
X1269646Y318209D01*
X1271145Y317959D02*
X1271645D01*
X1271395D01*
Y319458D01*
X1271145Y319208D01*
X1272395Y317959D02*
Y318209D01*
X1272645D01*
Y317959D01*
X1272395D01*
X1273644Y319208D02*
X1273894Y319458D01*
X1274394D01*
X1274644Y319208D01*
Y318958D01*
X1274394Y318708D01*
X1274144D01*
X1274394D01*
X1274644Y318459D01*
Y318209D01*
X1274394Y317959D01*
X1273894D01*
X1273644Y318209D01*
X1275144Y317959D02*
Y318209D01*
X1275394D01*
Y317959D01*
X1275144D01*
X1276394Y319458D02*
X1277393D01*
Y319208D01*
X1276394Y318209D01*
Y317959D01*
X1277893Y319208D02*
X1278143Y319458D01*
X1278643D01*
X1278893Y319208D01*
Y318209D01*
X1278643Y317959D01*
X1278143D01*
X1277893Y318209D01*
Y319208D01*
X1083966Y319590D02*
X1083716Y319840D01*
X1083216D01*
X1082967Y319590D01*
Y319340D01*
X1083216Y319090D01*
X1083716D01*
X1083966Y318840D01*
Y318590D01*
X1083716Y318340D01*
X1083216D01*
X1082967Y318590D01*
X1084466Y318340D02*
X1084966D01*
X1084716D01*
Y319840D01*
X1084466Y319590D01*
X1085716Y318340D02*
Y318590D01*
X1085966D01*
Y318340D01*
X1085716D01*
X1086965Y319590D02*
X1087215Y319840D01*
X1087715D01*
X1087965Y319590D01*
Y319340D01*
X1087715Y319090D01*
X1087465D01*
X1087715D01*
X1087965Y318840D01*
Y318590D01*
X1087715Y318340D01*
X1087215D01*
X1086965Y318590D01*
X1088465Y318340D02*
Y318590D01*
X1088715D01*
Y318340D01*
X1088465D01*
X1089714Y319840D02*
X1090714D01*
Y319590D01*
X1089714Y318590D01*
Y318340D01*
X1092214D02*
X1091214D01*
X1092214Y319340D01*
Y319590D01*
X1091964Y319840D01*
X1091464D01*
X1091214Y319590D01*
X971466D02*
X971216Y319840D01*
X970716D01*
X970467Y319590D01*
Y319340D01*
X970716Y319090D01*
X971216D01*
X971466Y318840D01*
Y318590D01*
X971216Y318340D01*
X970716D01*
X970467Y318590D01*
X971966Y318340D02*
X972466D01*
X972216D01*
Y319840D01*
X971966Y319590D01*
X973216Y318340D02*
Y318590D01*
X973466D01*
Y318340D01*
X973216D01*
X974465Y319590D02*
X974715Y319840D01*
X975215D01*
X975465Y319590D01*
Y319340D01*
X975215Y319090D01*
X974965D01*
X975215D01*
X975465Y318840D01*
Y318590D01*
X975215Y318340D01*
X974715D01*
X974465Y318590D01*
X975965Y318340D02*
Y318590D01*
X976215D01*
Y318340D01*
X975965D01*
X977214Y319840D02*
X978214D01*
Y319590D01*
X977214Y318590D01*
Y318340D01*
X978714Y319590D02*
X978964Y319840D01*
X979464D01*
X979714Y319590D01*
Y319340D01*
X979464Y319090D01*
X979214D01*
X979464D01*
X979714Y318840D01*
Y318590D01*
X979464Y318340D01*
X978964D01*
X978714Y318590D01*
X896466Y319590D02*
X896216Y319840D01*
X895716D01*
X895467Y319590D01*
Y319340D01*
X895716Y319090D01*
X896216D01*
X896466Y318840D01*
Y318590D01*
X896216Y318340D01*
X895716D01*
X895467Y318590D01*
X896966Y318340D02*
X897466D01*
X897216D01*
Y319840D01*
X896966Y319590D01*
X898216Y318340D02*
Y318590D01*
X898466D01*
Y318340D01*
X898216D01*
X899465Y319590D02*
X899715Y319840D01*
X900215D01*
X900465Y319590D01*
Y319340D01*
X900215Y319090D01*
X899965D01*
X900215D01*
X900465Y318840D01*
Y318590D01*
X900215Y318340D01*
X899715D01*
X899465Y318590D01*
X900965Y318340D02*
Y318590D01*
X901215D01*
Y318340D01*
X900965D01*
X902214Y319840D02*
X903214D01*
Y319590D01*
X902214Y318590D01*
Y318340D01*
X904464D02*
Y319840D01*
X903714Y319090D01*
X904714D01*
X821466Y319590D02*
X821216Y319840D01*
X820716D01*
X820467Y319590D01*
Y319340D01*
X820716Y319090D01*
X821216D01*
X821466Y318840D01*
Y318590D01*
X821216Y318340D01*
X820716D01*
X820467Y318590D01*
X821966Y318340D02*
X822466D01*
X822216D01*
Y319840D01*
X821966Y319590D01*
X823216Y318340D02*
Y318590D01*
X823466D01*
Y318340D01*
X823216D01*
X824465Y319590D02*
X824715Y319840D01*
X825215D01*
X825465Y319590D01*
Y319340D01*
X825215Y319090D01*
X824965D01*
X825215D01*
X825465Y318840D01*
Y318590D01*
X825215Y318340D01*
X824715D01*
X824465Y318590D01*
X825965Y318340D02*
Y318590D01*
X826215D01*
Y318340D01*
X825965D01*
X827214Y319840D02*
X828214D01*
Y319590D01*
X827214Y318590D01*
Y318340D01*
X829714Y319840D02*
X828714D01*
Y319090D01*
X829214Y319340D01*
X829464D01*
X829714Y319090D01*
Y318590D01*
X829464Y318340D01*
X828964D01*
X828714Y318590D01*
X746466Y319590D02*
X746216Y319840D01*
X745716D01*
X745467Y319590D01*
Y319340D01*
X745716Y319090D01*
X746216D01*
X746466Y318840D01*
Y318590D01*
X746216Y318340D01*
X745716D01*
X745467Y318590D01*
X746966Y318340D02*
X747466D01*
X747216D01*
Y319840D01*
X746966Y319590D01*
X748216Y318340D02*
Y318590D01*
X748466D01*
Y318340D01*
X748216D01*
X749465Y319590D02*
X749715Y319840D01*
X750215D01*
X750465Y319590D01*
Y319340D01*
X750215Y319090D01*
X749965D01*
X750215D01*
X750465Y318840D01*
Y318590D01*
X750215Y318340D01*
X749715D01*
X749465Y318590D01*
X750965Y318340D02*
Y318590D01*
X751215D01*
Y318340D01*
X750965D01*
X752214Y319840D02*
X753214D01*
Y319590D01*
X752214Y318590D01*
Y318340D01*
X754714Y319840D02*
X754214Y319590D01*
X753714Y319090D01*
Y318590D01*
X753964Y318340D01*
X754464D01*
X754714Y318590D01*
Y318840D01*
X754464Y319090D01*
X753714D01*
X671466Y319590D02*
X671216Y319840D01*
X670716D01*
X670467Y319590D01*
Y319340D01*
X670716Y319090D01*
X671216D01*
X671466Y318840D01*
Y318590D01*
X671216Y318340D01*
X670716D01*
X670467Y318590D01*
X671966Y318340D02*
X672466D01*
X672216D01*
Y319840D01*
X671966Y319590D01*
X673216Y318340D02*
Y318590D01*
X673466D01*
Y318340D01*
X673216D01*
X674465Y319590D02*
X674715Y319840D01*
X675215D01*
X675465Y319590D01*
Y319340D01*
X675215Y319090D01*
X674965D01*
X675215D01*
X675465Y318840D01*
Y318590D01*
X675215Y318340D01*
X674715D01*
X674465Y318590D01*
X675965Y318340D02*
Y318590D01*
X676215D01*
Y318340D01*
X675965D01*
X677214Y319840D02*
X678214D01*
Y319590D01*
X677214Y318590D01*
Y318340D01*
X678714Y319840D02*
X679714D01*
Y319590D01*
X678714Y318590D01*
Y318340D01*
X596466Y319590D02*
X596216Y319840D01*
X595716D01*
X595467Y319590D01*
Y319340D01*
X595716Y319090D01*
X596216D01*
X596466Y318840D01*
Y318590D01*
X596216Y318340D01*
X595716D01*
X595467Y318590D01*
X596966Y318340D02*
X597466D01*
X597216D01*
Y319840D01*
X596966Y319590D01*
X598216Y318340D02*
Y318590D01*
X598466D01*
Y318340D01*
X598216D01*
X599465Y319590D02*
X599715Y319840D01*
X600215D01*
X600465Y319590D01*
Y319340D01*
X600215Y319090D01*
X599965D01*
X600215D01*
X600465Y318840D01*
Y318590D01*
X600215Y318340D01*
X599715D01*
X599465Y318590D01*
X600965Y318340D02*
Y318590D01*
X601215D01*
Y318340D01*
X600965D01*
X602214Y319840D02*
X603214D01*
Y319590D01*
X602214Y318590D01*
Y318340D01*
X603714Y319590D02*
X603964Y319840D01*
X604464D01*
X604714Y319590D01*
Y319340D01*
X604464Y319090D01*
X604714Y318840D01*
Y318590D01*
X604464Y318340D01*
X603964D01*
X603714Y318590D01*
Y318840D01*
X603964Y319090D01*
X603714Y319340D01*
Y319590D01*
X603964Y319090D02*
X604464D01*
X521466Y319590D02*
X521216Y319840D01*
X520716D01*
X520467Y319590D01*
Y319340D01*
X520716Y319090D01*
X521216D01*
X521466Y318840D01*
Y318590D01*
X521216Y318340D01*
X520716D01*
X520467Y318590D01*
X521966Y318340D02*
X522466D01*
X522216D01*
Y319840D01*
X521966Y319590D01*
X523216Y318340D02*
Y318590D01*
X523466D01*
Y318340D01*
X523216D01*
X524465Y319590D02*
X524715Y319840D01*
X525215D01*
X525465Y319590D01*
Y319340D01*
X525215Y319090D01*
X524965D01*
X525215D01*
X525465Y318840D01*
Y318590D01*
X525215Y318340D01*
X524715D01*
X524465Y318590D01*
X525965Y318340D02*
Y318590D01*
X526215D01*
Y318340D01*
X525965D01*
X527214Y319840D02*
X528214D01*
Y319590D01*
X527214Y318590D01*
Y318340D01*
X528714Y318590D02*
X528964Y318340D01*
X529464D01*
X529714Y318590D01*
Y319590D01*
X529464Y319840D01*
X528964D01*
X528714Y319590D01*
Y319340D01*
X528964Y319090D01*
X529714D01*
X446466Y319590D02*
X446216Y319840D01*
X445716D01*
X445467Y319590D01*
Y319340D01*
X445716Y319090D01*
X446216D01*
X446466Y318840D01*
Y318590D01*
X446216Y318340D01*
X445716D01*
X445467Y318590D01*
X446966Y318340D02*
X447466D01*
X447216D01*
Y319840D01*
X446966Y319590D01*
X448216Y318340D02*
Y318590D01*
X448466D01*
Y318340D01*
X448216D01*
X449465Y319590D02*
X449715Y319840D01*
X450215D01*
X450465Y319590D01*
Y319340D01*
X450215Y319090D01*
X449965D01*
X450215D01*
X450465Y318840D01*
Y318590D01*
X450215Y318340D01*
X449715D01*
X449465Y318590D01*
X450965Y318340D02*
Y318590D01*
X451215D01*
Y318340D01*
X450965D01*
X452214Y319590D02*
X452464Y319840D01*
X452964D01*
X453214Y319590D01*
Y319340D01*
X452964Y319090D01*
X453214Y318840D01*
Y318590D01*
X452964Y318340D01*
X452464D01*
X452214Y318590D01*
Y318840D01*
X452464Y319090D01*
X452214Y319340D01*
Y319590D01*
X452464Y319090D02*
X452964D01*
X453714Y319590D02*
X453964Y319840D01*
X454464D01*
X454714Y319590D01*
Y318590D01*
X454464Y318340D01*
X453964D01*
X453714Y318590D01*
Y319590D01*
X371466D02*
X371216Y319840D01*
X370717D01*
X370466Y319590D01*
Y319340D01*
X370717Y319090D01*
X371216D01*
X371466Y318840D01*
Y318590D01*
X371216Y318340D01*
X370717D01*
X370466Y318590D01*
X371966Y318340D02*
X372466D01*
X372216D01*
Y319840D01*
X371966Y319590D01*
X373216Y318340D02*
Y318590D01*
X373466D01*
Y318340D01*
X373216D01*
X374465Y319590D02*
X374715Y319840D01*
X375215D01*
X375465Y319590D01*
Y319340D01*
X375215Y319090D01*
X374965D01*
X375215D01*
X375465Y318840D01*
Y318590D01*
X375215Y318340D01*
X374715D01*
X374465Y318590D01*
X375965Y318340D02*
Y318590D01*
X376215D01*
Y318340D01*
X375965D01*
X377214Y319590D02*
X377464Y319840D01*
X377964D01*
X378214Y319590D01*
Y319340D01*
X377964Y319090D01*
X378214Y318840D01*
Y318590D01*
X377964Y318340D01*
X377464D01*
X377214Y318590D01*
Y318840D01*
X377464Y319090D01*
X377214Y319340D01*
Y319590D01*
X377464Y319090D02*
X377964D01*
X378714Y318340D02*
X379214D01*
X378964D01*
Y319840D01*
X378714Y319590D01*
X296466D02*
X296216Y319840D01*
X295717D01*
X295466Y319590D01*
Y319340D01*
X295717Y319090D01*
X296216D01*
X296466Y318840D01*
Y318590D01*
X296216Y318340D01*
X295717D01*
X295466Y318590D01*
X296966Y318340D02*
X297466D01*
X297216D01*
Y319840D01*
X296966Y319590D01*
X298216Y318340D02*
Y318590D01*
X298466D01*
Y318340D01*
X298216D01*
X299465Y319590D02*
X299715Y319840D01*
X300215D01*
X300465Y319590D01*
Y319340D01*
X300215Y319090D01*
X299965D01*
X300215D01*
X300465Y318840D01*
Y318590D01*
X300215Y318340D01*
X299715D01*
X299465Y318590D01*
X300965Y318340D02*
Y318590D01*
X301215D01*
Y318340D01*
X300965D01*
X302214Y319590D02*
X302464Y319840D01*
X302964D01*
X303214Y319590D01*
Y319340D01*
X302964Y319090D01*
X303214Y318840D01*
Y318590D01*
X302964Y318340D01*
X302464D01*
X302214Y318590D01*
Y318840D01*
X302464Y319090D01*
X302214Y319340D01*
Y319590D01*
X302464Y319090D02*
X302964D01*
X304714Y318340D02*
X303714D01*
X304714Y319340D01*
Y319590D01*
X304464Y319840D01*
X303964D01*
X303714Y319590D01*
X221466D02*
X221216Y319840D01*
X220717D01*
X220466Y319590D01*
Y319340D01*
X220717Y319090D01*
X221216D01*
X221466Y318840D01*
Y318590D01*
X221216Y318340D01*
X220717D01*
X220466Y318590D01*
X221966Y318340D02*
X222466D01*
X222216D01*
Y319840D01*
X221966Y319590D01*
X223216Y318340D02*
Y318590D01*
X223466D01*
Y318340D01*
X223216D01*
X224465Y319590D02*
X224715Y319840D01*
X225215D01*
X225465Y319590D01*
Y319340D01*
X225215Y319090D01*
X224965D01*
X225215D01*
X225465Y318840D01*
Y318590D01*
X225215Y318340D01*
X224715D01*
X224465Y318590D01*
X225965Y318340D02*
Y318590D01*
X226215D01*
Y318340D01*
X225965D01*
X227214Y319590D02*
X227464Y319840D01*
X227964D01*
X228214Y319590D01*
Y319340D01*
X227964Y319090D01*
X228214Y318840D01*
Y318590D01*
X227964Y318340D01*
X227464D01*
X227214Y318590D01*
Y318840D01*
X227464Y319090D01*
X227214Y319340D01*
Y319590D01*
X227464Y319090D02*
X227964D01*
X228714Y319590D02*
X228964Y319840D01*
X229464D01*
X229714Y319590D01*
Y319340D01*
X229464Y319090D01*
X229214D01*
X229464D01*
X229714Y318840D01*
Y318590D01*
X229464Y318340D01*
X228964D01*
X228714Y318590D01*
X146466Y319590D02*
X146216Y319840D01*
X145717D01*
X145466Y319590D01*
Y319340D01*
X145717Y319090D01*
X146216D01*
X146466Y318840D01*
Y318590D01*
X146216Y318340D01*
X145717D01*
X145466Y318590D01*
X146966Y318340D02*
X147466D01*
X147216D01*
Y319840D01*
X146966Y319590D01*
X148216Y318340D02*
Y318590D01*
X148466D01*
Y318340D01*
X148216D01*
X149465Y319590D02*
X149715Y319840D01*
X150215D01*
X150465Y319590D01*
Y319340D01*
X150215Y319090D01*
X149965D01*
X150215D01*
X150465Y318840D01*
Y318590D01*
X150215Y318340D01*
X149715D01*
X149465Y318590D01*
X150965Y318340D02*
Y318590D01*
X151215D01*
Y318340D01*
X150965D01*
X152214Y319590D02*
X152464Y319840D01*
X152964D01*
X153214Y319590D01*
Y319340D01*
X152964Y319090D01*
X153214Y318840D01*
Y318590D01*
X152964Y318340D01*
X152464D01*
X152214Y318590D01*
Y318840D01*
X152464Y319090D01*
X152214Y319340D01*
Y319590D01*
X152464Y319090D02*
X152964D01*
X154464Y318340D02*
Y319840D01*
X153714Y319090D01*
X154714D01*
M02*
