G04*
G04 #@! TF.GenerationSoftware,Altium Limited,Altium Designer,19.1.5 (86)*
G04*
G04 Layer_Color=8388736*
%FSLAX25Y25*%
%MOIN*%
G70*
G01*
G75*
%ADD13R,0.07887X0.03556*%
%ADD14C,0.07099*%
%ADD15C,0.06706*%
%ADD16C,0.07887*%
%ADD17C,0.06312*%
%ADD18O,0.14580X0.14580*%
%ADD19C,0.08674*%
%ADD20C,0.18300*%
%ADD21C,0.02800*%
D13*
X1032228Y65888D02*
D03*
Y71793D02*
D03*
X1018055D02*
D03*
Y65888D02*
D03*
X844728D02*
D03*
Y71793D02*
D03*
X830555D02*
D03*
Y65888D02*
D03*
X1182228Y365888D02*
D03*
Y371793D02*
D03*
X1168055D02*
D03*
Y365888D02*
D03*
X57228D02*
D03*
Y371793D02*
D03*
X43055D02*
D03*
Y365888D02*
D03*
X1407228Y103388D02*
D03*
Y109293D02*
D03*
X1393055D02*
D03*
Y103388D02*
D03*
X1332228Y65888D02*
D03*
Y71793D02*
D03*
X1318055D02*
D03*
Y65888D02*
D03*
X1257228D02*
D03*
Y71793D02*
D03*
X1243055D02*
D03*
Y65888D02*
D03*
X1332228Y140888D02*
D03*
Y146793D02*
D03*
X1318055D02*
D03*
Y140888D02*
D03*
X1257228D02*
D03*
Y146793D02*
D03*
X1243055D02*
D03*
Y140888D02*
D03*
X1182228D02*
D03*
Y146793D02*
D03*
X1168055D02*
D03*
Y140888D02*
D03*
X1407228Y253388D02*
D03*
Y259293D02*
D03*
X1393055D02*
D03*
Y253388D02*
D03*
X1332228Y215888D02*
D03*
Y221793D02*
D03*
X1318055D02*
D03*
Y215888D02*
D03*
X1257228D02*
D03*
Y221793D02*
D03*
X1243055D02*
D03*
Y215888D02*
D03*
X1182228D02*
D03*
Y221793D02*
D03*
X1168055D02*
D03*
Y215888D02*
D03*
X1332228Y290888D02*
D03*
Y296793D02*
D03*
X1318055D02*
D03*
Y290888D02*
D03*
X1257228D02*
D03*
Y296793D02*
D03*
X1243055D02*
D03*
Y290888D02*
D03*
X1182228D02*
D03*
Y296793D02*
D03*
X1168055D02*
D03*
Y290888D02*
D03*
X1107228Y140888D02*
D03*
Y146793D02*
D03*
X1093055D02*
D03*
Y140888D02*
D03*
X1182228Y65888D02*
D03*
Y71793D02*
D03*
X1168055D02*
D03*
Y65888D02*
D03*
X1107228D02*
D03*
Y71793D02*
D03*
X1093055D02*
D03*
Y65888D02*
D03*
X947853D02*
D03*
Y71793D02*
D03*
X933680D02*
D03*
Y65888D02*
D03*
X750978D02*
D03*
Y71793D02*
D03*
X736805D02*
D03*
Y65888D02*
D03*
X657228D02*
D03*
Y71793D02*
D03*
X643055D02*
D03*
Y65888D02*
D03*
X563478D02*
D03*
Y71793D02*
D03*
X549305D02*
D03*
Y65888D02*
D03*
X488478D02*
D03*
Y71793D02*
D03*
X474305D02*
D03*
Y65888D02*
D03*
X394728D02*
D03*
Y71793D02*
D03*
X380555D02*
D03*
Y65888D02*
D03*
X300978D02*
D03*
Y71793D02*
D03*
X286805D02*
D03*
Y65888D02*
D03*
X225978D02*
D03*
Y71793D02*
D03*
X211805D02*
D03*
Y65888D02*
D03*
X150978D02*
D03*
Y71793D02*
D03*
X136805D02*
D03*
Y65888D02*
D03*
X66603D02*
D03*
Y71793D02*
D03*
X52430D02*
D03*
Y65888D02*
D03*
X1004103Y140888D02*
D03*
Y146793D02*
D03*
X989930D02*
D03*
Y140888D02*
D03*
X900978D02*
D03*
Y146793D02*
D03*
X886805D02*
D03*
Y140888D02*
D03*
X825978D02*
D03*
Y146793D02*
D03*
X811805D02*
D03*
Y140888D02*
D03*
X750978D02*
D03*
Y146793D02*
D03*
X736805D02*
D03*
Y140888D02*
D03*
X675978D02*
D03*
Y146793D02*
D03*
X661805D02*
D03*
Y140888D02*
D03*
X600978D02*
D03*
Y146793D02*
D03*
X586805D02*
D03*
Y140888D02*
D03*
X525978D02*
D03*
Y146793D02*
D03*
X511805D02*
D03*
Y140888D02*
D03*
X450978D02*
D03*
Y146793D02*
D03*
X436805D02*
D03*
Y140888D02*
D03*
X375978D02*
D03*
Y146793D02*
D03*
X361805D02*
D03*
Y140888D02*
D03*
X300978D02*
D03*
Y146793D02*
D03*
X286805D02*
D03*
Y140888D02*
D03*
X225978D02*
D03*
Y146793D02*
D03*
X211805D02*
D03*
Y140888D02*
D03*
X113478D02*
D03*
Y146793D02*
D03*
X99305D02*
D03*
Y140888D02*
D03*
X1060353Y215888D02*
D03*
Y221793D02*
D03*
X1046180D02*
D03*
Y215888D02*
D03*
X938478D02*
D03*
Y221793D02*
D03*
X924305D02*
D03*
Y215888D02*
D03*
X863478D02*
D03*
Y221793D02*
D03*
X849305D02*
D03*
Y215888D02*
D03*
X788478D02*
D03*
Y221793D02*
D03*
X774305D02*
D03*
Y215888D02*
D03*
X713478D02*
D03*
Y221793D02*
D03*
X699305D02*
D03*
Y215888D02*
D03*
X638478D02*
D03*
Y221793D02*
D03*
X624305D02*
D03*
Y215888D02*
D03*
X563478D02*
D03*
Y221793D02*
D03*
X549305D02*
D03*
Y215888D02*
D03*
X488478D02*
D03*
Y221793D02*
D03*
X474305D02*
D03*
Y215888D02*
D03*
X413478D02*
D03*
Y221793D02*
D03*
X399305D02*
D03*
Y215888D02*
D03*
X338478D02*
D03*
Y221793D02*
D03*
X324305D02*
D03*
Y215888D02*
D03*
X263478D02*
D03*
Y221793D02*
D03*
X249305D02*
D03*
Y215888D02*
D03*
X188478D02*
D03*
Y221793D02*
D03*
X174305D02*
D03*
Y215888D02*
D03*
X94728D02*
D03*
Y221793D02*
D03*
X80555D02*
D03*
Y215888D02*
D03*
X1088478Y290888D02*
D03*
Y296793D02*
D03*
X1074305D02*
D03*
Y290888D02*
D03*
X994728D02*
D03*
Y296793D02*
D03*
X980555D02*
D03*
Y290888D02*
D03*
X919728D02*
D03*
Y296793D02*
D03*
X905555D02*
D03*
Y290888D02*
D03*
X844728D02*
D03*
Y296793D02*
D03*
X830555D02*
D03*
Y290888D02*
D03*
X769728D02*
D03*
Y296793D02*
D03*
X755555D02*
D03*
Y290888D02*
D03*
X694728D02*
D03*
Y296793D02*
D03*
X680555D02*
D03*
Y290888D02*
D03*
X619728D02*
D03*
Y296793D02*
D03*
X605555D02*
D03*
Y290888D02*
D03*
X544728D02*
D03*
Y296793D02*
D03*
X530555D02*
D03*
Y290888D02*
D03*
X469728D02*
D03*
Y296793D02*
D03*
X455555D02*
D03*
Y290888D02*
D03*
X394728D02*
D03*
Y296793D02*
D03*
X380555D02*
D03*
Y290888D02*
D03*
X319728D02*
D03*
Y296793D02*
D03*
X305555D02*
D03*
Y290888D02*
D03*
X244728D02*
D03*
Y296793D02*
D03*
X230555D02*
D03*
Y290888D02*
D03*
X169728D02*
D03*
Y296793D02*
D03*
X155555D02*
D03*
Y290888D02*
D03*
X75978D02*
D03*
Y296793D02*
D03*
X61805D02*
D03*
Y290888D02*
D03*
X1407228Y365888D02*
D03*
Y371793D02*
D03*
X1393055D02*
D03*
Y365888D02*
D03*
X1332228D02*
D03*
Y371793D02*
D03*
X1318055D02*
D03*
Y365888D02*
D03*
X1256407Y365506D02*
D03*
Y371412D02*
D03*
X1242234D02*
D03*
Y365506D02*
D03*
X1069728Y365888D02*
D03*
Y371793D02*
D03*
X1055555D02*
D03*
Y365888D02*
D03*
X957228D02*
D03*
Y371793D02*
D03*
X943055D02*
D03*
Y365888D02*
D03*
X882228D02*
D03*
Y371793D02*
D03*
X868055D02*
D03*
Y365888D02*
D03*
X807228D02*
D03*
Y371793D02*
D03*
X793055D02*
D03*
Y365888D02*
D03*
X732228D02*
D03*
Y371793D02*
D03*
X718055D02*
D03*
Y365888D02*
D03*
X657228D02*
D03*
Y371793D02*
D03*
X643055D02*
D03*
Y365888D02*
D03*
X582228D02*
D03*
Y371793D02*
D03*
X568055D02*
D03*
Y365888D02*
D03*
X507228D02*
D03*
Y371793D02*
D03*
X493055D02*
D03*
Y365888D02*
D03*
X432228D02*
D03*
Y371793D02*
D03*
X418055D02*
D03*
Y365888D02*
D03*
X357228D02*
D03*
Y371793D02*
D03*
X343055D02*
D03*
Y365888D02*
D03*
X282228D02*
D03*
Y371793D02*
D03*
X268055D02*
D03*
Y365888D02*
D03*
X207228D02*
D03*
Y371793D02*
D03*
X193055D02*
D03*
Y365888D02*
D03*
X132228D02*
D03*
Y371793D02*
D03*
X118055D02*
D03*
Y365888D02*
D03*
D14*
X612641Y346539D02*
D03*
X837641D02*
D03*
D15*
X612641Y306776D02*
D03*
X837641D02*
D03*
D16*
X1025141Y27071D02*
D03*
X1005456Y35339D02*
D03*
X837641Y27071D02*
D03*
X817956Y35339D02*
D03*
X1175141Y327071D02*
D03*
X1155456Y335339D02*
D03*
X50141Y327071D02*
D03*
X30456Y335339D02*
D03*
X1400141Y64571D02*
D03*
X1380456Y72839D02*
D03*
X1325141Y27071D02*
D03*
X1305456Y35339D02*
D03*
X1250141Y27071D02*
D03*
X1230456Y35339D02*
D03*
X1325141Y102071D02*
D03*
X1305456Y110339D02*
D03*
X1250141Y102071D02*
D03*
X1230456Y110339D02*
D03*
X1175141Y102071D02*
D03*
X1155456Y110339D02*
D03*
X1400141Y214571D02*
D03*
X1380456Y222839D02*
D03*
X1325141Y177071D02*
D03*
X1305456Y185339D02*
D03*
X1250141Y177071D02*
D03*
X1230456Y185339D02*
D03*
X1175141Y177071D02*
D03*
X1155456Y185339D02*
D03*
X1325141Y252071D02*
D03*
X1305456Y260339D02*
D03*
X1250141Y252071D02*
D03*
X1230456Y260339D02*
D03*
X1175141Y252071D02*
D03*
X1155456Y260339D02*
D03*
X1100141Y102071D02*
D03*
X1080456Y110339D02*
D03*
X1175141Y27071D02*
D03*
X1155456Y35339D02*
D03*
X1100141Y27071D02*
D03*
X1080456Y35339D02*
D03*
X940766Y27071D02*
D03*
X921081Y35339D02*
D03*
X743891Y27071D02*
D03*
X724206Y35339D02*
D03*
X650141Y27071D02*
D03*
X630456Y35339D02*
D03*
X556391Y27071D02*
D03*
X536706Y35339D02*
D03*
X481391Y27071D02*
D03*
X461706Y35339D02*
D03*
X387641Y27071D02*
D03*
X367956Y35339D02*
D03*
X293891Y27071D02*
D03*
X274206Y35339D02*
D03*
X218891Y27071D02*
D03*
X199206Y35339D02*
D03*
X143891Y27071D02*
D03*
X124206Y35339D02*
D03*
X59516Y27071D02*
D03*
X39831Y35339D02*
D03*
X997016Y102071D02*
D03*
X977331Y110339D02*
D03*
X893891Y102071D02*
D03*
X874206Y110339D02*
D03*
X818891Y102071D02*
D03*
X799206Y110339D02*
D03*
X743891Y102071D02*
D03*
X724206Y110339D02*
D03*
X668891Y102071D02*
D03*
X649206Y110339D02*
D03*
X593891Y102071D02*
D03*
X574206Y110339D02*
D03*
X518891Y102071D02*
D03*
X499206Y110339D02*
D03*
X443891Y102071D02*
D03*
X424206Y110339D02*
D03*
X368891Y102071D02*
D03*
X349206Y110339D02*
D03*
X293891Y102071D02*
D03*
X274206Y110339D02*
D03*
X218891Y102071D02*
D03*
X199206Y110339D02*
D03*
X106391Y102071D02*
D03*
X86706Y110339D02*
D03*
X1053266Y177071D02*
D03*
X1033581Y185339D02*
D03*
X931391Y177071D02*
D03*
X911706Y185339D02*
D03*
X856391Y177071D02*
D03*
X836706Y185339D02*
D03*
X781391Y177071D02*
D03*
X761706Y185339D02*
D03*
X706391Y177071D02*
D03*
X686706Y185339D02*
D03*
X631391Y177071D02*
D03*
X611706Y185339D02*
D03*
X556391Y177071D02*
D03*
X536706Y185339D02*
D03*
X481391Y177071D02*
D03*
X461706Y185339D02*
D03*
X406391Y177071D02*
D03*
X386706Y185339D02*
D03*
X331391Y177071D02*
D03*
X311706Y185339D02*
D03*
X256391Y177071D02*
D03*
X236706Y185339D02*
D03*
X181391Y177071D02*
D03*
X161706Y185339D02*
D03*
X87641Y177071D02*
D03*
X67956Y185339D02*
D03*
X1081391Y252071D02*
D03*
X1061706Y260339D02*
D03*
X987641Y252071D02*
D03*
X967956Y260339D02*
D03*
X912641Y252071D02*
D03*
X892956Y260339D02*
D03*
X837641Y252071D02*
D03*
X817956Y260339D02*
D03*
X762641Y252071D02*
D03*
X742956Y260339D02*
D03*
X687641Y252071D02*
D03*
X667956Y260339D02*
D03*
X612641Y252071D02*
D03*
X592956Y260339D02*
D03*
X537641Y252071D02*
D03*
X517956Y260339D02*
D03*
X462641Y252071D02*
D03*
X442956Y260339D02*
D03*
X387641Y252071D02*
D03*
X367956Y260339D02*
D03*
X312641Y252071D02*
D03*
X292956Y260339D02*
D03*
X237641Y252071D02*
D03*
X217956Y260339D02*
D03*
X162641Y252071D02*
D03*
X142956Y260339D02*
D03*
X68891Y252071D02*
D03*
X49206Y260339D02*
D03*
X1400141Y327071D02*
D03*
X1380456Y335339D02*
D03*
X1325141Y327071D02*
D03*
X1305456Y335339D02*
D03*
X1249320Y326689D02*
D03*
X1229635Y334957D02*
D03*
X1062641Y327071D02*
D03*
X1042956Y335339D02*
D03*
X950141Y327071D02*
D03*
X930456Y335339D02*
D03*
X875141Y327071D02*
D03*
X855456Y335339D02*
D03*
X800141Y327071D02*
D03*
X780456Y335339D02*
D03*
X725141Y327071D02*
D03*
X705456Y335339D02*
D03*
X650141Y327071D02*
D03*
X630456Y335339D02*
D03*
X575141Y327071D02*
D03*
X555456Y335339D02*
D03*
X500141Y327071D02*
D03*
X480456Y335339D02*
D03*
X425141Y327071D02*
D03*
X405456Y335339D02*
D03*
X350141Y327071D02*
D03*
X330456Y335339D02*
D03*
X275141Y327071D02*
D03*
X255456Y335339D02*
D03*
X200141Y327071D02*
D03*
X180456Y335339D02*
D03*
X125141Y327071D02*
D03*
X105456Y335339D02*
D03*
D17*
X1004590Y66835D02*
D03*
X817090D02*
D03*
X1154590Y366835D02*
D03*
X29590D02*
D03*
X1379590Y104335D02*
D03*
X1304590Y66835D02*
D03*
X1229590D02*
D03*
X1304590Y141835D02*
D03*
X1229590D02*
D03*
X1154590D02*
D03*
X1379590Y254335D02*
D03*
X1304590Y216835D02*
D03*
X1229590D02*
D03*
X1154590D02*
D03*
X1304590Y291835D02*
D03*
X1229590D02*
D03*
X1154590D02*
D03*
X1079590Y141835D02*
D03*
X1154590Y66835D02*
D03*
X1079590D02*
D03*
X920215D02*
D03*
X723340D02*
D03*
X629590D02*
D03*
X535840D02*
D03*
X460840D02*
D03*
X367090D02*
D03*
X273340D02*
D03*
X198340D02*
D03*
X123340D02*
D03*
X38965D02*
D03*
X976465Y141835D02*
D03*
X873340D02*
D03*
X798340D02*
D03*
X723340D02*
D03*
X648340D02*
D03*
X573340D02*
D03*
X498340D02*
D03*
X423340D02*
D03*
X348340D02*
D03*
X273340D02*
D03*
X198340D02*
D03*
X85840D02*
D03*
X1032715Y216835D02*
D03*
X910840D02*
D03*
X835840D02*
D03*
X760840D02*
D03*
X685840D02*
D03*
X610840D02*
D03*
X535840D02*
D03*
X460840D02*
D03*
X385840D02*
D03*
X310840D02*
D03*
X235840D02*
D03*
X160840D02*
D03*
X67090D02*
D03*
X1060840Y291835D02*
D03*
X967090D02*
D03*
X892090D02*
D03*
X817090D02*
D03*
X742090D02*
D03*
X667090D02*
D03*
X592090D02*
D03*
X517090D02*
D03*
X442090D02*
D03*
X367090D02*
D03*
X292090D02*
D03*
X217090D02*
D03*
X142090D02*
D03*
X48340D02*
D03*
X1379590Y366835D02*
D03*
X1304590D02*
D03*
X1228769Y366453D02*
D03*
X1042090Y366835D02*
D03*
X929590D02*
D03*
X854590D02*
D03*
X779590D02*
D03*
X704590D02*
D03*
X629590D02*
D03*
X554590D02*
D03*
X479590D02*
D03*
X404590D02*
D03*
X329590D02*
D03*
X254590D02*
D03*
X179590D02*
D03*
X104590D02*
D03*
D18*
X1025141Y50299D02*
D03*
X837641D02*
D03*
X1175141Y350299D02*
D03*
X50141D02*
D03*
X1400141Y87799D02*
D03*
X1325141Y50299D02*
D03*
X1250141D02*
D03*
X1325141Y125299D02*
D03*
X1250141D02*
D03*
X1175141D02*
D03*
X1400141Y237799D02*
D03*
X1325141Y200299D02*
D03*
X1250141D02*
D03*
X1175141D02*
D03*
X1325141Y275299D02*
D03*
X1250141D02*
D03*
X1175141D02*
D03*
X1100141Y125299D02*
D03*
X1175141Y50299D02*
D03*
X1100141D02*
D03*
X940766D02*
D03*
X743891D02*
D03*
X650141D02*
D03*
X556391D02*
D03*
X481391D02*
D03*
X387641D02*
D03*
X293891D02*
D03*
X218891D02*
D03*
X143891D02*
D03*
X59516D02*
D03*
X997016Y125299D02*
D03*
X893891D02*
D03*
X818891D02*
D03*
X743891D02*
D03*
X668891D02*
D03*
X593891D02*
D03*
X518891D02*
D03*
X443891D02*
D03*
X368891D02*
D03*
X293891D02*
D03*
X218891D02*
D03*
X106391D02*
D03*
X1053266Y200299D02*
D03*
X931391D02*
D03*
X856391D02*
D03*
X781391D02*
D03*
X706391D02*
D03*
X631391D02*
D03*
X556391D02*
D03*
X481391D02*
D03*
X406391D02*
D03*
X331391D02*
D03*
X256391D02*
D03*
X181391D02*
D03*
X87641D02*
D03*
X1081391Y275299D02*
D03*
X987641D02*
D03*
X912641D02*
D03*
X837641D02*
D03*
X762641D02*
D03*
X687641D02*
D03*
X612641D02*
D03*
X537641D02*
D03*
X462641D02*
D03*
X387641D02*
D03*
X312641D02*
D03*
X237641D02*
D03*
X162641D02*
D03*
X68891D02*
D03*
X1400141Y350299D02*
D03*
X1325141D02*
D03*
X1249320Y349917D02*
D03*
X1062641Y350299D02*
D03*
X950141D02*
D03*
X875141D02*
D03*
X800141D02*
D03*
X725141D02*
D03*
X650141D02*
D03*
X575141D02*
D03*
X500141D02*
D03*
X425141D02*
D03*
X350141D02*
D03*
X275141D02*
D03*
X200141D02*
D03*
X125141D02*
D03*
D19*
X1003488Y50299D02*
D03*
X1046795D02*
D03*
X815988D02*
D03*
X859295D02*
D03*
X1153488Y350299D02*
D03*
X1196795D02*
D03*
X28488D02*
D03*
X71795D02*
D03*
X1378488Y87799D02*
D03*
X1421795D02*
D03*
X1303488Y50299D02*
D03*
X1346795D02*
D03*
X1228488D02*
D03*
X1271795D02*
D03*
X1303488Y125299D02*
D03*
X1346795D02*
D03*
X1228488D02*
D03*
X1271795D02*
D03*
X1153488D02*
D03*
X1196795D02*
D03*
X1378488Y237799D02*
D03*
X1421795D02*
D03*
X1303488Y200299D02*
D03*
X1346795D02*
D03*
X1228488D02*
D03*
X1271795D02*
D03*
X1153488D02*
D03*
X1196795D02*
D03*
X1303488Y275299D02*
D03*
X1346795D02*
D03*
X1228488D02*
D03*
X1271795D02*
D03*
X1153488D02*
D03*
X1196795D02*
D03*
X1078488Y125299D02*
D03*
X1121795D02*
D03*
X1153488Y50299D02*
D03*
X1196795D02*
D03*
X1078488D02*
D03*
X1121795D02*
D03*
X919113D02*
D03*
X962420D02*
D03*
X722238D02*
D03*
X765545D02*
D03*
X628488D02*
D03*
X671795D02*
D03*
X534738D02*
D03*
X578045D02*
D03*
X459738D02*
D03*
X503045D02*
D03*
X365988D02*
D03*
X409295D02*
D03*
X272238D02*
D03*
X315545D02*
D03*
X197238D02*
D03*
X240545D02*
D03*
X122238D02*
D03*
X165545D02*
D03*
X37863D02*
D03*
X81170D02*
D03*
X975363Y125299D02*
D03*
X1018670D02*
D03*
X872238D02*
D03*
X915545D02*
D03*
X797238D02*
D03*
X840545D02*
D03*
X722238D02*
D03*
X765545D02*
D03*
X647238D02*
D03*
X690545D02*
D03*
X572238D02*
D03*
X615545D02*
D03*
X497238D02*
D03*
X540545D02*
D03*
X422238D02*
D03*
X465545D02*
D03*
X347238D02*
D03*
X390545D02*
D03*
X272238D02*
D03*
X315545D02*
D03*
X197238D02*
D03*
X240545D02*
D03*
X84738D02*
D03*
X128045D02*
D03*
X1031613Y200299D02*
D03*
X1074920D02*
D03*
X909738D02*
D03*
X953045D02*
D03*
X834738D02*
D03*
X878045D02*
D03*
X759738D02*
D03*
X803045D02*
D03*
X684738D02*
D03*
X728045D02*
D03*
X609738D02*
D03*
X653045D02*
D03*
X534738D02*
D03*
X578045D02*
D03*
X459738D02*
D03*
X503045D02*
D03*
X384738D02*
D03*
X428045D02*
D03*
X309738D02*
D03*
X353045D02*
D03*
X234738D02*
D03*
X278045D02*
D03*
X159738D02*
D03*
X203045D02*
D03*
X65988D02*
D03*
X109295D02*
D03*
X1059738Y275299D02*
D03*
X1103045D02*
D03*
X965988D02*
D03*
X1009295D02*
D03*
X890988D02*
D03*
X934295D02*
D03*
X815988D02*
D03*
X859295D02*
D03*
X740988D02*
D03*
X784295D02*
D03*
X665988D02*
D03*
X709295D02*
D03*
X590988D02*
D03*
X634295D02*
D03*
X515988D02*
D03*
X559295D02*
D03*
X440988D02*
D03*
X484295D02*
D03*
X365988D02*
D03*
X409295D02*
D03*
X290988D02*
D03*
X334295D02*
D03*
X215988D02*
D03*
X259295D02*
D03*
X140988D02*
D03*
X184295D02*
D03*
X47238D02*
D03*
X90545D02*
D03*
X1378488Y350299D02*
D03*
X1421795D02*
D03*
X1303488D02*
D03*
X1346795D02*
D03*
X1227667Y349917D02*
D03*
X1270974D02*
D03*
X1040988Y350299D02*
D03*
X1084295D02*
D03*
X928488D02*
D03*
X971795D02*
D03*
X853488D02*
D03*
X896795D02*
D03*
X778488D02*
D03*
X821795D02*
D03*
X703488D02*
D03*
X746795D02*
D03*
X628488D02*
D03*
X671795D02*
D03*
X553488D02*
D03*
X596795D02*
D03*
X478488D02*
D03*
X521795D02*
D03*
X403488D02*
D03*
X446795D02*
D03*
X328488D02*
D03*
X371795D02*
D03*
X253488D02*
D03*
X296795D02*
D03*
X178488D02*
D03*
X221795D02*
D03*
X103488D02*
D03*
X146795D02*
D03*
D20*
X1016000Y164500D02*
D03*
X744000D02*
D03*
X575000Y239500D02*
D03*
X444000Y164500D02*
D03*
X1135500Y352000D02*
D03*
X312500Y345000D02*
D03*
X537500D02*
D03*
X912500D02*
D03*
X875500Y239500D02*
D03*
X275000D02*
D03*
X1212500Y237500D02*
D03*
X983000Y46000D02*
D03*
X696500D02*
D03*
X340500D02*
D03*
X115500Y303000D02*
D03*
X46000Y96000D02*
D03*
X1404500Y295500D02*
D03*
Y46000D02*
D03*
D21*
X687500Y365000D02*
D03*
M02*
