M48
;Layer_Color=9474304
;FILE_FORMAT=2:5
INCH,TZ
;TYPE=PLATED
T1F00S00C0.01000
T2F00S00C0.04724
T3F00S00C0.05118
T4F00S00C0.07480
T5F00S00C0.09500
T6F00S00C0.13386
%
T01
X67404Y37928
X72082Y65250
Y68750
Y72250
X58082Y71750
X46582Y65750
X130957
X142457Y71750
X152957Y36750
X115457Y111750
X118957Y140250
Y143750
Y147250
X104957Y146750
X93457Y140750
X158500Y123153
Y120153
X156457Y72250
Y68750
Y65250
X205957Y65750
X217457Y71750
X231457Y72250
Y68750
Y65250
X227957Y36750
X302957
X306457Y65250
Y68750
Y72250
X292457Y71750
X280957Y65750
X301779Y112928
X306457Y140250
Y143750
Y147250
X292457Y146750
X280957Y140750
X231457Y140250
Y143750
Y147250
X217457Y146750
X205957Y140750
X226779Y112928
X376779
X381457Y140250
Y143750
Y147250
X367457Y146750
X355957Y140750
X430957
X442457Y146750
X456457Y147250
Y143750
Y140250
X452957Y111750
X468457Y65750
X400207Y65250
Y68750
Y72250
X386207Y71750
X374707Y65750
X396707Y36750
X490457
X493957Y65250
Y68750
Y72250
X479957Y71750
X477000Y120153
Y123153
X505957Y140750
X517457Y146750
X531457Y147250
Y143750
Y140250
X527957Y111750
X543457Y65750
X554957Y71750
X568957Y72250
Y68750
Y65250
X565457Y36750
X602957Y111750
X606457Y140250
Y143750
Y147250
X592457Y146750
X580957Y140750
X655957
X667457Y146750
X681457Y147250
Y143750
Y140250
X677957Y111750
X662707Y72250
Y68750
Y65250
X648707Y71750
X637207Y65750
X659207Y36750
X752957
X756457Y65250
Y68750
Y72250
X742457Y71750
X730957Y65750
X752957Y111750
X756457Y140250
Y143750
Y147250
X742457Y146750
X730957Y140750
X777000Y123153
Y120153
X805957Y140750
X817457Y146750
X831457Y147250
Y143750
Y140250
X827957Y111750
X836207Y71750
X850207Y72250
Y68750
Y65250
X824707Y65750
X846707Y36750
X927832Y65750
X902957Y111750
X906457Y140250
Y143750
Y147250
X892457Y146750
X880957Y140750
X984082
X995582Y146750
X1009582Y147250
Y143750
Y140250
X1031331Y134250
X1006082Y111750
X1012207Y65750
X1023707Y71750
X1037707Y72250
Y68750
Y65250
X1030023Y59250
X1034207Y36750
X1087207Y65750
Y140750
X953332Y72250
Y68750
Y65250
X939332Y71750
X949832Y36750
X1109207
X1112707Y65250
Y68750
Y72250
X1098707Y71750
X1109207Y111750
X1112707Y140250
Y143750
Y147250
X1098707Y146750
X1133207Y123153
Y120153
X1162207Y140750
X1173707Y146750
X1187707Y147250
Y143750
Y140250
X1184207Y111750
X1187707Y72250
Y68750
Y65250
X1173707Y71750
X1162207Y65750
X1184207Y36750
X1237207Y65750
X1248707Y71750
X1248707Y146750
X1237207Y140750
X1262707Y140250
Y143750
Y147250
X1259207Y111750
X1262707Y72250
Y68750
Y65250
X1259207Y36750
X1334207
X1337707Y65250
Y68750
Y72250
X1323707Y71750
X1312207Y65750
X1334207Y111750
X1337707Y140250
Y143750
Y147250
X1323707Y146750
X1312207Y140750
X1387207Y103250
X1398707Y109250
X1412707Y109750
Y106250
Y102750
X1409207Y74250
Y224250
X1412707Y252750
Y256250
Y259750
X1398707Y259250
X1387207Y253250
X1334207Y261750
X1337707Y290250
Y293750
Y297250
X1323707Y296750
X1322000Y308500
Y311000
X1328000
Y308500
X1312207Y290750
X1287000Y289000
X1284500
Y281000
X1287000
X1283207Y268500
Y265500
X1259207Y261750
X1262707Y290250
Y293750
Y297250
X1252500Y308500
Y311000
X1262707Y222250
Y218750
Y215250
X1259207Y186750
X1334207
X1337707Y215250
Y218750
Y222250
X1323707Y221750
X1312207Y215750
X1397000Y308500
Y311000
X1403000
Y308500
X1246500
Y311000
X1248707Y296750
X1237207Y290750
X1212000Y289000
X1209500
Y281000
X1212000
X1187707Y290250
Y293750
Y297250
X1173707Y296750
X1172500Y308500
Y311000
X1178500
Y308500
X1162207Y290750
X1118500Y289000
X1116000
Y281000
X1118500
X1093957Y290250
Y293750
Y297250
X1184207Y261750
X1187707Y222250
Y218750
Y215250
X1173707Y221750
X1162207Y215750
X1184207Y186750
X1211110Y189844
X1214110
X1237207Y215750
X1248707Y221750
X1065832Y222250
Y218750
Y215250
X1051832Y221750
X1040332Y215750
X1014589Y209250
X1019250Y274750
X1029250Y269250
X1031250Y279750
X1034250Y280250
X1037250
X1040250Y279750
X1044750Y280250
X1042250Y269250
X1031750Y291750
X1034750Y302250
X1039750
X1044750
X1029250Y302750
X1025750
X1000207Y297250
Y293750
Y290250
X1012494Y284250
X996707Y261750
X986207Y296750
X974707Y290750
X949500Y289000
X947000
Y281000
X949500
X945750Y268500
Y265500
X947000Y302000
X949500
X943957Y222250
Y218750
Y215250
X940457Y186750
X1062332
X1090457Y261750
X1079957Y296750
X1075500Y308500
Y311000
X1069500
Y308500
X1068457Y290750
X925207Y290250
Y293750
Y297250
X911207Y296750
X908000Y302000
X899707Y290750
X874500Y289000
X872000
Y281000
X874500
Y302000
X872000
X850207Y297250
Y293750
Y290250
X824707Y290750
X825000Y296500
X824000Y311500
X827000
X833000
X836000
X842500Y309500
X846707Y261750
X854957Y221750
X868957Y222250
Y218750
Y215250
X843457Y215750
X793957Y215250
Y218750
Y222250
X790457Y186750
X865457
X918457Y215750
X929957Y221750
X921707Y261750
X799500Y281000
X797000
Y289000
X799500
X789500Y304000
X787000
X775207Y297250
Y293750
Y290250
X761207Y296750
X749707Y290750
X724500Y289000
X722000
Y281000
X724500
Y304000
X722000
X700207Y297250
Y293750
Y290250
X686207Y296750
X674707Y290750
X649500Y289000
X647000
Y281000
X649500
X645750Y268500
Y265500
X648000Y304000
X650500
X639500Y304500
Y311000
X626500Y310500
X625207Y297250
Y293750
Y290250
X629957Y221750
X643957Y222250
Y218750
Y215250
X640457Y186750
X715457
X742404Y189844
X745404
X768457Y215750
X779957Y221750
X771707Y261750
X696707
X704957Y221750
X718957Y222250
Y218750
Y215250
X693457Y215750
X618457
X621707Y261750
X611207Y296750
X599707Y290750
X574500Y289000
X572000
Y281000
X574500
X550207Y290250
Y293750
Y297250
X536207Y296750
X524707Y290750
X499500Y289000
X497000
Y281000
X499500
X475207Y290250
Y293750
Y297250
X471707Y261750
X479957Y221750
X493957Y222250
Y218750
Y215250
X490457Y186750
X565457
X568957Y215250
Y218750
Y222250
X554957Y221750
X543457Y215750
X546707Y261750
X559500Y307500
X562000
X518250Y312250
X618500Y309500
X621500
X458000Y310000
X461207Y296750
X449707Y290750
X424500Y289000
X422000
Y281000
X424500
X400207Y290250
Y293750
Y297250
X386207Y296750
X390500Y309500
X393000
X374707Y290750
X349500Y289000
X347000
Y281000
X349500
X345750Y268500
Y265500
X321707Y261750
X325207Y290250
Y293750
Y297250
X315000Y310000
X312500
X318457Y215750
X329957Y221750
X343957Y222250
Y218750
Y215250
X340457Y186750
X415457
X418957Y215250
Y218750
Y222250
X404957Y221750
X393457Y215750
X396707Y261750
X468457Y215750
X268957Y215250
Y218750
Y222250
X254957Y221750
X243457Y215750
X220404Y189844
X217404
X190457Y186750
X193957Y215250
Y218750
Y222250
X179957Y221750
X168457Y215750
X171707Y261750
X175207Y290250
Y293750
Y297250
X161207Y296750
X158000Y310000
X197000Y289000
X199500
Y281000
X197000
X224707Y290750
X236207Y296750
X235000Y310000
X237500
X250207Y297250
Y293750
Y290250
X272000Y289000
X274500
Y281000
X272000
X299707Y290750
X311207Y296750
X246707Y261750
X265457Y186750
X96707
X100207Y215250
Y218750
Y222250
X86207Y221750
X74707Y215750
X77957Y261750
X81457Y290250
Y293750
Y297250
X67457Y296750
X55957Y290750
X53000Y308500
Y311000
X47000
Y308500
X114000Y289000
X116500
Y281000
X114000
X149707Y290750
X129000Y319000
X127500Y320500
X131500Y324500
X133000Y323000
X134207Y336750
X137707Y365250
Y368750
Y372250
X123707Y371750
X112207Y365750
X62707Y365250
Y368750
Y372250
X61500Y361000
X64000
X66500
Y355000
X64000
X61500
X59207Y336750
X68864Y339573
X73864Y329573
Y326073
X74000Y323000
Y320000
X74750Y317250
Y313750
X86864Y317073
X85864Y320073
X86864Y323073
Y327073
X90000Y333500
X97000Y327500
X53000Y313500
X47000
X37250Y355250
X37207Y365750
X48707Y371750
X159500Y366000
X162000
X164500
Y357000
X162000
X159500
Y345000
X162000
X164500
Y337500
X162000
X159500
X158000Y323000
Y320000
X202500Y320500
X204000Y319000
X206500Y324500
X208000Y323000
X209207Y336750
X212707Y365250
Y368750
Y372250
X198707Y371750
X187207Y365750
X262207
X273707Y371750
X287707Y372250
Y368750
Y365250
X309500Y365500
X312000
Y356500
X309500
X284207Y336750
X281500Y324500
X283000Y323000
X279000Y319000
X277500Y320500
X237500Y319500
X235000
X312500
X315000
X314500Y356500
Y365500
X337207Y365750
X348707Y371750
X362707Y372250
Y368750
Y365250
X359207Y336750
X356500Y324500
X358000Y323000
X354000Y319000
X352500Y320500
X390500Y319000
X393000
X429000
X427500Y320500
X431500Y324500
X433000Y323000
X434207Y336750
X437707Y365250
Y368750
Y372250
X423707Y371750
X412207Y365750
X460000Y365500
X462500
X465000
Y359500
X462500
X460000
X458000Y323000
Y320000
X502500Y320500
X504000Y319000
X506500Y324500
X508000Y323000
X513250Y317250
X523750Y319750
Y322750
Y326250
Y329750
X537250Y330750
X536750Y327250
Y323250
X535750Y320250
X536750Y317250
X547750Y326750
X559500Y318000
X562000
X579000Y319000
X577500Y320500
X581500Y324500
X583000Y323000
X587000Y326000
X593500Y319500
X599000Y320000
Y317000
Y325000
Y331000
Y334500
X592500
X584207Y336750
X611000Y334500
Y331000
X614500
Y334500
X611000Y325000
Y322000
Y319000
X614500Y321000
Y313500
X618000Y344500
X621000
X624000
X587707Y365250
Y368750
Y372250
X573707Y371750
X562207Y365750
X542750
Y355750
X529750Y369250
X512707Y368750
Y365250
Y372250
X498707Y371750
X487207Y365750
X509207Y336750
X518750Y339750
X626500Y331500
X626000Y324500
Y321000
Y317000
X626500Y313500
X633000Y318000
X634000Y329500
X640000
Y325000
X648000Y317500
X650500
X652500Y320500
X654000Y319000
X658000Y323000
X656500Y324500
X659207Y336750
X662707Y365250
Y368750
Y372250
X648707Y371750
X637207Y365750
X687500Y365000
X690000
X692500
X712207Y365750
X723707Y371750
X737707Y372250
Y368750
Y365250
X734207Y336750
X731500Y324500
X733000Y323000
X729000Y319000
X727500Y320500
X724500Y317500
X722000
X685207Y323750
Y327250
X687500Y331500
X690000
X692500
X787000Y320000
X789500
X803000Y320500
X804500Y319000
X808500Y323000
X807000Y324500
X809207Y336750
X824000Y337000
Y340000
X827000Y341500
X830000
X833000
X836000Y340000
Y337000
X839500
Y340000
Y333500
Y330500
Y327500
Y324500
Y321500
Y318500
Y315500
Y312500
X836000Y314500
Y317500
Y321500
Y324500
Y329000
Y332000
X824000
Y329000
Y324500
Y321500
Y318000
Y314500
X851500Y315500
Y312500
Y318500
Y321500
Y324500
Y327500
Y330500
Y340000
X848500Y344000
X845500
X842500
X840000Y356000
X837500
X835000
Y365000
X837500
X840000
X862207Y365750
X873707Y371750
X887707Y372250
Y368750
Y365250
X884207Y336750
X883500Y323000
X882000Y324500
X878000Y320500
X879500Y319000
X874500Y315500
X872000
X907750Y320000
Y323000
X937207Y365750
X812707Y365250
Y368750
Y372250
X798707Y371750
X787207Y365750
X948707Y371750
X962707Y372250
Y368750
Y365250
X959207Y336750
X958500Y323000
X957000Y324500
X953000Y320500
X954500Y319000
X949500Y315500
X947000
X989000Y327500
X1000213Y324479
X1011213Y329979
X1022713Y331979
Y335479
Y338479
X1026000Y337500
X1028500
Y347000
X1026000
X1031500Y357000
X1049707Y365750
X1061207Y371750
X1075207Y372250
Y368750
Y365250
X1071707Y336750
X1079000Y336000
X1081500
Y325500
X1079000
Y319000
X1081500
X1075500Y313500
X1069500
X1024213Y313979
X1016713
X999500Y357500
X997000
X994500
Y365000
X997000
X999500
X987213Y348479
X1103000Y345000
X1101670Y325979
X1101500Y318500
X1113170Y321979
X1112670Y329479
Y332479
X1124170Y339979
X1135670Y335979
X1137170Y313979
X1129670
X1172500Y313500
X1178500
X1188707Y315250
Y318250
X1184207Y336750
X1193707Y339250
X1201500Y342500
Y345000
X1207500
Y342500
X1211707Y331250
Y327250
Y323250
X1223886Y329368
X1246500Y313500
X1247886Y371368
X1236386Y365368
X1187707Y365250
Y368750
Y372250
X1173707Y371750
X1162207Y365750
X1121000Y365000
X1118500
X1116000
Y359000
X1118500
X1121000
X1261886Y364868
Y368368
Y371868
X1258386Y336368
X1252500Y313500
X1282707Y320000
Y323000
X1322000Y313500
X1328000
X1334207Y336750
X1337707Y365250
Y368750
Y372250
X1323707Y371750
X1312207Y365750
X1387207
X1398707Y371750
X1397000Y313500
X1403000
X1409207Y336750
X1412707Y365250
Y368750
Y372250
T02
X39831Y35339
X59516Y27071
X38965Y66835
X123340
X124206Y35339
X143891Y27071
X106391Y102071
X86706Y110339
X85840Y141835
X198340
X199206Y110339
X218891Y102071
X198340Y66835
X199206Y35339
X218891Y27071
X274206Y35339
X293891Y27071
X273340Y66835
X274206Y110339
X293891Y102071
X273340Y141835
X348340
X349206Y110339
X368891Y102071
X367090Y66835
X367956Y35339
X387641Y27071
X461706Y35339
X460840Y66835
X443891Y102071
X424206Y110339
X423340Y141835
X498340
X499206Y110339
X518891Y102071
X535840Y66835
X536706Y35339
X556391Y27071
X481391
X574206Y110339
X593891Y102071
X573340Y141835
X648340
X649206Y110339
X668891Y102071
X724206Y110339
X743891Y102071
X723340Y66835
X724206Y35339
X743891Y27071
X650141
X630456Y35339
X629590Y66835
X723340Y141835
X798340
X799206Y110339
X818891Y102071
X817090Y66835
X817956Y35339
X837641Y27071
X921081Y35339
X920215Y66835
X893891Y102071
X874206Y110339
X873340Y141835
X976465
X977331Y110339
X997016Y102071
X1004590Y66835
X1005456Y35339
X1025141Y27071
X1080456Y35339
X1079590Y66835
X1080456Y110339
X1079590Y141835
X940766Y27071
X1100141
X1155456Y35339
X1175141Y27071
X1154590Y66835
X1155456Y110339
X1175141Y102071
X1154590Y141835
X1229590
X1230456Y110339
X1229590Y66835
X1230456Y35339
X1100141Y102071
X1250141
X1305456Y110339
X1325141Y102071
X1304590Y66835
X1305456Y35339
X1325141Y27071
X1250141
X1304590Y141835
X1379590Y104335
X1380456Y72839
X1400141Y64571
Y214571
X1380456Y222839
X1379590Y254335
X1325141Y252071
X1305456Y260339
X1304590Y291835
Y216835
X1305456Y185339
X1325141Y177071
X1250141
Y252071
X1230456Y260339
X1229590Y291835
Y216835
X1230456Y185339
X1175141Y177071
X1155456Y185339
X1154590Y216835
X1155456Y260339
X1175141Y252071
X1154590Y291835
X1060840
X1061706Y260339
X1081391Y252071
X1032715Y216835
X1033581Y185339
X1053266Y177071
X987641Y252071
X967956Y260339
X967090Y291835
X892090
X892956Y260339
X912641Y252071
X910840Y216835
X911706Y185339
X931391Y177071
X856391
X836706Y185339
X835840Y216835
X837641Y252071
X817956Y260339
X817090Y291835
X781391Y177071
X761706Y185339
X760840Y216835
X762641Y252071
X742956Y260339
X742090Y291835
X667090
X667956Y260339
X687641Y252071
X685840Y216835
X686706Y185339
X706391Y177071
X631391
X611706Y185339
X610840Y216835
X612641Y252071
X592956Y260339
X592090Y291835
X517090
X517956Y260339
X537641Y252071
X535840Y216835
X536706Y185339
X556391Y177071
X481391
X461706Y185339
X460840Y216835
X462641Y252071
X442956Y260339
X442090Y291835
X367090
X367956Y260339
X387641Y252071
X385840Y216835
X386706Y185339
X406391Y177071
X331391
X312641Y252071
X292956Y260339
X292090Y291835
X217090
X217956Y260339
X237641Y252071
X235840Y216835
X236706Y185339
X256391Y177071
X311706Y185339
X310840Y216835
X160840
X161706Y185339
X181391Y177071
X162641Y252071
X142956Y260339
X142090Y291835
X48340
X49206Y260339
X68891Y252071
X67090Y216835
X67956Y185339
X87641Y177071
X105456Y335339
X125141Y327071
X104590Y366835
X29590
X30456Y335339
X50141Y327071
X180456Y335339
X200141Y327071
X179590Y366835
X254590
X255456Y335339
X275141Y327071
X330456Y335339
X350141Y327071
X329590Y366835
X404590
X405456Y335339
X425141Y327071
X480456Y335339
X500141Y327071
X479590Y366835
X554590
X555456Y335339
X575141Y327071
X630456Y335339
X650141Y327071
X629590Y366835
X704590
X705456Y335339
X725141Y327071
X780456Y335339
X779590Y366835
X800141Y327071
X855456Y335339
X875141Y327071
X854590Y366835
X929590
X930456Y335339
X950141Y327071
X1042956Y335339
X1062641Y327071
X1042090Y366835
X1154590
X1155456Y335339
X1175141Y327071
X1229635Y334957
X1249320Y326689
X1228769Y366453
X1304590Y366835
X1305456Y335339
X1325141Y327071
X1380456Y335339
X1400141Y327071
X1379590Y366835
T03
X837641Y306776
X612641
Y346539
X837641
T04
X37863Y50299
X81170
X122238
X128045Y125299
X84738
X197238
X240545
X272238
Y50299
X240545
X197238
X165545
X315545
X365988
X409295
X459738
X465545Y125299
X422238
X390545
X347238
X315545
X497238
X540545
X572238
X615545
X578045Y50299
X534738
X503045
X628488
X671795
X722238
X765545
Y125299
X722238
X690545
X647238
X797238
X840545
X872238
X915545
X919113Y50299
X859295
X815988
X962420
X1003488
X1046795
X1078488
Y125299
X1018670
X975363
X1121795
X1153488
X1196795
X1228488
X1228488Y50299
X1196795
X1153488
X1121795
X1271795
X1303488
X1346795
X1378488Y87799
X1346795Y125299
X1303488
X1271795
X1421795Y87799
Y237799
X1378488
X1346795Y200299
X1303488
X1271795
Y275299
X1303488
X1346795
X1228488
X1196795
X1153488
X1103045
X1153488Y200299
X1196795
X1228488
X1074920
X1031613
X953045
X965988Y275299
X1009295
X1059738
X934295
X890988
X859295
X815988
X784295
X803045Y200299
X834738
X878045
X909738
X759738
X728045
X684738
X653045
X665988Y275299
X634295
X709295
X740988
X590988
X559295
X515988
X484295
X503045Y200299
X534738
X578045
X609738
X459738
X428045
X384738
X353045
X365988Y275299
X334295
X409295
X440988
X290988
X259295
X215988
X184295
X203045Y200299
X234738
X278045
X309738
X159738
X109295
X65988
X47238Y275299
X90545
X140988
X146795Y350299
X103488
X71795
X28488
X178488
X221795
X253488
X296795
X328488
X371795
X403488
X446795
X478488
X521795
X553488
X596795
X628488
X671795
X703488
X746795
X778488
X821795
X853488
X896795
X928488
X971795
X1040988
X1084295
X1153488
X1196795
X1227667Y349917
X1270974
X1303488Y350299
X1346795
X1378488
X1421795
T05
X46000Y96000
X340500Y46000
X696500
X983000
X1404500
Y295500
X1212500Y237500
X1016000Y164500
X875500Y239500
X744000Y164500
X575000Y239500
X444000Y164500
X275000Y239500
X115500Y303000
X312500Y345000
X537500
X912500
X1135500Y352000
T06
X59516Y50299
X143891
X106391Y125299
X218891
Y50299
X293891
Y125299
X368891
X443891
X387641Y50299
X481391
X556391
X593891Y125299
X518891
X668891
X743891
Y50299
X650141
X837641
X818891Y125299
X893891
X997016
X1025141Y50299
X940766
X1100141
Y125299
X1175141
X1175141Y50299
X1250141
X1325141
Y125299
X1250141
X1400141Y87799
Y237799
X1325141Y200299
X1250141
Y275299
X1325141
X1175141
Y200299
X1053266
X1081391Y275299
X987641
X912641
X837641
X856391Y200299
X931391
X781391
X706391
X631391
X687641Y275299
X762641
X612641
X537641
X556391Y200299
X481391
X406391
X331391
X312641Y275299
X387641
X462641
X237641
X162641
X181391Y200299
X256391
X87641
X68891Y275299
X50141Y350299
X125141
X200141
X275141
X350141
X425141
X500141
X575141
X650141
X725141
X800141
X875141
X950141
X1062641
X1175141
X1249320Y349917
X1325141Y350299
X1400141
M30
